version 1
nodes
  0 "static_prop" -1
end
skeleton
  time 0
    0 0.000000 0.000000 0.000000 0.000000 0.000000 0.000000
end
triangles
ceiling_light
  0 -1.206769 -2.913397 -1.972757 0.358537 0.865584 -0.349595 0.438686 0.953386 1 0 1.000000
  0 -1.990959 -1.990959 -1.067473 0.662490 0.662489 -0.349594 0.376210 0.999799 1 0 1.000000
  0 -1.077499 -2.601313 -1.067473 0.358536 0.865584 -0.349595 0.438686 0.999799 1 0 1.000000
ceiling_light
  0 -1.206769 -2.913397 -1.972757 0.358537 0.865584 -0.349595 0.438686 0.953386 1 0 1.000000
  0 -2.229817 -2.229817 -1.972757 0.662489 0.662489 -0.349594 0.376210 0.953386 1 0 1.000000
  0 -1.990959 -1.990959 -1.067473 0.662490 0.662489 -0.349594 0.376210 0.999799 1 0 1.000000
ceiling_light
  0 -2.229817 -2.229817 -1.972757 0.662489 0.662489 -0.349594 0.376210 0.953386 1 0 1.000000
  0 -2.601313 -1.077499 -1.067473 0.865583 0.358537 -0.349595 0.313738 0.999799 1 0 1.000000
  0 -1.990959 -1.990959 -1.067473 0.662490 0.662489 -0.349594 0.376210 0.999799 1 0 1.000000
ceiling_light
  0 -2.229817 -2.229817 -1.972757 0.662489 0.662489 -0.349594 0.376210 0.953386 1 0 1.000000
  0 -2.913397 -1.206769 -1.972757 0.865583 0.358537 -0.349595 0.313738 0.953386 1 0 1.000000
  0 -2.601313 -1.077499 -1.067473 0.865583 0.358537 -0.349595 0.313738 0.999799 1 0 1.000000
ceiling_light
  0 -2.913397 -1.206769 -1.972757 0.865583 0.358537 -0.349595 0.313738 0.953386 1 0 1.000000
  0 -2.815641 0.000000 -1.067473 0.936901 0.000000 -0.349595 0.251265 0.999799 1 0 1.000000
  0 -2.601313 -1.077499 -1.067473 0.865583 0.358537 -0.349595 0.313738 0.999799 1 0 1.000000
ceiling_light
  0 -2.913397 -1.206769 -1.972757 0.865583 0.358537 -0.349595 0.313738 0.953386 1 0 1.000000
  0 -3.153438 0.000000 -1.972757 0.936901 0.000000 -0.349595 0.251265 0.953386 1 0 1.000000
  0 -2.815641 0.000000 -1.067473 0.936901 0.000000 -0.349595 0.251265 0.999799 1 0 1.000000
ceiling_light
  0 -3.153438 0.000000 -1.972757 0.936901 0.000000 -0.349595 0.251265 0.953386 1 0 1.000000
  0 -2.601313 1.077499 -1.067473 0.865584 -0.358536 -0.349595 0.188792 0.999799 1 0 1.000000
  0 -2.815641 0.000000 -1.067473 0.936901 0.000000 -0.349595 0.251265 0.999799 1 0 1.000000
ceiling_light
  0 -3.153438 0.000000 -1.972757 0.936901 0.000000 -0.349595 0.251265 0.953386 1 0 1.000000
  0 -2.913397 1.206769 -1.972757 0.865584 -0.358537 -0.349595 0.188792 0.953386 1 0 1.000000
  0 -2.601313 1.077499 -1.067473 0.865584 -0.358536 -0.349595 0.188792 0.999799 1 0 1.000000
ceiling_light
  0 -2.913397 1.206769 -1.972757 0.865584 -0.358537 -0.349595 0.188792 0.953386 1 0 1.000000
  0 -1.990959 1.990959 -1.067473 0.662489 -0.662490 -0.349594 0.126319 0.999799 1 0 1.000000
  0 -2.601313 1.077499 -1.067473 0.865584 -0.358536 -0.349595 0.188792 0.999799 1 0 1.000000
ceiling_light
  0 -2.913397 1.206769 -1.972757 0.865584 -0.358537 -0.349595 0.188792 0.953386 1 0 1.000000
  0 -2.229817 2.229817 -1.972757 0.662489 -0.662489 -0.349594 0.126319 0.953386 1 0 1.000000
  0 -1.990959 1.990959 -1.067473 0.662489 -0.662490 -0.349594 0.126319 0.999799 1 0 1.000000
ceiling_light
  0 -2.229817 2.229817 -1.972757 0.662489 -0.662489 -0.349594 0.126319 0.953386 1 0 1.000000
  0 -1.077499 2.601313 -1.067473 0.358537 -0.865583 -0.349595 0.063844 0.999799 1 0 1.000000
  0 -1.990959 1.990959 -1.067473 0.662489 -0.662490 -0.349594 0.126319 0.999799 1 0 1.000000
ceiling_light
  0 -2.229817 2.229817 -1.972757 0.662489 -0.662489 -0.349594 0.126319 0.953386 1 0 1.000000
  0 -1.206769 2.913397 -1.972757 0.358537 -0.865583 -0.349595 0.063844 0.953386 1 0 1.000000
  0 -1.077499 2.601313 -1.067473 0.358537 -0.865583 -0.349595 0.063844 0.999799 1 0 1.000000
ceiling_light
  0 -1.206769 2.913397 -1.972757 0.358537 -0.865583 -0.349595 0.063844 0.953386 1 0 1.000000
  0 0.000000 2.815641 -1.067473 0.000000 -0.936901 -0.349595 0.000273 0.999799 1 0 1.000000
  0 -1.077499 2.601313 -1.067473 0.358537 -0.865583 -0.349595 0.063844 0.999799 1 0 1.000000
ceiling_light
  0 -1.206769 2.913397 -1.972757 0.358537 -0.865583 -0.349595 0.063844 0.953386 1 0 1.000000
  0 0.000000 3.153438 -1.972757 0.000000 -0.936901 -0.349595 0.000273 0.953386 1 0 1.000000
  0 0.000000 2.815641 -1.067473 0.000000 -0.936901 -0.349595 0.000273 0.999799 1 0 1.000000
ceiling_light
  0 0.000000 3.153438 -1.972757 0.000000 -0.936901 -0.349595 0.999868 0.953386 1 0 1.000000
  0 1.077499 2.601313 -1.067473 -0.358536 -0.865584 -0.349595 0.938470 0.999799 1 0 1.000000
  0 0.000000 2.815641 -1.067473 0.000000 -0.936901 -0.349595 0.999868 0.999799 1 0 1.000000
ceiling_light
  0 0.000000 3.153438 -1.972757 0.000000 -0.936901 -0.349595 0.999868 0.953386 1 0 1.000000
  0 1.206769 2.913397 -1.972757 -0.358537 -0.865584 -0.349595 0.938470 0.953386 1 0 1.000000
  0 1.077499 2.601313 -1.067473 -0.358536 -0.865584 -0.349595 0.938470 0.999799 1 0 1.000000
ceiling_light
  0 1.206769 2.913397 -1.972757 -0.358537 -0.865584 -0.349595 0.938470 0.953386 1 0 1.000000
  0 1.990959 1.990959 -1.067473 -0.662490 -0.662489 -0.349594 0.875997 0.999799 1 0 1.000000
  0 1.077499 2.601313 -1.067473 -0.358536 -0.865584 -0.349595 0.938470 0.999799 1 0 1.000000
ceiling_light
  0 1.206769 2.913397 -1.972757 -0.358537 -0.865584 -0.349595 0.938470 0.953386 1 0 1.000000
  0 2.229817 2.229817 -1.972757 -0.662489 -0.662489 -0.349594 0.875997 0.953386 1 0 1.000000
  0 1.990959 1.990959 -1.067473 -0.662490 -0.662489 -0.349594 0.875997 0.999799 1 0 1.000000
ceiling_light
  0 2.229817 2.229817 -1.972757 -0.662489 -0.662489 -0.349594 0.875997 0.953386 1 0 1.000000
  0 2.601313 1.077499 -1.067473 -0.865583 -0.358537 -0.349595 0.813524 0.999799 1 0 1.000000
  0 1.990959 1.990959 -1.067473 -0.662490 -0.662489 -0.349594 0.875997 0.999799 1 0 1.000000
ceiling_light
  0 2.229817 2.229817 -1.972757 -0.662489 -0.662489 -0.349594 0.875997 0.953386 1 0 1.000000
  0 2.913397 1.206769 -1.972757 -0.865583 -0.358537 -0.349595 0.813524 0.953386 1 0 1.000000
  0 2.601313 1.077499 -1.067473 -0.865583 -0.358537 -0.349595 0.813524 0.999799 1 0 1.000000
ceiling_light
  0 2.913397 1.206769 -1.972757 -0.865583 -0.358537 -0.349595 0.813524 0.953386 1 0 1.000000
  0 2.815641 0.000000 -1.067473 -0.936901 0.000000 -0.349595 0.751052 0.999799 1 0 1.000000
  0 2.601313 1.077499 -1.067473 -0.865583 -0.358537 -0.349595 0.813524 0.999799 1 0 1.000000
ceiling_light
  0 2.913397 1.206769 -1.972757 -0.865583 -0.358537 -0.349595 0.813524 0.953386 1 0 1.000000
  0 3.153438 0.000000 -1.972757 -0.936901 0.000000 -0.349595 0.751052 0.953386 1 0 1.000000
  0 2.815641 0.000000 -1.067473 -0.936901 0.000000 -0.349595 0.751052 0.999799 1 0 1.000000
ceiling_light
  0 3.153438 0.000000 -1.972757 -0.936901 0.000000 -0.349595 0.751052 0.953386 1 0 1.000000
  0 2.601313 -1.077499 -1.067473 -0.865584 0.358536 -0.349595 0.688577 0.999799 1 0 1.000000
  0 2.815641 0.000000 -1.067473 -0.936901 0.000000 -0.349595 0.751052 0.999799 1 0 1.000000
ceiling_light
  0 3.153438 0.000000 -1.972757 -0.936901 0.000000 -0.349595 0.751052 0.953386 1 0 1.000000
  0 2.913397 -1.206769 -1.972757 -0.865584 0.358537 -0.349595 0.688577 0.953386 1 0 1.000000
  0 2.601313 -1.077499 -1.067473 -0.865584 0.358536 -0.349595 0.688577 0.999799 1 0 1.000000
ceiling_light
  0 2.913397 -1.206769 -1.972757 -0.865584 0.358537 -0.349595 0.688577 0.953386 1 0 1.000000
  0 1.990959 -1.990959 -1.067473 -0.662489 0.662490 -0.349594 0.626104 0.999799 1 0 1.000000
  0 2.601313 -1.077499 -1.067473 -0.865584 0.358536 -0.349595 0.688577 0.999799 1 0 1.000000
ceiling_light
  0 2.913397 -1.206769 -1.972757 -0.865584 0.358537 -0.349595 0.688577 0.953386 1 0 1.000000
  0 2.229817 -2.229817 -1.972757 -0.662489 0.662489 -0.349594 0.626104 0.953386 1 0 1.000000
  0 1.990959 -1.990959 -1.067473 -0.662489 0.662490 -0.349594 0.626104 0.999799 1 0 1.000000
ceiling_light
  0 2.229817 -2.229817 -1.972757 -0.662489 0.662489 -0.349594 0.626104 0.953386 1 0 1.000000
  0 1.077499 -2.601313 -1.067473 -0.358537 0.865583 -0.349595 0.563631 0.999799 1 0 1.000000
  0 1.990959 -1.990959 -1.067473 -0.662489 0.662490 -0.349594 0.626104 0.999799 1 0 1.000000
ceiling_light
  0 2.229817 -2.229817 -1.972757 -0.662489 0.662489 -0.349594 0.626104 0.953386 1 0 1.000000
  0 1.206769 -2.913397 -1.972757 -0.358537 0.865583 -0.349595 0.563631 0.953386 1 0 1.000000
  0 1.077499 -2.601313 -1.067473 -0.358537 0.865583 -0.349595 0.563631 0.999799 1 0 1.000000
ceiling_light
  0 1.206769 -2.913397 -1.972757 -0.358537 0.865583 -0.349595 0.563631 0.953386 1 0 1.000000
  0 0.000000 -2.815641 -1.067473 0.000000 0.936901 -0.349595 0.501158 0.999799 1 0 1.000000
  0 1.077499 -2.601313 -1.067473 -0.358537 0.865583 -0.349595 0.563631 0.999799 1 0 1.000000
ceiling_light
  0 1.206769 -2.913397 -1.972757 -0.358537 0.865583 -0.349595 0.563631 0.953386 1 0 1.000000
  0 0.000000 -3.153438 -1.972757 0.000000 0.936901 -0.349595 0.501158 0.953386 1 0 1.000000
  0 0.000000 -2.815641 -1.067473 0.000000 0.936901 -0.349595 0.501158 0.999799 1 0 1.000000
ceiling_light
  0 0.000000 -3.153438 -1.972757 0.000000 0.936901 -0.349595 0.501158 0.953386 1 0 1.000000
  0 -1.077499 -2.601313 -1.067473 0.358536 0.865584 -0.349595 0.438686 0.999799 1 0 1.000000
  0 0.000000 -2.815641 -1.067473 0.000000 0.936901 -0.349595 0.501158 0.999799 1 0 1.000000
ceiling_light
  0 0.000000 -3.153438 -1.972757 0.000000 0.936901 -0.349595 0.501158 0.953386 1 0 1.000000
  0 -1.206769 -2.913397 -1.972757 0.358537 0.865584 -0.349595 0.438686 0.953386 1 0 1.000000
  0 -1.077499 -2.601313 -1.067473 0.358536 0.865584 -0.349595 0.438686 0.999799 1 0 1.000000
ceiling_light
  0 1.533730 0.635292 -1.654140 0.000000 0.000000 -1.000000 0.088560 0.683878 1 0 1.000000
  0 1.660098 0.000000 -1.654140 0.000000 0.000000 -1.000000 0.106011 0.647918 1 0 1.000000
  0 0.000000 0.000000 -1.654140 0.000000 0.000000 -1.000000 0.183372 0.711954 1 0 1.000000
ceiling_light
  0 1.660098 0.000000 -1.654140 0.000000 0.000000 -1.000000 0.106011 0.647918 1 0 1.000000
  0 1.533730 -0.635292 -1.654140 0.000000 0.000000 -1.000000 0.135238 0.621707 1 0 1.000000
  0 0.000000 0.000000 -1.654140 0.000000 0.000000 -1.000000 0.183372 0.711954 1 0 1.000000
ceiling_light
  0 1.533730 -0.635292 -1.654140 0.000000 0.000000 -1.000000 0.135238 0.621707 1 0 1.000000
  0 1.173867 -1.173867 -1.654140 0.000000 0.000000 -1.000000 0.171793 0.609235 1 0 1.000000
  0 0.000000 0.000000 -1.654140 0.000000 0.000000 -1.000000 0.183372 0.711954 1 0 1.000000
ceiling_light
  0 1.173867 -1.173867 -1.654140 0.000000 0.000000 -1.000000 0.171793 0.609235 1 0 1.000000
  0 0.635292 -1.533730 -1.654140 0.000000 0.000000 -1.000000 0.210111 0.612402 1 0 1.000000
  0 0.000000 0.000000 -1.654140 0.000000 0.000000 -1.000000 0.183372 0.711954 1 0 1.000000
ceiling_light
  0 0.635292 -1.533730 -1.654140 0.000000 0.000000 -1.000000 0.210111 0.612402 1 0 1.000000
  0 0.000000 -1.660098 -1.654140 0.000000 0.000000 -1.000000 0.244358 0.630725 1 0 1.000000
  0 0.000000 0.000000 -1.654140 0.000000 0.000000 -1.000000 0.183372 0.711954 1 0 1.000000
ceiling_light
  0 0.000000 -1.660098 -1.654140 0.000000 0.000000 -1.000000 0.244358 0.630725 1 0 1.000000
  0 -0.635292 -1.533730 -1.654140 0.000000 0.000000 -1.000000 0.269321 0.661413 1 0 1.000000
  0 0.000000 0.000000 -1.654140 0.000000 0.000000 -1.000000 0.183372 0.711954 1 0 1.000000
ceiling_light
  0 -0.635292 -1.533730 -1.654140 0.000000 0.000000 -1.000000 0.269321 0.661413 1 0 1.000000
  0 -1.173867 -1.173867 -1.654140 0.000000 0.000000 -1.000000 0.281198 0.699797 1 0 1.000000
  0 0.000000 0.000000 -1.654140 0.000000 0.000000 -1.000000 0.183372 0.711954 1 0 1.000000
ceiling_light
  0 -1.173867 -1.173867 -1.654140 0.000000 0.000000 -1.000000 0.281198 0.699797 1 0 1.000000
  0 -1.533730 -0.635292 -1.654140 0.000000 0.000000 -1.000000 0.278182 0.740031 1 0 1.000000
  0 0.000000 0.000000 -1.654140 0.000000 0.000000 -1.000000 0.183372 0.711954 1 0 1.000000
ceiling_light
  0 -1.533730 -0.635292 -1.654140 0.000000 0.000000 -1.000000 0.278182 0.740031 1 0 1.000000
  0 -1.660098 0.000000 -1.654140 0.000000 0.000000 -1.000000 0.260733 0.775991 1 0 1.000000
  0 0.000000 0.000000 -1.654140 0.000000 0.000000 -1.000000 0.183372 0.711954 1 0 1.000000
ceiling_light
  0 -1.660098 0.000000 -1.654140 0.000000 0.000000 -1.000000 0.260733 0.775991 1 0 1.000000
  0 -1.533730 0.635292 -1.654140 0.000000 0.000000 -1.000000 0.231505 0.802202 1 0 1.000000
  0 0.000000 0.000000 -1.654140 0.000000 0.000000 -1.000000 0.183372 0.711954 1 0 1.000000
ceiling_light
  0 -1.533730 0.635292 -1.654140 0.000000 0.000000 -1.000000 0.231505 0.802202 1 0 1.000000
  0 -1.173867 1.173867 -1.654140 0.000000 0.000000 -1.000000 0.194950 0.814673 1 0 1.000000
  0 0.000000 0.000000 -1.654140 0.000000 0.000000 -1.000000 0.183372 0.711954 1 0 1.000000
ceiling_light
  0 -1.173867 1.173867 -1.654140 0.000000 0.000000 -1.000000 0.194950 0.814673 1 0 1.000000
  0 -0.635292 1.533730 -1.654140 0.000000 0.000000 -1.000000 0.156632 0.811506 1 0 1.000000
  0 0.000000 0.000000 -1.654140 0.000000 0.000000 -1.000000 0.183372 0.711954 1 0 1.000000
ceiling_light
  0 -0.635292 1.533730 -1.654140 0.000000 0.000000 -1.000000 0.156632 0.811506 1 0 1.000000
  0 0.000000 1.660098 -1.654140 0.000000 0.000000 -1.000000 0.122385 0.793184 1 0 1.000000
  0 0.000000 0.000000 -1.654140 0.000000 0.000000 -1.000000 0.183372 0.711954 1 0 1.000000
ceiling_light
  0 0.000000 1.660098 -1.654140 0.000000 0.000000 -1.000000 0.122385 0.793184 1 0 1.000000
  0 0.635292 1.533730 -1.654140 0.000000 0.000000 -1.000000 0.097422 0.762495 1 0 1.000000
  0 0.000000 0.000000 -1.654140 0.000000 0.000000 -1.000000 0.183372 0.711954 1 0 1.000000
ceiling_light
  0 0.635292 1.533730 -1.654140 0.000000 0.000000 -1.000000 0.097422 0.762495 1 0 1.000000
  0 1.173867 1.173867 -1.654140 0.000000 0.000000 -1.000000 0.085545 0.724112 1 0 1.000000
  0 0.000000 0.000000 -1.654140 0.000000 0.000000 -1.000000 0.183372 0.711954 1 0 1.000000
ceiling_light
  0 1.173867 1.173867 -1.654140 0.000000 0.000000 -1.000000 0.085545 0.724112 1 0 1.000000
  0 1.533730 0.635292 -1.654140 0.000000 0.000000 -1.000000 0.088560 0.683878 1 0 1.000000
  0 0.000000 0.000000 -1.654140 0.000000 0.000000 -1.000000 0.183372 0.711954 1 0 1.000000
ceiling_light
  0 -3.725629 1.543206 -1.972757 0.000000 0.000000 -1.000000 0.091402 0.869629 1 0 1.000000
  0 -2.851473 2.851473 -1.972757 0.000000 0.000000 -1.000000 0.041686 0.821847 1 0 1.000000
  0 -2.229817 2.229817 -1.972757 0.000000 0.000000 -1.000000 0.072043 0.798448 1 0 1.000000
ceiling_light
  0 -2.851473 2.851473 -1.972757 0.000000 0.000000 -1.000000 0.041686 0.821847 1 0 1.000000
  0 -1.206769 2.913397 -1.972757 0.000000 0.000000 -1.000000 0.049743 0.748306 1 0 1.000000
  0 -2.229817 2.229817 -1.972757 0.000000 0.000000 -1.000000 0.072043 0.798448 1 0 1.000000
ceiling_light
  0 -2.851473 2.851473 -1.972757 0.000000 0.000000 -1.000000 0.041686 0.821847 1 0 1.000000
  0 -1.543206 3.725629 -1.972757 0.000000 0.000000 -1.000000 0.013169 0.757725 1 0 1.000000
  0 -1.206769 2.913397 -1.972757 0.000000 0.000000 -1.000000 0.049743 0.748306 1 0 1.000000
ceiling_light
  0 -1.543206 3.725629 -1.972757 0.000000 0.000000 -1.000000 0.013169 0.757725 1 0 1.000000
  0 0.000000 3.153438 -1.972757 0.000000 0.000000 -1.000000 0.047416 0.693019 1 0 1.000000
  0 -1.206769 2.913397 -1.972757 0.000000 0.000000 -1.000000 0.049743 0.748306 1 0 1.000000
ceiling_light
  0 -1.543206 3.725629 -1.972757 0.000000 0.000000 -1.000000 0.013169 0.757725 1 0 1.000000
  0 0.000000 4.032591 -1.972757 0.000000 0.000000 -1.000000 0.010193 0.687025 1 0 1.000000
  0 0.000000 3.153438 -1.972757 0.000000 0.000000 -1.000000 0.047416 0.693019 1 0 1.000000
ceiling_light
  0 0.000000 4.032591 -1.972757 0.000000 0.000000 -1.000000 0.010193 0.687025 1 0 1.000000
  0 1.206769 2.913397 -1.972757 0.000000 0.000000 -1.000000 0.065414 0.641006 1 0 1.000000
  0 0.000000 3.153438 -1.972757 0.000000 0.000000 -1.000000 0.047416 0.693019 1 0 1.000000
ceiling_light
  0 0.000000 4.032591 -1.972757 0.000000 0.000000 -1.000000 0.010193 0.687025 1 0 1.000000
  0 1.543206 3.725629 -1.972757 0.000000 0.000000 -1.000000 0.033209 0.620512 1 0 1.000000
  0 1.206769 2.913397 -1.972757 0.000000 0.000000 -1.000000 0.065414 0.641006 1 0 1.000000
ceiling_light
  0 1.543206 3.725629 -1.972757 0.000000 0.000000 -1.000000 0.033209 0.620512 1 0 1.000000
  0 2.229817 2.229817 -1.972757 0.000000 0.000000 -1.000000 0.101001 0.600185 1 0 1.000000
  0 1.206769 2.913397 -1.972757 0.000000 0.000000 -1.000000 0.065414 0.641006 1 0 1.000000
ceiling_light
  0 1.543206 3.725629 -1.972757 0.000000 0.000000 -1.000000 0.033209 0.620512 1 0 1.000000
  0 2.851473 2.851473 -1.972757 0.000000 0.000000 -1.000000 0.078716 0.568309 1 0 1.000000
  0 2.229817 2.229817 -1.972757 0.000000 0.000000 -1.000000 0.101001 0.600185 1 0 1.000000
ceiling_light
  0 2.851473 2.851473 -1.972757 0.000000 0.000000 -1.000000 0.078716 0.568309 1 0 1.000000
  0 2.913397 1.206769 -1.972757 0.000000 0.000000 -1.000000 0.148755 0.576769 1 0 1.000000
  0 2.229817 2.229817 -1.972757 0.000000 0.000000 -1.000000 0.101001 0.600185 1 0 1.000000
ceiling_light
  0 2.851473 2.851473 -1.972757 0.000000 0.000000 -1.000000 0.078716 0.568309 1 0 1.000000
  0 3.725629 1.543206 -1.972757 0.000000 0.000000 -1.000000 0.139784 0.538366 1 0 1.000000
  0 2.913397 1.206769 -1.972757 0.000000 0.000000 -1.000000 0.148755 0.576769 1 0 1.000000
ceiling_light
  0 3.725629 1.543206 -1.972757 0.000000 0.000000 -1.000000 0.139784 0.538366 1 0 1.000000
  0 3.153438 0.000000 -1.972757 0.000000 0.000000 -1.000000 0.201408 0.574325 1 0 1.000000
  0 2.913397 1.206769 -1.972757 0.000000 0.000000 -1.000000 0.148755 0.576769 1 0 1.000000
ceiling_light
  0 3.725629 1.543206 -1.972757 0.000000 0.000000 -1.000000 0.139784 0.538366 1 0 1.000000
  0 4.032591 0.000000 -1.972757 0.000000 0.000000 -1.000000 0.207117 0.535241 1 0 1.000000
  0 3.153438 0.000000 -1.972757 0.000000 0.000000 -1.000000 0.201408 0.574325 1 0 1.000000
ceiling_light
  0 4.032591 0.000000 -1.972757 0.000000 0.000000 -1.000000 0.207117 0.535241 1 0 1.000000
  0 2.913397 -1.206769 -1.972757 0.000000 0.000000 -1.000000 0.250944 0.593225 1 0 1.000000
  0 3.153438 0.000000 -1.972757 0.000000 0.000000 -1.000000 0.201408 0.574325 1 0 1.000000
ceiling_light
  0 4.032591 0.000000 -1.972757 0.000000 0.000000 -1.000000 0.207117 0.535241 1 0 1.000000
  0 3.725629 -1.543206 -1.972757 0.000000 0.000000 -1.000000 0.270462 0.559408 1 0 1.000000
  0 2.913397 -1.206769 -1.972757 0.000000 0.000000 -1.000000 0.250944 0.593225 1 0 1.000000
ceiling_light
  0 3.725629 -1.543206 -1.972757 0.000000 0.000000 -1.000000 0.270462 0.559408 1 0 1.000000
  0 2.229817 -2.229817 -1.972757 0.000000 0.000000 -1.000000 0.289821 0.630589 1 0 1.000000
  0 2.913397 -1.206769 -1.972757 0.000000 0.000000 -1.000000 0.250944 0.593225 1 0 1.000000
ceiling_light
  0 3.725629 -1.543206 -1.972757 0.000000 0.000000 -1.000000 0.270462 0.559408 1 0 1.000000
  0 2.851473 -2.851473 -1.972757 0.000000 0.000000 -1.000000 0.320179 0.607191 1 0 1.000000
  0 2.229817 -2.229817 -1.972757 0.000000 0.000000 -1.000000 0.289821 0.630589 1 0 1.000000
ceiling_light
  0 2.851473 -2.851473 -1.972757 0.000000 0.000000 -1.000000 0.320179 0.607191 1 0 1.000000
  0 1.206769 -2.913397 -1.972757 0.000000 0.000000 -1.000000 0.312121 0.680732 1 0 1.000000
  0 2.229817 -2.229817 -1.972757 0.000000 0.000000 -1.000000 0.289821 0.630589 1 0 1.000000
ceiling_light
  0 2.851473 -2.851473 -1.972757 0.000000 0.000000 -1.000000 0.320179 0.607191 1 0 1.000000
  0 1.543206 -3.725629 -1.972757 0.000000 0.000000 -1.000000 0.348696 0.671313 1 0 1.000000
  0 1.206769 -2.913397 -1.972757 0.000000 0.000000 -1.000000 0.312121 0.680732 1 0 1.000000
ceiling_light
  0 1.543206 -3.725629 -1.972757 0.000000 0.000000 -1.000000 0.348696 0.671313 1 0 1.000000
  0 0.000000 -3.153438 -1.972757 0.000000 0.000000 -1.000000 0.314449 0.736018 1 0 1.000000
  0 1.206769 -2.913397 -1.972757 0.000000 0.000000 -1.000000 0.312121 0.680732 1 0 1.000000
ceiling_light
  0 1.543206 -3.725629 -1.972757 0.000000 0.000000 -1.000000 0.348696 0.671313 1 0 1.000000
  0 0.000000 -4.032591 -1.972757 0.000000 0.000000 -1.000000 0.351673 0.742012 1 0 1.000000
  0 0.000000 -3.153438 -1.972757 0.000000 0.000000 -1.000000 0.314449 0.736018 1 0 1.000000
ceiling_light
  0 0.000000 -4.032591 -1.972757 0.000000 0.000000 -1.000000 0.351673 0.742012 1 0 1.000000
  0 -1.206769 -2.913397 -1.972757 0.000000 0.000000 -1.000000 0.296450 0.788032 1 0 1.000000
  0 0.000000 -3.153438 -1.972757 0.000000 0.000000 -1.000000 0.314449 0.736018 1 0 1.000000
ceiling_light
  0 0.000000 -4.032591 -1.972757 0.000000 0.000000 -1.000000 0.351673 0.742012 1 0 1.000000
  0 -1.543206 -3.725629 -1.972757 0.000000 0.000000 -1.000000 0.328655 0.808527 1 0 1.000000
  0 -1.206769 -2.913397 -1.972757 0.000000 0.000000 -1.000000 0.296450 0.788032 1 0 1.000000
ceiling_light
  0 -1.543206 -3.725629 -1.972757 0.000000 0.000000 -1.000000 0.328655 0.808527 1 0 1.000000
  0 -2.229817 -2.229817 -1.972757 0.000000 0.000000 -1.000000 0.260864 0.828853 1 0 1.000000
  0 -1.206769 -2.913397 -1.972757 0.000000 0.000000 -1.000000 0.296450 0.788032 1 0 1.000000
ceiling_light
  0 -1.543206 -3.725629 -1.972757 0.000000 0.000000 -1.000000 0.328655 0.808527 1 0 1.000000
  0 -2.851473 -2.851473 -1.972757 0.000000 0.000000 -1.000000 0.283148 0.860728 1 0 1.000000
  0 -2.229817 -2.229817 -1.972757 0.000000 0.000000 -1.000000 0.260864 0.828853 1 0 1.000000
ceiling_light
  0 -2.851473 -2.851473 -1.972757 0.000000 0.000000 -1.000000 0.283148 0.860728 1 0 1.000000
  0 -2.913397 -1.206769 -1.972757 0.000000 0.000000 -1.000000 0.213109 0.852268 1 0 1.000000
  0 -2.229817 -2.229817 -1.972757 0.000000 0.000000 -1.000000 0.260864 0.828853 1 0 1.000000
ceiling_light
  0 -2.851473 -2.851473 -1.972757 0.000000 0.000000 -1.000000 0.283148 0.860728 1 0 1.000000
  0 -3.725629 -1.543206 -1.972757 0.000000 0.000000 -1.000000 0.222081 0.890671 1 0 1.000000
  0 -2.913397 -1.206769 -1.972757 0.000000 0.000000 -1.000000 0.213109 0.852268 1 0 1.000000
ceiling_light
  0 -3.725629 -1.543206 -1.972757 0.000000 0.000000 -1.000000 0.222081 0.890671 1 0 1.000000
  0 -3.153438 0.000000 -1.972757 0.000000 0.000000 -1.000000 0.160457 0.854712 1 0 1.000000
  0 -2.913397 -1.206769 -1.972757 0.000000 0.000000 -1.000000 0.213109 0.852268 1 0 1.000000
ceiling_light
  0 -3.725629 -1.543206 -1.972757 0.000000 0.000000 -1.000000 0.222081 0.890671 1 0 1.000000
  0 -4.032591 0.000000 -1.972757 0.000000 0.000000 -1.000000 0.154748 0.893797 1 0 1.000000
  0 -3.153438 0.000000 -1.972757 0.000000 0.000000 -1.000000 0.160457 0.854712 1 0 1.000000
ceiling_light
  0 -4.032591 0.000000 -1.972757 0.000000 0.000000 -1.000000 0.154748 0.893797 1 0 1.000000
  0 -2.913397 1.206769 -1.972757 0.000000 0.000000 -1.000000 0.110921 0.835813 1 0 1.000000
  0 -3.153438 0.000000 -1.972757 0.000000 0.000000 -1.000000 0.160457 0.854712 1 0 1.000000
ceiling_light
  0 -4.032591 0.000000 -1.972757 0.000000 0.000000 -1.000000 0.154748 0.893797 1 0 1.000000
  0 -3.725629 1.543206 -1.972757 0.000000 0.000000 -1.000000 0.091402 0.869629 1 0 1.000000
  0 -2.913397 1.206769 -1.972757 0.000000 0.000000 -1.000000 0.110921 0.835813 1 0 1.000000
ceiling_light
  0 -3.725629 1.543206 -1.972757 0.000000 0.000000 -1.000000 0.091402 0.869629 1 0 1.000000
  0 -2.229817 2.229817 -1.972757 0.000000 0.000000 -1.000000 0.072043 0.798448 1 0 1.000000
  0 -2.913397 1.206769 -1.972757 0.000000 0.000000 -1.000000 0.110921 0.835813 1 0 1.000000
ceiling_light
  0 0.000000 1.660098 -1.067473 0.000000 1.000000 0.000000 1.000005 0.953176 1 0 1.000000
  0 0.635292 1.533730 -1.654140 0.382683 0.923880 0.000000 0.939798 0.898555 1 0 1.000000
  0 0.000000 1.660098 -1.654140 0.000000 1.000000 0.000000 1.000005 0.898555 1 0 1.000000
ceiling_light
  0 0.000000 1.660098 -1.067473 0.000000 1.000000 0.000000 1.000005 0.953176 1 0 1.000000
  0 0.635292 1.533730 -1.067473 0.382683 0.923880 0.000000 0.939798 0.953176 1 0 1.000000
  0 0.635292 1.533730 -1.654140 0.382683 0.923880 0.000000 0.939798 0.898555 1 0 1.000000
ceiling_light
  0 0.635292 1.533730 -1.067473 0.382683 0.923880 0.000000 0.939798 0.953176 1 0 1.000000
  0 1.173867 1.173867 -1.654140 0.707107 0.707107 0.000000 0.877129 0.898555 1 0 1.000000
  0 0.635292 1.533730 -1.654140 0.382683 0.923880 0.000000 0.939798 0.898555 1 0 1.000000
ceiling_light
  0 0.635292 1.533730 -1.067473 0.382683 0.923880 0.000000 0.939798 0.953176 1 0 1.000000
  0 1.173867 1.173867 -1.067473 0.707107 0.707107 0.000000 0.877129 0.953176 1 0 1.000000
  0 1.173867 1.173867 -1.654140 0.707107 0.707107 0.000000 0.877129 0.898555 1 0 1.000000
ceiling_light
  0 1.173867 1.173867 -1.067473 0.707107 0.707107 0.000000 0.877129 0.953176 1 0 1.000000
  0 1.533730 0.635292 -1.654140 0.923880 0.382683 0.000000 0.814461 0.898555 1 0 1.000000
  0 1.173867 1.173867 -1.654140 0.707107 0.707107 0.000000 0.877129 0.898555 1 0 1.000000
ceiling_light
  0 1.173867 1.173867 -1.067473 0.707107 0.707107 0.000000 0.877129 0.953176 1 0 1.000000
  0 1.533730 0.635292 -1.067473 0.923880 0.382683 0.000000 0.814461 0.953176 1 0 1.000000
  0 1.533730 0.635292 -1.654140 0.923880 0.382683 0.000000 0.814461 0.898555 1 0 1.000000
ceiling_light
  0 1.533730 0.635292 -1.067473 0.923880 0.382683 0.000000 0.814461 0.953176 1 0 1.000000
  0 1.660098 0.000000 -1.654140 1.000000 0.000000 0.000000 0.751792 0.898555 1 0 1.000000
  0 1.533730 0.635292 -1.654140 0.923880 0.382683 0.000000 0.814461 0.898555 1 0 1.000000
ceiling_light
  0 1.533730 0.635292 -1.067473 0.923880 0.382683 0.000000 0.814461 0.953176 1 0 1.000000
  0 1.660098 0.000000 -1.067473 1.000000 0.000000 0.000000 0.751792 0.953176 1 0 1.000000
  0 1.660098 0.000000 -1.654140 1.000000 0.000000 0.000000 0.751792 0.898555 1 0 1.000000
ceiling_light
  0 1.660098 0.000000 -1.067473 1.000000 0.000000 0.000000 0.751792 0.953176 1 0 1.000000
  0 1.533730 -0.635292 -1.654140 0.923880 -0.382683 0.000000 0.689124 0.898555 1 0 1.000000
  0 1.660098 0.000000 -1.654140 1.000000 0.000000 0.000000 0.751792 0.898555 1 0 1.000000
ceiling_light
  0 1.660098 0.000000 -1.067473 1.000000 0.000000 0.000000 0.751792 0.953176 1 0 1.000000
  0 1.533730 -0.635292 -1.067473 0.923880 -0.382683 0.000000 0.689124 0.953176 1 0 1.000000
  0 1.533730 -0.635292 -1.654140 0.923880 -0.382683 0.000000 0.689124 0.898555 1 0 1.000000
ceiling_light
  0 1.533730 -0.635292 -1.067473 0.923880 -0.382683 0.000000 0.689124 0.953176 1 0 1.000000
  0 1.173867 -1.173867 -1.654140 0.707107 -0.707107 0.000000 0.626455 0.898555 1 0 1.000000
  0 1.533730 -0.635292 -1.654140 0.923880 -0.382683 0.000000 0.689124 0.898555 1 0 1.000000
ceiling_light
  0 1.533730 -0.635292 -1.067473 0.923880 -0.382683 0.000000 0.689124 0.953176 1 0 1.000000
  0 1.173867 -1.173867 -1.067473 0.707107 -0.707107 0.000000 0.626455 0.953176 1 0 1.000000
  0 1.173867 -1.173867 -1.654140 0.707107 -0.707107 0.000000 0.626455 0.898555 1 0 1.000000
ceiling_light
  0 1.173867 -1.173867 -1.067473 0.707107 -0.707107 0.000000 0.626455 0.953176 1 0 1.000000
  0 0.635292 -1.533730 -1.654140 0.382683 -0.923880 0.000000 0.563787 0.898555 1 0 1.000000
  0 1.173867 -1.173867 -1.654140 0.707107 -0.707107 0.000000 0.626455 0.898555 1 0 1.000000
ceiling_light
  0 1.173867 -1.173867 -1.067473 0.707107 -0.707107 0.000000 0.626455 0.953176 1 0 1.000000
  0 0.635292 -1.533730 -1.067473 0.382683 -0.923880 0.000000 0.563787 0.953176 1 0 1.000000
  0 0.635292 -1.533730 -1.654140 0.382683 -0.923880 0.000000 0.563787 0.898555 1 0 1.000000
ceiling_light
  0 0.635292 -1.533730 -1.067473 0.382683 -0.923880 0.000000 0.563787 0.953176 1 0 1.000000
  0 0.000000 -1.660098 -1.654140 0.000000 -1.000000 0.000000 0.501118 0.898555 1 0 1.000000
  0 0.635292 -1.533730 -1.654140 0.382683 -0.923880 0.000000 0.563787 0.898555 1 0 1.000000
ceiling_light
  0 0.635292 -1.533730 -1.067473 0.382683 -0.923880 0.000000 0.563787 0.953176 1 0 1.000000
  0 0.000000 -1.660098 -1.067473 0.000000 -1.000000 0.000000 0.501118 0.953176 1 0 1.000000
  0 0.000000 -1.660098 -1.654140 0.000000 -1.000000 0.000000 0.501118 0.898555 1 0 1.000000
ceiling_light
  0 0.000000 -1.660098 -1.067473 0.000000 -1.000000 0.000000 0.501118 0.953176 1 0 1.000000
  0 -0.635292 -1.533730 -1.654140 -0.382683 -0.923880 0.000000 0.438450 0.898555 1 0 1.000000
  0 0.000000 -1.660098 -1.654140 0.000000 -1.000000 0.000000 0.501118 0.898555 1 0 1.000000
ceiling_light
  0 0.000000 -1.660098 -1.067473 0.000000 -1.000000 0.000000 0.501118 0.953176 1 0 1.000000
  0 -0.635292 -1.533730 -1.067473 -0.382683 -0.923880 0.000000 0.438450 0.953176 1 0 1.000000
  0 -0.635292 -1.533730 -1.654140 -0.382683 -0.923880 0.000000 0.438450 0.898555 1 0 1.000000
ceiling_light
  0 -0.635292 -1.533730 -1.067473 -0.382683 -0.923880 0.000000 0.438450 0.953176 1 0 1.000000
  0 -1.173867 -1.173867 -1.654140 -0.707107 -0.707107 0.000000 0.375780 0.898555 1 0 1.000000
  0 -0.635292 -1.533730 -1.654140 -0.382683 -0.923880 0.000000 0.438450 0.898555 1 0 1.000000
ceiling_light
  0 -0.635292 -1.533730 -1.067473 -0.382683 -0.923880 0.000000 0.438450 0.953176 1 0 1.000000
  0 -1.173867 -1.173867 -1.067473 -0.707107 -0.707107 0.000000 0.375780 0.953176 1 0 1.000000
  0 -1.173867 -1.173867 -1.654140 -0.707107 -0.707107 0.000000 0.375780 0.898555 1 0 1.000000
ceiling_light
  0 -1.173867 -1.173867 -1.067473 -0.707107 -0.707107 0.000000 0.375780 0.953176 1 0 1.000000
  0 -1.533730 -0.635292 -1.654140 -0.923880 -0.382683 0.000000 0.313112 0.898555 1 0 1.000000
  0 -1.173867 -1.173867 -1.654140 -0.707107 -0.707107 0.000000 0.375780 0.898555 1 0 1.000000
ceiling_light
  0 -1.173867 -1.173867 -1.067473 -0.707107 -0.707107 0.000000 0.375780 0.953176 1 0 1.000000
  0 -1.533730 -0.635292 -1.067473 -0.923880 -0.382683 0.000000 0.313112 0.953176 1 0 1.000000
  0 -1.533730 -0.635292 -1.654140 -0.923880 -0.382683 0.000000 0.313112 0.898555 1 0 1.000000
ceiling_light
  0 -1.533730 -0.635292 -1.067473 -0.923880 -0.382683 0.000000 0.313112 0.953176 1 0 1.000000
  0 -1.660098 0.000000 -1.654140 -1.000000 0.000000 0.000000 0.250442 0.898555 1 0 1.000000
  0 -1.533730 -0.635292 -1.654140 -0.923880 -0.382683 0.000000 0.313112 0.898555 1 0 1.000000
ceiling_light
  0 -1.533730 -0.635292 -1.067473 -0.923880 -0.382683 0.000000 0.313112 0.953176 1 0 1.000000
  0 -1.660098 0.000000 -1.067473 -1.000000 0.000000 0.000000 0.250442 0.953176 1 0 1.000000
  0 -1.660098 0.000000 -1.654140 -1.000000 0.000000 0.000000 0.250442 0.898555 1 0 1.000000
ceiling_light
  0 -1.660098 0.000000 -1.067473 -1.000000 0.000000 0.000000 0.250442 0.953176 1 0 1.000000
  0 -1.533730 0.635292 -1.654140 -0.923880 0.382683 0.000000 0.187774 0.898555 1 0 1.000000
  0 -1.660098 0.000000 -1.654140 -1.000000 0.000000 0.000000 0.250442 0.898555 1 0 1.000000
ceiling_light
  0 -1.660098 0.000000 -1.067473 -1.000000 0.000000 0.000000 0.250442 0.953176 1 0 1.000000
  0 -1.533730 0.635292 -1.067473 -0.923880 0.382683 0.000000 0.187774 0.953176 1 0 1.000000
  0 -1.533730 0.635292 -1.654140 -0.923880 0.382683 0.000000 0.187774 0.898555 1 0 1.000000
ceiling_light
  0 -1.533730 0.635292 -1.067473 -0.923880 0.382683 0.000000 0.187774 0.953176 1 0 1.000000
  0 -1.173867 1.173867 -1.654140 -0.707107 0.707107 0.000000 0.125107 0.898555 1 0 1.000000
  0 -1.533730 0.635292 -1.654140 -0.923880 0.382683 0.000000 0.187774 0.898555 1 0 1.000000
ceiling_light
  0 -1.533730 0.635292 -1.067473 -0.923880 0.382683 0.000000 0.187774 0.953176 1 0 1.000000
  0 -1.173867 1.173867 -1.067473 -0.707107 0.707107 0.000000 0.125107 0.953176 1 0 1.000000
  0 -1.173867 1.173867 -1.654140 -0.707107 0.707107 0.000000 0.125107 0.898555 1 0 1.000000
ceiling_light
  0 -1.173867 1.173867 -1.067473 -0.707107 0.707107 0.000000 0.125107 0.953176 1 0 1.000000
  0 -0.635292 1.533730 -1.654140 -0.382683 0.923880 0.000000 0.062437 0.898555 1 0 1.000000
  0 -1.173867 1.173867 -1.654140 -0.707107 0.707107 0.000000 0.125107 0.898555 1 0 1.000000
ceiling_light
  0 -1.173867 1.173867 -1.067473 -0.707107 0.707107 0.000000 0.125107 0.953176 1 0 1.000000
  0 -0.635292 1.533730 -1.067473 -0.382683 0.923880 0.000000 0.062437 0.953176 1 0 1.000000
  0 -0.635292 1.533730 -1.654140 -0.382683 0.923880 0.000000 0.062437 0.898555 1 0 1.000000
ceiling_light
  0 -0.635292 1.533730 -1.067473 -0.382683 0.923880 0.000000 0.062437 0.953176 1 0 1.000000
  0 0.000000 1.660098 -1.654140 0.000000 1.000000 0.000000 0.000543 0.898555 1 0 1.000000
  0 -0.635292 1.533730 -1.654140 -0.382683 0.923880 0.000000 0.062437 0.898555 1 0 1.000000
ceiling_light
  0 -0.635292 1.533730 -1.067473 -0.382683 0.923880 0.000000 0.062437 0.953176 1 0 1.000000
  0 0.000000 1.660098 -1.067473 0.000000 1.000000 0.000000 0.000543 0.953176 1 0 1.000000
  0 0.000000 1.660098 -1.654140 0.000000 1.000000 0.000000 0.000543 0.898555 1 0 1.000000
ceiling_light
  0 1.543206 -3.725629 -1.972757 0.382683 -0.923880 0.000000 0.702019 0.867363 1 0 1.000000
  0 2.851473 -2.851473 0.002143 0.707107 -0.707107 0.000000 0.744528 0.896522 1 0 1.000000
  0 1.543206 -3.725629 0.002143 0.382683 -0.923880 0.000000 0.702019 0.896522 1 0 1.000000
ceiling_light
  0 1.543206 -3.725629 -1.972757 0.382683 -0.923880 0.000000 0.702019 0.867363 1 0 1.000000
  0 2.851473 -2.851473 -1.972757 0.707107 -0.707107 0.000000 0.744528 0.867363 1 0 1.000000
  0 2.851473 -2.851473 0.002143 0.707107 -0.707107 0.000000 0.744528 0.896522 1 0 1.000000
ceiling_light
  0 2.851473 -2.851473 -1.972757 0.707107 -0.707107 0.000000 0.744528 0.867363 1 0 1.000000
  0 3.725629 -1.543206 0.002143 0.923880 -0.382683 0.000000 0.787037 0.896522 1 0 1.000000
  0 2.851473 -2.851473 0.002143 0.707107 -0.707107 0.000000 0.744528 0.896522 1 0 1.000000
ceiling_light
  0 2.851473 -2.851473 -1.972757 0.707107 -0.707107 0.000000 0.744528 0.867363 1 0 1.000000
  0 3.725629 -1.543206 -1.972757 0.923880 -0.382683 0.000000 0.787037 0.867363 1 0 1.000000
  0 3.725629 -1.543206 0.002143 0.923880 -0.382683 0.000000 0.787037 0.896522 1 0 1.000000
ceiling_light
  0 3.725629 -1.543206 -1.972757 0.923880 -0.382683 0.000000 0.787037 0.867363 1 0 1.000000
  0 4.032591 0.000000 0.002143 1.000000 0.000000 0.000000 0.829547 0.896522 1 0 1.000000
  0 3.725629 -1.543206 0.002143 0.923880 -0.382683 0.000000 0.787037 0.896522 1 0 1.000000
ceiling_light
  0 3.725629 -1.543206 -1.972757 0.923880 -0.382683 0.000000 0.787037 0.867363 1 0 1.000000
  0 4.032591 0.000000 -1.972757 1.000000 0.000000 0.000000 0.829547 0.867363 1 0 1.000000
  0 4.032591 0.000000 0.002143 1.000000 0.000000 0.000000 0.829547 0.896522 1 0 1.000000
ceiling_light
  0 4.032591 0.000000 -1.972757 1.000000 0.000000 0.000000 0.829547 0.867363 1 0 1.000000
  0 3.725629 1.543206 0.002143 0.923880 0.382683 0.000000 0.872056 0.896522 1 0 1.000000
  0 4.032591 0.000000 0.002143 1.000000 0.000000 0.000000 0.829547 0.896522 1 0 1.000000
ceiling_light
  0 4.032591 0.000000 -1.972757 1.000000 0.000000 0.000000 0.829547 0.867363 1 0 1.000000
  0 3.725629 1.543206 -1.972757 0.923880 0.382683 0.000000 0.872056 0.867363 1 0 1.000000
  0 3.725629 1.543206 0.002143 0.923880 0.382683 0.000000 0.872056 0.896522 1 0 1.000000
ceiling_light
  0 3.725629 1.543206 -1.972757 0.923880 0.382683 0.000000 0.872056 0.867363 1 0 1.000000
  0 2.851473 2.851473 0.002143 0.707107 0.707107 0.000000 0.914566 0.896522 1 0 1.000000
  0 3.725629 1.543206 0.002143 0.923880 0.382683 0.000000 0.872056 0.896522 1 0 1.000000
ceiling_light
  0 3.725629 1.543206 -1.972757 0.923880 0.382683 0.000000 0.872056 0.867363 1 0 1.000000
  0 2.851473 2.851473 -1.972757 0.707107 0.707107 0.000000 0.914566 0.867363 1 0 1.000000
  0 2.851473 2.851473 0.002143 0.707107 0.707107 0.000000 0.914566 0.896522 1 0 1.000000
ceiling_light
  0 2.851473 2.851473 -1.972757 0.707107 0.707107 0.000000 0.914566 0.867363 1 0 1.000000
  0 1.543206 3.725629 0.002143 0.382683 0.923880 0.000000 0.957075 0.896522 1 0 1.000000
  0 2.851473 2.851473 0.002143 0.707107 0.707107 0.000000 0.914566 0.896522 1 0 1.000000
ceiling_light
  0 2.851473 2.851473 -1.972757 0.707107 0.707107 0.000000 0.914566 0.867363 1 0 1.000000
  0 1.543206 3.725629 -1.972757 0.382683 0.923880 0.000000 0.957075 0.867363 1 0 1.000000
  0 1.543206 3.725629 0.002143 0.382683 0.923880 0.000000 0.957075 0.896522 1 0 1.000000
ceiling_light
  0 1.543206 3.725629 -1.972757 0.382683 0.923880 0.000000 0.957075 0.867363 1 0 1.000000
  0 0.000000 4.032591 0.002143 0.000000 1.000000 0.000000 0.999584 0.896522 1 0 1.000000
  0 1.543206 3.725629 0.002143 0.382683 0.923880 0.000000 0.957075 0.896522 1 0 1.000000
ceiling_light
  0 1.543206 3.725629 -1.972757 0.382683 0.923880 0.000000 0.957075 0.867363 1 0 1.000000
  0 0.000000 4.032591 -1.972757 0.000000 1.000000 0.000000 0.999584 0.867363 1 0 1.000000
  0 0.000000 4.032591 0.002143 0.000000 1.000000 0.000000 0.999584 0.896522 1 0 1.000000
ceiling_light
  0 0.000000 4.032591 -1.972757 0.000000 1.000000 0.000000 0.320588 0.867363 1 0 1.000000
  0 -1.543206 3.725629 0.002143 -0.382683 0.923880 0.000000 0.361944 0.896522 1 0 1.000000
  0 0.000000 4.032591 0.002143 0.000000 1.000000 0.000000 0.320588 0.896522 1 0 1.000000
ceiling_light
  0 0.000000 4.032591 -1.972757 0.000000 1.000000 0.000000 0.320588 0.867363 1 0 1.000000
  0 -1.543206 3.725629 -1.972757 -0.382683 0.923880 0.000000 0.361944 0.867363 1 0 1.000000
  0 -1.543206 3.725629 0.002143 -0.382683 0.923880 0.000000 0.361944 0.896522 1 0 1.000000
ceiling_light
  0 -1.543206 3.725629 -1.972757 -0.382683 0.923880 0.000000 0.361944 0.867363 1 0 1.000000
  0 -2.851473 2.851473 0.002143 -0.707107 0.707107 0.000000 0.404453 0.896522 1 0 1.000000
  0 -1.543206 3.725629 0.002143 -0.382683 0.923880 0.000000 0.361944 0.896522 1 0 1.000000
ceiling_light
  0 -1.543206 3.725629 -1.972757 -0.382683 0.923880 0.000000 0.361944 0.867363 1 0 1.000000
  0 -2.851473 2.851473 -1.972757 -0.707107 0.707107 0.000000 0.404453 0.867363 1 0 1.000000
  0 -2.851473 2.851473 0.002143 -0.707107 0.707107 0.000000 0.404453 0.896522 1 0 1.000000
ceiling_light
  0 -2.851473 2.851473 -1.972757 -0.707107 0.707107 0.000000 0.404453 0.867363 1 0 1.000000
  0 -3.725629 1.543206 0.002143 -0.923880 0.382683 0.000000 0.446962 0.896522 1 0 1.000000
  0 -2.851473 2.851473 0.002143 -0.707107 0.707107 0.000000 0.404453 0.896522 1 0 1.000000
ceiling_light
  0 -2.851473 2.851473 -1.972757 -0.707107 0.707107 0.000000 0.404453 0.867363 1 0 1.000000
  0 -3.725629 1.543206 -1.972757 -0.923880 0.382683 0.000000 0.446962 0.867363 1 0 1.000000
  0 -3.725629 1.543206 0.002143 -0.923880 0.382683 0.000000 0.446962 0.896522 1 0 1.000000
ceiling_light
  0 -3.725629 1.543206 -1.972757 -0.923880 0.382683 0.000000 0.446962 0.867363 1 0 1.000000
  0 -4.032591 0.000000 0.002143 -1.000000 0.000000 0.000000 0.489472 0.896522 1 0 1.000000
  0 -3.725629 1.543206 0.002143 -0.923880 0.382683 0.000000 0.446962 0.896522 1 0 1.000000
ceiling_light
  0 -3.725629 1.543206 -1.972757 -0.923880 0.382683 0.000000 0.446962 0.867363 1 0 1.000000
  0 -4.032591 0.000000 -1.972757 -1.000000 0.000000 0.000000 0.489472 0.867363 1 0 1.000000
  0 -4.032591 0.000000 0.002143 -1.000000 0.000000 0.000000 0.489472 0.896522 1 0 1.000000
ceiling_light
  0 -4.032591 0.000000 -1.972757 -1.000000 0.000000 0.000000 0.489472 0.867363 1 0 1.000000
  0 -3.725629 -1.543206 0.002143 -0.923880 -0.382683 0.000000 0.531981 0.896522 1 0 1.000000
  0 -4.032591 0.000000 0.002143 -1.000000 0.000000 0.000000 0.489472 0.896522 1 0 1.000000
ceiling_light
  0 -4.032591 0.000000 -1.972757 -1.000000 0.000000 0.000000 0.489472 0.867363 1 0 1.000000
  0 -3.725629 -1.543206 -1.972757 -0.923880 -0.382683 0.000000 0.531981 0.867363 1 0 1.000000
  0 -3.725629 -1.543206 0.002143 -0.923880 -0.382683 0.000000 0.531981 0.896522 1 0 1.000000
ceiling_light
  0 -3.725629 -1.543206 -1.972757 -0.923880 -0.382683 0.000000 0.531981 0.867363 1 0 1.000000
  0 -2.851473 -2.851473 0.002143 -0.707107 -0.707107 0.000000 0.574490 0.896522 1 0 1.000000
  0 -3.725629 -1.543206 0.002143 -0.923880 -0.382683 0.000000 0.531981 0.896522 1 0 1.000000
ceiling_light
  0 -3.725629 -1.543206 -1.972757 -0.923880 -0.382683 0.000000 0.531981 0.867363 1 0 1.000000
  0 -2.851473 -2.851473 -1.972757 -0.707107 -0.707107 0.000000 0.574490 0.867363 1 0 1.000000
  0 -2.851473 -2.851473 0.002143 -0.707107 -0.707107 0.000000 0.574490 0.896522 1 0 1.000000
ceiling_light
  0 -2.851473 -2.851473 -1.972757 -0.707107 -0.707107 0.000000 0.574490 0.867363 1 0 1.000000
  0 -1.543206 -3.725629 0.002143 -0.382683 -0.923880 0.000000 0.617000 0.896522 1 0 1.000000
  0 -2.851473 -2.851473 0.002143 -0.707107 -0.707107 0.000000 0.574490 0.896522 1 0 1.000000
ceiling_light
  0 -2.851473 -2.851473 -1.972757 -0.707107 -0.707107 0.000000 0.574490 0.867363 1 0 1.000000
  0 -1.543206 -3.725629 -1.972757 -0.382683 -0.923880 0.000000 0.617000 0.867363 1 0 1.000000
  0 -1.543206 -3.725629 0.002143 -0.382683 -0.923880 0.000000 0.617000 0.896522 1 0 1.000000
ceiling_light
  0 -1.543206 -3.725629 -1.972757 -0.382683 -0.923880 0.000000 0.617000 0.867363 1 0 1.000000
  0 0.000000 -4.032591 0.002143 0.000000 -1.000000 0.000000 0.659509 0.896522 1 0 1.000000
  0 -1.543206 -3.725629 0.002143 -0.382683 -0.923880 0.000000 0.617000 0.896522 1 0 1.000000
ceiling_light
  0 -1.543206 -3.725629 -1.972757 -0.382683 -0.923880 0.000000 0.617000 0.867363 1 0 1.000000
  0 0.000000 -4.032591 -1.972757 0.000000 -1.000000 0.000000 0.659509 0.867363 1 0 1.000000
  0 0.000000 -4.032591 0.002143 0.000000 -1.000000 0.000000 0.659509 0.896522 1 0 1.000000
ceiling_light
  0 0.000000 -4.032591 -1.972757 0.000000 -1.000000 0.000000 0.659509 0.867363 1 0 1.000000
  0 1.543206 -3.725629 0.002143 0.382683 -0.923880 0.000000 0.702019 0.896522 1 0 1.000000
  0 0.000000 -4.032591 0.002143 0.000000 -1.000000 0.000000 0.659509 0.896522 1 0 1.000000
ceiling_light
  0 0.000000 -4.032591 -1.972757 0.000000 -1.000000 0.000000 0.659509 0.867363 1 0 1.000000
  0 1.543206 -3.725629 -1.972757 0.382683 -0.923880 0.000000 0.702019 0.867363 1 0 1.000000
  0 1.543206 -3.725629 0.002143 0.382683 -0.923880 0.000000 0.702019 0.896522 1 0 1.000000
ceiling_light
  0 2.815641 0.000000 -1.067473 0.000000 0.000000 -1.000000 0.298196 0.714519 1 0 1.000000
  0 1.533730 -0.635292 -1.067473 0.000000 0.000000 -1.000000 0.240474 0.740415 1 0 1.000000
  0 1.660098 0.000000 -1.067473 0.000000 0.000000 -1.000000 0.245379 0.714519 1 0 1.000000
ceiling_light
  0 2.815641 0.000000 -1.067473 0.000000 0.000000 -1.000000 0.298196 0.714519 1 0 1.000000
  0 2.601313 -1.077499 -1.067473 0.000000 0.000000 -1.000000 0.289270 0.761638 1 0 1.000000
  0 1.533730 -0.635292 -1.067473 0.000000 0.000000 -1.000000 0.240474 0.740415 1 0 1.000000
ceiling_light
  0 2.601313 -1.077499 -1.067473 0.000000 0.000000 -1.000000 0.289270 0.761638 1 0 1.000000
  0 1.173867 -1.173867 -1.067473 0.000000 0.000000 -1.000000 0.226504 0.762369 1 0 1.000000
  0 1.533730 -0.635292 -1.067473 0.000000 0.000000 -1.000000 0.240474 0.740415 1 0 1.000000
ceiling_light
  0 2.601313 -1.077499 -1.067473 0.000000 0.000000 -1.000000 0.289270 0.761638 1 0 1.000000
  0 1.990959 -1.990959 -1.067473 0.000000 0.000000 -1.000000 0.263851 0.801584 1 0 1.000000
  0 1.173867 -1.173867 -1.067473 0.000000 0.000000 -1.000000 0.226504 0.762369 1 0 1.000000
ceiling_light
  0 1.990959 -1.990959 -1.067473 0.000000 0.000000 -1.000000 0.263851 0.801584 1 0 1.000000
  0 0.635292 -1.533730 -1.067473 0.000000 0.000000 -1.000000 0.205595 0.777038 1 0 1.000000
  0 1.173867 -1.173867 -1.067473 0.000000 0.000000 -1.000000 0.226504 0.762369 1 0 1.000000
ceiling_light
  0 1.990959 -1.990959 -1.067473 0.000000 0.000000 -1.000000 0.263851 0.801584 1 0 1.000000
  0 1.077499 -2.601313 -1.067473 0.000000 0.000000 -1.000000 0.225808 0.828274 1 0 1.000000
  0 0.635292 -1.533730 -1.067473 0.000000 0.000000 -1.000000 0.205595 0.777038 1 0 1.000000
ceiling_light
  0 1.077499 -2.601313 -1.067473 0.000000 0.000000 -1.000000 0.225808 0.828274 1 0 1.000000
  0 0.000000 -1.660098 -1.067473 0.000000 0.000000 -1.000000 0.180932 0.782189 1 0 1.000000
  0 0.635292 -1.533730 -1.067473 0.000000 0.000000 -1.000000 0.205595 0.777038 1 0 1.000000
ceiling_light
  0 1.077499 -2.601313 -1.067473 0.000000 0.000000 -1.000000 0.225808 0.828274 1 0 1.000000
  0 0.000000 -2.815641 -1.067473 0.000000 0.000000 -1.000000 0.180932 0.837647 1 0 1.000000
  0 0.000000 -1.660098 -1.067473 0.000000 0.000000 -1.000000 0.180932 0.782189 1 0 1.000000
ceiling_light
  0 0.000000 -2.815641 -1.067473 0.000000 0.000000 -1.000000 0.180932 0.837647 1 0 1.000000
  0 -0.635292 -1.533730 -1.067473 0.000000 0.000000 -1.000000 0.156270 0.777038 1 0 1.000000
  0 0.000000 -1.660098 -1.067473 0.000000 0.000000 -1.000000 0.180932 0.782189 1 0 1.000000
ceiling_light
  0 0.000000 -2.815641 -1.067473 0.000000 0.000000 -1.000000 0.180932 0.837647 1 0 1.000000
  0 -1.077499 -2.601313 -1.067473 0.000000 0.000000 -1.000000 0.136057 0.828274 1 0 1.000000
  0 -0.635292 -1.533730 -1.067473 0.000000 0.000000 -1.000000 0.156270 0.777038 1 0 1.000000
ceiling_light
  0 -1.077499 -2.601313 -1.067473 0.000000 0.000000 -1.000000 0.136057 0.828274 1 0 1.000000
  0 -1.173867 -1.173867 -1.067473 0.000000 0.000000 -1.000000 0.135361 0.762369 1 0 1.000000
  0 -0.635292 -1.533730 -1.067473 0.000000 0.000000 -1.000000 0.156270 0.777038 1 0 1.000000
ceiling_light
  0 -1.077499 -2.601313 -1.067473 0.000000 0.000000 -1.000000 0.136057 0.828274 1 0 1.000000
  0 -1.990959 -1.990959 -1.067473 0.000000 0.000000 -1.000000 0.098014 0.801584 1 0 1.000000
  0 -1.173867 -1.173867 -1.067473 0.000000 0.000000 -1.000000 0.135361 0.762369 1 0 1.000000
ceiling_light
  0 -1.990959 -1.990959 -1.067473 0.000000 0.000000 -1.000000 0.098014 0.801584 1 0 1.000000
  0 -1.533730 -0.635292 -1.067473 0.000000 0.000000 -1.000000 0.121391 0.740415 1 0 1.000000
  0 -1.173867 -1.173867 -1.067473 0.000000 0.000000 -1.000000 0.135361 0.762369 1 0 1.000000
ceiling_light
  0 -1.990959 -1.990959 -1.067473 0.000000 0.000000 -1.000000 0.098014 0.801584 1 0 1.000000
  0 -2.601313 -1.077499 -1.067473 0.000000 0.000000 -1.000000 0.072594 0.761638 1 0 1.000000
  0 -1.533730 -0.635292 -1.067473 0.000000 0.000000 -1.000000 0.121391 0.740415 1 0 1.000000
ceiling_light
  0 -2.601313 -1.077499 -1.067473 0.000000 0.000000 -1.000000 0.072594 0.761638 1 0 1.000000
  0 -1.660098 0.000000 -1.067473 0.000000 0.000000 -1.000000 0.116485 0.714519 1 0 1.000000
  0 -1.533730 -0.635292 -1.067473 0.000000 0.000000 -1.000000 0.121391 0.740415 1 0 1.000000
ceiling_light
  0 -2.601313 -1.077499 -1.067473 0.000000 0.000000 -1.000000 0.072594 0.761638 1 0 1.000000
  0 -2.815641 0.000000 -1.067473 0.000000 0.000000 -1.000000 0.063668 0.714519 1 0 1.000000
  0 -1.660098 0.000000 -1.067473 0.000000 0.000000 -1.000000 0.116485 0.714519 1 0 1.000000
ceiling_light
  0 -2.815641 0.000000 -1.067473 0.000000 0.000000 -1.000000 0.063668 0.714519 1 0 1.000000
  0 -1.533730 0.635292 -1.067473 0.000000 0.000000 -1.000000 0.121391 0.688623 1 0 1.000000
  0 -1.660098 0.000000 -1.067473 0.000000 0.000000 -1.000000 0.116485 0.714519 1 0 1.000000
ceiling_light
  0 -2.815641 0.000000 -1.067473 0.000000 0.000000 -1.000000 0.063668 0.714519 1 0 1.000000
  0 -2.601313 1.077499 -1.067473 0.000000 0.000000 -1.000000 0.072594 0.667400 1 0 1.000000
  0 -1.533730 0.635292 -1.067473 0.000000 0.000000 -1.000000 0.121391 0.688623 1 0 1.000000
ceiling_light
  0 -2.601313 1.077499 -1.067473 0.000000 0.000000 -1.000000 0.072594 0.667400 1 0 1.000000
  0 -1.173867 1.173867 -1.067473 0.000000 0.000000 -1.000000 0.135361 0.666669 1 0 1.000000
  0 -1.533730 0.635292 -1.067473 0.000000 0.000000 -1.000000 0.121391 0.688623 1 0 1.000000
ceiling_light
  0 -2.601313 1.077499 -1.067473 0.000000 0.000000 -1.000000 0.072594 0.667400 1 0 1.000000
  0 -1.990959 1.990959 -1.067473 0.000000 0.000000 -1.000000 0.098014 0.627454 1 0 1.000000
  0 -1.173867 1.173867 -1.067473 0.000000 0.000000 -1.000000 0.135361 0.666669 1 0 1.000000
ceiling_light
  0 -1.990959 1.990959 -1.067473 0.000000 0.000000 -1.000000 0.098014 0.627454 1 0 1.000000
  0 -0.635292 1.533730 -1.067473 0.000000 0.000000 -1.000000 0.156270 0.651999 1 0 1.000000
  0 -1.173867 1.173867 -1.067473 0.000000 0.000000 -1.000000 0.135361 0.666669 1 0 1.000000
ceiling_light
  0 -1.990959 1.990959 -1.067473 0.000000 0.000000 -1.000000 0.098014 0.627454 1 0 1.000000
  0 -1.077499 2.601313 -1.067473 0.000000 0.000000 -1.000000 0.136057 0.600763 1 0 1.000000
  0 -0.635292 1.533730 -1.067473 0.000000 0.000000 -1.000000 0.156270 0.651999 1 0 1.000000
ceiling_light
  0 -1.077499 2.601313 -1.067473 0.000000 0.000000 -1.000000 0.136057 0.600763 1 0 1.000000
  0 0.000000 1.660098 -1.067473 0.000000 0.000000 -1.000000 0.180932 0.646849 1 0 1.000000
  0 -0.635292 1.533730 -1.067473 0.000000 0.000000 -1.000000 0.156270 0.651999 1 0 1.000000
ceiling_light
  0 -1.077499 2.601313 -1.067473 0.000000 0.000000 -1.000000 0.136057 0.600763 1 0 1.000000
  0 0.000000 2.815641 -1.067473 0.000000 0.000000 -1.000000 0.180932 0.591391 1 0 1.000000
  0 0.000000 1.660098 -1.067473 0.000000 0.000000 -1.000000 0.180932 0.646849 1 0 1.000000
ceiling_light
  0 0.000000 2.815641 -1.067473 0.000000 0.000000 -1.000000 0.180932 0.591391 1 0 1.000000
  0 0.635292 1.533730 -1.067473 0.000000 0.000000 -1.000000 0.205595 0.651999 1 0 1.000000
  0 0.000000 1.660098 -1.067473 0.000000 0.000000 -1.000000 0.180932 0.646849 1 0 1.000000
ceiling_light
  0 0.000000 2.815641 -1.067473 0.000000 0.000000 -1.000000 0.180932 0.591391 1 0 1.000000
  0 1.077499 2.601313 -1.067473 0.000000 0.000000 -1.000000 0.225808 0.600763 1 0 1.000000
  0 0.635292 1.533730 -1.067473 0.000000 0.000000 -1.000000 0.205595 0.651999 1 0 1.000000
ceiling_light
  0 1.077499 2.601313 -1.067473 0.000000 0.000000 -1.000000 0.225808 0.600763 1 0 1.000000
  0 1.173867 1.173867 -1.067473 0.000000 0.000000 -1.000000 0.226504 0.666669 1 0 1.000000
  0 0.635292 1.533730 -1.067473 0.000000 0.000000 -1.000000 0.205595 0.651999 1 0 1.000000
ceiling_light
  0 1.077499 2.601313 -1.067473 0.000000 0.000000 -1.000000 0.225808 0.600763 1 0 1.000000
  0 1.990959 1.990959 -1.067473 0.000000 0.000000 -1.000000 0.263851 0.627454 1 0 1.000000
  0 1.173867 1.173867 -1.067473 0.000000 0.000000 -1.000000 0.226504 0.666669 1 0 1.000000
ceiling_light
  0 1.990959 1.990959 -1.067473 0.000000 0.000000 -1.000000 0.263851 0.627454 1 0 1.000000
  0 1.533730 0.635292 -1.067473 0.000000 0.000000 -1.000000 0.240474 0.688623 1 0 1.000000
  0 1.173867 1.173867 -1.067473 0.000000 0.000000 -1.000000 0.226504 0.666669 1 0 1.000000
ceiling_light
  0 1.990959 1.990959 -1.067473 0.000000 0.000000 -1.000000 0.263851 0.627454 1 0 1.000000
  0 2.601313 1.077499 -1.067473 0.000000 0.000000 -1.000000 0.289270 0.667400 1 0 1.000000
  0 1.533730 0.635292 -1.067473 0.000000 0.000000 -1.000000 0.240474 0.688623 1 0 1.000000
ceiling_light
  0 2.601313 1.077499 -1.067473 0.000000 0.000000 -1.000000 0.289270 0.667400 1 0 1.000000
  0 1.660098 0.000000 -1.067473 0.000000 0.000000 -1.000000 0.245379 0.714519 1 0 1.000000
  0 1.533730 0.635292 -1.067473 0.000000 0.000000 -1.000000 0.240474 0.688623 1 0 1.000000
ceiling_light
  0 2.601313 1.077499 -1.067473 0.000000 0.000000 -1.000000 0.289270 0.667400 1 0 1.000000
  0 2.815641 0.000000 -1.067473 0.000000 0.000000 -1.000000 0.298196 0.714519 1 0 1.000000
  0 1.660098 0.000000 -1.067473 0.000000 0.000000 -1.000000 0.245379 0.714519 1 0 1.000000
wall_lamp_bulb
  0 0.000000 0.877236 -4.265292 0.000001 0.985754 0.168194 0.015877 0.381677 1 0 1.000000
  0 -0.620299 0.620299 -3.078882 -0.707107 0.707107 0.000000 0.136703 0.477033 1 0 1.000000
  0 0.000000 0.877236 -3.078882 0.000000 1.000000 0.000000 0.015877 0.477033 1 0 1.000000
wall_lamp_bulb
  0 -0.877236 0.000000 -4.265292 -0.985754 0.000000 0.168194 0.257530 0.381677 1 0 1.000000
  0 -0.620299 -0.620299 -4.265292 -0.697039 -0.697039 0.168143 0.378357 0.381677 1 0 1.000000
  0 -0.620299 -0.620299 -3.078882 -0.707107 -0.707107 0.000000 0.378357 0.477033 1 0 1.000000
wall_lamp_bulb
  0 -0.877236 0.000000 -4.265292 -0.985754 0.000000 0.168194 0.257530 0.381677 1 0 1.000000
  0 -0.620299 -0.620299 -3.078882 -0.707107 -0.707107 0.000000 0.378357 0.477033 1 0 1.000000
  0 -0.877236 0.000000 -3.078882 -1.000000 0.000000 0.000000 0.257530 0.477033 1 0 1.000000
wall_lamp_bulb
  0 -0.620299 0.620299 -4.265292 -0.697046 0.697045 0.168093 0.136703 0.381677 1 0 1.000000
  0 -0.877236 0.000000 -4.265292 -0.985754 0.000000 0.168194 0.257530 0.381677 1 0 1.000000
  0 -0.877236 0.000000 -3.078882 -1.000000 0.000000 0.000000 0.257530 0.477033 1 0 1.000000
wall_lamp_bulb
  0 -0.620299 0.620299 -4.265292 -0.697046 0.697045 0.168093 0.136703 0.381677 1 0 1.000000
  0 -0.877236 0.000000 -3.078882 -1.000000 0.000000 0.000000 0.257530 0.477033 1 0 1.000000
  0 -0.620299 0.620299 -3.078882 -0.707107 0.707107 0.000000 0.136703 0.477033 1 0 1.000000
wall_lamp_bulb
  0 0.000000 0.877236 -4.265292 0.000001 0.985754 0.168194 0.015877 0.381677 1 0 1.000000
  0 -0.620299 0.620299 -4.265292 -0.697046 0.697045 0.168093 0.136703 0.381677 1 0 1.000000
  0 -0.620299 0.620299 -3.078882 -0.707107 0.707107 0.000000 0.136703 0.477033 1 0 1.000000
wall_lamp_bulb
  0 -0.620299 0.620299 -4.265292 -0.697046 0.697045 0.168093 0.136703 0.381677 1 0 1.000000
  0 0.000000 0.877236 -4.265292 0.000001 0.985754 0.168194 0.015877 0.381677 1 0 1.000000
  0 0.000000 1.191621 -5.163914 0.000001 0.876362 0.481654 0.015877 0.309452 1 0 1.000000
wall_lamp_bulb
  0 -0.620299 0.620299 -4.265292 -0.697046 0.697045 0.168093 0.136703 0.381677 1 0 1.000000
  0 0.000000 1.191621 -5.163914 0.000001 0.876362 0.481654 0.015877 0.309452 1 0 1.000000
  0 -0.842603 0.842603 -5.163914 -0.619681 0.619681 0.481654 0.136703 0.309452 1 0 1.000000
wall_lamp_bulb
  0 -0.842603 0.842603 -5.163914 -0.619681 0.619681 0.481654 0.136703 0.309452 1 0 1.000000
  0 0.000000 1.191621 -5.163914 0.000001 0.876362 0.481654 0.015877 0.309452 1 0 1.000000
  0 0.000000 1.687555 -5.796170 -0.000002 0.867653 0.497171 0.015877 0.258635 1 0 1.000000
wall_lamp_bulb
  0 -0.842603 0.842603 -5.163914 -0.619681 0.619681 0.481654 0.136703 0.309452 1 0 1.000000
  0 0.000000 1.687555 -5.796170 -0.000002 0.867653 0.497171 0.015877 0.258635 1 0 1.000000
  0 -1.193282 1.193282 -5.796170 -0.613522 0.613524 0.497171 0.136703 0.258635 1 0 1.000000
wall_lamp_bulb
  0 -1.193282 1.193282 -5.796170 -0.613522 0.613524 0.497171 0.136703 0.258635 1 0 1.000000
  0 0.000000 1.687555 -5.796170 -0.000002 0.867653 0.497171 0.015877 0.258635 1 0 1.000000
  0 0.000000 1.999704 -6.594475 -0.000001 0.982517 0.186175 0.015877 0.194472 1 0 1.000000
wall_lamp_bulb
  0 -1.193282 1.193282 -5.796170 -0.613522 0.613524 0.497171 0.136703 0.258635 1 0 1.000000
  0 0.000000 1.999704 -6.594475 -0.000001 0.982517 0.186175 0.015877 0.194472 1 0 1.000000
  0 -1.414004 1.414004 -6.594475 -0.694745 0.694744 0.186175 0.136703 0.194472 1 0 1.000000
wall_lamp_bulb
  0 -1.414004 1.414004 -6.594475 -0.694745 0.694744 0.186175 0.136703 0.194472 1 0 1.000000
  0 0.000000 1.999704 -6.594475 -0.000001 0.982517 0.186175 0.015877 0.194472 1 0 1.000000
  0 0.000000 1.999704 -7.509200 0.000000 0.967406 -0.253230 0.015877 0.120953 1 0 1.000000
wall_lamp_bulb
  0 -1.414004 1.414004 -6.594475 -0.694745 0.694744 0.186175 0.136703 0.194472 1 0 1.000000
  0 0.000000 1.999704 -7.509200 0.000000 0.967406 -0.253230 0.015877 0.120953 1 0 1.000000
  0 -1.414004 1.414004 -7.509200 -0.684059 0.684060 -0.253230 0.136703 0.120953 1 0 1.000000
wall_lamp_bulb
  0 -1.414004 1.414004 -7.509200 -0.684059 0.684060 -0.253230 0.136703 0.120953 1 0 1.000000
  0 0.000000 1.999704 -7.509200 0.000000 0.967406 -0.253230 0.015877 0.120953 1 0 1.000000
  0 0.000000 1.537345 -8.340768 0.000002 0.672742 -0.739878 0.015877 0.054116 1 0 1.000000
wall_lamp_bulb
  0 -1.414004 1.414004 -7.509200 -0.684059 0.684060 -0.253230 0.136703 0.120953 1 0 1.000000
  0 0.000000 1.537345 -8.340768 0.000002 0.672742 -0.739878 0.015877 0.054116 1 0 1.000000
  0 -1.087067 1.087067 -8.340768 -0.475698 0.475702 -0.739878 0.136703 0.054116 1 0 1.000000
wall_lamp_bulb
  0 -1.087067 1.087067 -8.340768 -0.475698 0.475702 -0.739878 0.136703 0.054116 1 0 1.000000
  0 0.000000 1.537345 -8.340768 0.000002 0.672742 -0.739878 0.015877 0.054116 1 0 1.000000
  0 0.000000 0.479865 -8.823077 0.000002 0.281009 -0.959705 0.015877 0.015351 1 0 1.000000
wall_lamp_bulb
  0 -1.087067 1.087067 -8.340768 -0.475698 0.475702 -0.739878 0.136703 0.054116 1 0 1.000000
  0 0.000000 0.479865 -8.823077 0.000002 0.281009 -0.959705 0.015877 0.015351 1 0 1.000000
  0 -0.339316 0.339316 -8.823077 -0.198707 0.198707 -0.959704 0.136703 0.015351 1 0 1.000000
wall_lamp_bulb
  0 -1.537345 0.000000 -8.340768 -0.672741 -0.000002 -0.739878 0.257530 0.054116 1 0 1.000000
  0 -1.087067 1.087067 -8.340768 -0.475698 0.475702 -0.739878 0.136703 0.054116 1 0 1.000000
  0 -0.339316 0.339316 -8.823077 -0.198707 0.198707 -0.959704 0.136703 0.015351 1 0 1.000000
wall_lamp_bulb
  0 -1.687555 0.000000 -5.796170 -0.867653 -0.000001 0.497171 0.257530 0.258635 1 0 1.000000
  0 -1.193282 1.193282 -5.796170 -0.613522 0.613524 0.497171 0.136703 0.258635 1 0 1.000000
  0 -1.414004 1.414004 -6.594475 -0.694745 0.694744 0.186175 0.136703 0.194472 1 0 1.000000
wall_lamp_bulb
  0 -1.191621 0.000000 -5.163914 -0.876362 0.000002 0.481654 0.257530 0.309452 1 0 1.000000
  0 -1.193282 1.193282 -5.796170 -0.613522 0.613524 0.497171 0.136703 0.258635 1 0 1.000000
  0 -1.687555 0.000000 -5.796170 -0.867653 -0.000001 0.497171 0.257530 0.258635 1 0 1.000000
wall_lamp_bulb
  0 -1.191621 0.000000 -5.163914 -0.876362 0.000002 0.481654 0.257530 0.309452 1 0 1.000000
  0 -0.842603 0.842603 -5.163914 -0.619681 0.619681 0.481654 0.136703 0.309452 1 0 1.000000
  0 -1.193282 1.193282 -5.796170 -0.613522 0.613524 0.497171 0.136703 0.258635 1 0 1.000000
wall_lamp_bulb
  0 -0.877236 0.000000 -4.265292 -0.985754 0.000000 0.168194 0.257530 0.381677 1 0 1.000000
  0 -0.842603 0.842603 -5.163914 -0.619681 0.619681 0.481654 0.136703 0.309452 1 0 1.000000
  0 -1.191621 0.000000 -5.163914 -0.876362 0.000002 0.481654 0.257530 0.309452 1 0 1.000000
wall_lamp_bulb
  0 -0.877236 0.000000 -4.265292 -0.985754 0.000000 0.168194 0.257530 0.381677 1 0 1.000000
  0 -0.620299 0.620299 -4.265292 -0.697046 0.697045 0.168093 0.136703 0.381677 1 0 1.000000
  0 -0.842603 0.842603 -5.163914 -0.619681 0.619681 0.481654 0.136703 0.309452 1 0 1.000000
wall_lamp_bulb
  0 -0.842603 -0.842603 -5.163914 -0.619682 -0.619680 0.481654 0.378357 0.309452 1 0 1.000000
  0 -1.191621 0.000000 -5.163914 -0.876362 0.000002 0.481654 0.257530 0.309452 1 0 1.000000
  0 -1.687555 0.000000 -5.796170 -0.867653 -0.000001 0.497171 0.257530 0.258635 1 0 1.000000
wall_lamp_bulb
  0 -0.620299 -0.620299 -4.265292 -0.697039 -0.697039 0.168143 0.378357 0.381677 1 0 1.000000
  0 -1.191621 0.000000 -5.163914 -0.876362 0.000002 0.481654 0.257530 0.309452 1 0 1.000000
  0 -0.842603 -0.842603 -5.163914 -0.619682 -0.619680 0.481654 0.378357 0.309452 1 0 1.000000
wall_lamp_bulb
  0 -0.620299 -0.620299 -4.265292 -0.697039 -0.697039 0.168143 0.378357 0.381677 1 0 1.000000
  0 -0.877236 0.000000 -4.265292 -0.985754 0.000000 0.168194 0.257530 0.381677 1 0 1.000000
  0 -1.191621 0.000000 -5.163914 -0.876362 0.000002 0.481654 0.257530 0.309452 1 0 1.000000
wall_lamp_bulb
  0 0.000000 -0.877236 -4.265292 0.000000 -0.985754 0.168194 0.499184 0.381677 1 0 1.000000
  0 -0.620299 -0.620299 -4.265292 -0.697039 -0.697039 0.168143 0.378357 0.381677 1 0 1.000000
  0 -0.842603 -0.842603 -5.163914 -0.619682 -0.619680 0.481654 0.378357 0.309452 1 0 1.000000
wall_lamp_bulb
  0 0.620299 -0.620299 -4.265292 0.697045 -0.697046 0.168093 0.620010 0.381677 1 0 1.000000
  0 0.000000 -0.877236 -4.265292 0.000000 -0.985754 0.168194 0.499184 0.381677 1 0 1.000000
  0 0.000000 -1.191621 -5.163914 -0.000001 -0.876362 0.481654 0.499184 0.309452 1 0 1.000000
wall_lamp_bulb
  0 0.000000 -0.877236 -4.265292 0.000000 -0.985754 0.168194 0.499184 0.381677 1 0 1.000000
  0 -0.842603 -0.842603 -5.163914 -0.619682 -0.619680 0.481654 0.378357 0.309452 1 0 1.000000
  0 0.000000 -1.191621 -5.163914 -0.000001 -0.876362 0.481654 0.499184 0.309452 1 0 1.000000
wall_lamp_bulb
  0 0.000000 -1.191621 -5.163914 -0.000001 -0.876362 0.481654 0.499184 0.309452 1 0 1.000000
  0 -0.842603 -0.842603 -5.163914 -0.619682 -0.619680 0.481654 0.378357 0.309452 1 0 1.000000
  0 -1.193282 -1.193282 -5.796170 -0.613522 -0.613524 0.497171 0.378357 0.258635 1 0 1.000000
wall_lamp_bulb
  0 -0.842603 -0.842603 -5.163914 -0.619682 -0.619680 0.481654 0.378357 0.309452 1 0 1.000000
  0 -1.687555 0.000000 -5.796170 -0.867653 -0.000001 0.497171 0.257530 0.258635 1 0 1.000000
  0 -1.193282 -1.193282 -5.796170 -0.613522 -0.613524 0.497171 0.378357 0.258635 1 0 1.000000
wall_lamp_bulb
  0 -1.193282 -1.193282 -5.796170 -0.613522 -0.613524 0.497171 0.378357 0.258635 1 0 1.000000
  0 -1.687555 0.000000 -5.796170 -0.867653 -0.000001 0.497171 0.257530 0.258635 1 0 1.000000
  0 -1.999704 0.000000 -6.594475 -0.982517 0.000000 0.186175 0.257530 0.194472 1 0 1.000000
wall_lamp_bulb
  0 -1.687555 0.000000 -5.796170 -0.867653 -0.000001 0.497171 0.257530 0.258635 1 0 1.000000
  0 -1.414004 1.414004 -6.594475 -0.694745 0.694744 0.186175 0.136703 0.194472 1 0 1.000000
  0 -1.999704 0.000000 -6.594475 -0.982517 0.000000 0.186175 0.257530 0.194472 1 0 1.000000
wall_lamp_bulb
  0 -1.999704 0.000000 -6.594475 -0.982517 0.000000 0.186175 0.257530 0.194472 1 0 1.000000
  0 -1.414004 1.414004 -6.594475 -0.694745 0.694744 0.186175 0.136703 0.194472 1 0 1.000000
  0 -1.414004 1.414004 -7.509200 -0.684059 0.684060 -0.253230 0.136703 0.120953 1 0 1.000000
wall_lamp_bulb
  0 1.193282 1.193282 -5.796170 0.613524 0.613522 0.497171 0.861664 0.258635 1 0 1.000000
  0 1.999704 0.000000 -6.594475 0.982517 0.000000 0.186175 0.740837 0.194472 1 0 1.000000
  0 1.414004 1.414004 -6.594475 0.694744 0.694744 0.186175 0.861664 0.194472 1 0 1.000000
wall_lamp_bulb
  0 1.193282 1.193282 -5.796170 0.613524 0.613522 0.497171 0.861664 0.258635 1 0 1.000000
  0 1.687555 0.000000 -5.796170 0.867653 -0.000001 0.497171 0.740837 0.258635 1 0 1.000000
  0 1.999704 0.000000 -6.594475 0.982517 0.000000 0.186175 0.740837 0.194472 1 0 1.000000
wall_lamp_bulb
  0 0.842603 0.842603 -5.163914 0.619680 0.619682 0.481654 0.861664 0.309452 1 0 1.000000
  0 1.687555 0.000000 -5.796170 0.867653 -0.000001 0.497171 0.740837 0.258635 1 0 1.000000
  0 1.193282 1.193282 -5.796170 0.613524 0.613522 0.497171 0.861664 0.258635 1 0 1.000000
wall_lamp_bulb
  0 0.842603 0.842603 -5.163914 0.619680 0.619682 0.481654 0.861664 0.309452 1 0 1.000000
  0 1.191621 0.000000 -5.163914 0.876362 -0.000002 0.481654 0.740837 0.309452 1 0 1.000000
  0 1.687555 0.000000 -5.796170 0.867653 -0.000001 0.497171 0.740837 0.258635 1 0 1.000000
wall_lamp_bulb
  0 0.620299 0.620299 -4.265292 0.697040 0.697039 0.168143 0.861664 0.381677 1 0 1.000000
  0 1.191621 0.000000 -5.163914 0.876362 -0.000002 0.481654 0.740837 0.309452 1 0 1.000000
  0 0.842603 0.842603 -5.163914 0.619680 0.619682 0.481654 0.861664 0.309452 1 0 1.000000
wall_lamp_bulb
  0 0.620299 0.620299 -4.265292 0.697040 0.697039 0.168143 0.861664 0.381677 1 0 1.000000
  0 0.877236 0.000000 -4.265292 0.985754 0.000001 0.168194 0.740837 0.381677 1 0 1.000000
  0 1.191621 0.000000 -5.163914 0.876362 -0.000002 0.481654 0.740837 0.309452 1 0 1.000000
wall_lamp_bulb
  0 0.877236 0.000000 -4.265292 0.985754 0.000001 0.168194 0.740837 0.381677 1 0 1.000000
  0 0.842603 -0.842603 -5.163914 0.619680 -0.619682 0.481654 0.620010 0.309452 1 0 1.000000
  0 1.191621 0.000000 -5.163914 0.876362 -0.000002 0.481654 0.740837 0.309452 1 0 1.000000
wall_lamp_bulb
  0 0.877236 0.000000 -4.265292 0.985754 0.000001 0.168194 0.740837 0.381677 1 0 1.000000
  0 0.620299 -0.620299 -4.265292 0.697045 -0.697046 0.168093 0.620010 0.381677 1 0 1.000000
  0 0.842603 -0.842603 -5.163914 0.619680 -0.619682 0.481654 0.620010 0.309452 1 0 1.000000
wall_lamp_bulb
  0 0.620299 -0.620299 -4.265292 0.697045 -0.697046 0.168093 0.620010 0.381677 1 0 1.000000
  0 0.000000 -1.191621 -5.163914 -0.000001 -0.876362 0.481654 0.499184 0.309452 1 0 1.000000
  0 0.842603 -0.842603 -5.163914 0.619680 -0.619682 0.481654 0.620010 0.309452 1 0 1.000000
wall_lamp_bulb
  0 0.842603 -0.842603 -5.163914 0.619680 -0.619682 0.481654 0.620010 0.309452 1 0 1.000000
  0 0.000000 -1.191621 -5.163914 -0.000001 -0.876362 0.481654 0.499184 0.309452 1 0 1.000000
  0 0.000000 -1.687555 -5.796170 0.000001 -0.867653 0.497171 0.499184 0.258635 1 0 1.000000
wall_lamp_bulb
  0 0.000000 -1.191621 -5.163914 -0.000001 -0.876362 0.481654 0.499184 0.309452 1 0 1.000000
  0 -1.193282 -1.193282 -5.796170 -0.613522 -0.613524 0.497171 0.378357 0.258635 1 0 1.000000
  0 0.000000 -1.687555 -5.796170 0.000001 -0.867653 0.497171 0.499184 0.258635 1 0 1.000000
wall_lamp_bulb
  0 0.000000 -1.687555 -5.796170 0.000001 -0.867653 0.497171 0.499184 0.258635 1 0 1.000000
  0 -1.193282 -1.193282 -5.796170 -0.613522 -0.613524 0.497171 0.378357 0.258635 1 0 1.000000
  0 -1.414004 -1.414004 -6.594475 -0.694744 -0.694744 0.186175 0.378357 0.194472 1 0 1.000000
wall_lamp_bulb
  0 -1.193282 -1.193282 -5.796170 -0.613522 -0.613524 0.497171 0.378357 0.258635 1 0 1.000000
  0 -1.999704 0.000000 -6.594475 -0.982517 0.000000 0.186175 0.257530 0.194472 1 0 1.000000
  0 -1.414004 -1.414004 -6.594475 -0.694744 -0.694744 0.186175 0.378357 0.194472 1 0 1.000000
wall_lamp_bulb
  0 -1.414004 -1.414004 -6.594475 -0.694744 -0.694744 0.186175 0.378357 0.194472 1 0 1.000000
  0 -1.999704 0.000000 -6.594475 -0.982517 0.000000 0.186175 0.257530 0.194472 1 0 1.000000
  0 -1.999704 0.000000 -7.509200 -0.967406 -0.000001 -0.253230 0.257530 0.120953 1 0 1.000000
wall_lamp_bulb
  0 -1.999704 0.000000 -6.594475 -0.982517 0.000000 0.186175 0.257530 0.194472 1 0 1.000000
  0 -1.414004 1.414004 -7.509200 -0.684059 0.684060 -0.253230 0.136703 0.120953 1 0 1.000000
  0 -1.999704 0.000000 -7.509200 -0.967406 -0.000001 -0.253230 0.257530 0.120953 1 0 1.000000
wall_lamp_bulb
  0 -1.999704 0.000000 -7.509200 -0.967406 -0.000001 -0.253230 0.257530 0.120953 1 0 1.000000
  0 -1.414004 1.414004 -7.509200 -0.684059 0.684060 -0.253230 0.136703 0.120953 1 0 1.000000
  0 -1.087067 1.087067 -8.340768 -0.475698 0.475702 -0.739878 0.136703 0.054116 1 0 1.000000
wall_lamp_bulb
  0 -1.999704 0.000000 -7.509200 -0.967406 -0.000001 -0.253230 0.257530 0.120953 1 0 1.000000
  0 -1.087067 1.087067 -8.340768 -0.475698 0.475702 -0.739878 0.136703 0.054116 1 0 1.000000
  0 -1.537345 0.000000 -8.340768 -0.672741 -0.000002 -0.739878 0.257530 0.054116 1 0 1.000000
wall_lamp_bulb
  0 -1.414004 -1.414004 -7.509200 -0.684070 -0.684070 -0.253173 0.378357 0.120953 1 0 1.000000
  0 -1.999704 0.000000 -7.509200 -0.967406 -0.000001 -0.253230 0.257530 0.120953 1 0 1.000000
  0 -1.537345 0.000000 -8.340768 -0.672741 -0.000002 -0.739878 0.257530 0.054116 1 0 1.000000
wall_lamp_bulb
  0 1.414004 1.414004 -6.594475 0.694744 0.694744 0.186175 0.861664 0.194472 1 0 1.000000
  0 1.999704 0.000000 -7.509200 0.967406 0.000001 -0.253230 0.740837 0.120953 1 0 1.000000
  0 1.414004 1.414004 -7.509200 0.684069 0.684071 -0.253173 0.861664 0.120953 1 0 1.000000
wall_lamp_bulb
  0 1.414004 1.414004 -6.594475 0.694744 0.694744 0.186175 0.861664 0.194472 1 0 1.000000
  0 1.999704 0.000000 -6.594475 0.982517 0.000000 0.186175 0.740837 0.194472 1 0 1.000000
  0 1.999704 0.000000 -7.509200 0.967406 0.000001 -0.253230 0.740837 0.120953 1 0 1.000000
wall_lamp_bulb
  0 1.999704 0.000000 -6.594475 0.982517 0.000000 0.186175 0.740837 0.194472 1 0 1.000000
  0 1.414004 -1.414004 -7.509200 0.684060 -0.684059 -0.253230 0.620010 0.120953 1 0 1.000000
  0 1.999704 0.000000 -7.509200 0.967406 0.000001 -0.253230 0.740837 0.120953 1 0 1.000000
wall_lamp_bulb
  0 1.999704 0.000000 -6.594475 0.982517 0.000000 0.186175 0.740837 0.194472 1 0 1.000000
  0 1.414004 -1.414004 -6.594475 0.694744 -0.694744 0.186175 0.620010 0.194472 1 0 1.000000
  0 1.414004 -1.414004 -7.509200 0.684060 -0.684059 -0.253230 0.620010 0.120953 1 0 1.000000
wall_lamp_bulb
  0 1.687555 0.000000 -5.796170 0.867653 -0.000001 0.497171 0.740837 0.258635 1 0 1.000000
  0 1.414004 -1.414004 -6.594475 0.694744 -0.694744 0.186175 0.620010 0.194472 1 0 1.000000
  0 1.999704 0.000000 -6.594475 0.982517 0.000000 0.186175 0.740837 0.194472 1 0 1.000000
wall_lamp_bulb
  0 1.687555 0.000000 -5.796170 0.867653 -0.000001 0.497171 0.740837 0.258635 1 0 1.000000
  0 1.193282 -1.193282 -5.796170 0.613522 -0.613524 0.497171 0.620010 0.258635 1 0 1.000000
  0 1.414004 -1.414004 -6.594475 0.694744 -0.694744 0.186175 0.620010 0.194472 1 0 1.000000
wall_lamp_bulb
  0 1.191621 0.000000 -5.163914 0.876362 -0.000002 0.481654 0.740837 0.309452 1 0 1.000000
  0 1.193282 -1.193282 -5.796170 0.613522 -0.613524 0.497171 0.620010 0.258635 1 0 1.000000
  0 1.687555 0.000000 -5.796170 0.867653 -0.000001 0.497171 0.740837 0.258635 1 0 1.000000
wall_lamp_bulb
  0 1.191621 0.000000 -5.163914 0.876362 -0.000002 0.481654 0.740837 0.309452 1 0 1.000000
  0 0.842603 -0.842603 -5.163914 0.619680 -0.619682 0.481654 0.620010 0.309452 1 0 1.000000
  0 1.193282 -1.193282 -5.796170 0.613522 -0.613524 0.497171 0.620010 0.258635 1 0 1.000000
wall_lamp_bulb
  0 0.842603 -0.842603 -5.163914 0.619680 -0.619682 0.481654 0.620010 0.309452 1 0 1.000000
  0 0.000000 -1.687555 -5.796170 0.000001 -0.867653 0.497171 0.499184 0.258635 1 0 1.000000
  0 1.193282 -1.193282 -5.796170 0.613522 -0.613524 0.497171 0.620010 0.258635 1 0 1.000000
wall_lamp_bulb
  0 1.193282 -1.193282 -5.796170 0.613522 -0.613524 0.497171 0.620010 0.258635 1 0 1.000000
  0 0.000000 -1.687555 -5.796170 0.000001 -0.867653 0.497171 0.499184 0.258635 1 0 1.000000
  0 0.000000 -1.999704 -6.594475 0.000000 -0.982517 0.186175 0.499184 0.194472 1 0 1.000000
wall_lamp_bulb
  0 0.000000 -1.687555 -5.796170 0.000001 -0.867653 0.497171 0.499184 0.258635 1 0 1.000000
  0 -1.414004 -1.414004 -6.594475 -0.694744 -0.694744 0.186175 0.378357 0.194472 1 0 1.000000
  0 0.000000 -1.999704 -6.594475 0.000000 -0.982517 0.186175 0.499184 0.194472 1 0 1.000000
wall_lamp_bulb
  0 0.000000 -1.999704 -6.594475 0.000000 -0.982517 0.186175 0.499184 0.194472 1 0 1.000000
  0 -1.414004 -1.414004 -6.594475 -0.694744 -0.694744 0.186175 0.378357 0.194472 1 0 1.000000
  0 -1.414004 -1.414004 -7.509200 -0.684070 -0.684070 -0.253173 0.378357 0.120953 1 0 1.000000
wall_lamp_bulb
  0 -1.414004 -1.414004 -6.594475 -0.694744 -0.694744 0.186175 0.378357 0.194472 1 0 1.000000
  0 -1.999704 0.000000 -7.509200 -0.967406 -0.000001 -0.253230 0.257530 0.120953 1 0 1.000000
  0 -1.414004 -1.414004 -7.509200 -0.684070 -0.684070 -0.253173 0.378357 0.120953 1 0 1.000000
wall_lamp_bulb
  0 1.193282 -1.193282 -5.796170 0.613522 -0.613524 0.497171 0.620010 0.258635 1 0 1.000000
  0 0.000000 -1.999704 -6.594475 0.000000 -0.982517 0.186175 0.499184 0.194472 1 0 1.000000
  0 1.414004 -1.414004 -6.594475 0.694744 -0.694744 0.186175 0.620010 0.194472 1 0 1.000000
wall_lamp_bulb
  0 1.414004 -1.414004 -6.594475 0.694744 -0.694744 0.186175 0.620010 0.194472 1 0 1.000000
  0 0.000000 -1.999704 -6.594475 0.000000 -0.982517 0.186175 0.499184 0.194472 1 0 1.000000
  0 0.000000 -1.999704 -7.509200 -0.000005 -0.967406 -0.253230 0.499184 0.120953 1 0 1.000000
wall_lamp_bulb
  0 0.000000 -1.999704 -6.594475 0.000000 -0.982517 0.186175 0.499184 0.194472 1 0 1.000000
  0 -1.414004 -1.414004 -7.509200 -0.684070 -0.684070 -0.253173 0.378357 0.120953 1 0 1.000000
  0 0.000000 -1.999704 -7.509200 -0.000005 -0.967406 -0.253230 0.499184 0.120953 1 0 1.000000
wall_lamp_bulb
  0 1.414004 -1.414004 -6.594475 0.694744 -0.694744 0.186175 0.620010 0.194472 1 0 1.000000
  0 0.000000 -1.999704 -7.509200 -0.000005 -0.967406 -0.253230 0.499184 0.120953 1 0 1.000000
  0 1.414004 -1.414004 -7.509200 0.684060 -0.684059 -0.253230 0.620010 0.120953 1 0 1.000000
wall_lamp_bulb
  0 -1.414004 -1.414004 -7.509200 -0.684070 -0.684070 -0.253173 0.378357 0.120953 1 0 1.000000
  0 -1.537345 0.000000 -8.340768 -0.672741 -0.000002 -0.739878 0.257530 0.054116 1 0 1.000000
  0 -1.087067 -1.087067 -8.340768 -0.475696 -0.475704 -0.739878 0.378357 0.054116 1 0 1.000000
wall_lamp_bulb
  0 0.000000 -1.999704 -7.509200 -0.000005 -0.967406 -0.253230 0.499184 0.120953 1 0 1.000000
  0 -1.414004 -1.414004 -7.509200 -0.684070 -0.684070 -0.253173 0.378357 0.120953 1 0 1.000000
  0 -1.087067 -1.087067 -8.340768 -0.475696 -0.475704 -0.739878 0.378357 0.054116 1 0 1.000000
wall_lamp_bulb
  0 0.000000 -1.999704 -7.509200 -0.000005 -0.967406 -0.253230 0.499184 0.120953 1 0 1.000000
  0 -1.087067 -1.087067 -8.340768 -0.475696 -0.475704 -0.739878 0.378357 0.054116 1 0 1.000000
  0 0.000000 -1.537345 -8.340768 0.000017 -0.672742 -0.739878 0.499184 0.054116 1 0 1.000000
wall_lamp_bulb
  0 1.414004 -1.414004 -7.509200 0.684060 -0.684059 -0.253230 0.620010 0.120953 1 0 1.000000
  0 0.000000 -1.999704 -7.509200 -0.000005 -0.967406 -0.253230 0.499184 0.120953 1 0 1.000000
  0 0.000000 -1.537345 -8.340768 0.000017 -0.672742 -0.739878 0.499184 0.054116 1 0 1.000000
wall_lamp_bulb
  0 1.414004 -1.414004 -7.509200 0.684060 -0.684059 -0.253230 0.620010 0.120953 1 0 1.000000
  0 0.000000 -1.537345 -8.340768 0.000017 -0.672742 -0.739878 0.499184 0.054116 1 0 1.000000
  0 1.087067 -1.087067 -8.340768 0.475701 -0.475699 -0.739878 0.620010 0.054116 1 0 1.000000
wall_lamp_bulb
  0 1.999704 0.000000 -7.509200 0.967406 0.000001 -0.253230 0.740837 0.120953 1 0 1.000000
  0 1.414004 -1.414004 -7.509200 0.684060 -0.684059 -0.253230 0.620010 0.120953 1 0 1.000000
  0 1.087067 -1.087067 -8.340768 0.475701 -0.475699 -0.739878 0.620010 0.054116 1 0 1.000000
wall_lamp_bulb
  0 1.999704 0.000000 -7.509200 0.967406 0.000001 -0.253230 0.740837 0.120953 1 0 1.000000
  0 1.087067 -1.087067 -8.340768 0.475701 -0.475699 -0.739878 0.620010 0.054116 1 0 1.000000
  0 1.537345 0.000000 -8.340768 0.672741 -0.000003 -0.739878 0.740837 0.054116 1 0 1.000000
wall_lamp_bulb
  0 1.414004 1.414004 -7.509200 0.684069 0.684071 -0.253173 0.861664 0.120953 1 0 1.000000
  0 1.999704 0.000000 -7.509200 0.967406 0.000001 -0.253230 0.740837 0.120953 1 0 1.000000
  0 1.537345 0.000000 -8.340768 0.672741 -0.000003 -0.739878 0.740837 0.054116 1 0 1.000000
wall_lamp_bulb
  0 1.414004 1.414004 -7.509200 0.684069 0.684071 -0.253173 0.861664 0.120953 1 0 1.000000
  0 1.537345 0.000000 -8.340768 0.672741 -0.000003 -0.739878 0.740837 0.054116 1 0 1.000000
  0 1.087067 1.087067 -8.340768 0.475702 0.475698 -0.739878 0.861664 0.054116 1 0 1.000000
wall_lamp_bulb
  0 0.000000 1.999704 -7.509200 0.000000 0.967406 -0.253230 0.982490 0.120953 1 0 1.000000
  0 1.414004 1.414004 -7.509200 0.684069 0.684071 -0.253173 0.861664 0.120953 1 0 1.000000
  0 1.087067 1.087067 -8.340768 0.475702 0.475698 -0.739878 0.861664 0.054116 1 0 1.000000
wall_lamp_bulb
  0 0.000000 1.999704 -7.509200 0.000000 0.967406 -0.253230 0.982490 0.120953 1 0 1.000000
  0 1.087067 1.087067 -8.340768 0.475702 0.475698 -0.739878 0.861664 0.054116 1 0 1.000000
  0 0.000000 1.537345 -8.340768 0.000002 0.672742 -0.739878 0.982490 0.054116 1 0 1.000000
wall_lamp_bulb
  0 -1.537345 0.000000 -8.340768 -0.672741 -0.000002 -0.739878 0.257530 0.054116 1 0 1.000000
  0 -0.339316 0.339316 -8.823077 -0.198707 0.198707 -0.959704 0.136703 0.015351 1 0 1.000000
  0 -0.479865 0.000000 -8.823077 -0.280986 0.000000 -0.959712 0.257530 0.015351 1 0 1.000000
wall_lamp_bulb
  0 -1.087067 -1.087067 -8.340768 -0.475696 -0.475704 -0.739878 0.378357 0.054116 1 0 1.000000
  0 -1.537345 0.000000 -8.340768 -0.672741 -0.000002 -0.739878 0.257530 0.054116 1 0 1.000000
  0 -0.479865 0.000000 -8.823077 -0.280986 0.000000 -0.959712 0.257530 0.015351 1 0 1.000000
wall_lamp_bulb
  0 -1.087067 -1.087067 -8.340768 -0.475696 -0.475704 -0.739878 0.378357 0.054116 1 0 1.000000
  0 -0.479865 0.000000 -8.823077 -0.280986 0.000000 -0.959712 0.257530 0.015351 1 0 1.000000
  0 -0.339316 -0.339316 -8.823077 -0.198701 -0.198702 -0.959706 0.378357 0.015351 1 0 1.000000
wall_lamp_bulb
  0 0.000000 -1.537345 -8.340768 0.000017 -0.672742 -0.739878 0.499184 0.054116 1 0 1.000000
  0 -1.087067 -1.087067 -8.340768 -0.475696 -0.475704 -0.739878 0.378357 0.054116 1 0 1.000000
  0 -0.339316 -0.339316 -8.823077 -0.198701 -0.198702 -0.959706 0.378357 0.015351 1 0 1.000000
wall_lamp_bulb
  0 0.000000 -1.537345 -8.340768 0.000017 -0.672742 -0.739878 0.499184 0.054116 1 0 1.000000
  0 -0.339316 -0.339316 -8.823077 -0.198701 -0.198702 -0.959706 0.378357 0.015351 1 0 1.000000
  0 0.000000 -0.479865 -8.823077 -0.000001 -0.281014 -0.959704 0.499184 0.015351 1 0 1.000000
wall_lamp_bulb
  0 1.087067 -1.087067 -8.340768 0.475701 -0.475699 -0.739878 0.620010 0.054116 1 0 1.000000
  0 0.000000 -1.537345 -8.340768 0.000017 -0.672742 -0.739878 0.499184 0.054116 1 0 1.000000
  0 0.000000 -0.479865 -8.823077 -0.000001 -0.281014 -0.959704 0.499184 0.015351 1 0 1.000000
wall_lamp_bulb
  0 1.087067 -1.087067 -8.340768 0.475701 -0.475699 -0.739878 0.620010 0.054116 1 0 1.000000
  0 0.000000 -0.479865 -8.823077 -0.000001 -0.281014 -0.959704 0.499184 0.015351 1 0 1.000000
  0 0.339316 -0.339316 -8.823077 0.198702 -0.198700 -0.959706 0.620010 0.015351 1 0 1.000000
wall_lamp_bulb
  0 1.537345 0.000000 -8.340768 0.672741 -0.000003 -0.739878 0.740837 0.054116 1 0 1.000000
  0 1.087067 -1.087067 -8.340768 0.475701 -0.475699 -0.739878 0.620010 0.054116 1 0 1.000000
  0 0.339316 -0.339316 -8.823077 0.198702 -0.198700 -0.959706 0.620010 0.015351 1 0 1.000000
wall_lamp_bulb
  0 1.537345 0.000000 -8.340768 0.672741 -0.000003 -0.739878 0.740837 0.054116 1 0 1.000000
  0 0.339316 -0.339316 -8.823077 0.198702 -0.198700 -0.959706 0.620010 0.015351 1 0 1.000000
  0 0.479865 0.000000 -8.823077 0.280986 0.000000 -0.959712 0.740837 0.015351 1 0 1.000000
wall_lamp_bulb
  0 1.087067 1.087067 -8.340768 0.475702 0.475698 -0.739878 0.861664 0.054116 1 0 1.000000
  0 1.537345 0.000000 -8.340768 0.672741 -0.000003 -0.739878 0.740837 0.054116 1 0 1.000000
  0 0.479865 0.000000 -8.823077 0.280986 0.000000 -0.959712 0.740837 0.015351 1 0 1.000000
wall_lamp_bulb
  0 1.087067 1.087067 -8.340768 0.475702 0.475698 -0.739878 0.861664 0.054116 1 0 1.000000
  0 0.479865 0.000000 -8.823077 0.280986 0.000000 -0.959712 0.740837 0.015351 1 0 1.000000
  0 0.339316 0.339316 -8.823077 0.198709 0.198707 -0.959703 0.861664 0.015351 1 0 1.000000
wall_lamp_bulb
  0 0.000000 1.537345 -8.340768 0.000002 0.672742 -0.739878 0.982490 0.054116 1 0 1.000000
  0 1.087067 1.087067 -8.340768 0.475702 0.475698 -0.739878 0.861664 0.054116 1 0 1.000000
  0 0.339316 0.339316 -8.823077 0.198709 0.198707 -0.959703 0.861664 0.015351 1 0 1.000000
wall_lamp_bulb
  0 0.000000 1.537345 -8.340768 0.000002 0.672742 -0.739878 0.982490 0.054116 1 0 1.000000
  0 0.339316 0.339316 -8.823077 0.198709 0.198707 -0.959703 0.861664 0.015351 1 0 1.000000
  0 0.000000 0.479865 -8.823077 0.000002 0.281009 -0.959705 0.982490 0.015351 1 0 1.000000
wall_lamp_bulb
  0 0.000000 1.999704 -6.594475 -0.000001 0.982517 0.186175 0.982490 0.194472 1 0 1.000000
  0 1.414004 1.414004 -7.509200 0.684069 0.684071 -0.253173 0.861664 0.120953 1 0 1.000000
  0 0.000000 1.999704 -7.509200 0.000000 0.967406 -0.253230 0.982490 0.120953 1 0 1.000000
wall_lamp_bulb
  0 0.000000 1.999704 -6.594475 -0.000001 0.982517 0.186175 0.982490 0.194472 1 0 1.000000
  0 1.414004 1.414004 -6.594475 0.694744 0.694744 0.186175 0.861664 0.194472 1 0 1.000000
  0 1.414004 1.414004 -7.509200 0.684069 0.684071 -0.253173 0.861664 0.120953 1 0 1.000000
wall_lamp_bulb
  0 0.000000 1.687555 -5.796170 -0.000002 0.867653 0.497171 0.982490 0.258635 1 0 1.000000
  0 1.414004 1.414004 -6.594475 0.694744 0.694744 0.186175 0.861664 0.194472 1 0 1.000000
  0 0.000000 1.999704 -6.594475 -0.000001 0.982517 0.186175 0.982490 0.194472 1 0 1.000000
wall_lamp_bulb
  0 0.000000 1.687555 -5.796170 -0.000002 0.867653 0.497171 0.982490 0.258635 1 0 1.000000
  0 1.193282 1.193282 -5.796170 0.613524 0.613522 0.497171 0.861664 0.258635 1 0 1.000000
  0 1.414004 1.414004 -6.594475 0.694744 0.694744 0.186175 0.861664 0.194472 1 0 1.000000
wall_lamp_bulb
  0 0.000000 1.191621 -5.163914 0.000001 0.876362 0.481654 0.982490 0.309452 1 0 1.000000
  0 1.193282 1.193282 -5.796170 0.613524 0.613522 0.497171 0.861664 0.258635 1 0 1.000000
  0 0.000000 1.687555 -5.796170 -0.000002 0.867653 0.497171 0.982490 0.258635 1 0 1.000000
wall_lamp_bulb
  0 0.000000 1.191621 -5.163914 0.000001 0.876362 0.481654 0.982490 0.309452 1 0 1.000000
  0 0.842603 0.842603 -5.163914 0.619680 0.619682 0.481654 0.861664 0.309452 1 0 1.000000
  0 1.193282 1.193282 -5.796170 0.613524 0.613522 0.497171 0.861664 0.258635 1 0 1.000000
wall_lamp_bulb
  0 0.000000 0.877236 -4.265292 0.000001 0.985754 0.168194 0.982490 0.381677 1 0 1.000000
  0 0.842603 0.842603 -5.163914 0.619680 0.619682 0.481654 0.861664 0.309452 1 0 1.000000
  0 0.000000 1.191621 -5.163914 0.000001 0.876362 0.481654 0.982490 0.309452 1 0 1.000000
wall_lamp_bulb
  0 0.000000 0.877236 -4.265292 0.000001 0.985754 0.168194 0.982490 0.381677 1 0 1.000000
  0 0.620299 0.620299 -4.265292 0.697040 0.697039 0.168143 0.861664 0.381677 1 0 1.000000
  0 0.842603 0.842603 -5.163914 0.619680 0.619682 0.481654 0.861664 0.309452 1 0 1.000000
wall_lamp_bulb
  0 0.620299 0.620299 -4.265292 0.697040 0.697039 0.168143 0.861664 0.381677 1 0 1.000000
  0 0.000000 0.877236 -4.265292 0.000001 0.985754 0.168194 0.982490 0.381677 1 0 1.000000
  0 0.000000 0.877236 -3.078882 0.000000 1.000000 0.000000 0.982490 0.477033 1 0 1.000000
wall_lamp_bulb
  0 0.620299 0.620299 -4.265292 0.697040 0.697039 0.168143 0.861664 0.381677 1 0 1.000000
  0 0.000000 0.877236 -3.078882 0.000000 1.000000 0.000000 0.982490 0.477033 1 0 1.000000
  0 0.620299 0.620299 -3.078882 0.707107 0.707107 0.000000 0.861664 0.477033 1 0 1.000000
wall_lamp_bulb
  0 0.877236 0.000000 -4.265292 0.985754 0.000001 0.168194 0.740837 0.381677 1 0 1.000000
  0 0.620299 0.620299 -4.265292 0.697040 0.697039 0.168143 0.861664 0.381677 1 0 1.000000
  0 0.620299 0.620299 -3.078882 0.707107 0.707107 0.000000 0.861664 0.477033 1 0 1.000000
wall_lamp_bulb
  0 0.877236 0.000000 -4.265292 0.985754 0.000001 0.168194 0.740837 0.381677 1 0 1.000000
  0 0.620299 0.620299 -3.078882 0.707107 0.707107 0.000000 0.861664 0.477033 1 0 1.000000
  0 0.877236 0.000000 -3.078882 1.000000 0.000000 0.000000 0.740837 0.477033 1 0 1.000000
wall_lamp_bulb
  0 0.620299 -0.620299 -4.265292 0.697045 -0.697046 0.168093 0.620010 0.381677 1 0 1.000000
  0 0.877236 0.000000 -4.265292 0.985754 0.000001 0.168194 0.740837 0.381677 1 0 1.000000
  0 0.877236 0.000000 -3.078882 1.000000 0.000000 0.000000 0.740837 0.477033 1 0 1.000000
wall_lamp_bulb
  0 0.620299 -0.620299 -4.265292 0.697045 -0.697046 0.168093 0.620010 0.381677 1 0 1.000000
  0 0.877236 0.000000 -3.078882 1.000000 0.000000 0.000000 0.740837 0.477033 1 0 1.000000
  0 0.620299 -0.620299 -3.078882 0.707107 -0.707107 0.000000 0.620010 0.477033 1 0 1.000000
wall_lamp_bulb
  0 0.000000 -0.877236 -4.265292 0.000000 -0.985754 0.168194 0.499184 0.381677 1 0 1.000000
  0 0.620299 -0.620299 -4.265292 0.697045 -0.697046 0.168093 0.620010 0.381677 1 0 1.000000
  0 0.620299 -0.620299 -3.078882 0.707107 -0.707107 0.000000 0.620010 0.477033 1 0 1.000000
wall_lamp_bulb
  0 0.000000 -0.877236 -4.265292 0.000000 -0.985754 0.168194 0.499184 0.381677 1 0 1.000000
  0 0.620299 -0.620299 -3.078882 0.707107 -0.707107 0.000000 0.620010 0.477033 1 0 1.000000
  0 0.000000 -0.877236 -3.078882 0.000000 -1.000000 0.000000 0.499184 0.477033 1 0 1.000000
wall_lamp_bulb
  0 -0.620299 -0.620299 -4.265292 -0.697039 -0.697039 0.168143 0.378357 0.381677 1 0 1.000000
  0 0.000000 -0.877236 -4.265292 0.000000 -0.985754 0.168194 0.499184 0.381677 1 0 1.000000
  0 0.000000 -0.877236 -3.078882 0.000000 -1.000000 0.000000 0.499184 0.477033 1 0 1.000000
wall_lamp_bulb
  0 -0.620299 -0.620299 -4.265292 -0.697039 -0.697039 0.168143 0.378357 0.381677 1 0 1.000000
  0 0.000000 -0.877236 -3.078882 0.000000 -1.000000 0.000000 0.499184 0.477033 1 0 1.000000
  0 -0.620299 -0.620299 -3.078882 -0.707107 -0.707107 0.000000 0.378357 0.477033 1 0 1.000000
wall_lamp_bulb
  0 0.000000 -0.479865 -8.823077 -0.000001 -0.281014 -0.959704 0.346806 0.067709 1 0 1.000000
  0 0.479865 0.000000 -8.823077 0.280986 0.000000 -0.959712 0.375306 0.039360 1 0 1.000000
  0 0.339316 -0.339316 -8.823077 0.198702 -0.198700 -0.959706 0.366959 0.059406 1 0 1.000000
wall_lamp_bulb
  0 0.000000 -0.479865 -8.823077 -0.000001 -0.281014 -0.959704 0.346806 0.067709 1 0 1.000000
  0 0.339316 0.339316 -8.823077 0.198709 0.198707 -0.959703 0.366959 0.019314 1 0 1.000000
  0 0.479865 0.000000 -8.823077 0.280986 0.000000 -0.959712 0.375306 0.039360 1 0 1.000000
wall_lamp_bulb
  0 0.000000 -0.479865 -8.823077 -0.000001 -0.281014 -0.959704 0.346806 0.067709 1 0 1.000000
  0 0.000000 0.479865 -8.823077 0.000002 0.281009 -0.959705 0.346806 0.011010 1 0 1.000000
  0 0.339316 0.339316 -8.823077 0.198709 0.198707 -0.959703 0.366959 0.019314 1 0 1.000000
wall_lamp_bulb
  0 0.000000 -0.479865 -8.823077 -0.000001 -0.281014 -0.959704 0.346806 0.067709 1 0 1.000000
  0 -0.339316 0.339316 -8.823077 -0.198707 0.198707 -0.959704 0.326654 0.019314 1 0 1.000000
  0 0.000000 0.479865 -8.823077 0.000002 0.281009 -0.959705 0.346806 0.011010 1 0 1.000000
wall_lamp_bulb
  0 0.000000 -0.479865 -8.823077 -0.000001 -0.281014 -0.959704 0.346806 0.067709 1 0 1.000000
  0 -0.479865 0.000000 -8.823077 -0.280986 0.000000 -0.959712 0.318306 0.039360 1 0 1.000000
  0 -0.339316 0.339316 -8.823077 -0.198707 0.198707 -0.959704 0.326654 0.019314 1 0 1.000000
wall_lamp_bulb
  0 0.000000 -0.479865 -8.823077 -0.000001 -0.281014 -0.959704 0.346806 0.067709 1 0 1.000000
  0 -0.339316 -0.339316 -8.823077 -0.198701 -0.198702 -0.959706 0.326654 0.059406 1 0 1.000000
  0 -0.479865 0.000000 -8.823077 -0.280986 0.000000 -0.959712 0.318306 0.039360 1 0 1.000000
wall_lamp
  0 -0.809022 -0.809022 -3.128905 0.000000 0.000000 -1.000000 0.558868 0.631419 1 0 1.000000
  0 -1.144129 0.000000 -3.128905 0.000000 0.000000 -1.000000 0.555099 0.622319 1 0 1.000000
  0 0.000000 -1.144129 -3.128905 0.000000 0.000000 -1.000000 0.567968 0.635188 1 0 1.000000
wall_lamp
  0 -1.144129 0.000000 -3.128905 0.000000 0.000000 -1.000000 0.555099 0.622319 1 0 1.000000
  0 -0.809022 0.809022 -3.128905 0.000000 0.000000 -1.000000 0.558868 0.613219 1 0 1.000000
  0 0.000000 -1.144129 -3.128905 0.000000 0.000000 -1.000000 0.567968 0.635188 1 0 1.000000
wall_lamp
  0 -0.809022 0.809022 -3.128905 0.000000 0.000000 -1.000000 0.558868 0.613219 1 0 1.000000
  0 0.000000 1.144129 -3.128905 0.000000 0.000000 -1.000000 0.567968 0.609450 1 0 1.000000
  0 0.000000 -1.144129 -3.128905 0.000000 0.000000 -1.000000 0.567968 0.635188 1 0 1.000000
wall_lamp
  0 0.000000 1.144129 -3.128905 0.000000 0.000000 -1.000000 0.567968 0.609450 1 0 1.000000
  0 0.809022 0.809022 -3.128905 0.000000 0.000000 -1.000000 0.577068 0.613219 1 0 1.000000
  0 0.000000 -1.144129 -3.128905 0.000000 0.000000 -1.000000 0.567968 0.635188 1 0 1.000000
wall_lamp
  0 0.809022 0.809022 -3.128905 0.000000 0.000000 -1.000000 0.577068 0.613219 1 0 1.000000
  0 1.144129 0.000000 -3.128905 0.000000 0.000000 -1.000000 0.580837 0.622319 1 0 1.000000
  0 0.000000 -1.144129 -3.128905 0.000000 0.000000 -1.000000 0.567968 0.635188 1 0 1.000000
wall_lamp
  0 1.144129 0.000000 -3.128905 0.000000 0.000000 -1.000000 0.580837 0.622319 1 0 1.000000
  0 0.809022 -0.809022 -3.128905 0.000000 0.000000 -1.000000 0.577068 0.631419 1 0 1.000000
  0 0.000000 -1.144129 -3.128905 0.000000 0.000000 -1.000000 0.567968 0.635188 1 0 1.000000
wall_lamp
  0 0.000000 1.144129 -3.128905 0.000000 1.000000 0.000000 0.612413 0.183063 1 0 1.000000
  0 -0.809022 0.809022 -1.584280 -0.707107 0.707107 0.000000 0.638067 0.229218 1 0 1.000000
  0 0.000000 1.144129 -1.584280 0.000000 1.000000 0.000000 0.612413 0.229218 1 0 1.000000
wall_lamp
  0 0.000000 1.144129 -3.128905 0.000000 1.000000 0.000000 0.612413 0.183063 1 0 1.000000
  0 -0.809022 0.809022 -3.128905 -0.707107 0.707107 0.000000 0.638067 0.183063 1 0 1.000000
  0 -0.809022 0.809022 -1.584280 -0.707107 0.707107 0.000000 0.638067 0.229218 1 0 1.000000
wall_lamp
  0 -0.809022 0.809022 -3.128905 -0.707107 0.707107 0.000000 0.638067 0.183063 1 0 1.000000
  0 -1.144129 0.000000 -1.584280 -1.000000 0.000000 0.000000 0.663722 0.229218 1 0 1.000000
  0 -0.809022 0.809022 -1.584280 -0.707107 0.707107 0.000000 0.638067 0.229218 1 0 1.000000
wall_lamp
  0 -0.809022 0.809022 -3.128905 -0.707107 0.707107 0.000000 0.638067 0.183063 1 0 1.000000
  0 -1.144129 0.000000 -3.128905 -1.000000 0.000000 0.000000 0.663722 0.183063 1 0 1.000000
  0 -1.144129 0.000000 -1.584280 -1.000000 0.000000 0.000000 0.663722 0.229218 1 0 1.000000
wall_lamp
  0 -1.144129 0.000000 -3.128905 -1.000000 0.000000 0.000000 0.663722 0.183063 1 0 1.000000
  0 -0.809022 -0.809022 -1.584280 -0.707107 -0.707107 0.000000 0.689376 0.229218 1 0 1.000000
  0 -1.144129 0.000000 -1.584280 -1.000000 0.000000 0.000000 0.663722 0.229218 1 0 1.000000
wall_lamp
  0 -1.144129 0.000000 -3.128905 -1.000000 0.000000 0.000000 0.663722 0.183063 1 0 1.000000
  0 -0.809022 -0.809022 -3.128905 -0.707107 -0.707107 0.000000 0.689376 0.183063 1 0 1.000000
  0 -0.809022 -0.809022 -1.584280 -0.707107 -0.707107 0.000000 0.689376 0.229218 1 0 1.000000
wall_lamp
  0 -0.809022 -0.809022 -3.128905 -0.707107 -0.707107 0.000000 0.689376 0.183063 1 0 1.000000
  0 0.000000 -1.144129 -1.584280 0.000000 -1.000000 0.000000 0.715031 0.229218 1 0 1.000000
  0 -0.809022 -0.809022 -1.584280 -0.707107 -0.707107 0.000000 0.689376 0.229218 1 0 1.000000
wall_lamp
  0 -0.809022 -0.809022 -3.128905 -0.707107 -0.707107 0.000000 0.689376 0.183063 1 0 1.000000
  0 0.000000 -1.144129 -3.128905 0.000000 -1.000000 0.000000 0.715031 0.183063 1 0 1.000000
  0 0.000000 -1.144129 -1.584280 0.000000 -1.000000 0.000000 0.715031 0.229218 1 0 1.000000
wall_lamp
  0 0.000000 -1.144129 -3.128905 0.000000 -1.000000 0.000000 0.715031 0.183063 1 0 1.000000
  0 0.809022 -0.809022 -1.584280 0.707107 -0.707107 0.000000 0.740685 0.229218 1 0 1.000000
  0 0.000000 -1.144129 -1.584280 0.000000 -1.000000 0.000000 0.715031 0.229218 1 0 1.000000
wall_lamp
  0 0.000000 -1.144129 -3.128905 0.000000 -1.000000 0.000000 0.715031 0.183063 1 0 1.000000
  0 0.809022 -0.809022 -3.128905 0.707107 -0.707107 0.000000 0.740685 0.183063 1 0 1.000000
  0 0.809022 -0.809022 -1.584280 0.707107 -0.707107 0.000000 0.740685 0.229218 1 0 1.000000
wall_lamp
  0 0.809022 -0.809022 -3.128905 0.707107 -0.707107 0.000000 0.740685 0.183063 1 0 1.000000
  0 1.144129 0.000000 -1.584280 1.000000 0.000000 0.000000 0.766340 0.229218 1 0 1.000000
  0 0.809022 -0.809022 -1.584280 0.707107 -0.707107 0.000000 0.740685 0.229218 1 0 1.000000
wall_lamp
  0 0.809022 -0.809022 -3.128905 0.707107 -0.707107 0.000000 0.740685 0.183063 1 0 1.000000
  0 1.144129 0.000000 -3.128905 1.000000 0.000000 0.000000 0.766340 0.183063 1 0 1.000000
  0 1.144129 0.000000 -1.584280 1.000000 0.000000 0.000000 0.766340 0.229218 1 0 1.000000
wall_lamp
  0 1.144129 0.000000 -3.128905 1.000000 0.000000 0.000000 0.766340 0.183063 1 0 1.000000
  0 0.809022 0.809022 -1.584280 0.707107 0.707107 0.000000 0.791994 0.229218 1 0 1.000000
  0 1.144129 0.000000 -1.584280 1.000000 0.000000 0.000000 0.766340 0.229218 1 0 1.000000
wall_lamp
  0 1.144129 0.000000 -3.128905 1.000000 0.000000 0.000000 0.766340 0.183063 1 0 1.000000
  0 0.809022 0.809022 -3.128905 0.707107 0.707107 0.000000 0.791994 0.183063 1 0 1.000000
  0 0.809022 0.809022 -1.584280 0.707107 0.707107 0.000000 0.791994 0.229218 1 0 1.000000
wall_lamp
  0 0.809022 0.809022 -3.128905 0.707107 0.707107 0.000000 0.791994 0.183063 1 0 1.000000
  0 0.000000 1.144129 -1.584280 0.000000 1.000000 0.000000 0.817649 0.229218 1 0 1.000000
  0 0.809022 0.809022 -1.584280 0.707107 0.707107 0.000000 0.791994 0.229218 1 0 1.000000
wall_lamp
  0 0.809022 0.809022 -3.128905 0.707107 0.707107 0.000000 0.791994 0.183063 1 0 1.000000
  0 0.000000 1.144129 -3.128905 0.000000 1.000000 0.000000 0.817649 0.183063 1 0 1.000000
  0 0.000000 1.144129 -1.584280 0.000000 1.000000 0.000000 0.817649 0.229218 1 0 1.000000
end
