version 1
nodes
  0 "static_prop" -1
end
skeleton
  time 0
    0 0.000000 0.000000 0.000000 0.000000 0.000000 0.000000
end
triangles
  phy
    0 2.984648 -2.984648 -2.003811 0.488486 0.723024 0.488486 0 0
    0 4.220930 0.000000 0.012662 0.000000 -0.872618 0.488403 0 0
    0 2.984648 -2.984648 0.012662 0.304810 -0.902320 0.304810 0 0
  phy
    0 2.984648 -2.984648 -2.003811 0.488486 0.723024 0.488486 0 0
    0 4.220930 0.000000 -2.003811 0.000000 0.963002 0.269495 0 0
    0 4.220930 0.000000 0.012662 0.000000 -0.872618 0.488403 0 0
  phy
    0 2.984648 -2.984648 -2.003811 0.488486 0.723024 0.488486 0 0
    0 0.000000 -4.220930 0.012662 0.918196 -0.375292 0.126777 0 0
    0 0.000000 -4.220930 -2.003811 0.918196 0.375292 -0.126776 0 0
  phy
    0 2.984648 -2.984648 -2.003811 0.488486 0.723024 0.488486 0 0
    0 2.984648 -2.984648 0.012662 0.304810 -0.902320 0.304810 0 0
    0 0.000000 -4.220930 0.012662 0.918196 -0.375292 0.126777 0 0
  phy
    0 2.984648 -2.984648 -2.003811 0.488486 0.723024 0.488486 0 0
    0 0.000000 -4.220930 -2.003811 0.918196 0.375292 -0.126776 0 0
    0 -2.984648 -2.984648 -2.003811 0.115633 0.981488 -0.152679 0 0
  phy
    0 2.984648 -2.984648 -2.003811 0.488486 0.723024 0.488486 0 0
    0 -2.984648 -2.984648 -2.003811 0.115633 0.981488 -0.152679 0 0
    0 4.220930 0.000000 -2.003811 0.000000 0.963002 0.269495 0 0
  phy
    0 4.220930 0.000000 -2.003811 0.000000 0.963002 0.269495 0 0
    0 -2.984648 -2.984648 -2.003811 0.115633 0.981488 -0.152679 0 0
    0 2.984648 2.984648 -2.003811 -0.235343 0.942989 0.235343 0 0
  phy
    0 2.984648 2.984648 -2.003811 -0.235343 0.942989 0.235343 0 0
    0 -2.984648 -2.984648 -2.003811 0.115633 0.981488 -0.152679 0 0
    0 -2.984648 2.984648 -2.003811 -0.164282 0.972637 -0.164282 0 0
  phy
    0 2.984648 2.984648 -2.003811 -0.235343 0.942989 0.235343 0 0
    0 -2.984648 2.984648 -2.003811 -0.164282 0.972637 -0.164282 0 0
    0 0.000000 4.220930 -2.003811 -0.918196 0.375292 -0.126777 0 0
  phy
    0 -2.984648 2.984648 -2.003811 -0.164282 0.972637 -0.164282 0 0
    0 -2.984648 -2.984648 -2.003811 0.115633 0.981488 -0.152679 0 0
    0 -4.220930 0.000000 -2.003811 -0.126776 0.375292 -0.918196 0 0
  phy
    0 -2.984648 2.984648 -2.003811 -0.164282 0.972637 -0.164282 0 0
    0 -4.220930 0.000000 -2.003811 -0.126776 0.375292 -0.918196 0 0
    0 -2.984648 2.984648 0.012662 -0.304810 -0.902320 -0.304810 0 0
  phy
    0 -2.984648 2.984648 0.012662 -0.304810 -0.902320 -0.304810 0 0
    0 -4.220930 0.000000 -2.003811 -0.126776 0.375292 -0.918196 0 0
    0 -4.220930 0.000000 0.012662 0.126777 -0.375292 -0.918196 0 0
  phy
    0 -2.984648 -2.984648 0.012662 0.152679 -0.981488 -0.115633 0 0
    0 -4.220930 0.000000 0.012662 0.126777 -0.375292 -0.918196 0 0
    0 -2.984648 -2.984648 -2.003811 0.115633 0.981488 -0.152679 0 0
  phy
    0 -2.984648 -2.984648 -2.003811 0.115633 0.981488 -0.152679 0 0
    0 -4.220930 0.000000 0.012662 0.126777 -0.375292 -0.918196 0 0
    0 -4.220930 0.000000 -2.003811 -0.126776 0.375292 -0.918196 0 0
  phy
    0 0.000000 -4.220930 -2.003811 0.918196 0.375292 -0.126776 0 0
    0 -2.984648 -2.984648 0.012662 0.152679 -0.981488 -0.115633 0 0
    0 -2.984648 -2.984648 -2.003811 0.115633 0.981488 -0.152679 0 0
  phy
    0 0.000000 -4.220930 -2.003811 0.918196 0.375292 -0.126776 0 0
    0 0.000000 -4.220930 0.012662 0.918196 -0.375292 0.126777 0 0
    0 -2.984648 -2.984648 0.012662 0.152679 -0.981488 -0.115633 0 0
  phy
    0 2.984648 -2.984648 0.012662 0.304810 -0.902320 0.304810 0 0
    0 -2.984648 -2.984648 0.012662 0.152679 -0.981488 -0.115633 0 0
    0 0.000000 -4.220930 0.012662 0.918196 -0.375292 0.126777 0 0
  phy
    0 2.984648 -2.984648 0.012662 0.304810 -0.902320 0.304810 0 0
    0 4.220930 0.000000 0.012662 0.000000 -0.872618 0.488403 0 0
    0 -2.984648 -2.984648 0.012662 0.152679 -0.981488 -0.115633 0 0
  phy
    0 4.220930 0.000000 0.012662 0.000000 -0.872618 0.488403 0 0
    0 2.984648 2.984648 0.012662 -0.122887 -0.984783 0.122887 0 0
    0 -2.984648 -2.984648 0.012662 0.152679 -0.981488 -0.115633 0 0
  phy
    0 2.984648 2.984648 0.012662 -0.122887 -0.984783 0.122887 0 0
    0 -2.984648 2.984648 0.012662 -0.304810 -0.902320 -0.304810 0 0
    0 -2.984648 -2.984648 0.012662 0.152679 -0.981488 -0.115633 0 0
  phy
    0 2.984648 2.984648 0.012662 -0.122887 -0.984783 0.122887 0 0
    0 0.000000 4.220930 0.012662 -0.918196 -0.375292 0.126776 0 0
    0 -2.984648 2.984648 0.012662 -0.304810 -0.902320 -0.304810 0 0
  phy
    0 -2.984648 2.984648 0.012662 -0.304810 -0.902320 -0.304810 0 0
    0 -4.220930 0.000000 0.012662 0.126777 -0.375292 -0.918196 0 0
    0 -2.984648 -2.984648 0.012662 0.152679 -0.981488 -0.115633 0 0
  phy
    0 2.984648 2.984648 0.012662 -0.122887 -0.984783 0.122887 0 0
    0 2.984648 2.984648 -2.003811 -0.235343 0.942989 0.235343 0 0
    0 0.000000 4.220930 0.012662 -0.918196 -0.375292 0.126776 0 0
  phy
    0 0.000000 4.220930 0.012662 -0.918196 -0.375292 0.126776 0 0
    0 2.984648 2.984648 -2.003811 -0.235343 0.942989 0.235343 0 0
    0 0.000000 4.220930 -2.003811 -0.918196 0.375292 -0.126777 0 0
  phy
    0 4.220930 0.000000 0.012662 0.000000 -0.872618 0.488403 0 0
    0 2.984648 2.984648 -2.003811 -0.235343 0.942989 0.235343 0 0
    0 2.984648 2.984648 0.012662 -0.122887 -0.984783 0.122887 0 0
  phy
    0 4.220930 0.000000 0.012662 0.000000 -0.872618 0.488403 0 0
    0 4.220930 0.000000 -2.003811 0.000000 0.963002 0.269495 0 0
    0 2.984648 2.984648 -2.003811 -0.235343 0.942989 0.235343 0 0
  phy
    0 -2.984648 2.984648 -2.003811 -0.164282 0.972637 -0.164282 0 0
    0 -2.984648 2.984648 0.012662 -0.304810 -0.902320 -0.304810 0 0
    0 0.000000 4.220930 -2.003811 -0.918196 0.375292 -0.126777 0 0
  phy
    0 0.000000 4.220930 -2.003811 -0.918196 0.375292 -0.126777 0 0
    0 -2.984648 2.984648 0.012662 -0.304810 -0.902320 -0.304810 0 0
    0 0.000000 4.220930 0.012662 -0.918196 -0.375292 0.126776 0 0
end
