version 1
nodes
0 "Implicit" -1
end
skeleton
time 0
0  0.000000 0.000000 0.000000  0.000000 0.000000 0.000000
end
triangles
no_material
0  3.997069 0.750000 43.417469  0.566222 -0.579200 -0.586447  0.000000 0.000000
0  6.002929 -0.750000 43.417469  -0.566217 0.579210 -0.586442  0.000000 0.000000
0  3.997069 -0.750000 43.417469  0.566220 0.579210 -0.586438  0.000000 0.000000
no_material
0  6.002929 -0.750000 43.417469  -0.566217 0.579210 -0.586442  0.000000 0.000000
0  7.000001 0.750000 15.000000  -0.588312 -0.575533 0.568023  0.000000 0.000000
0  7.000001 -0.750000 15.000000  -0.588316 0.575547 0.568005  0.000000 0.000000
no_material
0  3.000001 -0.750000 15.000000  0.588314 0.575531 0.568024  0.000000 0.000000
0  6.002929 -0.750000 43.417469  -0.566217 0.579210 -0.586442  0.000000 0.000000
0  7.000001 -0.750000 15.000000  -0.588316 0.575547 0.568005  0.000000 0.000000
no_material
0  3.000001 -0.750000 15.000000  0.588314 0.575531 0.568024  0.000000 0.000000
0  3.997069 0.750000 43.417469  0.566222 -0.579200 -0.586447  0.000000 0.000000
0  3.997069 -0.750000 43.417469  0.566220 0.579210 -0.586438  0.000000 0.000000
no_material
0  7.000001 -0.750000 15.000000  -0.588316 0.575547 0.568005  0.000000 0.000000
0  3.000001 0.750000 15.000000  0.588317 -0.575544 0.568007  0.000000 0.000000
0  3.000001 -0.750000 15.000000  0.588314 0.575531 0.568024  0.000000 0.000000
no_material
0  3.000001 0.750000 15.000000  0.588317 -0.575544 0.568007  0.000000 0.000000
0  6.002929 0.750000 43.417469  -0.566215 -0.579220 -0.586433  0.000000 0.000000
0  3.997069 0.750000 43.417469  0.566222 -0.579200 -0.586447  0.000000 0.000000
no_material
0  3.997069 0.750000 43.417469  0.566222 -0.579200 -0.586447  0.000000 0.000000
0  6.002929 0.750000 43.417469  -0.566215 -0.579220 -0.586433  0.000000 0.000000
0  6.002929 -0.750000 43.417469  -0.566217 0.579210 -0.586442  0.000000 0.000000
no_material
0  6.002929 -0.750000 43.417469  -0.566217 0.579210 -0.586442  0.000000 0.000000
0  6.002929 0.750000 43.417469  -0.566215 -0.579220 -0.586433  0.000000 0.000000
0  7.000001 0.750000 15.000000  -0.588312 -0.575533 0.568023  0.000000 0.000000
no_material
0  3.000001 -0.750000 15.000000  0.588314 0.575531 0.568024  0.000000 0.000000
0  3.997069 -0.750000 43.417469  0.566220 0.579210 -0.586438  0.000000 0.000000
0  6.002929 -0.750000 43.417469  -0.566217 0.579210 -0.586442  0.000000 0.000000
no_material
0  3.000001 -0.750000 15.000000  0.588314 0.575531 0.568024  0.000000 0.000000
0  3.000001 0.750000 15.000000  0.588317 -0.575544 0.568007  0.000000 0.000000
0  3.997069 0.750000 43.417469  0.566222 -0.579200 -0.586447  0.000000 0.000000
no_material
0  7.000001 -0.750000 15.000000  -0.588316 0.575547 0.568005  0.000000 0.000000
0  7.000001 0.750000 15.000000  -0.588312 -0.575533 0.568023  0.000000 0.000000
0  3.000001 0.750000 15.000000  0.588317 -0.575544 0.568007  0.000000 0.000000
no_material
0  3.000001 0.750000 15.000000  0.588317 -0.575544 0.568007  0.000000 0.000000
0  7.000001 0.750000 15.000000  -0.588312 -0.575533 0.568023  0.000000 0.000000
0  6.002929 0.750000 43.417469  -0.566215 -0.579220 -0.586433  0.000000 0.000000
no_material
0  2.000001 0.750000 15.000000  0.446394 -0.600446 -0.663473  0.000000 0.000000
0  8.000001 -0.750000 15.000000  -0.446397 0.600439 -0.663478  0.000000 0.000000
0  2.000001 -0.750000 15.000000  0.446385 0.600441 -0.663484  0.000000 0.000000
no_material
0  8.000001 -0.750000 15.000000  -0.446397 0.600439 -0.663478  0.000000 0.000000
0  14.000000 0.750000 0.250000  -0.687576 -0.559692 0.462584  0.000000 0.000000
0  14.000000 -0.750000 0.250000  -0.687566 0.559692 0.462598  0.000000 0.000000
no_material
0  -4.000000 -0.750000 0.250000  0.687570 0.559702 0.462580  0.000000 0.000000
0  8.000001 -0.750000 15.000000  -0.446397 0.600439 -0.663478  0.000000 0.000000
0  14.000000 -0.750000 0.250000  -0.687566 0.559692 0.462598  0.000000 0.000000
no_material
0  -4.000000 -0.750000 0.250000  0.687570 0.559702 0.462580  0.000000 0.000000
0  2.000001 0.750000 15.000000  0.446394 -0.600446 -0.663473  0.000000 0.000000
0  2.000001 -0.750000 15.000000  0.446385 0.600441 -0.663484  0.000000 0.000000
no_material
0  14.000000 -0.750000 0.250000  -0.687566 0.559692 0.462598  0.000000 0.000000
0  -4.000000 0.750000 0.250000  0.687561 -0.559702 0.462595  0.000000 0.000000
0  -4.000000 -0.750000 0.250000  0.687570 0.559702 0.462580  0.000000 0.000000
no_material
0  -4.000000 0.750000 0.250000  0.687561 -0.559702 0.462595  0.000000 0.000000
0  8.000001 0.750000 15.000000  -0.446388 -0.600434 -0.663489  0.000000 0.000000
0  2.000001 0.750000 15.000000  0.446394 -0.600446 -0.663473  0.000000 0.000000
no_material
0  2.000001 0.750000 15.000000  0.446394 -0.600446 -0.663473  0.000000 0.000000
0  8.000001 0.750000 15.000000  -0.446388 -0.600434 -0.663489  0.000000 0.000000
0  8.000001 -0.750000 15.000000  -0.446397 0.600439 -0.663478  0.000000 0.000000
no_material
0  8.000001 -0.750000 15.000000  -0.446397 0.600439 -0.663478  0.000000 0.000000
0  8.000001 0.750000 15.000000  -0.446388 -0.600434 -0.663489  0.000000 0.000000
0  14.000000 0.750000 0.250000  -0.687576 -0.559692 0.462584  0.000000 0.000000
no_material
0  -4.000000 -0.750000 0.250000  0.687570 0.559702 0.462580  0.000000 0.000000
0  2.000001 -0.750000 15.000000  0.446385 0.600441 -0.663484  0.000000 0.000000
0  8.000001 -0.750000 15.000000  -0.446397 0.600439 -0.663478  0.000000 0.000000
no_material
0  -4.000000 -0.750000 0.250000  0.687570 0.559702 0.462580  0.000000 0.000000
0  -4.000000 0.750000 0.250000  0.687561 -0.559702 0.462595  0.000000 0.000000
0  2.000001 0.750000 15.000000  0.446394 -0.600446 -0.663473  0.000000 0.000000
no_material
0  14.000000 -0.750000 0.250000  -0.687566 0.559692 0.462598  0.000000 0.000000
0  14.000000 0.750000 0.250000  -0.687576 -0.559692 0.462584  0.000000 0.000000
0  -4.000000 0.750000 0.250000  0.687561 -0.559702 0.462595  0.000000 0.000000
no_material
0  -4.000000 0.750000 0.250000  0.687561 -0.559702 0.462595  0.000000 0.000000
0  14.000000 0.750000 0.250000  -0.687576 -0.559692 0.462584  0.000000 0.000000
0  8.000001 0.750000 15.000000  -0.446388 -0.600434 -0.663489  0.000000 0.000000
no_material
0  4.750000 -4.000000 15.000000  0.592568 0.489405 -0.639802  0.000000 0.000000
0  5.250000 4.000000 15.000000  -0.592572 -0.489403 -0.639799  0.000000 0.000000
0  5.250000 -4.000000 15.000000  -0.592574 0.489402 -0.639798  0.000000 0.000000
no_material
0  5.250000 4.000000 15.000000  -0.592572 -0.489403 -0.639799  0.000000 0.000000
0  4.750000 8.000000 0.250000  0.564678 -0.655526 0.501422  0.000000 0.000000
0  5.250000 8.000000 0.250000  -0.564678 -0.655516 0.501435  0.000000 0.000000
no_material
0  5.250000 -8.000000 0.250000  -0.564686 0.655522 0.501419  0.000000 0.000000
0  5.250000 4.000000 15.000000  -0.592572 -0.489403 -0.639799  0.000000 0.000000
0  5.250000 8.000000 0.250000  -0.564678 -0.655516 0.501435  0.000000 0.000000
no_material
0  5.250000 -8.000000 0.250000  -0.564686 0.655522 0.501419  0.000000 0.000000
0  4.750000 -4.000000 15.000000  0.592568 0.489405 -0.639802  0.000000 0.000000
0  5.250000 -4.000000 15.000000  -0.592574 0.489402 -0.639798  0.000000 0.000000
no_material
0  5.250000 8.000000 0.250000  -0.564678 -0.655516 0.501435  0.000000 0.000000
0  4.750000 -8.000000 0.250000  0.564687 0.655512 0.501431  0.000000 0.000000
0  5.250000 -8.000000 0.250000  -0.564686 0.655522 0.501419  0.000000 0.000000
no_material
0  4.750000 -8.000000 0.250000  0.564687 0.655512 0.501431  0.000000 0.000000
0  4.750000 4.000000 15.000000  0.592578 -0.489400 -0.639796  0.000000 0.000000
0  4.750000 -4.000000 15.000000  0.592568 0.489405 -0.639802  0.000000 0.000000
no_material
0  4.750000 -4.000000 15.000000  0.592568 0.489405 -0.639802  0.000000 0.000000
0  4.750000 4.000000 15.000000  0.592578 -0.489400 -0.639796  0.000000 0.000000
0  5.250000 4.000000 15.000000  -0.592572 -0.489403 -0.639799  0.000000 0.000000
no_material
0  5.250000 4.000000 15.000000  -0.592572 -0.489403 -0.639799  0.000000 0.000000
0  4.750000 4.000000 15.000000  0.592578 -0.489400 -0.639796  0.000000 0.000000
0  4.750000 8.000000 0.250000  0.564678 -0.655526 0.501422  0.000000 0.000000
no_material
0  5.250000 -8.000000 0.250000  -0.564686 0.655522 0.501419  0.000000 0.000000
0  5.250000 -4.000000 15.000000  -0.592574 0.489402 -0.639798  0.000000 0.000000
0  5.250000 4.000000 15.000000  -0.592572 -0.489403 -0.639799  0.000000 0.000000
no_material
0  5.250000 -8.000000 0.250000  -0.564686 0.655522 0.501419  0.000000 0.000000
0  4.750000 -8.000000 0.250000  0.564687 0.655512 0.501431  0.000000 0.000000
0  4.750000 -4.000000 15.000000  0.592568 0.489405 -0.639802  0.000000 0.000000
no_material
0  5.250000 8.000000 0.250000  -0.564678 -0.655516 0.501435  0.000000 0.000000
0  4.750000 8.000000 0.250000  0.564678 -0.655526 0.501422  0.000000 0.000000
0  4.750000 -8.000000 0.250000  0.564687 0.655512 0.501431  0.000000 0.000000
no_material
0  4.750000 -8.000000 0.250000  0.564687 0.655512 0.501431  0.000000 0.000000
0  4.750000 8.000000 0.250000  0.564678 -0.655526 0.501422  0.000000 0.000000
0  4.750000 4.000000 15.000000  0.592578 -0.489400 -0.639796  0.000000 0.000000
no_material
0  21.427597 2.112814 63.259735  -0.546918 0.776386 -0.313218  1.000000 0.500000
0  29.228077 1.493985 66.005470  0.819752 0.548985 -0.163163  0.875000 1.000000
0  22.170067 1.493985 61.963306  -0.274083 0.548991 -0.789612  0.875000 0.500000
no_material
0  22.170067 1.493985 61.963306  -0.274083 0.548991 -0.789612  0.875000 0.500000
0  29.535618 0.000000 65.468468  0.932766 -0.000004 -0.360483  0.750000 1.000000
0  22.477610 0.000000 61.426308  -0.161076 0.000004 -0.986942  0.750000 0.500000
no_material
0  22.477610 0.000000 61.426308  -0.161076 0.000004 -0.986942  0.750000 0.500000
0  29.228077 -1.493985 66.005470  0.819749 -0.548991 -0.163159  0.625000 1.000000
0  22.170067 -1.493985 61.963306  -0.274097 -0.548978 -0.789616  0.625000 0.500000
no_material
0  22.170067 -1.493985 61.963306  -0.274097 -0.548978 -0.789616  0.625000 0.500000
0  28.485603 -2.112814 67.301895  0.546913 -0.776387 0.313225  0.500000 1.000000
0  21.427597 -2.112814 63.259735  -0.546915 -0.776386 -0.313224  0.500000 0.500000
no_material
0  21.427597 -2.112814 63.259735  -0.546915 -0.776386 -0.313224  0.500000 0.500000
0  27.743134 -1.493985 68.598320  0.274081 -0.548985 0.789617  0.375000 1.000000
0  20.685123 -1.493985 64.556160  -0.819747 -0.548991 0.163169  0.375000 0.500000
no_material
0  20.685123 -1.493985 64.556160  -0.819747 -0.548991 0.163169  0.375000 0.500000
0  27.435591 0.000000 69.135323  0.161088 0.000004 0.986940  0.250000 1.000000
0  20.377583 0.000000 65.093163  -0.932759 -0.000004 0.360500  0.250000 0.500000
no_material
0  27.435591 0.000000 69.135323  0.161088 0.000004 0.986940  0.010000 0.250000
0  28.485603 -2.112814 67.301895  0.546913 -0.776387 0.313225  0.250000 0.010000
0  29.535618 0.000000 65.468468  0.932766 -0.000004 -0.360483  0.490000 0.250000
no_material
0  20.377583 0.000000 65.093163  -0.932759 -0.000004 0.360500  0.250000 0.500000
0  27.743134 1.493985 68.598320  0.274083 0.548990 0.789613  0.125000 1.000000
0  20.685123 1.493985 64.556160  -0.819758 0.548978 0.163159  0.125000 0.500000
no_material
0  20.685123 1.493985 64.556160  -0.819758 0.548978 0.163159  0.125000 0.500000
0  28.485603 2.112814 67.301895  0.546916 0.776387 0.313219  0.000000 1.000000
0  21.427597 2.112814 63.259735  -0.546918 0.776386 -0.313218  0.000000 0.500000
no_material
0  22.170067 -1.493985 61.963306  -0.274097 -0.548978 -0.789616  0.919706 0.080294
0  20.685123 -1.493985 64.556160  -0.819747 -0.548991 0.163169  0.580294 0.080294
0  20.685123 1.493985 64.556160  -0.819758 0.548978 0.163159  0.580294 0.419706
no_material
0  21.427597 2.112814 63.259735  -0.546918 0.776386 -0.313218  1.000000 0.500000
0  28.485603 2.112814 67.301895  0.546916 0.776387 0.313219  1.000000 1.000000
0  29.228077 1.493985 66.005470  0.819752 0.548985 -0.163163  0.875000 1.000000
no_material
0  22.170067 1.493985 61.963306  -0.274083 0.548991 -0.789612  0.875000 0.500000
0  29.228077 1.493985 66.005470  0.819752 0.548985 -0.163163  0.875000 1.000000
0  29.535618 0.000000 65.468468  0.932766 -0.000004 -0.360483  0.750000 1.000000
no_material
0  22.477610 0.000000 61.426308  -0.161076 0.000004 -0.986942  0.750000 0.500000
0  29.535618 0.000000 65.468468  0.932766 -0.000004 -0.360483  0.750000 1.000000
0  29.228077 -1.493985 66.005470  0.819749 -0.548991 -0.163159  0.625000 1.000000
no_material
0  22.170067 -1.493985 61.963306  -0.274097 -0.548978 -0.789616  0.625000 0.500000
0  29.228077 -1.493985 66.005470  0.819749 -0.548991 -0.163159  0.625000 1.000000
0  28.485603 -2.112814 67.301895  0.546913 -0.776387 0.313225  0.500000 1.000000
no_material
0  21.427597 -2.112814 63.259735  -0.546915 -0.776386 -0.313224  0.500000 0.500000
0  28.485603 -2.112814 67.301895  0.546913 -0.776387 0.313225  0.500000 1.000000
0  27.743134 -1.493985 68.598320  0.274081 -0.548985 0.789617  0.375000 1.000000
no_material
0  20.685123 -1.493985 64.556160  -0.819747 -0.548991 0.163169  0.375000 0.500000
0  27.743134 -1.493985 68.598320  0.274081 -0.548985 0.789617  0.375000 1.000000
0  27.435591 0.000000 69.135323  0.161088 0.000004 0.986940  0.250000 1.000000
no_material
0  29.535618 0.000000 65.468468  0.932766 -0.000004 -0.360483  0.490000 0.250000
0  29.228077 1.493985 66.005470  0.819752 0.548985 -0.163163  0.419706 0.419706
0  28.485603 2.112814 67.301895  0.546916 0.776387 0.313219  0.250000 0.490000
no_material
0  28.485603 2.112814 67.301895  0.546916 0.776387 0.313219  0.250000 0.490000
0  27.743134 1.493985 68.598320  0.274083 0.548990 0.789613  0.080294 0.419706
0  27.435591 0.000000 69.135323  0.161088 0.000004 0.986940  0.010000 0.250000
no_material
0  27.435591 0.000000 69.135323  0.161088 0.000004 0.986940  0.010000 0.250000
0  27.743134 -1.493985 68.598320  0.274081 -0.548985 0.789617  0.080294 0.080294
0  28.485603 -2.112814 67.301895  0.546913 -0.776387 0.313225  0.250000 0.010000
no_material
0  28.485603 -2.112814 67.301895  0.546913 -0.776387 0.313225  0.250000 0.010000
0  29.228077 -1.493985 66.005470  0.819749 -0.548991 -0.163159  0.419706 0.080294
0  29.535618 0.000000 65.468468  0.932766 -0.000004 -0.360483  0.490000 0.250000
no_material
0  29.535618 0.000000 65.468468  0.932766 -0.000004 -0.360483  0.490000 0.250000
0  28.485603 2.112814 67.301895  0.546916 0.776387 0.313219  0.250000 0.490000
0  27.435591 0.000000 69.135323  0.161088 0.000004 0.986940  0.010000 0.250000
no_material
0  20.377583 0.000000 65.093163  -0.932759 -0.000004 0.360500  0.250000 0.500000
0  27.435591 0.000000 69.135323  0.161088 0.000004 0.986940  0.250000 1.000000
0  27.743134 1.493985 68.598320  0.274083 0.548990 0.789613  0.125000 1.000000
no_material
0  20.685123 1.493985 64.556160  -0.819758 0.548978 0.163159  0.125000 0.500000
0  27.743134 1.493985 68.598320  0.274083 0.548990 0.789613  0.125000 1.000000
0  28.485603 2.112814 67.301895  0.546916 0.776387 0.313219  0.000000 1.000000
no_material
0  20.685123 1.493985 64.556160  -0.819758 0.548978 0.163159  0.580294 0.419706
0  21.427597 2.112814 63.259735  -0.546918 0.776386 -0.313218  0.750000 0.490000
0  22.170067 1.493985 61.963306  -0.274083 0.548991 -0.789612  0.919706 0.419706
no_material
0  22.170067 1.493985 61.963306  -0.274083 0.548991 -0.789612  0.919706 0.419706
0  22.477610 0.000000 61.426308  -0.161076 0.000004 -0.986942  0.990000 0.250000
0  22.170067 -1.493985 61.963306  -0.274097 -0.548978 -0.789616  0.919706 0.080294
no_material
0  22.170067 -1.493985 61.963306  -0.274097 -0.548978 -0.789616  0.919706 0.080294
0  21.427597 -2.112814 63.259735  -0.546915 -0.776386 -0.313224  0.750000 0.010000
0  20.685123 -1.493985 64.556160  -0.819747 -0.548991 0.163169  0.580294 0.080294
no_material
0  20.685123 -1.493985 64.556160  -0.819747 -0.548991 0.163169  0.580294 0.080294
0  20.377583 0.000000 65.093163  -0.932759 -0.000004 0.360500  0.510000 0.250000
0  20.685123 1.493985 64.556160  -0.819758 0.548978 0.163159  0.580294 0.419706
no_material
0  20.685123 1.493985 64.556160  -0.819758 0.548978 0.163159  0.580294 0.419706
0  22.170067 1.493985 61.963306  -0.274083 0.548991 -0.789612  0.919706 0.419706
0  22.170067 -1.493985 61.963306  -0.274097 -0.548978 -0.789616  0.919706 0.080294
no_material
0  -5.999999 8.000000 0.250000  0.577356 -0.577341 -0.577354  0.000000 0.000000
0  15.999999 -8.000000 0.250000  -0.577342 0.577347 -0.577361  0.000000 0.000000
0  -5.999999 -8.000001 0.250000  0.577356 0.577349 -0.577346  0.000000 0.000000
no_material
0  15.999999 -8.000000 0.250000  -0.577342 0.577347 -0.577361  0.000000 0.000000
0  16.000010 8.000001 -0.288512  -0.577362 -0.577347 0.577342  0.000000 0.000000
0  16.000010 -8.000000 -0.288512  -0.577351 0.577344 0.577356  0.000000 0.000000
no_material
0  -5.999990 -8.000001 -0.288512  0.577348 0.577353 0.577350  0.000000 0.000000
0  15.999999 -8.000000 0.250000  -0.577342 0.577347 -0.577361  0.000000 0.000000
0  16.000010 -8.000000 -0.288512  -0.577351 0.577344 0.577356  0.000000 0.000000
no_material
0  -5.999990 -8.000001 -0.288512  0.577348 0.577353 0.577350  0.000000 0.000000
0  -5.999999 8.000000 0.250000  0.577356 -0.577341 -0.577354  0.000000 0.000000
0  -5.999999 -8.000001 0.250000  0.577356 0.577349 -0.577346  0.000000 0.000000
no_material
0  16.000010 -8.000000 -0.288512  -0.577351 0.577344 0.577356  0.000000 0.000000
0  -5.999990 8.000000 -0.288512  0.577337 -0.577350 0.577363  0.000000 0.000000
0  -5.999990 -8.000001 -0.288512  0.577348 0.577353 0.577350  0.000000 0.000000
no_material
0  -5.999990 8.000000 -0.288512  0.577337 -0.577350 0.577363  0.000000 0.000000
0  15.999999 8.000001 0.250000  -0.577342 -0.577356 -0.577353  0.000000 0.000000
0  -5.999999 8.000000 0.250000  0.577356 -0.577341 -0.577354  0.000000 0.000000
no_material
0  -5.999999 8.000000 0.250000  0.577356 -0.577341 -0.577354  0.000000 0.000000
0  15.999999 8.000001 0.250000  -0.577342 -0.577356 -0.577353  0.000000 0.000000
0  15.999999 -8.000000 0.250000  -0.577342 0.577347 -0.577361  0.000000 0.000000
no_material
0  15.999999 -8.000000 0.250000  -0.577342 0.577347 -0.577361  0.000000 0.000000
0  15.999999 8.000001 0.250000  -0.577342 -0.577356 -0.577353  0.000000 0.000000
0  16.000010 8.000001 -0.288512  -0.577362 -0.577347 0.577342  0.000000 0.000000
no_material
0  -5.999990 -8.000001 -0.288512  0.577348 0.577353 0.577350  0.000000 0.000000
0  -5.999999 -8.000001 0.250000  0.577356 0.577349 -0.577346  0.000000 0.000000
0  15.999999 -8.000000 0.250000  -0.577342 0.577347 -0.577361  0.000000 0.000000
no_material
0  -5.999990 -8.000001 -0.288512  0.577348 0.577353 0.577350  0.000000 0.000000
0  -5.999990 8.000000 -0.288512  0.577337 -0.577350 0.577363  0.000000 0.000000
0  -5.999999 8.000000 0.250000  0.577356 -0.577341 -0.577354  0.000000 0.000000
no_material
0  16.000010 -8.000000 -0.288512  -0.577351 0.577344 0.577356  0.000000 0.000000
0  16.000010 8.000001 -0.288512  -0.577362 -0.577347 0.577342  0.000000 0.000000
0  -5.999990 8.000000 -0.288512  0.577337 -0.577350 0.577363  0.000000 0.000000
no_material
0  -5.999990 8.000000 -0.288512  0.577337 -0.577350 0.577363  0.000000 0.000000
0  16.000010 8.000001 -0.288512  -0.577362 -0.577347 0.577342  0.000000 0.000000
0  15.999999 8.000001 0.250000  -0.577342 -0.577356 -0.577353  0.000000 0.000000
no_material
0  4.790105 9.677400 53.290123  -0.546908 0.776392 -0.313221  1.000000 0.500000
0  8.719866 6.842955 47.654999  0.819745 0.548993 -0.163174  0.875000 1.000000
0  8.190876 6.842955 47.352043  -0.274073 0.548991 -0.789616  0.875000 0.500000
no_material
0  8.190876 6.842955 47.352043  -0.274073 0.548991 -0.789616  0.875000 0.500000
0  10.128511 0.000000 45.195366  0.932763 0.000002 -0.360491  0.750000 1.000000
0  9.599522 0.000000 44.892410  -0.161064 -0.000002 -0.986944  0.750000 0.500000
no_material
0  9.599522 0.000000 44.892410  -0.161064 -0.000002 -0.986944  0.750000 0.500000
0  8.719866 -6.842955 47.654999  0.819747 -0.548988 -0.163176  0.625000 1.000000
0  8.190876 -6.842955 47.352043  -0.274089 -0.548987 -0.789613  0.625000 0.500000
no_material
0  8.190876 -6.842955 47.352043  -0.274089 -0.548987 -0.789613  0.625000 0.500000
0  5.319095 -9.677400 53.593079  0.546908 -0.776394 0.313216  0.500000 1.000000
0  4.790105 -9.677400 53.290123  -0.546914 -0.776389 -0.313217  0.500000 0.500000
no_material
0  4.790105 -9.677400 53.290123  -0.546914 -0.776389 -0.313217  0.500000 0.500000
0  1.918324 -6.842955 59.531158  0.274078 -0.548993 0.789613  0.375000 1.000000
0  1.389334 -6.842955 59.228203  -0.819745 -0.548991 0.163180  0.375000 0.500000
no_material
0  1.389334 -6.842955 59.228203  -0.819745 -0.548991 0.163180  0.375000 0.500000
0  0.509678 0.000000 61.990791  0.161079 -0.000002 0.986942  0.250000 1.000000
0  -0.019311 0.000000 61.687836  -0.932757 0.000002 0.360505  0.250000 0.500000
no_material
0  0.509678 0.000000 61.990791  0.161079 -0.000002 0.986942  0.010000 0.250000
0  5.319095 -9.677400 53.593079  0.546908 -0.776394 0.313216  0.250000 0.010000
0  10.128511 0.000000 45.195366  0.932763 0.000002 -0.360491  0.490000 0.250000
no_material
0  -0.019311 0.000000 61.687836  -0.932757 0.000002 0.360505  0.250000 0.500000
0  1.918324 6.842955 59.531158  0.274074 0.548990 0.789616  0.125000 1.000000
0  1.389334 6.842955 59.228203  -0.819752 0.548985 0.163163  0.125000 0.500000
no_material
0  1.389334 6.842955 59.228203  -0.819752 0.548985 0.163163  0.125000 0.500000
0  5.319095 9.677400 53.593079  0.546909 0.776392 0.313220  0.000000 1.000000
0  4.790105 9.677400 53.290123  -0.546908 0.776392 -0.313221  0.000000 0.500000
no_material
0  8.190876 -6.842955 47.352043  -0.274089 -0.548987 -0.789613  0.919706 0.080294
0  1.389334 -6.842955 59.228203  -0.819745 -0.548991 0.163180  0.580294 0.080294
0  1.389334 6.842955 59.228203  -0.819752 0.548985 0.163163  0.580294 0.419706
no_material
0  4.790105 9.677400 53.290123  -0.000003 -0.678600 0.734508  1.000000 0.500000
0  8.719866 6.842955 47.654999  -0.187842 -0.377974 0.906560  0.875000 1.000000
0  5.319095 9.677400 53.593079  -0.000001 -0.678562 0.734543  1.000000 1.000000
no_material
0  8.190876 6.842955 47.352043  -0.187832 -0.377949 0.906573  0.875000 0.500000
0  10.128511 0.000000 45.195366  -0.246947 -0.000002 0.969029  0.750000 1.000000
0  8.719866 6.842955 47.654999  -0.187842 -0.377974 0.906560  0.875000 1.000000
no_material
0  9.599522 0.000000 44.892410  -0.246947 0.000002 0.969029  0.750000 0.500000
0  8.719866 -6.842955 47.654999  -0.187834 0.377949 0.906572  0.625000 1.000000
0  10.128511 0.000000 45.195366  -0.246947 -0.000002 0.969029  0.750000 1.000000
no_material
0  8.190876 -6.842955 47.352043  -0.187844 0.377973 0.906560  0.625000 0.500000
0  5.319095 -9.677400 53.593079  0.000001 0.678600 0.734508  0.500000 1.000000
0  8.719866 -6.842955 47.654999  -0.187834 0.377949 0.906572  0.625000 1.000000
no_material
0  4.790105 -9.677400 53.290123  0.000003 0.678562 0.734544  0.500000 0.500000
0  1.918324 -6.842955 59.531158  0.382683 0.770030 0.510498  0.375000 1.000000
0  5.319095 -9.677400 53.593079  0.000001 0.678600 0.734508  0.500000 1.000000
no_material
0  1.389334 -6.842955 59.228203  0.382687 0.770029 0.510496  0.375000 0.500000
0  0.509678 0.000000 61.990791  0.918051 0.000006 0.396462  0.250000 1.000000
0  1.918324 -6.842955 59.531158  0.382683 0.770030 0.510498  0.375000 1.000000
no_material
0  -0.019311 0.000000 61.687836  0.918051 -0.000006 0.396462  0.250000 0.500000
0  1.918324 6.842955 59.531158  0.382690 -0.770027 0.510496  0.125000 1.000000
0  0.509678 0.000000 61.990791  0.918051 0.000006 0.396462  0.250000 1.000000
no_material
0  1.389334 6.842955 59.228203  0.382686 -0.770029 0.510497  0.125000 0.500000
0  5.319095 9.677400 53.593079  -0.000001 -0.678562 0.734543  0.000000 1.000000
0  1.918324 6.842955 59.531158  0.382690 -0.770027 0.510496  0.125000 1.000000
no_material
0  1.389334 -6.842955 59.228203  0.382687 0.770029 0.510496  0.375000 0.500000
0  4.790105 -9.677400 53.290123  0.000000 0.000000 1.000000  0.500000 0.500000
0  1.389334 -6.842955 59.228203  0.000000 0.000000 1.000000  0.375000 0.500000
no_material
0  5.319095 -9.677400 53.593079  0.000001 0.678600 0.734508  0.500000 1.000000
0  1.918324 -6.842955 59.531158  0.000000 0.000000 1.000000  0.375000 1.000000
0  5.319095 -9.677400 53.593079  0.000000 0.000000 1.000000  0.500000 1.000000
no_material
0  8.190876 -6.842955 47.352043  -0.187844 0.377973 0.906560  0.625000 0.500000
0  9.599522 0.000000 44.892410  0.000000 0.000000 1.000000  0.750000 0.500000
0  8.190876 -6.842955 47.352043  0.000000 0.000000 1.000000  0.625000 0.500000
no_material
0  4.790105 9.677400 53.290123  -0.000003 -0.678600 0.734508  0.000000 0.500000
0  1.389334 6.842955 59.228203  0.000000 0.000000 1.000000  0.125000 0.500000
0  4.790105 9.677400 53.290123  0.000000 0.000000 1.000000  0.000000 0.500000
no_material
0  8.190876 6.842955 47.352043  -0.187832 -0.377949 0.906573  0.875000 0.500000
0  4.790105 9.677400 53.290123  0.000000 0.000000 1.000000  1.000000 0.500000
0  8.190876 6.842955 47.352043  0.000000 0.000000 1.000000  0.875000 0.500000
no_material
0  10.128511 0.000000 45.195366  -0.246947 -0.000002 0.969029  0.750000 1.000000
0  8.719866 -6.842955 47.654999  0.000000 0.000000 1.000000  0.625000 1.000000
0  10.128511 0.000000 45.195366  0.000000 0.000000 1.000000  0.750000 1.000000
no_material
0  1.918324 6.842955 59.531158  0.382690 -0.770027 0.510496  0.125000 1.000000
0  5.319095 9.677400 53.593079  0.000000 0.000000 1.000000  0.000000 1.000000
0  1.918324 6.842955 59.531158  0.000000 0.000000 1.000000  0.125000 1.000000
no_material
0  5.319095 9.677400 53.593079  -0.000001 -0.678562 0.734543  1.000000 1.000000
0  8.719866 6.842955 47.654999  0.000000 0.000000 1.000000  0.875000 1.000000
0  5.319095 9.677400 53.593079  0.000000 0.000000 1.000000  1.000000 1.000000
no_material
0  -0.019311 0.000000 61.687836  0.918051 -0.000006 0.396462  0.250000 0.500000
0  1.389334 -6.842955 59.228203  0.000000 0.000000 1.000000  0.375000 0.500000
0  -0.019311 0.000000 61.687836  0.000000 0.000000 1.000000  0.250000 0.500000
no_material
0  1.918324 -6.842955 59.531158  0.382683 0.770030 0.510498  0.375000 1.000000
0  0.509678 0.000000 61.990791  0.000000 0.000000 1.000000  0.250000 1.000000
0  1.918324 -6.842955 59.531158  0.000000 0.000000 1.000000  0.375000 1.000000
no_material
0  4.790105 -9.677400 53.290123  0.000003 0.678562 0.734544  0.500000 0.500000
0  8.190876 -6.842955 47.352043  0.000000 0.000000 1.000000  0.625000 0.500000
0  4.790105 -9.677400 53.290123  0.000000 0.000000 1.000000  0.500000 0.500000
no_material
0  8.719866 -6.842955 47.654999  -0.187834 0.377949 0.906572  0.625000 1.000000
0  5.319095 -9.677400 53.593079  0.000000 0.000000 1.000000  0.500000 1.000000
0  8.719866 -6.842955 47.654999  0.000000 0.000000 1.000000  0.625000 1.000000
no_material
0  9.599522 0.000000 44.892410  -0.246947 0.000002 0.969029  0.750000 0.500000
0  8.190876 6.842955 47.352043  0.000000 0.000000 1.000000  0.875000 0.500000
0  9.599522 0.000000 44.892410  0.000000 0.000000 1.000000  0.750000 0.500000
no_material
0  1.389334 6.842955 59.228203  0.382686 -0.770029 0.510497  0.125000 0.500000
0  -0.019311 0.000000 61.687836  0.000000 0.000000 1.000000  0.250000 0.500000
0  1.389334 6.842955 59.228203  0.000000 0.000000 1.000000  0.125000 0.500000
no_material
0  8.719866 6.842955 47.654999  -0.187842 -0.377974 0.906560  0.875000 1.000000
0  10.128511 0.000000 45.195366  0.000000 0.000000 1.000000  0.750000 1.000000
0  8.719866 6.842955 47.654999  0.000000 0.000000 1.000000  0.875000 1.000000
no_material
0  0.509678 0.000000 61.990791  0.918051 0.000006 0.396462  0.250000 1.000000
0  1.918324 6.842955 59.531158  0.000000 0.000000 1.000000  0.125000 1.000000
0  0.509678 0.000000 61.990791  0.000000 0.000000 1.000000  0.250000 1.000000
no_material
0  4.790105 9.677400 53.290123  -0.546908 0.776392 -0.313221  1.000000 0.500000
0  5.319095 9.677400 53.593079  0.546909 0.776392 0.313220  1.000000 1.000000
0  8.719866 6.842955 47.654999  0.819745 0.548993 -0.163174  0.875000 1.000000
no_material
0  8.190876 6.842955 47.352043  -0.274073 0.548991 -0.789616  0.875000 0.500000
0  8.719866 6.842955 47.654999  0.819745 0.548993 -0.163174  0.875000 1.000000
0  10.128511 0.000000 45.195366  0.932763 0.000002 -0.360491  0.750000 1.000000
no_material
0  9.599522 0.000000 44.892410  -0.161064 -0.000002 -0.986944  0.750000 0.500000
0  10.128511 0.000000 45.195366  0.932763 0.000002 -0.360491  0.750000 1.000000
0  8.719866 -6.842955 47.654999  0.819747 -0.548988 -0.163176  0.625000 1.000000
no_material
0  8.190876 -6.842955 47.352043  -0.274089 -0.548987 -0.789613  0.625000 0.500000
0  8.719866 -6.842955 47.654999  0.819747 -0.548988 -0.163176  0.625000 1.000000
0  5.319095 -9.677400 53.593079  0.546908 -0.776394 0.313216  0.500000 1.000000
no_material
0  4.790105 -9.677400 53.290123  -0.546914 -0.776389 -0.313217  0.500000 0.500000
0  5.319095 -9.677400 53.593079  0.546908 -0.776394 0.313216  0.500000 1.000000
0  1.918324 -6.842955 59.531158  0.274078 -0.548993 0.789613  0.375000 1.000000
no_material
0  1.389334 -6.842955 59.228203  -0.819745 -0.548991 0.163180  0.375000 0.500000
0  1.918324 -6.842955 59.531158  0.274078 -0.548993 0.789613  0.375000 1.000000
0  0.509678 0.000000 61.990791  0.161079 -0.000002 0.986942  0.250000 1.000000
no_material
0  10.128511 0.000000 45.195366  0.932763 0.000002 -0.360491  0.490000 0.250000
0  8.719866 6.842955 47.654999  0.819745 0.548993 -0.163174  0.419706 0.419706
0  5.319095 9.677400 53.593079  0.546909 0.776392 0.313220  0.250000 0.490000
no_material
0  5.319095 9.677400 53.593079  0.546909 0.776392 0.313220  0.250000 0.490000
0  1.918324 6.842955 59.531158  0.274074 0.548990 0.789616  0.080294 0.419706
0  0.509678 0.000000 61.990791  0.161079 -0.000002 0.986942  0.010000 0.250000
no_material
0  0.509678 0.000000 61.990791  0.161079 -0.000002 0.986942  0.010000 0.250000
0  1.918324 -6.842955 59.531158  0.274078 -0.548993 0.789613  0.080294 0.080294
0  5.319095 -9.677400 53.593079  0.546908 -0.776394 0.313216  0.250000 0.010000
no_material
0  5.319095 -9.677400 53.593079  0.546908 -0.776394 0.313216  0.250000 0.010000
0  8.719866 -6.842955 47.654999  0.819747 -0.548988 -0.163176  0.419706 0.080294
0  10.128511 0.000000 45.195366  0.932763 0.000002 -0.360491  0.490000 0.250000
no_material
0  10.128511 0.000000 45.195366  0.932763 0.000002 -0.360491  0.490000 0.250000
0  5.319095 9.677400 53.593079  0.546909 0.776392 0.313220  0.250000 0.490000
0  0.509678 0.000000 61.990791  0.161079 -0.000002 0.986942  0.010000 0.250000
no_material
0  -0.019311 0.000000 61.687836  -0.932757 0.000002 0.360505  0.250000 0.500000
0  0.509678 0.000000 61.990791  0.161079 -0.000002 0.986942  0.250000 1.000000
0  1.918324 6.842955 59.531158  0.274074 0.548990 0.789616  0.125000 1.000000
no_material
0  1.389334 6.842955 59.228203  -0.819752 0.548985 0.163163  0.125000 0.500000
0  1.918324 6.842955 59.531158  0.274074 0.548990 0.789616  0.125000 1.000000
0  5.319095 9.677400 53.593079  0.546909 0.776392 0.313220  0.000000 1.000000
no_material
0  1.389334 6.842955 59.228203  -0.819752 0.548985 0.163163  0.580294 0.419706
0  4.790105 9.677400 53.290123  -0.546908 0.776392 -0.313221  0.750000 0.490000
0  8.190876 6.842955 47.352043  -0.274073 0.548991 -0.789616  0.919706 0.419706
no_material
0  8.190876 6.842955 47.352043  -0.274073 0.548991 -0.789616  0.919706 0.419706
0  9.599522 0.000000 44.892410  -0.161064 -0.000002 -0.986944  0.990000 0.250000
0  8.190876 -6.842955 47.352043  -0.274089 -0.548987 -0.789613  0.919706 0.080294
no_material
0  8.190876 -6.842955 47.352043  -0.274089 -0.548987 -0.789613  0.919706 0.080294
0  4.790105 -9.677400 53.290123  -0.546914 -0.776389 -0.313217  0.750000 0.010000
0  1.389334 -6.842955 59.228203  -0.819745 -0.548991 0.163180  0.580294 0.080294
no_material
0  1.389334 -6.842955 59.228203  -0.819745 -0.548991 0.163180  0.580294 0.080294
0  -0.019311 0.000000 61.687836  -0.932757 0.000002 0.360505  0.510000 0.250000
0  1.389334 6.842955 59.228203  -0.819752 0.548985 0.163163  0.580294 0.419706
no_material
0  1.389334 6.842955 59.228203  -0.819752 0.548985 0.163163  0.580294 0.419706
0  8.190876 6.842955 47.352043  -0.274073 0.548991 -0.789616  0.919706 0.419706
0  8.190876 -6.842955 47.352043  -0.274089 -0.548987 -0.789613  0.919706 0.080294
no_material
0  4.790105 9.677400 53.290123  -0.000003 -0.678600 0.734508  1.000000 0.500000
0  8.190876 6.842955 47.352043  -0.187832 -0.377949 0.906573  0.875000 0.500000
0  8.719866 6.842955 47.654999  -0.187842 -0.377974 0.906560  0.875000 1.000000
no_material
0  8.190876 6.842955 47.352043  -0.187832 -0.377949 0.906573  0.875000 0.500000
0  9.599522 0.000000 44.892410  -0.246947 0.000002 0.969029  0.750000 0.500000
0  10.128511 0.000000 45.195366  -0.246947 -0.000002 0.969029  0.750000 1.000000
no_material
0  9.599522 0.000000 44.892410  -0.246947 0.000002 0.969029  0.750000 0.500000
0  8.190876 -6.842955 47.352043  -0.187844 0.377973 0.906560  0.625000 0.500000
0  8.719866 -6.842955 47.654999  -0.187834 0.377949 0.906572  0.625000 1.000000
no_material
0  8.190876 -6.842955 47.352043  -0.187844 0.377973 0.906560  0.625000 0.500000
0  4.790105 -9.677400 53.290123  0.000003 0.678562 0.734544  0.500000 0.500000
0  5.319095 -9.677400 53.593079  0.000001 0.678600 0.734508  0.500000 1.000000
no_material
0  4.790105 -9.677400 53.290123  0.000003 0.678562 0.734544  0.500000 0.500000
0  1.389334 -6.842955 59.228203  0.382687 0.770029 0.510496  0.375000 0.500000
0  1.918324 -6.842955 59.531158  0.382683 0.770030 0.510498  0.375000 1.000000
no_material
0  1.389334 -6.842955 59.228203  0.382687 0.770029 0.510496  0.375000 0.500000
0  -0.019311 0.000000 61.687836  0.918051 -0.000006 0.396462  0.250000 0.500000
0  0.509678 0.000000 61.990791  0.918051 0.000006 0.396462  0.250000 1.000000
no_material
0  -0.019311 0.000000 61.687836  0.918051 -0.000006 0.396462  0.250000 0.500000
0  1.389334 6.842955 59.228203  0.382686 -0.770029 0.510497  0.125000 0.500000
0  1.918324 6.842955 59.531158  0.382690 -0.770027 0.510496  0.125000 1.000000
no_material
0  1.389334 6.842955 59.228203  0.382686 -0.770029 0.510497  0.125000 0.500000
0  4.790105 9.677400 53.290123  -0.000003 -0.678600 0.734508  0.000000 0.500000
0  5.319095 9.677400 53.593079  -0.000001 -0.678562 0.734543  0.000000 1.000000
no_material
0  1.389334 -6.842955 59.228203  0.382687 0.770029 0.510496  0.375000 0.500000
0  4.790105 -9.677400 53.290123  0.000003 0.678562 0.734544  0.500000 0.500000
0  4.790105 -9.677400 53.290123  0.000000 0.000000 1.000000  0.500000 0.500000
no_material
0  5.319095 -9.677400 53.593079  0.000001 0.678600 0.734508  0.500000 1.000000
0  1.918324 -6.842955 59.531158  0.382683 0.770030 0.510498  0.375000 1.000000
0  1.918324 -6.842955 59.531158  0.000000 0.000000 1.000000  0.375000 1.000000
no_material
0  8.190876 -6.842955 47.352043  -0.187844 0.377973 0.906560  0.625000 0.500000
0  9.599522 0.000000 44.892410  -0.246947 0.000002 0.969029  0.750000 0.500000
0  9.599522 0.000000 44.892410  0.000000 0.000000 1.000000  0.750000 0.500000
no_material
0  4.790105 9.677400 53.290123  -0.000003 -0.678600 0.734508  0.000000 0.500000
0  1.389334 6.842955 59.228203  0.382686 -0.770029 0.510497  0.125000 0.500000
0  1.389334 6.842955 59.228203  0.000000 0.000000 1.000000  0.125000 0.500000
no_material
0  8.190876 6.842955 47.352043  -0.187832 -0.377949 0.906573  0.875000 0.500000
0  4.790105 9.677400 53.290123  -0.000003 -0.678600 0.734508  1.000000 0.500000
0  4.790105 9.677400 53.290123  0.000000 0.000000 1.000000  1.000000 0.500000
no_material
0  10.128511 0.000000 45.195366  -0.246947 -0.000002 0.969029  0.750000 1.000000
0  8.719866 -6.842955 47.654999  -0.187834 0.377949 0.906572  0.625000 1.000000
0  8.719866 -6.842955 47.654999  0.000000 0.000000 1.000000  0.625000 1.000000
no_material
0  1.918324 6.842955 59.531158  0.382690 -0.770027 0.510496  0.125000 1.000000
0  5.319095 9.677400 53.593079  -0.000001 -0.678562 0.734543  0.000000 1.000000
0  5.319095 9.677400 53.593079  0.000000 0.000000 1.000000  0.000000 1.000000
no_material
0  5.319095 9.677400 53.593079  -0.000001 -0.678562 0.734543  1.000000 1.000000
0  8.719866 6.842955 47.654999  -0.187842 -0.377974 0.906560  0.875000 1.000000
0  8.719866 6.842955 47.654999  0.000000 0.000000 1.000000  0.875000 1.000000
no_material
0  -0.019311 0.000000 61.687836  0.918051 -0.000006 0.396462  0.250000 0.500000
0  1.389334 -6.842955 59.228203  0.382687 0.770029 0.510496  0.375000 0.500000
0  1.389334 -6.842955 59.228203  0.000000 0.000000 1.000000  0.375000 0.500000
no_material
0  1.918324 -6.842955 59.531158  0.382683 0.770030 0.510498  0.375000 1.000000
0  0.509678 0.000000 61.990791  0.918051 0.000006 0.396462  0.250000 1.000000
0  0.509678 0.000000 61.990791  0.000000 0.000000 1.000000  0.250000 1.000000
no_material
0  4.790105 -9.677400 53.290123  0.000003 0.678562 0.734544  0.500000 0.500000
0  8.190876 -6.842955 47.352043  -0.187844 0.377973 0.906560  0.625000 0.500000
0  8.190876 -6.842955 47.352043  0.000000 0.000000 1.000000  0.625000 0.500000
no_material
0  8.719866 -6.842955 47.654999  -0.187834 0.377949 0.906572  0.625000 1.000000
0  5.319095 -9.677400 53.593079  0.000001 0.678600 0.734508  0.500000 1.000000
0  5.319095 -9.677400 53.593079  0.000000 0.000000 1.000000  0.500000 1.000000
no_material
0  9.599522 0.000000 44.892410  -0.246947 0.000002 0.969029  0.750000 0.500000
0  8.190876 6.842955 47.352043  -0.187832 -0.377949 0.906573  0.875000 0.500000
0  8.190876 6.842955 47.352043  0.000000 0.000000 1.000000  0.875000 0.500000
no_material
0  1.389334 6.842955 59.228203  0.382686 -0.770029 0.510497  0.125000 0.500000
0  -0.019311 0.000000 61.687836  0.918051 -0.000006 0.396462  0.250000 0.500000
0  -0.019311 0.000000 61.687836  0.000000 0.000000 1.000000  0.250000 0.500000
no_material
0  8.719866 6.842955 47.654999  -0.187842 -0.377974 0.906560  0.875000 1.000000
0  10.128511 0.000000 45.195366  -0.246947 -0.000002 0.969029  0.750000 1.000000
0  10.128511 0.000000 45.195366  0.000000 0.000000 1.000000  0.750000 1.000000
no_material
0  0.509678 0.000000 61.990791  0.918051 0.000006 0.396462  0.250000 1.000000
0  1.918324 6.842955 59.531158  0.382690 -0.770027 0.510496  0.125000 1.000000
0  1.918324 6.842955 59.531158  0.000000 0.000000 1.000000  0.125000 1.000000
no_material
0  8.719866 -6.842955 47.654999  0.777936 0.262561 0.570857  0.625000 1.000000
0  11.005762 -33.607166 56.849865  0.729769 -0.677097 0.094742  0.500000 1.000000
0  22.815781 -23.763855 36.228409  0.729771 -0.677096 0.094742  0.625000 1.000000
no_material
0  22.028706 -23.763855 35.777649  -0.286423 -0.790496 -0.541367  0.625000 0.500000
0  11.005762 -33.607166 56.849865  0.729769 -0.677097 0.094742  0.500000 1.000000
0  10.218687 -33.607166 56.399101  -0.286425 -0.790496 -0.541367  0.500000 0.500000
no_material
0  4.790105 -9.677400 53.290123  -0.783199 -0.251547 -0.568615  0.500000 0.500000
0  22.028706 -23.763855 35.777649  -0.286423 -0.790496 -0.541367  0.625000 0.500000
0  10.218687 -33.607166 56.399101  -0.286425 -0.790496 -0.541367  0.500000 0.500000
no_material
0  8.719866 -6.842955 47.654999  0.777936 0.262561 0.570857  0.625000 1.000000
0  5.319095 -9.677400 53.593079  0.777936 0.262561 0.570857  0.500000 1.000000
0  11.005762 -33.607166 56.849865  0.729769 -0.677097 0.094742  0.500000 1.000000
no_material
0  22.028706 -23.763855 35.777649  -0.286423 -0.790496 -0.541367  0.625000 0.500000
0  22.815781 -23.763855 36.228409  0.729771 -0.677096 0.094742  0.625000 1.000000
0  11.005762 -33.607166 56.849865  0.729769 -0.677097 0.094742  0.500000 1.000000
no_material
0  4.790105 -9.677400 53.290123  -0.783199 -0.251547 -0.568615  0.500000 0.500000
0  8.190876 -6.842955 47.352043  -0.783199 -0.251547 -0.568615  0.625000 0.500000
0  22.028706 -23.763855 35.777649  -0.286423 -0.790496 -0.541367  0.625000 0.500000
no_material
0  5.319095 -9.677400 53.593079  0.886034 0.262561 0.382107  0.500000 1.000000
0  -0.804257 -23.763855 77.471321  0.451001 -0.677099 0.581494  0.375000 1.000000
0  11.005762 -33.607166 56.849865  0.451007 -0.677096 0.581493  0.500000 1.000000
no_material
0  1.389334 -6.842955 59.228203  -0.886763 -0.251548 -0.387782  0.375000 0.500000
0  10.218687 -33.607166 56.399101  -0.611874 -0.790497 0.026905  0.500000 0.500000
0  -1.591332 -23.763855 77.020554  -0.611879 -0.790494 0.026904  0.375000 0.500000
no_material
0  10.218687 -33.607166 56.399101  -0.611874 -0.790497 0.026905  0.500000 0.500000
0  -0.804257 -23.763855 77.471321  0.451001 -0.677099 0.581494  0.375000 1.000000
0  -1.591332 -23.763855 77.020554  -0.611879 -0.790494 0.026904  0.375000 0.500000
no_material
0  5.319095 -9.677400 53.593079  0.886034 0.262561 0.382107  0.500000 1.000000
0  1.918324 -6.842955 59.531158  0.886034 0.262561 0.382108  0.375000 1.000000
0  -0.804257 -23.763855 77.471321  0.451001 -0.677099 0.581494  0.375000 1.000000
no_material
0  1.389334 -6.842955 59.228203  -0.886763 -0.251548 -0.387782  0.375000 0.500000
0  4.790105 -9.677400 53.290123  -0.886763 -0.251548 -0.387782  0.500000 0.500000
0  10.218687 -33.607166 56.399101  -0.611874 -0.790497 0.026905  0.500000 0.500000
no_material
0  10.218687 -33.607166 56.399101  -0.611874 -0.790497 0.026905  0.500000 0.500000
0  11.005762 -33.607166 56.849865  0.451007 -0.677096 0.581493  0.500000 1.000000
0  -0.804257 -23.763855 77.471321  0.451001 -0.677099 0.581494  0.375000 1.000000
no_material
0  8.190876 -6.842955 47.352043  -0.709969 -0.104194 -0.696483  0.625000 0.500000
0  26.920578 -0.000000 27.235960  -0.056296 -0.327435 -0.943195  0.750000 0.500000
0  22.028706 -23.763855 35.777649  -0.056297 -0.327433 -0.943196  0.625000 0.500000
no_material
0  26.920578 -0.000000 27.235960  -0.056296 -0.327435 -0.943195  0.750000 0.500000
0  22.815781 -23.763855 36.228409  0.926885 -0.280464 -0.249447  0.625000 1.000000
0  22.028706 -23.763855 35.777649  -0.056297 -0.327433 -0.943196  0.625000 0.500000
no_material
0  10.128511 0.000000 45.195366  0.701499 0.108756 0.704323  0.750000 1.000000
0  22.815781 -23.763855 36.228409  0.926885 -0.280464 -0.249447  0.625000 1.000000
0  27.707653 -0.000000 27.686724  0.926886 -0.280464 -0.249445  0.750000 1.000000
no_material
0  8.190876 -6.842955 47.352043  -0.709969 -0.104194 -0.696483  0.625000 0.500000
0  9.599522 0.000000 44.892410  -0.709969 -0.104194 -0.696483  0.750000 0.500000
0  26.920578 -0.000000 27.235960  -0.056296 -0.327435 -0.943195  0.750000 0.500000
no_material
0  26.920578 -0.000000 27.235960  -0.056296 -0.327435 -0.943195  0.750000 0.500000
0  27.707653 -0.000000 27.686724  0.926886 -0.280464 -0.249445  0.750000 1.000000
0  22.815781 -23.763855 36.228409  0.926885 -0.280464 -0.249447  0.625000 1.000000
no_material
0  10.128511 0.000000 45.195366  0.701499 0.108756 0.704323  0.750000 1.000000
0  8.719866 -6.842955 47.654999  0.701499 0.108756 0.704323  0.625000 1.000000
0  22.815781 -23.763855 36.228409  0.926885 -0.280464 -0.249447  0.625000 1.000000
no_material
0  8.719866 6.842955 47.654999  0.701499 -0.108756 0.704323  0.875000 1.000000
0  27.707653 -0.000000 27.686724  0.926885 0.280464 -0.249447  0.750000 1.000000
0  22.815781 23.763855 36.228409  0.926886 0.280463 -0.249445  0.875000 1.000000
no_material
0  9.599522 0.000000 44.892410  -0.709969 0.104194 -0.696483  0.750000 0.500000
0  22.028706 23.763855 35.777649  -0.056296 0.327434 -0.943196  0.875000 0.500000
0  26.920578 -0.000000 27.235960  -0.056297 0.327434 -0.943196  0.750000 0.500000
no_material
0  22.028706 23.763855 35.777649  -0.056296 0.327434 -0.943196  0.875000 0.500000
0  27.707653 -0.000000 27.686724  0.926885 0.280464 -0.249447  0.750000 1.000000
0  26.920578 -0.000000 27.235960  -0.056297 0.327434 -0.943196  0.750000 0.500000
no_material
0  8.719866 6.842955 47.654999  0.701499 -0.108756 0.704323  0.875000 1.000000
0  10.128511 0.000000 45.195366  0.701499 -0.108756 0.704323  0.750000 1.000000
0  27.707653 -0.000000 27.686724  0.926885 0.280464 -0.249447  0.750000 1.000000
no_material
0  9.599522 0.000000 44.892410  -0.709969 0.104194 -0.696483  0.750000 0.500000
0  8.190876 6.842955 47.352043  -0.709969 0.104194 -0.696483  0.875000 0.500000
0  22.028706 23.763855 35.777649  -0.056296 0.327434 -0.943196  0.875000 0.500000
no_material
0  22.028706 23.763855 35.777649  -0.056296 0.327434 -0.943196  0.875000 0.500000
0  22.815781 23.763855 36.228409  0.926886 0.280463 -0.249445  0.875000 1.000000
0  27.707653 -0.000000 27.686724  0.926885 0.280464 -0.249447  0.750000 1.000000
no_material
0  10.218687 33.607166 56.399101  -0.286421 0.790497 -0.541367  1.000000 0.500000
0  22.815781 23.763855 36.228409  0.729768 0.677099 0.094740  0.875000 1.000000
0  22.028706 23.763855 35.777649  -0.286426 0.790495 -0.541367  0.875000 0.500000
no_material
0  8.190876 6.842955 47.352043  -0.783199 0.251547 -0.568615  0.875000 0.500000
0  10.218687 33.607166 56.399101  -0.286421 0.790497 -0.541367  1.000000 0.500000
0  22.028706 23.763855 35.777649  -0.286426 0.790495 -0.541367  0.875000 0.500000
no_material
0  5.319095 9.677400 53.593079  0.777936 -0.262561 0.570857  1.000000 1.000000
0  22.815781 23.763855 36.228409  0.729768 0.677099 0.094740  0.875000 1.000000
0  11.005762 33.607166 56.849865  0.729772 0.677095 0.094743  1.000000 1.000000
no_material
0  10.218687 33.607166 56.399101  -0.286421 0.790497 -0.541367  1.000000 0.500000
0  11.005762 33.607166 56.849865  0.729772 0.677095 0.094743  1.000000 1.000000
0  22.815781 23.763855 36.228409  0.729768 0.677099 0.094740  0.875000 1.000000
no_material
0  8.190876 6.842955 47.352043  -0.783199 0.251547 -0.568615  0.875000 0.500000
0  4.790105 9.677400 53.290123  -0.783199 0.251547 -0.568615  1.000000 0.500000
0  10.218687 33.607166 56.399101  -0.286421 0.790497 -0.541367  1.000000 0.500000
no_material
0  5.319095 9.677400 53.593079  0.777936 -0.262561 0.570857  1.000000 1.000000
0  8.719866 6.842955 47.654999  0.777936 -0.262561 0.570857  0.875000 1.000000
0  22.815781 23.763855 36.228409  0.729768 0.677099 0.094740  0.875000 1.000000
no_material
0  -1.591332 23.763855 77.020554  -0.611873 0.790498 0.026906  0.125000 0.500000
0  11.005762 33.607166 56.849865  0.450998 0.677101 0.581494  0.000000 1.000000
0  10.218687 33.607166 56.399101  -0.611880 0.790493 0.026903  0.000000 0.500000
no_material
0  4.790105 9.677400 53.290123  -0.886763 0.251548 -0.387782  0.000000 0.500000
0  -1.591332 23.763855 77.020554  -0.611873 0.790498 0.026906  0.125000 0.500000
0  10.218687 33.607166 56.399101  -0.611880 0.790493 0.026903  0.000000 0.500000
no_material
0  1.918324 6.842955 59.531158  0.886034 -0.262561 0.382107  0.125000 1.000000
0  11.005762 33.607166 56.849865  0.450998 0.677101 0.581494  0.000000 1.000000
0  -0.804257 23.763855 77.471321  0.451009 0.677095 0.581492  0.125000 1.000000
no_material
0  -1.591332 23.763855 77.020554  -0.611873 0.790498 0.026906  0.125000 0.500000
0  -0.804257 23.763855 77.471321  0.451009 0.677095 0.581492  0.125000 1.000000
0  11.005762 33.607166 56.849865  0.450998 0.677101 0.581494  0.000000 1.000000
no_material
0  4.790105 9.677400 53.290123  -0.886763 0.251548 -0.387782  0.000000 0.500000
0  1.389334 6.842955 59.228203  -0.886763 0.251548 -0.387782  0.125000 0.500000
0  -1.591332 23.763855 77.020554  -0.611873 0.790498 0.026906  0.125000 0.500000
no_material
0  1.918324 6.842955 59.531158  0.886034 -0.262561 0.382107  0.125000 1.000000
0  5.319095 9.677400 53.593079  0.886034 -0.262561 0.382108  0.000000 1.000000
0  11.005762 33.607166 56.849865  0.450998 0.677101 0.581494  0.000000 1.000000
no_material
0  0.509678 0.000000 61.990791  0.962471 -0.108756 0.248641  0.250000 1.000000
0  -0.804257 23.763855 77.471321  0.253878 0.280464 0.925681  0.125000 1.000000
0  -5.696129 -0.000000 86.013000  0.253898 0.280462 0.925676  0.250000 1.000000
no_material
0  1.389334 6.842955 59.228203  -0.959994 0.104194 -0.259914  0.125000 0.500000
0  -6.483204 -0.000000 85.562241  -0.842001 0.327438 0.428741  0.250000 0.500000
0  -1.591332 23.763855 77.020554  -0.842010 0.327431 0.428727  0.125000 0.500000
no_material
0  -6.483204 -0.000000 85.562241  -0.842001 0.327438 0.428741  0.250000 0.500000
0  -0.804257 23.763855 77.471321  0.253878 0.280464 0.925681  0.125000 1.000000
0  -1.591332 23.763855 77.020554  -0.842010 0.327431 0.428727  0.125000 0.500000
no_material
0  0.509678 0.000000 61.990791  0.962471 -0.108756 0.248641  0.250000 1.000000
0  1.918324 6.842955 59.531158  0.962471 -0.108756 0.248640  0.125000 1.000000
0  -0.804257 23.763855 77.471321  0.253878 0.280464 0.925681  0.125000 1.000000
no_material
0  1.389334 6.842955 59.228203  -0.959994 0.104194 -0.259914  0.125000 0.500000
0  -0.019311 0.000000 61.687836  -0.959994 0.104194 -0.259914  0.250000 0.500000
0  -6.483204 -0.000000 85.562241  -0.842001 0.327438 0.428741  0.250000 0.500000
no_material
0  -6.483204 -0.000000 85.562241  -0.842001 0.327438 0.428741  0.250000 0.500000
0  -5.696129 -0.000000 86.013000  0.253898 0.280462 0.925676  0.250000 1.000000
0  -0.804257 23.763855 77.471321  0.253878 0.280464 0.925681  0.125000 1.000000
no_material
0  -1.591332 -23.763855 77.020554  -0.842007 -0.327434 0.428733  0.375000 0.500000
0  -5.696129 -0.000000 86.013000  0.253889 -0.280463 0.925679  0.250000 1.000000
0  -6.483204 -0.000000 85.562241  -0.842004 -0.327435 0.428736  0.250000 0.500000
no_material
0  -0.019311 0.000000 61.687836  -0.959994 -0.104194 -0.259914  0.250000 0.500000
0  -1.591332 -23.763855 77.020554  -0.842007 -0.327434 0.428733  0.375000 0.500000
0  -6.483204 -0.000000 85.562241  -0.842004 -0.327435 0.428736  0.250000 0.500000
no_material
0  1.918324 -6.842955 59.531158  0.962471 0.108756 0.248641  0.375000 1.000000
0  -5.696129 -0.000000 86.013000  0.253889 -0.280463 0.925679  0.250000 1.000000
0  -0.804257 -23.763855 77.471321  0.253885 -0.280464 0.925680  0.375000 1.000000
no_material
0  -1.591332 -23.763855 77.020554  -0.842007 -0.327434 0.428733  0.375000 0.500000
0  -0.804257 -23.763855 77.471321  0.253885 -0.280464 0.925680  0.375000 1.000000
0  -5.696129 -0.000000 86.013000  0.253889 -0.280463 0.925679  0.250000 1.000000
no_material
0  -0.019311 0.000000 61.687836  -0.959994 -0.104194 -0.259914  0.250000 0.500000
0  1.389334 -6.842955 59.228203  -0.959994 -0.104194 -0.259914  0.375000 0.500000
0  -1.591332 -23.763855 77.020554  -0.842007 -0.327434 0.428733  0.375000 0.500000
no_material
0  1.918324 -6.842955 59.531158  0.962471 0.108756 0.248641  0.375000 1.000000
0  0.509678 0.000000 61.990791  0.962471 0.108756 0.248641  0.250000 1.000000
0  -5.696129 -0.000000 86.013000  0.253889 -0.280463 0.925679  0.250000 1.000000
no_material
0  20.287743 27.572498 44.806259  -0.048784 0.961938 0.268878  1.000000 0.500000
0  22.992706 1.867402 62.802887  0.587183 -0.161749 0.793129  0.875000 1.000000
0  20.826834 27.475712 44.605888  0.500485 0.863322 0.064724  0.875000 0.500000
no_material
0  20.826834 27.475712 44.605888  0.500485 0.863322 0.064724  0.875000 0.500000
0  23.219131 1.568938 62.355915  0.817872 -0.465861 0.337726  0.750000 1.000000
0  21.053259 27.177248 44.158916  0.731185 0.559222 -0.390691  0.750000 0.500000
no_material
0  21.053259 27.177248 44.158916  0.731185 0.559222 -0.390691  0.750000 0.500000
0  23.000256 1.243633 61.924171  0.594874 -0.797299 -0.102173  0.625000 1.000000
0  20.834383 26.851944 43.727173  0.508162 0.227790 -0.830592  0.625000 0.500000
no_material
0  20.834383 26.851944 43.727173  0.508162 0.227790 -0.830592  0.625000 0.500000
0  22.464293 1.082046 61.760563  0.048791 -0.961938 -0.268878  0.500000 1.000000
0  20.298420 26.690355 43.563568  -0.037910 0.063137 -0.997285  0.500000 0.500000
no_material
0  20.298420 26.690355 43.563568  -0.037910 0.063137 -0.997285  0.500000 0.500000
0  21.925201 1.178833 61.960934  -0.500489 -0.863320 -0.064721  0.375000 1.000000
0  19.759331 26.787142 43.763939  -0.587178 0.161747 -0.793133  0.375000 0.500000
no_material
0  19.759331 26.787142 43.763939  -0.587178 0.161747 -0.793133  0.375000 0.500000
0  21.698776 1.477296 62.407906  -0.731174 -0.559232 0.390697  0.250000 1.000000
0  19.532906 27.085606 44.210907  -0.817879 0.465853 -0.337721  0.250000 0.500000
no_material
0  21.698776 1.477296 62.407906  -0.731174 -0.559232 0.390697  0.010000 0.250000
0  22.464293 1.082046 61.760563  0.048791 -0.961938 -0.268878  0.250000 0.010000
0  23.219131 1.568938 62.355915  0.817872 -0.465861 0.337726  0.490000 0.250000
no_material
0  19.532906 27.085606 44.210907  -0.817879 0.465853 -0.337721  0.250000 0.500000
0  21.917654 1.802601 62.839649  -0.508171 -0.227774 0.830591  0.125000 1.000000
0  19.751781 27.410912 44.642654  -0.594865 0.797306 0.102170  0.125000 0.500000
no_material
0  19.751781 27.410912 44.642654  -0.594865 0.797306 0.102170  0.125000 0.500000
0  22.453615 1.964188 63.003258  0.037906 -0.063132 0.997285  0.000000 1.000000
0  20.287743 27.572498 44.806259  -0.048784 0.961938 0.268878  0.000000 0.500000
no_material
0  20.834383 26.851944 43.727173  0.508162 0.227790 -0.830592  0.919706 0.080294
0  19.759331 26.787142 43.763939  -0.587178 0.161747 -0.793133  0.580294 0.080294
0  19.751781 27.410912 44.642654  -0.594865 0.797306 0.102170  0.580294 0.419706
no_material
0  20.287743 27.572498 44.806259  -0.048784 0.961938 0.268878  1.000000 0.500000
0  22.453615 1.964188 63.003258  0.037906 -0.063132 0.997285  1.000000 1.000000
0  22.992706 1.867402 62.802887  0.587183 -0.161749 0.793129  0.875000 1.000000
no_material
0  20.826834 27.475712 44.605888  0.500485 0.863322 0.064724  0.875000 0.500000
0  22.992706 1.867402 62.802887  0.587183 -0.161749 0.793129  0.875000 1.000000
0  23.219131 1.568938 62.355915  0.817872 -0.465861 0.337726  0.750000 1.000000
no_material
0  21.053259 27.177248 44.158916  0.731185 0.559222 -0.390691  0.750000 0.500000
0  23.219131 1.568938 62.355915  0.817872 -0.465861 0.337726  0.750000 1.000000
0  23.000256 1.243633 61.924171  0.594874 -0.797299 -0.102173  0.625000 1.000000
no_material
0  20.834383 26.851944 43.727173  0.508162 0.227790 -0.830592  0.625000 0.500000
0  23.000256 1.243633 61.924171  0.594874 -0.797299 -0.102173  0.625000 1.000000
0  22.464293 1.082046 61.760563  0.048791 -0.961938 -0.268878  0.500000 1.000000
no_material
0  20.298420 26.690355 43.563568  -0.037910 0.063137 -0.997285  0.500000 0.500000
0  22.464293 1.082046 61.760563  0.048791 -0.961938 -0.268878  0.500000 1.000000
0  21.925201 1.178833 61.960934  -0.500489 -0.863320 -0.064721  0.375000 1.000000
no_material
0  19.759331 26.787142 43.763939  -0.587178 0.161747 -0.793133  0.375000 0.500000
0  21.925201 1.178833 61.960934  -0.500489 -0.863320 -0.064721  0.375000 1.000000
0  21.698776 1.477296 62.407906  -0.731174 -0.559232 0.390697  0.250000 1.000000
no_material
0  23.219131 1.568938 62.355915  0.817872 -0.465861 0.337726  0.490000 0.250000
0  22.992706 1.867402 62.802887  0.587183 -0.161749 0.793129  0.419706 0.419706
0  22.453615 1.964188 63.003258  0.037906 -0.063132 0.997285  0.250000 0.490000
no_material
0  22.453615 1.964188 63.003258  0.037906 -0.063132 0.997285  0.250000 0.490000
0  21.917654 1.802601 62.839649  -0.508171 -0.227774 0.830591  0.080294 0.419706
0  21.698776 1.477296 62.407906  -0.731174 -0.559232 0.390697  0.010000 0.250000
no_material
0  21.698776 1.477296 62.407906  -0.731174 -0.559232 0.390697  0.010000 0.250000
0  21.925201 1.178833 61.960934  -0.500489 -0.863320 -0.064721  0.080294 0.080294
0  22.464293 1.082046 61.760563  0.048791 -0.961938 -0.268878  0.250000 0.010000
no_material
0  22.464293 1.082046 61.760563  0.048791 -0.961938 -0.268878  0.250000 0.010000
0  23.000256 1.243633 61.924171  0.594874 -0.797299 -0.102173  0.419706 0.080294
0  23.219131 1.568938 62.355915  0.817872 -0.465861 0.337726  0.490000 0.250000
no_material
0  23.219131 1.568938 62.355915  0.817872 -0.465861 0.337726  0.490000 0.250000
0  22.453615 1.964188 63.003258  0.037906 -0.063132 0.997285  0.250000 0.490000
0  21.698776 1.477296 62.407906  -0.731174 -0.559232 0.390697  0.010000 0.250000
no_material
0  19.532906 27.085606 44.210907  -0.817879 0.465853 -0.337721  0.250000 0.500000
0  21.698776 1.477296 62.407906  -0.731174 -0.559232 0.390697  0.250000 1.000000
0  21.917654 1.802601 62.839649  -0.508171 -0.227774 0.830591  0.125000 1.000000
no_material
0  19.751781 27.410912 44.642654  -0.594865 0.797306 0.102170  0.125000 0.500000
0  21.917654 1.802601 62.839649  -0.508171 -0.227774 0.830591  0.125000 1.000000
0  22.453615 1.964188 63.003258  0.037906 -0.063132 0.997285  0.000000 1.000000
no_material
0  19.751781 27.410912 44.642654  -0.594865 0.797306 0.102170  0.580294 0.419706
0  20.287743 27.572498 44.806259  -0.048784 0.961938 0.268878  0.750000 0.490000
0  20.826834 27.475712 44.605888  0.500485 0.863322 0.064724  0.919706 0.419706
no_material
0  20.826834 27.475712 44.605888  0.500485 0.863322 0.064724  0.919706 0.419706
0  21.053259 27.177248 44.158916  0.731185 0.559222 -0.390691  0.990000 0.250000
0  20.834383 26.851944 43.727173  0.508162 0.227790 -0.830592  0.919706 0.080294
no_material
0  20.834383 26.851944 43.727173  0.508162 0.227790 -0.830592  0.919706 0.080294
0  20.298420 26.690355 43.563568  -0.037910 0.063137 -0.997285  0.750000 0.010000
0  19.759331 26.787142 43.763939  -0.587178 0.161747 -0.793133  0.580294 0.080294
no_material
0  19.759331 26.787142 43.763939  -0.587178 0.161747 -0.793133  0.580294 0.080294
0  19.532906 27.085606 44.210907  -0.817879 0.465853 -0.337721  0.510000 0.250000
0  19.751781 27.410912 44.642654  -0.594865 0.797306 0.102170  0.580294 0.419706
no_material
0  19.751781 27.410912 44.642654  -0.594865 0.797306 0.102170  0.580294 0.419706
0  20.826834 27.475712 44.605888  0.500485 0.863322 0.064724  0.919706 0.419706
0  20.834383 26.851944 43.727173  0.508162 0.227790 -0.830592  0.919706 0.080294
no_material
0  -3.534224 -0.803925 85.036301  -0.485704 -0.772751 0.408592  1.000000 0.500000
0  21.083195 -0.756807 65.391251  0.835634 -0.548635 0.026734  0.875000 1.000000
0  -3.191034 -0.576878 85.449585  -0.136030 -0.541421 0.829674  0.875000 0.500000
no_material
0  -3.191034 -0.576878 85.449585  -0.136030 -0.541421 0.829674  0.875000 0.500000
0  21.225271 -0.216411 65.558342  0.980404 0.001977 0.196989  0.750000 1.000000
0  -3.048958 -0.036482 85.616676  0.008746 0.009184 0.999920  0.750000 0.500000
no_material
0  -3.048958 -0.036482 85.616676  0.008746 0.009184 0.999920  0.750000 0.500000
0  21.083008 0.320778 65.381355  0.835456 0.549304 0.016681  0.625000 1.000000
0  -3.191219 0.500707 85.439690  -0.136233 0.556507 0.819598  0.625000 0.500000
no_material
0  -3.191219 0.500707 85.439690  -0.136233 0.556507 0.819598  0.625000 0.500000
0  20.739742 0.540082 64.963974  0.485702 0.772757 -0.408582  0.500000 1.000000
0  -3.534485 0.720011 85.022308  -0.485969 0.779958 0.394333  0.500000 0.500000
no_material
0  -3.534485 0.720011 85.022308  -0.485969 0.779958 0.394333  0.500000 0.500000
0  20.396553 0.313035 64.550690  0.136023 0.541415 -0.829679  0.375000 1.000000
0  -3.877674 0.492964 84.609024  -0.835640 0.548625 -0.026760  0.375000 0.500000
no_material
0  -3.877674 0.492964 84.609024  -0.835640 0.548625 -0.026760  0.375000 0.500000
0  20.254477 -0.227361 64.383598  -0.008711 -0.009182 -0.999920  0.250000 1.000000
0  -4.019753 -0.047432 84.441933  -0.980399 -0.001977 -0.197011  0.250000 0.500000
no_material
0  20.254477 -0.227361 64.383598  -0.008711 -0.009182 -0.999920  0.010000 0.250000
0  20.739742 0.540082 64.963974  0.485702 0.772757 -0.408582  0.250000 0.010000
0  21.225271 -0.216411 65.558342  0.980404 0.001977 0.196989  0.490000 0.250000
no_material
0  -4.019753 -0.047432 84.441933  -0.980399 -0.001977 -0.197011  0.250000 0.500000
0  20.396738 -0.764550 64.560585  0.136231 -0.556525 -0.819586  0.125000 1.000000
0  -3.877489 -0.584621 84.618912  -0.835456 -0.549304 -0.016671  0.125000 0.500000
no_material
0  -3.877489 -0.584621 84.618912  -0.835456 -0.549304 -0.016671  0.125000 0.500000
0  20.740005 -0.983854 64.977966  0.485966 -0.779961 -0.394332  0.000000 1.000000
0  -3.534224 -0.803925 85.036301  -0.485704 -0.772751 0.408592  0.000000 0.500000
no_material
0  -3.191219 0.500707 85.439690  -0.136233 0.556507 0.819598  0.919706 0.080294
0  -3.877674 0.492964 84.609024  -0.835640 0.548625 -0.026760  0.580294 0.080294
0  -3.877489 -0.584621 84.618912  -0.835456 -0.549304 -0.016671  0.580294 0.419706
no_material
0  -3.534224 -0.803925 85.036301  -0.485704 -0.772751 0.408592  1.000000 0.500000
0  20.740005 -0.983854 64.977966  0.485966 -0.779961 -0.394332  1.000000 1.000000
0  21.083195 -0.756807 65.391251  0.835634 -0.548635 0.026734  0.875000 1.000000
no_material
0  -3.191034 -0.576878 85.449585  -0.136030 -0.541421 0.829674  0.875000 0.500000
0  21.083195 -0.756807 65.391251  0.835634 -0.548635 0.026734  0.875000 1.000000
0  21.225271 -0.216411 65.558342  0.980404 0.001977 0.196989  0.750000 1.000000
no_material
0  -3.048958 -0.036482 85.616676  0.008746 0.009184 0.999920  0.750000 0.500000
0  21.225271 -0.216411 65.558342  0.980404 0.001977 0.196989  0.750000 1.000000
0  21.083008 0.320778 65.381355  0.835456 0.549304 0.016681  0.625000 1.000000
no_material
0  -3.191219 0.500707 85.439690  -0.136233 0.556507 0.819598  0.625000 0.500000
0  21.083008 0.320778 65.381355  0.835456 0.549304 0.016681  0.625000 1.000000
0  20.739742 0.540082 64.963974  0.485702 0.772757 -0.408582  0.500000 1.000000
no_material
0  -3.534485 0.720011 85.022308  -0.485969 0.779958 0.394333  0.500000 0.500000
0  20.739742 0.540082 64.963974  0.485702 0.772757 -0.408582  0.500000 1.000000
0  20.396553 0.313035 64.550690  0.136023 0.541415 -0.829679  0.375000 1.000000
no_material
0  -3.877674 0.492964 84.609024  -0.835640 0.548625 -0.026760  0.375000 0.500000
0  20.396553 0.313035 64.550690  0.136023 0.541415 -0.829679  0.375000 1.000000
0  20.254477 -0.227361 64.383598  -0.008711 -0.009182 -0.999920  0.250000 1.000000
no_material
0  21.225271 -0.216411 65.558342  0.980404 0.001977 0.196989  0.490000 0.250000
0  21.083195 -0.756807 65.391251  0.835634 -0.548635 0.026734  0.419706 0.419706
0  20.740005 -0.983854 64.977966  0.485966 -0.779961 -0.394332  0.250000 0.490000
no_material
0  20.740005 -0.983854 64.977966  0.485966 -0.779961 -0.394332  0.250000 0.490000
0  20.396738 -0.764550 64.560585  0.136231 -0.556525 -0.819586  0.080294 0.419706
0  20.254477 -0.227361 64.383598  -0.008711 -0.009182 -0.999920  0.010000 0.250000
no_material
0  20.254477 -0.227361 64.383598  -0.008711 -0.009182 -0.999920  0.010000 0.250000
0  20.396553 0.313035 64.550690  0.136023 0.541415 -0.829679  0.080294 0.080294
0  20.739742 0.540082 64.963974  0.485702 0.772757 -0.408582  0.250000 0.010000
no_material
0  20.739742 0.540082 64.963974  0.485702 0.772757 -0.408582  0.250000 0.010000
0  21.083008 0.320778 65.381355  0.835456 0.549304 0.016681  0.419706 0.080294
0  21.225271 -0.216411 65.558342  0.980404 0.001977 0.196989  0.490000 0.250000
no_material
0  21.225271 -0.216411 65.558342  0.980404 0.001977 0.196989  0.490000 0.250000
0  20.740005 -0.983854 64.977966  0.485966 -0.779961 -0.394332  0.250000 0.490000
0  20.254477 -0.227361 64.383598  -0.008711 -0.009182 -0.999920  0.010000 0.250000
no_material
0  -4.019753 -0.047432 84.441933  -0.980399 -0.001977 -0.197011  0.250000 0.500000
0  20.254477 -0.227361 64.383598  -0.008711 -0.009182 -0.999920  0.250000 1.000000
0  20.396738 -0.764550 64.560585  0.136231 -0.556525 -0.819586  0.125000 1.000000
no_material
0  -3.877489 -0.584621 84.618912  -0.835456 -0.549304 -0.016671  0.125000 0.500000
0  20.396738 -0.764550 64.560585  0.136231 -0.556525 -0.819586  0.125000 1.000000
0  20.740005 -0.983854 64.977966  0.485966 -0.779961 -0.394332  0.000000 1.000000
no_material
0  -3.877489 -0.584621 84.618912  -0.835456 -0.549304 -0.016671  0.580294 0.419706
0  -3.534224 -0.803925 85.036301  -0.485704 -0.772751 0.408592  0.750000 0.490000
0  -3.191034 -0.576878 85.449585  -0.136030 -0.541421 0.829674  0.919706 0.419706
no_material
0  -3.191034 -0.576878 85.449585  -0.136030 -0.541421 0.829674  0.919706 0.419706
0  -3.048958 -0.036482 85.616676  0.008746 0.009184 0.999920  0.990000 0.250000
0  -3.191219 0.500707 85.439690  -0.136233 0.556507 0.819598  0.919706 0.080294
no_material
0  -3.191219 0.500707 85.439690  -0.136233 0.556507 0.819598  0.919706 0.080294
0  -3.534485 0.720011 85.022308  -0.485969 0.779958 0.394333  0.750000 0.010000
0  -3.877674 0.492964 84.609024  -0.835640 0.548625 -0.026760  0.580294 0.080294
no_material
0  -3.877674 0.492964 84.609024  -0.835640 0.548625 -0.026760  0.580294 0.080294
0  -4.019753 -0.047432 84.441933  -0.980399 -0.001977 -0.197011  0.510000 0.250000
0  -3.877489 -0.584621 84.618912  -0.835456 -0.549304 -0.016671  0.580294 0.419706
no_material
0  -3.877489 -0.584621 84.618912  -0.835456 -0.549304 -0.016671  0.580294 0.419706
0  -3.191034 -0.576878 85.449585  -0.136030 -0.541421 0.829674  0.919706 0.419706
0  -3.191219 0.500707 85.439690  -0.136233 0.556507 0.819598  0.919706 0.080294
no_material
0  20.559956 -26.819555 43.684021  0.380014 -0.155545 -0.911809  1.000000 0.500000
0  23.088161 -1.610164 62.393429  0.802158 0.560102 0.206951  0.875000 1.000000
0  20.887829 -27.119354 44.061848  0.714082 -0.461004 -0.526842  0.875000 0.500000
no_material
0  20.887829 -27.119354 44.061848  0.714082 -0.461004 -0.526842  0.875000 0.500000
0  22.980169 -1.938450 62.863216  0.692117 0.225631 0.685613  0.750000 1.000000
0  20.779835 -27.447639 44.531631  0.604038 -0.795498 -0.048184  0.750000 0.500000
no_material
0  20.779835 -27.447639 44.531631  0.604038 -0.795498 -0.048184  0.750000 0.500000
0  22.499573 -2.102918 63.149765  0.202453 0.058046 0.977570  0.625000 1.000000
0  20.299240 -27.612108 44.818184  0.114369 -0.963068 0.243762  0.625000 0.500000
no_material
0  20.299240 -27.612108 44.818184  0.114369 -0.963068 0.243762  0.625000 0.500000
0  21.927900 -2.007225 63.085220  -0.380015 0.155540 0.911809  0.500000 1.000000
0  19.727566 -27.516415 44.753639  -0.468094 -0.865564 0.178007  0.500000 0.500000
no_material
0  19.727566 -27.516415 44.753639  -0.468094 -0.865564 0.178007  0.500000 0.500000
0  21.600029 -1.707426 62.707394  -0.714080 0.460999 0.526850  0.375000 1.000000
0  19.399694 -27.216616 44.375813  -0.802161 -0.560098 -0.206951  0.375000 0.500000
no_material
0  19.399694 -27.216616 44.375813  -0.802161 -0.560098 -0.206951  0.375000 0.500000
0  21.708019 -1.379140 62.237606  -0.604037 0.795497 0.048196  0.250000 1.000000
0  19.507687 -26.888330 43.906025  -0.692126 -0.225621 -0.685607  0.250000 0.500000
no_material
0  21.708019 -1.379140 62.237606  -0.604037 0.795497 0.048196  0.010000 0.250000
0  21.927900 -2.007225 63.085220  -0.380015 0.155540 0.911809  0.250000 0.010000
0  22.980169 -1.938450 62.863216  0.692117 0.225631 0.685613  0.490000 0.250000
no_material
0  19.507687 -26.888330 43.906025  -0.692126 -0.225621 -0.685607  0.250000 0.500000
0  22.188616 -1.214672 61.951057  -0.114376 0.963064 -0.243775  0.125000 1.000000
0  19.988283 -26.723862 43.619476  -0.202452 -0.058061 -0.977569  0.125000 0.500000
no_material
0  19.988283 -26.723862 43.619476  -0.202452 -0.058061 -0.977569  0.125000 0.500000
0  22.760290 -1.310365 62.015602  0.468090 0.865565 -0.178015  0.000000 1.000000
0  20.559956 -26.819555 43.684021  0.380014 -0.155545 -0.911809  0.000000 0.500000
no_material
0  20.299240 -27.612108 44.818184  0.114369 -0.963068 0.243762  0.919706 0.080294
0  19.399694 -27.216616 44.375813  -0.802161 -0.560098 -0.206951  0.580294 0.080294
0  19.988283 -26.723862 43.619476  -0.202452 -0.058061 -0.977569  0.580294 0.419706
no_material
0  20.559956 -26.819555 43.684021  0.380014 -0.155545 -0.911809  1.000000 0.500000
0  22.760290 -1.310365 62.015602  0.468090 0.865565 -0.178015  1.000000 1.000000
0  23.088161 -1.610164 62.393429  0.802158 0.560102 0.206951  0.875000 1.000000
no_material
0  20.887829 -27.119354 44.061848  0.714082 -0.461004 -0.526842  0.875000 0.500000
0  23.088161 -1.610164 62.393429  0.802158 0.560102 0.206951  0.875000 1.000000
0  22.980169 -1.938450 62.863216  0.692117 0.225631 0.685613  0.750000 1.000000
no_material
0  20.779835 -27.447639 44.531631  0.604038 -0.795498 -0.048184  0.750000 0.500000
0  22.980169 -1.938450 62.863216  0.692117 0.225631 0.685613  0.750000 1.000000
0  22.499573 -2.102918 63.149765  0.202453 0.058046 0.977570  0.625000 1.000000
no_material
0  20.299240 -27.612108 44.818184  0.114369 -0.963068 0.243762  0.625000 0.500000
0  22.499573 -2.102918 63.149765  0.202453 0.058046 0.977570  0.625000 1.000000
0  21.927900 -2.007225 63.085220  -0.380015 0.155540 0.911809  0.500000 1.000000
no_material
0  19.727566 -27.516415 44.753639  -0.468094 -0.865564 0.178007  0.500000 0.500000
0  21.927900 -2.007225 63.085220  -0.380015 0.155540 0.911809  0.500000 1.000000
0  21.600029 -1.707426 62.707394  -0.714080 0.460999 0.526850  0.375000 1.000000
no_material
0  19.399694 -27.216616 44.375813  -0.802161 -0.560098 -0.206951  0.375000 0.500000
0  21.600029 -1.707426 62.707394  -0.714080 0.460999 0.526850  0.375000 1.000000
0  21.708019 -1.379140 62.237606  -0.604037 0.795497 0.048196  0.250000 1.000000
no_material
0  22.980169 -1.938450 62.863216  0.692117 0.225631 0.685613  0.490000 0.250000
0  23.088161 -1.610164 62.393429  0.802158 0.560102 0.206951  0.419706 0.419706
0  22.760290 -1.310365 62.015602  0.468090 0.865565 -0.178015  0.250000 0.490000
no_material
0  22.760290 -1.310365 62.015602  0.468090 0.865565 -0.178015  0.250000 0.490000
0  22.188616 -1.214672 61.951057  -0.114376 0.963064 -0.243775  0.080294 0.419706
0  21.708019 -1.379140 62.237606  -0.604037 0.795497 0.048196  0.010000 0.250000
no_material
0  21.708019 -1.379140 62.237606  -0.604037 0.795497 0.048196  0.010000 0.250000
0  21.600029 -1.707426 62.707394  -0.714080 0.460999 0.526850  0.080294 0.080294
0  21.927900 -2.007225 63.085220  -0.380015 0.155540 0.911809  0.250000 0.010000
no_material
0  21.927900 -2.007225 63.085220  -0.380015 0.155540 0.911809  0.250000 0.010000
0  22.499573 -2.102918 63.149765  0.202453 0.058046 0.977570  0.419706 0.080294
0  22.980169 -1.938450 62.863216  0.692117 0.225631 0.685613  0.490000 0.250000
no_material
0  22.980169 -1.938450 62.863216  0.692117 0.225631 0.685613  0.490000 0.250000
0  22.760290 -1.310365 62.015602  0.468090 0.865565 -0.178015  0.250000 0.490000
0  21.708019 -1.379140 62.237606  -0.604037 0.795497 0.048196  0.010000 0.250000
no_material
0  19.507687 -26.888330 43.906025  -0.692126 -0.225621 -0.685607  0.250000 0.500000
0  21.708019 -1.379140 62.237606  -0.604037 0.795497 0.048196  0.250000 1.000000
0  22.188616 -1.214672 61.951057  -0.114376 0.963064 -0.243775  0.125000 1.000000
no_material
0  19.988283 -26.723862 43.619476  -0.202452 -0.058061 -0.977569  0.125000 0.500000
0  22.188616 -1.214672 61.951057  -0.114376 0.963064 -0.243775  0.125000 1.000000
0  22.760290 -1.310365 62.015602  0.468090 0.865565 -0.178015  0.000000 1.000000
no_material
0  19.988283 -26.723862 43.619476  -0.202452 -0.058061 -0.977569  0.580294 0.419706
0  20.559956 -26.819555 43.684021  0.380014 -0.155545 -0.911809  0.750000 0.490000
0  20.887829 -27.119354 44.061848  0.714082 -0.461004 -0.526842  0.919706 0.419706
no_material
0  20.887829 -27.119354 44.061848  0.714082 -0.461004 -0.526842  0.919706 0.419706
0  20.779835 -27.447639 44.531631  0.604038 -0.795498 -0.048184  0.990000 0.250000
0  20.299240 -27.612108 44.818184  0.114369 -0.963068 0.243762  0.919706 0.080294
no_material
0  20.299240 -27.612108 44.818184  0.114369 -0.963068 0.243762  0.919706 0.080294
0  19.727566 -27.516415 44.753639  -0.468094 -0.865564 0.178007  0.750000 0.010000
0  19.399694 -27.216616 44.375813  -0.802161 -0.560098 -0.206951  0.580294 0.080294
no_material
0  19.399694 -27.216616 44.375813  -0.802161 -0.560098 -0.206951  0.580294 0.080294
0  19.507687 -26.888330 43.906025  -0.692126 -0.225621 -0.685607  0.510000 0.250000
0  19.988283 -26.723862 43.619476  -0.202452 -0.058061 -0.977569  0.580294 0.419706
no_material
0  19.988283 -26.723862 43.619476  -0.202452 -0.058061 -0.977569  0.580294 0.419706
0  20.887829 -27.119354 44.061848  0.714082 -0.461004 -0.526842  0.919706 0.419706
0  20.299240 -27.612108 44.818184  0.114369 -0.963068 0.243762  0.919706 0.080294
no_material
0  3.885379 -1.000000 41.442921  -0.216407 -0.577356 -0.787291  0.375000 0.000000
0  1.920651 1.000000 44.897324  -0.787285 0.577356 0.216432  0.625000 0.250000
0  3.885379 1.000000 41.442921  -0.216428 0.577378 -0.787270  0.375000 0.250000
no_material
0  3.885379 1.000000 41.442921  -0.216428 0.577378 -0.787270  0.375000 0.250000
0  5.396163 1.000000 46.874054  0.216428 0.577378 0.787269  0.625000 0.500000
0  7.360890 1.000000 43.419651  0.787285 0.577356 -0.216431  0.375000 0.500000
no_material
0  7.360890 1.000000 43.419651  0.787285 0.577356 -0.216431  0.375000 0.500000
0  5.396163 -1.000000 46.874054  0.216407 -0.577356 0.787291  0.625000 0.750000
0  7.360890 -1.000000 43.419651  0.787277 -0.577378 -0.216403  0.375000 0.750000
no_material
0  7.360890 -1.000000 43.419651  0.787277 -0.577378 -0.216403  0.375000 0.750000
0  1.920651 -1.000000 44.897324  -0.787277 -0.577378 0.216403  0.625000 1.000000
0  3.885379 -1.000000 41.442921  -0.216407 -0.577356 -0.787291  0.375000 1.000000
no_material
0  3.885379 1.000000 41.442921  -0.216428 0.577378 -0.787270  0.125000 0.500000
0  7.360890 -1.000000 43.419651  0.787277 -0.577378 -0.216403  0.375000 0.750000
0  3.885379 -1.000000 41.442921  -0.216407 -0.577356 -0.787291  0.125000 0.750000
no_material
0  5.396163 1.000000 46.874054  0.216428 0.577378 0.787269  0.625000 0.500000
0  1.920651 -1.000000 44.897324  -0.787277 -0.577378 0.216403  0.875000 0.750000
0  5.396163 -1.000000 46.874054  0.216407 -0.577356 0.787291  0.625000 0.750000
no_material
0  3.885379 -1.000000 41.442921  -0.216407 -0.577356 -0.787291  0.375000 0.000000
0  1.920651 -1.000000 44.897324  -0.787277 -0.577378 0.216403  0.625000 0.000000
0  1.920651 1.000000 44.897324  -0.787285 0.577356 0.216432  0.625000 0.250000
no_material
0  3.885379 1.000000 41.442921  -0.216428 0.577378 -0.787270  0.375000 0.250000
0  1.920651 1.000000 44.897324  -0.787285 0.577356 0.216432  0.625000 0.250000
0  5.396163 1.000000 46.874054  0.216428 0.577378 0.787269  0.625000 0.500000
no_material
0  7.360890 1.000000 43.419651  0.787285 0.577356 -0.216431  0.375000 0.500000
0  5.396163 1.000000 46.874054  0.216428 0.577378 0.787269  0.625000 0.500000
0  5.396163 -1.000000 46.874054  0.216407 -0.577356 0.787291  0.625000 0.750000
no_material
0  7.360890 -1.000000 43.419651  0.787277 -0.577378 -0.216403  0.375000 0.750000
0  5.396163 -1.000000 46.874054  0.216407 -0.577356 0.787291  0.625000 0.750000
0  1.920651 -1.000000 44.897324  -0.787277 -0.577378 0.216403  0.625000 1.000000
no_material
0  3.885379 1.000000 41.442921  -0.216428 0.577378 -0.787270  0.125000 0.500000
0  7.360890 1.000000 43.419651  0.787285 0.577356 -0.216431  0.375000 0.500000
0  7.360890 -1.000000 43.419651  0.787277 -0.577378 -0.216403  0.375000 0.750000
no_material
0  5.396163 1.000000 46.874054  0.216428 0.577378 0.787269  0.625000 0.500000
0  1.920651 1.000000 44.897324  -0.787285 0.577356 0.216432  0.875000 0.500000
0  1.920651 -1.000000 44.897324  -0.787277 -0.577378 0.216403  0.875000 0.750000
no_material
0  1.920653 -1.000000 44.897324  -0.091373 -0.544677 -0.833653  0.375000 0.000000
0  -0.713315 1.491650 47.536476  -0.793879 0.601308 0.090463  0.625000 0.250000
0  1.920653 1.000000 44.897324  -0.091365 0.544688 -0.833647  0.375000 0.250000
no_material
0  1.920653 1.000000 44.897324  -0.091365 0.544688 -0.833647  0.375000 0.250000
0  3.618209 1.491650 50.000072  0.228993 0.618825 0.751410  0.625000 0.500000
0  5.396164 1.000000 46.874054  0.810531 0.533308 -0.242120  0.375000 0.500000
no_material
0  5.396164 1.000000 46.874054  0.810531 0.533308 -0.242120  0.375000 0.500000
0  3.618209 -1.491649 50.000072  0.228982 -0.618807 0.751428  0.625000 0.750000
0  5.396164 -1.000000 46.874054  0.810513 -0.533333 -0.242126  0.375000 0.750000
no_material
0  5.396164 -1.000000 46.874054  0.810513 -0.533333 -0.242126  0.375000 0.750000
0  -0.713315 -1.491649 47.536476  -0.793866 -0.601331 0.090437  0.625000 1.000000
0  1.920653 -1.000000 44.897324  -0.091373 -0.544677 -0.833653  0.375000 1.000000
no_material
0  1.920653 1.000000 44.897324  -0.091365 0.544688 -0.833647  0.125000 0.500000
0  5.396164 -1.000000 46.874054  0.810513 -0.533333 -0.242126  0.375000 0.750000
0  1.920653 -1.000000 44.897324  -0.091373 -0.544677 -0.833653  0.125000 0.750000
no_material
0  3.618209 1.491650 50.000072  0.228993 0.618825 0.751410  0.625000 0.500000
0  -0.713315 -1.491649 47.536476  -0.793866 -0.601331 0.090437  0.875000 0.750000
0  3.618209 -1.491649 50.000072  0.228982 -0.618807 0.751428  0.625000 0.750000
no_material
0  1.920653 -1.000000 44.897324  -0.091373 -0.544677 -0.833653  0.375000 0.000000
0  -0.713315 -1.491649 47.536476  -0.793866 -0.601331 0.090437  0.625000 0.000000
0  -0.713315 1.491650 47.536476  -0.793879 0.601308 0.090463  0.625000 0.250000
no_material
0  1.920653 1.000000 44.897324  -0.091365 0.544688 -0.833647  0.375000 0.250000
0  -0.713315 1.491650 47.536476  -0.793879 0.601308 0.090463  0.625000 0.250000
0  3.618209 1.491650 50.000072  0.228993 0.618825 0.751410  0.625000 0.500000
no_material
0  5.396164 1.000000 46.874054  0.810531 0.533308 -0.242120  0.375000 0.500000
0  3.618209 1.491650 50.000072  0.228993 0.618825 0.751410  0.625000 0.500000
0  3.618209 -1.491649 50.000072  0.228982 -0.618807 0.751428  0.625000 0.750000
no_material
0  5.396164 -1.000000 46.874054  0.810513 -0.533333 -0.242126  0.375000 0.750000
0  3.618209 -1.491649 50.000072  0.228982 -0.618807 0.751428  0.625000 0.750000
0  -0.713315 -1.491649 47.536476  -0.793866 -0.601331 0.090437  0.625000 1.000000
no_material
0  1.920653 1.000000 44.897324  -0.091365 0.544688 -0.833647  0.125000 0.500000
0  5.396164 1.000000 46.874054  0.810531 0.533308 -0.242120  0.375000 0.500000
0  5.396164 -1.000000 46.874054  0.810513 -0.533333 -0.242126  0.375000 0.750000
no_material
0  3.618209 1.491650 50.000072  0.228993 0.618825 0.751410  0.625000 0.500000
0  -0.713315 1.491650 47.536476  -0.793879 0.601308 0.090463  0.875000 0.500000
0  -0.713315 -1.491649 47.536476  -0.793866 -0.601331 0.090437  0.875000 0.750000
no_material
0  -3.088966 2.948663 48.913990  -0.557191 0.761544 -0.331043  1.000000 0.500000
0  5.839043 2.380987 51.422012  0.811930 0.559078 -0.167930  0.875000 1.000000
0  -2.015613 2.078242 47.107418  -0.282133 0.538498 -0.793990  0.875000 0.500000
no_material
0  -2.015613 2.078242 47.107418  -0.282133 0.538498 -0.793990  0.875000 0.500000
0  6.347693 -0.023138 50.565899  0.930221 -0.000009 -0.367000  0.750000 1.000000
0  -1.571016 -0.023138 46.359108  -0.168204 0.000005 -0.985752  0.750000 0.500000
no_material
0  -1.571016 -0.023138 46.359108  -0.168204 0.000005 -0.985752  0.750000 0.500000
0  5.839043 -2.427263 51.422012  0.811924 -0.559092 -0.167919  0.625000 1.000000
0  -2.015613 -2.124517 47.107418  -0.282145 -0.538484 -0.793996  0.625000 0.500000
no_material
0  -2.015613 -2.124517 47.107418  -0.282145 -0.538484 -0.793996  0.625000 0.500000
0  4.611052 -3.423084 53.488861  0.526347 -0.790668 0.312734  0.500000 1.000000
0  -3.088966 -2.994938 48.913990  -0.557186 -0.761544 -0.331051  0.500000 0.500000
no_material
0  -3.088966 -2.994938 48.913990  -0.557186 -0.761544 -0.331051  0.500000 0.500000
0  3.383060 -2.427263 55.555706  0.240779 -0.559079 0.793383  0.375000 1.000000
0  -4.162320 -2.124517 50.720566  -0.832239 -0.538498 0.131901  0.375000 0.500000
no_material
0  -4.162320 -2.124517 50.720566  -0.832239 -0.538498 0.131901  0.375000 0.500000
0  2.874410 -0.023138 56.411823  0.122510 0.000009 0.992467  0.250000 1.000000
0  -4.606917 -0.023138 51.468872  -0.946174 -0.000005 0.323660  0.250000 0.500000
no_material
0  2.874410 -0.023138 56.411823  0.122510 0.000009 0.992467  0.010000 0.250000
0  4.611052 -3.423084 53.488861  0.526347 -0.790668 0.312734  0.250000 0.010000
0  6.347693 -0.023138 50.565899  0.930221 -0.000009 -0.367000  0.490000 0.250000
no_material
0  -4.606917 -0.023138 51.468872  -0.946174 -0.000005 0.323660  0.250000 0.500000
0  3.383060 2.380987 55.555706  0.240786 0.559092 0.793371  0.125000 1.000000
0  -4.162320 2.078242 50.720566  -0.832250 0.538483 0.131893  0.125000 0.500000
no_material
0  -4.162320 2.078242 50.720566  -0.832250 0.538483 0.131893  0.125000 0.500000
0  4.611052 3.376809 53.488861  0.526357 0.790668 0.312718  0.000000 1.000000
0  -3.088966 2.948663 48.913990  -0.557191 0.761544 -0.331043  0.000000 0.500000
no_material
0  -2.015613 -2.124517 47.107418  -0.282145 -0.538484 -0.793996  0.919706 0.080294
0  -4.162320 -2.124517 50.720566  -0.832239 -0.538498 0.131901  0.580294 0.080294
0  -4.162320 2.078242 50.720566  -0.832250 0.538483 0.131893  0.580294 0.419706
no_material
0  -3.088966 2.948663 48.913990  -0.557191 0.761544 -0.331043  1.000000 0.500000
0  4.611052 3.376809 53.488861  0.526357 0.790668 0.312718  1.000000 1.000000
0  5.839043 2.380987 51.422012  0.811930 0.559078 -0.167930  0.875000 1.000000
no_material
0  -2.015613 2.078242 47.107418  -0.282133 0.538498 -0.793990  0.875000 0.500000
0  5.839043 2.380987 51.422012  0.811930 0.559078 -0.167930  0.875000 1.000000
0  6.347693 -0.023138 50.565899  0.930221 -0.000009 -0.367000  0.750000 1.000000
no_material
0  -1.571016 -0.023138 46.359108  -0.168204 0.000005 -0.985752  0.750000 0.500000
0  6.347693 -0.023138 50.565899  0.930221 -0.000009 -0.367000  0.750000 1.000000
0  5.839043 -2.427263 51.422012  0.811924 -0.559092 -0.167919  0.625000 1.000000
no_material
0  -2.015613 -2.124517 47.107418  -0.282145 -0.538484 -0.793996  0.625000 0.500000
0  5.839043 -2.427263 51.422012  0.811924 -0.559092 -0.167919  0.625000 1.000000
0  4.611052 -3.423084 53.488861  0.526347 -0.790668 0.312734  0.500000 1.000000
no_material
0  -3.088966 -2.994938 48.913990  -0.557186 -0.761544 -0.331051  0.500000 0.500000
0  4.611052 -3.423084 53.488861  0.526347 -0.790668 0.312734  0.500000 1.000000
0  3.383060 -2.427263 55.555706  0.240779 -0.559079 0.793383  0.375000 1.000000
no_material
0  -4.162320 -2.124517 50.720566  -0.832239 -0.538498 0.131901  0.375000 0.500000
0  3.383060 -2.427263 55.555706  0.240779 -0.559079 0.793383  0.375000 1.000000
0  2.874410 -0.023138 56.411823  0.122510 0.000009 0.992467  0.250000 1.000000
no_material
0  6.347693 -0.023138 50.565899  0.930221 -0.000009 -0.367000  0.490000 0.250000
0  5.839043 2.380987 51.422012  0.811930 0.559078 -0.167930  0.419706 0.419706
0  4.611052 3.376809 53.488861  0.526357 0.790668 0.312718  0.250000 0.490000
no_material
0  4.611052 3.376809 53.488861  0.526357 0.790668 0.312718  0.250000 0.490000
0  3.383060 2.380987 55.555706  0.240786 0.559092 0.793371  0.080294 0.419706
0  2.874410 -0.023138 56.411823  0.122510 0.000009 0.992467  0.010000 0.250000
no_material
0  2.874410 -0.023138 56.411823  0.122510 0.000009 0.992467  0.010000 0.250000
0  3.383060 -2.427263 55.555706  0.240779 -0.559079 0.793383  0.080294 0.080294
0  4.611052 -3.423084 53.488861  0.526347 -0.790668 0.312734  0.250000 0.010000
no_material
0  4.611052 -3.423084 53.488861  0.526347 -0.790668 0.312734  0.250000 0.010000
0  5.839043 -2.427263 51.422012  0.811924 -0.559092 -0.167919  0.419706 0.080294
0  6.347693 -0.023138 50.565899  0.930221 -0.000009 -0.367000  0.490000 0.250000
no_material
0  6.347693 -0.023138 50.565899  0.930221 -0.000009 -0.367000  0.490000 0.250000
0  4.611052 3.376809 53.488861  0.526357 0.790668 0.312718  0.250000 0.490000
0  2.874410 -0.023138 56.411823  0.122510 0.000009 0.992467  0.010000 0.250000
no_material
0  -4.606917 -0.023138 51.468872  -0.946174 -0.000005 0.323660  0.250000 0.500000
0  2.874410 -0.023138 56.411823  0.122510 0.000009 0.992467  0.250000 1.000000
0  3.383060 2.380987 55.555706  0.240786 0.559092 0.793371  0.125000 1.000000
no_material
0  -4.162320 2.078242 50.720566  -0.832250 0.538483 0.131893  0.125000 0.500000
0  3.383060 2.380987 55.555706  0.240786 0.559092 0.793371  0.125000 1.000000
0  4.611052 3.376809 53.488861  0.526357 0.790668 0.312718  0.000000 1.000000
no_material
0  -4.162320 2.078242 50.720566  -0.832250 0.538483 0.131893  0.580294 0.419706
0  -3.088966 2.948663 48.913990  -0.557191 0.761544 -0.331043  0.750000 0.490000
0  -2.015613 2.078242 47.107418  -0.282133 0.538498 -0.793990  0.919706 0.419706
no_material
0  -2.015613 2.078242 47.107418  -0.282133 0.538498 -0.793990  0.919706 0.419706
0  -1.571016 -0.023138 46.359108  -0.168204 0.000005 -0.985752  0.990000 0.250000
0  -2.015613 -2.124517 47.107418  -0.282145 -0.538484 -0.793996  0.919706 0.080294
no_material
0  -2.015613 -2.124517 47.107418  -0.282145 -0.538484 -0.793996  0.919706 0.080294
0  -3.088966 -2.994938 48.913990  -0.557186 -0.761544 -0.331051  0.750000 0.010000
0  -4.162320 -2.124517 50.720566  -0.832239 -0.538498 0.131901  0.580294 0.080294
no_material
0  -4.162320 -2.124517 50.720566  -0.832239 -0.538498 0.131901  0.580294 0.080294
0  -4.606917 -0.023138 51.468872  -0.946174 -0.000005 0.323660  0.510000 0.250000
0  -4.162320 2.078242 50.720566  -0.832250 0.538483 0.131893  0.580294 0.419706
no_material
0  -4.162320 2.078242 50.720566  -0.832250 0.538483 0.131893  0.580294 0.419706
0  -2.015613 2.078242 47.107418  -0.282133 0.538498 -0.793990  0.919706 0.419706
0  -2.015613 -2.124517 47.107418  -0.282145 -0.538484 -0.793996  0.919706 0.080294
end
