version 1
nodes
0 "Implicit" -1
end
skeleton
time 0
0  0.000000 0.000000 0.000000  0.000000 0.000000 0.000000
end
triangles
de_train_handrails_01
0  0.500004 -63.500000 19.500000  1.000000 0.000000 0.000000  0.250000 0.375000
0  0.500002 -32.500000 19.500000  1.000000 0.000000 0.000000  0.500000 0.375000
0  0.500004 -63.500000 20.500000  1.000000 0.000000 0.000000  0.250000 0.500000
de_train_handrails_01
0  0.500002 -32.500000 19.500000  1.000000 0.000000 0.000000  0.500000 0.375000
0  0.500002 -32.500000 20.500000  1.000000 0.000000 0.000000  0.500000 0.500000
0  0.500004 -63.500000 20.500000  1.000000 0.000000 0.000000  0.250000 0.500000
de_train_handrails_01
0  -1.000001 66.000000 39.000000  0.000000 0.000000 -1.000000  1.000000 0.625000
0  0.999999 66.000000 39.000000  0.000000 0.000000 -1.000000  1.000000 0.875000
0  -0.999995 -66.000000 39.000000  0.000000 0.000000 -1.000000  0.000000 0.625000
de_train_handrails_01
0  0.999999 66.000000 39.000000  0.000000 0.000000 -1.000000  1.000000 0.875000
0  1.000005 -66.000000 39.000000  0.000000 0.000000 -1.000000  0.000000 0.875000
0  -0.999995 -66.000000 39.000000  0.000000 0.000000 -1.000000  0.000000 0.625000
de_train_handrails_01
0  0.999999 66.000000 39.000000  0.000000 1.000000 0.000000  0.000000 0.625000
0  -1.000001 66.000000 39.000000  0.000000 1.000000 0.000000  0.015625 0.625000
0  0.999999 66.000000 40.000000  0.000000 1.000000 0.000000  0.000000 0.750000
de_train_handrails_01
0  -1.000001 66.000000 39.000000  0.000000 1.000000 0.000000  0.015625 0.625000
0  -1.000001 66.000000 40.000000  0.000000 1.000000 0.000000  0.015625 0.750000
0  0.999999 66.000000 40.000000  0.000000 1.000000 0.000000  0.000000 0.750000
de_train_handrails_01
0  -0.999995 -66.000000 39.000000  0.000000 -1.000000 0.000000  0.000000 1.000000
0  1.000005 -66.000000 39.000000  0.000000 -1.000000 0.000000  0.000000 0.875000
0  -0.999995 -66.000000 40.000000  0.000000 -1.000000 0.000000  0.000000 0.875000
de_train_handrails_01
0  1.000005 -66.000000 39.000000  0.000000 -1.000000 0.000000  0.000000 0.875000
0  1.000005 -66.000000 40.000000  0.000000 -1.000000 0.000000  0.000000 0.625000
0  -0.999995 -66.000000 40.000000  0.000000 -1.000000 0.000000  0.000000 0.875000
de_train_handrails_01
0  0.999997 66.000000 0.000000  1.000000 0.000000 0.000000  0.867188 0.500000
0  0.999997 66.000000 0.500000  1.000000 0.000000 0.000000  0.867188 0.375000
0  0.999997 62.000000 0.000000  1.000000 0.000000 0.000000  0.898438 0.500000
de_train_handrails_01
0  0.999997 66.000000 0.500000  1.000000 0.000000 0.000000  0.867188 0.375000
0  0.999997 62.000000 0.500000  1.000000 0.000000 0.000000  0.898438 0.375000
0  0.999997 62.000000 0.000000  1.000000 0.000000 0.000000  0.898438 0.500000
de_train_handrails_01
0  0.999997 62.000000 0.500000  0.000000 0.000000 1.000000  0.898438 0.375000
0  0.999997 66.000000 0.500000  0.000000 0.000000 1.000000  0.867188 0.375000
0  -1.000003 62.000000 0.500000  0.000000 0.000000 1.000000  0.898438 0.125000
de_train_handrails_01
0  0.999997 66.000000 0.500000  0.000000 0.000000 1.000000  0.867188 0.375000
0  -1.000003 66.000000 0.500000  0.000000 0.000000 1.000000  0.867188 0.125000
0  -1.000003 62.000000 0.500000  0.000000 0.000000 1.000000  0.898438 0.125000
de_train_handrails_01
0  -1.000003 66.000000 0.500000  0.000000 1.000000 0.000000  0.898438 0.375000
0  0.999997 66.000000 0.500000  0.000000 1.000000 0.000000  0.898438 0.125000
0  -1.000003 66.000000 0.000000  0.000000 1.000000 0.000000  0.906250 0.375000
de_train_handrails_01
0  0.999997 66.000000 0.500000  0.000000 1.000000 0.000000  0.898438 0.125000
0  0.999997 66.000000 0.000000  0.000000 1.000000 0.000000  0.906250 0.125000
0  -1.000003 66.000000 0.000000  0.000000 1.000000 0.000000  0.906250 0.375000
de_train_handrails_01
0  0.999997 62.000000 0.000000  0.000000 -1.000000 0.000000  0.859375 0.125000
0  0.999997 62.000000 0.500000  0.000000 -1.000000 0.000000  0.867188 0.125000
0  -1.000003 62.000000 0.000000  0.000000 -1.000000 0.000000  0.859375 0.375000
de_train_handrails_01
0  0.999997 62.000000 0.500000  0.000000 -1.000000 0.000000  0.867188 0.125000
0  -1.000003 62.000000 0.500000  0.000000 -1.000000 0.000000  0.867188 0.375000
0  -1.000003 62.000000 0.000000  0.000000 -1.000000 0.000000  0.859375 0.375000
de_train_handrails_01
0  -1.000003 62.000000 0.500000  -1.000000 -0.000000 0.000000  0.867188 0.125000
0  -1.000003 66.000000 0.500000  -1.000000 -0.000000 0.000000  0.898438 0.125000
0  -1.000003 62.000000 0.000000  -1.000000 -0.000000 0.000000  0.867188 0.000000
de_train_handrails_01
0  -1.000003 66.000000 0.500000  -1.000000 -0.000000 0.000000  0.898438 0.125000
0  -1.000003 66.000000 0.000000  -1.000000 0.000000 0.000000  0.898438 0.000000
0  -1.000003 62.000000 0.000000  -1.000000 -0.000000 0.000000  0.867188 0.000000
de_train_handrails_01
0  -0.500003 64.500000 0.000000  0.000000 1.000000 0.000000  0.500000 0.125000
0  -0.500001 64.500000 39.000000  0.000000 1.000000 0.000000  0.812500 0.125000
0  0.499997 64.500000 0.000000  0.000000 1.000000 0.000000  0.500000 0.250000
de_train_handrails_01
0  -0.500001 64.500000 39.000000  0.000000 1.000000 0.000000  0.812500 0.125000
0  0.499999 64.500000 39.000000  0.000000 1.000000 0.000000  0.812500 0.250000
0  0.499997 64.500000 0.000000  0.000000 1.000000 0.000000  0.500000 0.250000
de_train_handrails_01
0  -0.500001 63.500000 39.000000  -1.000000 0.000000 0.000000  0.812500 0.000000
0  -0.500001 64.500000 39.000000  -1.000000 0.000000 0.000000  0.812500 0.125000
0  -0.500003 63.500000 0.000000  -1.000000 0.000000 0.000000  0.500000 0.000000
de_train_handrails_01
0  -0.500001 64.500000 39.000000  -1.000000 0.000000 0.000000  0.812500 0.125000
0  -0.500003 64.500000 0.000000  -1.000000 0.000000 0.000000  0.500000 0.125000
0  -0.500003 63.500000 0.000000  -1.000000 0.000000 0.000000  0.500000 0.000000
de_train_handrails_01
0  0.499997 64.500000 0.000000  1.000000 0.000000 -0.000000  0.500000 0.250000
0  0.499999 64.500000 39.000000  1.000000 0.000000 -0.000000  0.812500 0.250000
0  0.499997 63.500000 0.000000  1.000000 0.000000 -0.000000  0.500000 0.375000
de_train_handrails_01
0  0.499999 64.500000 39.000000  1.000000 0.000000 -0.000000  0.812500 0.250000
0  0.499999 63.500000 39.000000  1.000000 0.000000 -0.000000  0.812500 0.375000
0  0.499997 63.500000 0.000000  1.000000 0.000000 -0.000000  0.500000 0.375000
de_train_handrails_01
0  0.499999 63.500000 39.000000  0.000000 -1.000000 0.000000  0.812500 0.375000
0  -0.500001 63.500000 39.000000  0.000000 -1.000000 0.000000  0.812500 0.500000
0  0.499997 63.500000 0.000000  0.000000 -1.000000 0.000000  0.500000 0.375000
de_train_handrails_01
0  -0.500001 63.500000 39.000000  0.000000 -1.000000 0.000000  0.812500 0.500000
0  -0.500003 63.500000 0.000000  0.000000 -1.000000 0.000000  0.500000 0.500000
0  0.499997 63.500000 0.000000  0.000000 -1.000000 0.000000  0.500000 0.375000
de_train_handrails_01
0  1.000003 -62.000000 0.000000  1.000000 0.000000 0.000000  0.960938 0.500000
0  1.000003 -62.000000 0.500000  1.000000 0.000000 0.000000  0.960938 0.375000
0  1.000003 -66.000000 0.000000  1.000000 0.000000 0.000000  0.992188 0.500000
de_train_handrails_01
0  1.000003 -62.000000 0.500000  1.000000 0.000000 0.000000  0.960938 0.375000
0  1.000003 -66.000000 0.500000  1.000000 0.000000 0.000000  0.992188 0.375000
0  1.000003 -66.000000 0.000000  1.000000 0.000000 0.000000  0.992188 0.500000
de_train_handrails_01
0  1.000003 -66.000000 0.500000  0.000000 0.000000 1.000000  0.992188 0.375000
0  1.000003 -62.000000 0.500000  0.000000 0.000000 1.000000  0.960938 0.375000
0  -0.999997 -66.000000 0.500000  0.000000 0.000000 1.000000  0.992188 0.125000
de_train_handrails_01
0  1.000003 -62.000000 0.500000  0.000000 0.000000 1.000000  0.960938 0.375000
0  -0.999997 -62.000000 0.500000  0.000000 0.000000 1.000000  0.960938 0.125000
0  -0.999997 -66.000000 0.500000  0.000000 0.000000 1.000000  0.992188 0.125000
de_train_handrails_01
0  -0.999997 -62.000000 0.500000  0.000000 1.000000 0.000000  0.992188 0.375000
0  1.000003 -62.000000 0.500000  0.000000 1.000000 0.000000  0.992188 0.125000
0  -0.999997 -62.000000 0.000000  0.000000 1.000000 0.000000  1.000000 0.375000
de_train_handrails_01
0  1.000003 -62.000000 0.500000  0.000000 1.000000 0.000000  0.992188 0.125000
0  1.000003 -62.000000 0.000000  0.000000 1.000000 0.000000  1.000000 0.125000
0  -0.999997 -62.000000 0.000000  0.000000 1.000000 0.000000  1.000000 0.375000
de_train_handrails_01
0  1.000003 -66.000000 0.000000  0.000000 -1.000000 0.000000  0.953125 0.125000
0  1.000003 -66.000000 0.500000  0.000000 -1.000000 0.000000  0.960938 0.125000
0  -0.999997 -66.000000 0.000000  0.000000 -1.000000 0.000000  0.953125 0.375000
de_train_handrails_01
0  1.000003 -66.000000 0.500000  0.000000 -1.000000 0.000000  0.960938 0.125000
0  -0.999997 -66.000000 0.500000  0.000000 -1.000000 0.000000  0.960938 0.375000
0  -0.999997 -66.000000 0.000000  0.000000 -1.000000 0.000000  0.953125 0.375000
de_train_handrails_01
0  -0.999997 -66.000000 0.500000  -1.000000 -0.000000 0.000000  0.960938 0.125000
0  -0.999997 -62.000000 0.500000  -1.000000 -0.000000 0.000000  0.992188 0.125000
0  -0.999997 -66.000000 0.000000  -1.000000 -0.000000 0.000000  0.960938 0.000000
de_train_handrails_01
0  -0.999997 -62.000000 0.500000  -1.000000 -0.000000 0.000000  0.992188 0.125000
0  -0.999997 -62.000000 0.000000  -1.000000 -0.000000 0.000000  0.992188 0.000000
0  -0.999997 -66.000000 0.000000  -1.000000 -0.000000 0.000000  0.960938 0.000000
de_train_handrails_01
0  1.000001 -30.000000 0.000000  1.000000 0.000000 0.000000  0.914063 0.500000
0  1.000001 -30.000000 0.500000  1.000000 0.000000 0.000000  0.914063 0.375000
0  1.000001 -34.000000 0.000000  1.000000 0.000000 0.000000  0.945313 0.500000
de_train_handrails_01
0  1.000001 -30.000000 0.500000  1.000000 0.000000 0.000000  0.914063 0.375000
0  1.000001 -34.000000 0.500000  1.000000 0.000000 0.000000  0.945313 0.375000
0  1.000001 -34.000000 0.000000  1.000000 0.000000 0.000000  0.945313 0.500000
de_train_handrails_01
0  1.000001 -34.000000 0.500000  0.000000 0.000000 1.000000  0.945313 0.375000
0  1.000001 -30.000000 0.500000  0.000000 0.000000 1.000000  0.914063 0.375000
0  -0.999999 -34.000000 0.500000  0.000000 0.000000 1.000000  0.945313 0.125000
de_train_handrails_01
0  1.000001 -30.000000 0.500000  0.000000 0.000000 1.000000  0.914063 0.375000
0  -0.999999 -30.000000 0.500000  0.000000 0.000000 1.000000  0.914063 0.125000
0  -0.999999 -34.000000 0.500000  0.000000 0.000000 1.000000  0.945313 0.125000
de_train_handrails_01
0  -0.999999 -30.000000 0.500000  0.000000 1.000000 0.000000  0.945313 0.375000
0  1.000001 -30.000000 0.500000  0.000000 1.000000 0.000000  0.945313 0.125000
0  -0.999999 -30.000000 0.000000  0.000000 1.000000 0.000000  0.953125 0.375000
de_train_handrails_01
0  1.000001 -30.000000 0.500000  0.000000 1.000000 0.000000  0.945313 0.125000
0  1.000001 -30.000000 0.000000  0.000000 1.000000 0.000000  0.953125 0.125000
0  -0.999999 -30.000000 0.000000  0.000000 1.000000 0.000000  0.953125 0.375000
de_train_handrails_01
0  1.000001 -34.000000 0.000000  0.000000 -1.000000 0.000000  0.906250 0.125000
0  1.000001 -34.000000 0.500000  0.000000 -1.000000 0.000000  0.914063 0.125000
0  -0.999999 -34.000000 0.000000  0.000000 -1.000000 0.000000  0.906250 0.375000
de_train_handrails_01
0  1.000001 -34.000000 0.500000  0.000000 -1.000000 0.000000  0.914063 0.125000
0  -0.999999 -34.000000 0.500000  0.000000 -1.000000 0.000000  0.914063 0.375000
0  -0.999999 -34.000000 0.000000  0.000000 -1.000000 0.000000  0.906250 0.375000
de_train_handrails_01
0  -0.999999 -34.000000 0.500000  -1.000000 -0.000000 0.000000  0.914063 0.125000
0  -0.999999 -30.000000 0.500000  -1.000000 -0.000000 0.000000  0.945313 0.125000
0  -0.999999 -34.000000 0.000000  -1.000000 -0.000000 0.000000  0.914063 0.000000
de_train_handrails_01
0  -0.999999 -30.000000 0.500000  -1.000000 -0.000000 0.000000  0.945313 0.125000
0  -0.999999 -30.000000 0.000000  -1.000000 -0.000000 0.000000  0.945313 0.000000
0  -0.999999 -34.000000 0.000000  -1.000000 -0.000000 0.000000  0.914063 0.000000
de_train_handrails_01
0  0.999999 34.000000 0.000000  1.000000 0.000000 0.000000  0.867188 0.500000
0  0.999999 34.000000 0.500000  1.000000 0.000000 0.000000  0.867188 0.375000
0  0.999999 30.000000 0.000000  1.000000 0.000000 0.000000  0.898438 0.500000
de_train_handrails_01
0  0.999999 34.000000 0.500000  1.000000 0.000000 0.000000  0.867188 0.375000
0  0.999999 30.000000 0.500000  1.000000 0.000000 0.000000  0.898438 0.375000
0  0.999999 30.000000 0.000000  1.000000 0.000000 0.000000  0.898438 0.500000
de_train_handrails_01
0  0.999999 30.000000 0.500000  0.000000 0.000000 1.000000  0.898438 0.375000
0  0.999999 34.000000 0.500000  0.000000 0.000000 1.000000  0.867188 0.375000
0  -1.000001 30.000000 0.500000  0.000000 0.000000 1.000000  0.898438 0.125000
de_train_handrails_01
0  0.999999 34.000000 0.500000  0.000000 0.000000 1.000000  0.867188 0.375000
0  -1.000001 34.000000 0.500000  0.000000 0.000000 1.000000  0.867188 0.125000
0  -1.000001 30.000000 0.500000  0.000000 0.000000 1.000000  0.898438 0.125000
de_train_handrails_01
0  -1.000001 34.000000 0.500000  0.000000 1.000000 0.000000  0.898438 0.375000
0  0.999999 34.000000 0.500000  0.000000 1.000000 0.000000  0.898438 0.125000
0  -1.000001 34.000000 0.000000  0.000000 1.000000 0.000000  0.906250 0.375000
de_train_handrails_01
0  0.999999 34.000000 0.500000  0.000000 1.000000 0.000000  0.898438 0.125000
0  0.999999 34.000000 0.000000  0.000000 1.000000 0.000000  0.906250 0.125000
0  -1.000001 34.000000 0.000000  0.000000 1.000000 0.000000  0.906250 0.375000
de_train_handrails_01
0  0.999999 30.000000 0.000000  0.000000 -1.000000 0.000000  0.859375 0.125000
0  0.999999 30.000000 0.500000  0.000000 -1.000000 0.000000  0.867188 0.125000
0  -1.000001 30.000000 0.000000  0.000000 -1.000000 0.000000  0.859375 0.375000
de_train_handrails_01
0  0.999999 30.000000 0.500000  0.000000 -1.000000 0.000000  0.867188 0.125000
0  -1.000001 30.000000 0.500000  0.000000 -1.000000 0.000000  0.867188 0.375000
0  -1.000001 30.000000 0.000000  0.000000 -1.000000 0.000000  0.859375 0.375000
de_train_handrails_01
0  -1.000001 30.000000 0.500000  -1.000000 -0.000000 0.000000  0.867188 0.125000
0  -1.000001 34.000000 0.500000  -1.000000 -0.000000 0.000000  0.898438 0.125000
0  -1.000001 30.000000 0.000000  -1.000000 -0.000000 0.000000  0.867188 0.000000
de_train_handrails_01
0  -1.000001 34.000000 0.500000  -1.000000 -0.000000 0.000000  0.898438 0.125000
0  -1.000001 34.000000 0.000000  -1.000000 0.000000 0.000000  0.898438 0.000000
0  -1.000001 30.000000 0.000000  -1.000000 -0.000000 0.000000  0.867188 0.000000
de_train_handrails_01
0  1.000000 -2.000000 0.500000  0.000000 0.000000 1.000000  0.851563 0.375000
0  1.000000 2.000000 0.500000  0.000000 0.000000 1.000000  0.820313 0.375000
0  -1.000000 -2.000000 0.500000  0.000000 0.000000 1.000000  0.851563 0.125000
de_train_handrails_01
0  1.000000 2.000000 0.500000  0.000000 0.000000 1.000000  0.820313 0.375000
0  -1.000000 2.000000 0.500000  0.000000 0.000000 1.000000  0.820313 0.125000
0  -1.000000 -2.000000 0.500000  0.000000 0.000000 1.000000  0.851563 0.125000
de_train_handrails_01
0  -1.000000 2.000000 0.500000  0.000000 1.000000 0.000000  0.851563 0.375000
0  1.000000 2.000000 0.500000  0.000000 1.000000 0.000000  0.851563 0.125000
0  -1.000000 2.000000 0.000000  0.000000 1.000000 0.000000  0.859375 0.375000
de_train_handrails_01
0  1.000000 2.000000 0.500000  0.000000 1.000000 0.000000  0.851563 0.125000
0  1.000000 2.000000 0.000000  0.000000 1.000000 0.000000  0.859375 0.125000
0  -1.000000 2.000000 0.000000  0.000000 1.000000 0.000000  0.859375 0.375000
de_train_handrails_01
0  1.000000 -2.000000 0.000000  0.000000 -1.000000 0.000000  0.812500 0.125000
0  1.000000 -2.000000 0.500000  0.000000 -1.000000 0.000000  0.820313 0.125000
0  -1.000000 -2.000000 0.000000  0.000000 -1.000000 0.000000  0.812500 0.375000
de_train_handrails_01
0  1.000000 -2.000000 0.500000  0.000000 -1.000000 0.000000  0.820313 0.125000
0  -1.000000 -2.000000 0.500000  0.000000 -1.000000 0.000000  0.820313 0.375000
0  -1.000000 -2.000000 0.000000  0.000000 -1.000000 0.000000  0.812500 0.375000
de_train_handrails_01
0  1.000000 2.000000 0.000000  1.000000 0.000000 0.000000  0.820313 0.500000
0  1.000000 2.000000 0.500000  1.000000 0.000000 0.000000  0.820313 0.375000
0  1.000000 -2.000000 0.000000  1.000000 0.000000 0.000000  0.851563 0.500000
de_train_handrails_01
0  1.000000 2.000000 0.500000  1.000000 0.000000 0.000000  0.820313 0.375000
0  1.000000 -2.000000 0.500000  1.000000 0.000000 0.000000  0.851563 0.375000
0  1.000000 -2.000000 0.000000  1.000000 0.000000 0.000000  0.851563 0.500000
de_train_handrails_01
0  -1.000000 -2.000000 0.500000  -1.000000 -0.000000 0.000000  0.820313 0.125000
0  -1.000000 2.000000 0.500000  -1.000000 -0.000000 0.000000  0.851563 0.125000
0  -1.000000 -2.000000 0.000000  -1.000000 -0.000000 0.000000  0.820313 0.000000
de_train_handrails_01
0  -1.000000 2.000000 0.500000  -1.000000 -0.000000 0.000000  0.851563 0.125000
0  -1.000000 2.000000 0.000000  -1.000000 -0.000000 0.000000  0.851563 0.000000
0  -1.000000 -2.000000 0.000000  -1.000000 -0.000000 0.000000  0.820313 0.000000
de_train_handrails_01
0  -0.500002 63.500000 20.500000  -1.000000 -0.000000 0.000000  0.250000 0.125000
0  -0.500002 63.500000 19.500000  -1.000000 -0.000000 0.000000  0.250000 0.250000
0  -0.500000 32.500000 20.500000  -1.000000 -0.000000 0.000000  0.000000 0.125000
de_train_handrails_01
0  -0.500002 63.500000 19.500000  -1.000000 -0.000000 0.000000  0.250000 0.250000
0  -0.500000 32.500000 19.500000  -1.000000 -0.000000 0.000000  0.000000 0.250000
0  -0.500000 32.500000 20.500000  -1.000000 -0.000000 0.000000  0.000000 0.125000
de_train_handrails_01
0  0.500000 32.500000 20.500000  0.000000 0.000000 1.000000  0.000000 0.000000
0  0.499998 63.500000 20.500000  0.000000 0.000000 1.000000  0.250000 0.000000
0  -0.500000 32.500000 20.500000  0.000000 0.000000 1.000000  0.000000 0.125000
de_train_handrails_01
0  0.499998 63.500000 20.500000  0.000000 0.000000 1.000000  0.250000 0.000000
0  -0.500002 63.500000 20.500000  0.000000 0.000000 1.000000  0.250000 0.125000
0  -0.500000 32.500000 20.500000  0.000000 0.000000 1.000000  0.000000 0.125000
de_train_handrails_01
0  -0.500002 63.500000 19.500000  0.000000 0.000000 -1.000000  0.250000 0.250000
0  0.499998 63.500000 19.500000  0.000000 0.000000 -1.000000  0.250000 0.375000
0  -0.500000 32.500000 19.500000  0.000000 0.000000 -1.000000  0.000000 0.250000
de_train_handrails_01
0  0.499998 63.500000 19.500000  0.000000 0.000000 -1.000000  0.250000 0.375000
0  0.500000 32.500000 19.500000  0.000000 0.000000 -1.000000  0.000000 0.375000
0  -0.500000 32.500000 19.500000  0.000000 0.000000 -1.000000  0.000000 0.250000
de_train_handrails_01
0  0.500000 32.500000 19.500000  1.000000 0.000000 0.000000  0.000000 0.375000
0  0.499998 63.500000 19.500000  1.000000 0.000000 0.000000  0.250000 0.375000
0  0.500000 32.500000 20.500000  1.000000 0.000000 0.000000  0.000000 0.500000
de_train_handrails_01
0  0.499998 63.500000 19.500000  1.000000 0.000000 0.000000  0.250000 0.375000
0  0.499998 63.500000 20.500000  1.000000 0.000000 0.000000  0.250000 0.500000
0  0.500000 32.500000 20.500000  1.000000 0.000000 0.000000  0.000000 0.500000
de_train_handrails_01
0  0.500001 -0.500000 20.500000  0.000000 0.000000 1.000000  0.250000 0.125000
0  -0.499999 -0.500000 20.500000  0.000000 0.000000 1.000000  0.250000 0.250000
0  0.500002 -31.500000 20.500000  0.000000 0.000000 1.000000  0.000000 0.125000
de_train_handrails_01
0  -0.499999 -0.500000 20.500000  0.000000 0.000000 1.000000  0.250000 0.250000
0  -0.499998 -31.500000 20.500000  0.000000 0.000000 1.000000  0.000000 0.250000
0  0.500002 -31.500000 20.500000  0.000000 0.000000 1.000000  0.000000 0.125000
de_train_handrails_01
0  0.500002 -31.500000 19.500000  1.000000 0.000000 0.000000  0.000000 0.000000
0  0.500001 -0.500000 19.500000  1.000000 0.000000 0.000000  0.250000 0.000000
0  0.500002 -31.500000 20.500000  1.000000 0.000000 0.000000  0.000000 0.125000
de_train_handrails_01
0  0.500001 -0.500000 19.500000  1.000000 0.000000 0.000000  0.250000 0.000000
0  0.500001 -0.500000 20.500000  1.000000 0.000000 0.000000  0.250000 0.125000
0  0.500002 -31.500000 20.500000  1.000000 0.000000 0.000000  0.000000 0.125000
de_train_handrails_01
0  -0.499999 -0.500000 20.500000  -1.000000 -0.000000 0.000000  0.250000 0.250000
0  -0.499999 -0.500000 19.500000  -1.000000 -0.000000 0.000000  0.250000 0.375000
0  -0.499998 -31.500000 20.500000  -1.000000 -0.000000 0.000000  0.000000 0.250000
de_train_handrails_01
0  -0.499999 -0.500000 19.500000  -1.000000 -0.000000 0.000000  0.250000 0.375000
0  -0.499998 -31.500000 19.500000  -1.000000 -0.000000 0.000000  0.000000 0.375000
0  -0.499998 -31.500000 20.500000  -1.000000 -0.000000 0.000000  0.000000 0.250000
de_train_handrails_01
0  -0.499998 -31.500000 19.500000  0.000000 0.000000 -1.000000  0.000000 0.375000
0  -0.499999 -0.500000 19.500000  0.000000 0.000000 -1.000000  0.250000 0.375000
0  0.500002 -31.500000 19.500000  0.000000 0.000000 -1.000000  0.000000 0.500000
de_train_handrails_01
0  -0.499999 -0.500000 19.500000  0.000000 0.000000 -1.000000  0.250000 0.375000
0  0.500001 -0.500000 19.500000  0.000000 0.000000 -1.000000  0.250000 0.500000
0  0.500002 -31.500000 19.500000  0.000000 0.000000 -1.000000  0.000000 0.500000
de_train_handrails_01
0  -0.500000 31.500000 19.500000  0.000000 0.000000 -1.000000  0.500000 0.125000
0  0.500000 31.500000 19.500000  0.000000 0.000000 -1.000000  0.500000 0.250000
0  -0.499999 0.500000 19.500000  0.000000 0.000000 -1.000000  0.250000 0.125000
de_train_handrails_01
0  0.500000 31.500000 19.500000  0.000000 0.000000 -1.000000  0.500000 0.250000
0  0.500001 0.500000 19.500000  0.000000 0.000000 -1.000000  0.250000 0.250000
0  -0.499999 0.500000 19.500000  0.000000 0.000000 -1.000000  0.250000 0.125000
de_train_handrails_01
0  -0.499999 0.500000 20.500000  -1.000000 -0.000000 0.000000  0.250000 0.000000
0  -0.500000 31.500000 20.500000  -1.000000 -0.000000 0.000000  0.500000 0.000000
0  -0.499999 0.500000 19.500000  -1.000000 -0.000000 0.000000  0.250000 0.125000
de_train_handrails_01
0  -0.500000 31.500000 20.500000  -1.000000 -0.000000 0.000000  0.500000 0.000000
0  -0.500000 31.500000 19.500000  -1.000000 -0.000000 0.000000  0.500000 0.125000
0  -0.499999 0.500000 19.500000  -1.000000 -0.000000 0.000000  0.250000 0.125000
de_train_handrails_01
0  0.500000 31.500000 19.500000  1.000000 0.000000 0.000000  0.500000 0.250000
0  0.500000 31.500000 20.500000  1.000000 0.000000 0.000000  0.500000 0.375000
0  0.500001 0.500000 19.500000  1.000000 0.000000 0.000000  0.250000 0.250000
de_train_handrails_01
0  0.500000 31.500000 20.500000  1.000000 0.000000 0.000000  0.500000 0.375000
0  0.500001 0.500000 20.500000  1.000000 0.000000 0.000000  0.250000 0.375000
0  0.500001 0.500000 19.500000  1.000000 0.000000 0.000000  0.250000 0.250000
de_train_handrails_01
0  0.500001 0.500000 20.500000  0.000000 0.000000 1.000000  0.250000 0.375000
0  0.500000 31.500000 20.500000  0.000000 0.000000 1.000000  0.500000 0.375000
0  -0.499999 0.500000 20.500000  0.000000 0.000000 1.000000  0.250000 0.500000
de_train_handrails_01
0  0.500000 31.500000 20.500000  0.000000 0.000000 1.000000  0.500000 0.375000
0  -0.500000 31.500000 20.500000  0.000000 0.000000 1.000000  0.500000 0.500000
0  -0.499999 0.500000 20.500000  0.000000 0.000000 1.000000  0.250000 0.500000
de_train_handrails_01
0  -0.499998 -32.500000 20.500000  -1.000000 -0.000000 0.000000  0.500000 0.125000
0  -0.499998 -32.500000 19.500000  -1.000000 -0.000000 0.000000  0.500000 0.250000
0  -0.499996 -63.500000 20.500000  -1.000000 -0.000000 0.000000  0.250000 0.125000
de_train_handrails_01
0  -0.499998 -32.500000 19.500000  -1.000000 -0.000000 0.000000  0.500000 0.250000
0  -0.499996 -63.500000 19.500000  -1.000000 -0.000000 0.000000  0.250000 0.250000
0  -0.499996 -63.500000 20.500000  -1.000000 -0.000000 0.000000  0.250000 0.125000
de_train_handrails_01
0  0.500004 -63.500000 20.500000  0.000000 0.000000 1.000000  0.250000 0.000000
0  0.500002 -32.500000 20.500000  0.000000 0.000000 1.000000  0.500000 0.000000
0  -0.499996 -63.500000 20.500000  0.000000 0.000000 1.000000  0.250000 0.125000
de_train_handrails_01
0  0.500002 -32.500000 20.500000  0.000000 0.000000 1.000000  0.500000 0.000000
0  -0.499998 -32.500000 20.500000  0.000000 0.000000 1.000000  0.500000 0.125000
0  -0.499996 -63.500000 20.500000  0.000000 0.000000 1.000000  0.250000 0.125000
de_train_handrails_01
0  0.500003 -63.500000 0.000000  1.000000 0.000000 -0.000000  0.500000 0.125000
0  0.500005 -63.500000 39.000000  1.000000 0.000000 -0.000000  0.812500 0.125000
0  0.500003 -64.500000 0.000000  1.000000 0.000000 -0.000000  0.500000 0.250000
de_train_handrails_01
0  0.500005 -63.500000 39.000000  1.000000 0.000000 -0.000000  0.812500 0.125000
0  0.500005 -64.500000 39.000000  1.000000 0.000000 -0.000000  0.812500 0.250000
0  0.500003 -64.500000 0.000000  1.000000 0.000000 -0.000000  0.500000 0.250000
de_train_handrails_01
0  -0.499995 -63.500000 39.000000  0.000000 1.000000 -0.000000  0.812500 0.000000
0  0.500005 -63.500000 39.000000  0.000000 1.000000 -0.000000  0.812500 0.125000
0  -0.499997 -63.500000 0.000000  0.000000 1.000000 -0.000000  0.500000 0.000000
de_train_handrails_01
0  0.500005 -63.500000 39.000000  0.000000 1.000000 -0.000000  0.812500 0.125000
0  0.500003 -63.500000 0.000000  0.000000 1.000000 0.000000  0.500000 0.125000
0  -0.499997 -63.500000 0.000000  0.000000 1.000000 -0.000000  0.500000 0.000000
de_train_handrails_01
0  0.500003 -64.500000 0.000000  0.000000 -1.000000 0.000000  0.500000 0.250000
0  0.500005 -64.500000 39.000000  0.000000 -1.000000 0.000000  0.812500 0.250000
0  -0.499997 -64.500000 0.000000  0.000000 -1.000000 0.000000  0.500000 0.375000
de_train_handrails_01
0  0.500005 -64.500000 39.000000  0.000000 -1.000000 0.000000  0.812500 0.250000
0  -0.499995 -64.500000 39.000000  0.000000 -1.000000 0.000000  0.812500 0.375000
0  -0.499997 -64.500000 0.000000  0.000000 -1.000000 0.000000  0.500000 0.375000
de_train_handrails_01
0  -0.499995 -64.500000 39.000000  -1.000000 0.000000 0.000000  0.812500 0.375000
0  -0.499995 -63.500000 39.000000  -1.000000 -0.000000 0.000000  0.812500 0.500000
0  -0.499997 -64.500000 0.000000  -1.000000 -0.000000 0.000000  0.500000 0.375000
de_train_handrails_01
0  -0.499995 -63.500000 39.000000  -1.000000 -0.000000 0.000000  0.812500 0.500000
0  -0.499997 -63.500000 0.000000  -1.000000 -0.000000 0.000000  0.500000 0.500000
0  -0.499997 -64.500000 0.000000  -1.000000 -0.000000 0.000000  0.500000 0.375000
de_train_handrails_01
0  0.500001 -32.500000 0.000000  0.000000 -1.000000 0.000000  0.500000 0.125000
0  0.500003 -32.500000 39.000000  0.000000 -1.000000 -0.000000  0.812500 0.125000
0  -0.499999 -32.500000 0.000000  0.000000 -1.000000 -0.000000  0.500000 0.250000
de_train_handrails_01
0  0.500003 -32.500000 39.000000  0.000000 -1.000000 -0.000000  0.812500 0.125000
0  -0.499997 -32.500000 39.000000  0.000000 -1.000000 -0.000000  0.812500 0.250000
0  -0.499999 -32.500000 0.000000  0.000000 -1.000000 -0.000000  0.500000 0.250000
de_train_handrails_01
0  0.500003 -31.500000 39.000000  1.000000 0.000000 -0.000000  0.812500 0.000000
0  0.500003 -32.500000 39.000000  1.000000 0.000000 -0.000000  0.812500 0.125000
0  0.500001 -31.500000 0.000000  1.000000 0.000000 -0.000000  0.500000 0.000000
de_train_handrails_01
0  0.500003 -32.500000 39.000000  1.000000 0.000000 -0.000000  0.812500 0.125000
0  0.500001 -32.500000 0.000000  1.000000 0.000000 -0.000000  0.500000 0.125000
0  0.500001 -31.500000 0.000000  1.000000 0.000000 -0.000000  0.500000 0.000000
de_train_handrails_01
0  -0.499999 -32.500000 0.000000  -1.000000 -0.000000 0.000000  0.500000 0.250000
0  -0.499997 -32.500000 39.000000  -1.000000 -0.000000 0.000000  0.812500 0.250000
0  -0.499999 -31.500000 0.000000  -1.000000 -0.000000 0.000000  0.500000 0.375000
de_train_handrails_01
0  -0.499997 -32.500000 39.000000  -1.000000 -0.000000 0.000000  0.812500 0.250000
0  -0.499997 -31.500000 39.000000  -1.000000 0.000000 0.000000  0.812500 0.375000
0  -0.499999 -31.500000 0.000000  -1.000000 -0.000000 0.000000  0.500000 0.375000
de_train_handrails_01
0  -0.499997 -31.500000 39.000000  0.000000 1.000000 0.000000  0.812500 0.375000
0  0.500003 -31.500000 39.000000  0.000000 1.000000 0.000000  0.812500 0.500000
0  -0.499999 -31.500000 0.000000  0.000000 1.000000 0.000000  0.500000 0.375000
de_train_handrails_01
0  0.500003 -31.500000 39.000000  0.000000 1.000000 0.000000  0.812500 0.500000
0  0.500001 -31.500000 0.000000  0.000000 1.000000 0.000000  0.500000 0.500000
0  -0.499999 -31.500000 0.000000  0.000000 1.000000 0.000000  0.500000 0.375000
de_train_handrails_01
0  -0.500001 32.500000 0.000000  0.000000 1.000000 0.000000  0.500000 0.125000
0  -0.499999 32.500000 39.000000  0.000000 1.000000 0.000000  0.812500 0.125000
0  0.499999 32.500000 0.000000  0.000000 1.000000 0.000000  0.500000 0.250000
de_train_handrails_01
0  -0.499999 32.500000 39.000000  0.000000 1.000000 0.000000  0.812500 0.125000
0  0.500001 32.500000 39.000000  0.000000 1.000000 0.000000  0.812500 0.250000
0  0.499999 32.500000 0.000000  0.000000 1.000000 0.000000  0.500000 0.250000
de_train_handrails_01
0  -0.499999 31.500000 39.000000  -1.000000 -0.000000 0.000000  0.812500 0.000000
0  -0.499999 32.500000 39.000000  -1.000000 -0.000000 0.000000  0.812500 0.125000
0  -0.500001 31.500000 0.000000  -1.000000 -0.000000 0.000000  0.500000 0.000000
de_train_handrails_01
0  -0.499999 32.500000 39.000000  -1.000000 -0.000000 0.000000  0.812500 0.125000
0  -0.500001 32.500000 0.000000  -1.000000 0.000000 0.000000  0.500000 0.125000
0  -0.500001 31.500000 0.000000  -1.000000 -0.000000 0.000000  0.500000 0.000000
de_train_handrails_01
0  0.499999 32.500000 0.000000  1.000000 0.000000 -0.000000  0.500000 0.250000
0  0.500001 32.500000 39.000000  1.000000 0.000000 -0.000000  0.812500 0.250000
0  0.499999 31.500000 0.000000  1.000000 0.000000 -0.000000  0.500000 0.375000
de_train_handrails_01
0  0.500001 32.500000 39.000000  1.000000 0.000000 -0.000000  0.812500 0.250000
0  0.500001 31.500000 39.000000  1.000000 0.000000 -0.000000  0.812500 0.375000
0  0.499999 31.500000 0.000000  1.000000 0.000000 -0.000000  0.500000 0.375000
de_train_handrails_01
0  0.500001 31.500000 39.000000  0.000000 -1.000000 0.000000  0.812500 0.375000
0  -0.499999 31.500000 39.000000  0.000000 -1.000000 0.000000  0.812500 0.500000
0  0.499999 31.500000 0.000000  0.000000 -1.000000 0.000000  0.500000 0.375000
de_train_handrails_01
0  -0.499999 31.500000 39.000000  0.000000 -1.000000 0.000000  0.812500 0.500000
0  -0.500001 31.500000 0.000000  0.000000 -1.000000 0.000000  0.500000 0.500000
0  0.499999 31.500000 0.000000  0.000000 -1.000000 0.000000  0.500000 0.375000
de_train_handrails_01
0  0.500002 -0.500000 39.000000  0.000000 -1.000000 0.000000  0.812500 0.000000
0  -0.499998 -0.500000 39.000000  0.000000 -1.000000 0.000000  0.812500 0.125000
0  0.500000 -0.500000 0.000000  0.000000 -1.000000 0.000000  0.500000 0.000000
de_train_handrails_01
0  -0.499998 -0.500000 39.000000  0.000000 -1.000000 0.000000  0.812500 0.125000
0  -0.500000 -0.500000 0.000000  0.000000 -1.000000 0.000000  0.500000 0.125000
0  0.500000 -0.500000 0.000000  0.000000 -1.000000 0.000000  0.500000 0.000000
de_train_handrails_01
0  -0.500000 0.500000 0.000000  -0.000000 1.000000 0.000000  0.500000 0.250000
0  -0.499998 0.500000 39.000000  -0.000000 1.000000 0.000000  0.812500 0.250000
0  0.500000 0.500000 0.000000  -0.000000 1.000000 0.000000  0.500000 0.375000
de_train_handrails_01
0  -0.499998 0.500000 39.000000  -0.000000 1.000000 0.000000  0.812500 0.250000
0  0.500002 0.500000 39.000000  -0.000000 1.000000 0.000000  0.812500 0.375000
0  0.500000 0.500000 0.000000  -0.000000 1.000000 0.000000  0.500000 0.375000
de_train_handrails_01
0  -0.500000 -0.500000 0.000000  -1.000000 0.000000 0.000000  0.500000 0.125000
0  -0.499998 -0.500000 39.000000  -1.000000 -0.000000 0.000000  0.812500 0.125000
0  -0.500000 0.500000 0.000000  -1.000000 -0.000000 0.000000  0.500000 0.250000
de_train_handrails_01
0  -0.499998 -0.500000 39.000000  -1.000000 -0.000000 0.000000  0.812500 0.125000
0  -0.499998 0.500000 39.000000  -1.000000 -0.000000 0.000000  0.812500 0.250000
0  -0.500000 0.500000 0.000000  -1.000000 -0.000000 0.000000  0.500000 0.250000
de_train_handrails_01
0  0.500002 0.500000 39.000000  1.000000 0.000000 -0.000000  0.812500 0.375000
0  0.500002 -0.500000 39.000000  1.000000 0.000000 -0.000000  0.812500 0.500000
0  0.500000 0.500000 0.000000  1.000000 0.000000 -0.000000  0.500000 0.375000
de_train_handrails_01
0  0.500002 -0.500000 39.000000  1.000000 0.000000 -0.000000  0.812500 0.500000
0  0.500000 -0.500000 0.000000  1.000000 0.000000 -0.000000  0.500000 0.500000
0  0.500000 0.500000 0.000000  1.000000 0.000000 -0.000000  0.500000 0.375000
de_train_handrails_01
0  0.999999 66.000000 39.000000  1.000000 0.000000 0.000000  1.000000 0.500000
0  0.999999 66.000000 40.000000  1.000000 0.000000 0.000000  1.000000 0.625000
0  1.000005 -66.000000 39.000000  1.000000 0.000000 0.000000  0.000000 0.500000
de_train_handrails_01
0  0.999999 66.000000 40.000000  1.000000 0.000000 0.000000  1.000000 0.625000
0  1.000005 -66.000000 40.000000  1.000000 0.000000 0.000000  0.000000 0.625000
0  1.000005 -66.000000 39.000000  1.000000 0.000000 0.000000  0.000000 0.500000
de_train_handrails_01
0  1.000005 -66.000000 40.000000  0.000000 0.000000 1.000000  0.000000 0.625000
0  0.999999 66.000000 40.000000  0.000000 0.000000 1.000000  1.000000 0.625000
0  -0.999995 -66.000000 40.000000  0.000000 0.000000 1.000000  0.000000 0.875000
de_train_handrails_01
0  0.999999 66.000000 40.000000  0.000000 0.000000 1.000000  1.000000 0.625000
0  -1.000001 66.000000 40.000000  0.000000 0.000000 1.000000  1.000000 0.875000
0  -0.999995 -66.000000 40.000000  0.000000 0.000000 1.000000  0.000000 0.875000
de_train_handrails_01
0  -0.499998 -32.500000 19.500000  0.000000 0.000000 -1.000000  0.500000 0.250000
0  0.500002 -32.500000 19.500000  0.000000 0.000000 -1.000000  0.500000 0.375000
0  -0.499996 -63.500000 19.500000  0.000000 0.000000 -1.000000  0.250000 0.250000
de_train_handrails_01
0  0.500002 -32.500000 19.500000  0.000000 0.000000 -1.000000  0.500000 0.375000
0  0.500004 -63.500000 19.500000  0.000000 0.000000 -1.000000  0.250000 0.375000
0  -0.499996 -63.500000 19.500000  0.000000 0.000000 -1.000000  0.250000 0.250000
de_train_handrails_01
0  -0.999995 -66.000000 40.000000  -1.000000 -0.000000 0.000000  0.000000 0.875000
0  -1.000001 66.000000 40.000000  -1.000000 -0.000000 0.000000  1.000000 0.875000
0  -0.999995 -66.000000 39.000000  -1.000000 -0.000000 0.000000  0.000000 1.000000
de_train_handrails_01
0  -1.000001 66.000000 40.000000  -1.000000 -0.000000 0.000000  1.000000 0.875000
0  -1.000001 66.000000 39.000000  -1.000000 -0.000000 0.000000  1.000000 1.000000
0  -0.999995 -66.000000 39.000000  -1.000000 -0.000000 0.000000  0.000000 1.000000
end
