version 1
nodes
0 "Implicit" -1
end
skeleton
time 0
0  0.000000 0.000000 0.000000  0.000000 0.000000 0.000000
end
triangles
no_material
0  0.500001 63.500000 19.500000  0.095606 0.095256 -0.990851  0.250000 0.375000
0  0.500002 -63.500000 20.500000  0.692364 -0.692400 -0.203012  0.000000 0.500000
0  0.500002 -63.500000 19.500000  0.692378 0.203040 -0.692378  0.000000 0.375000
no_material
0  -0.499999 63.500000 19.500000  -0.695914 -0.203014 -0.688832  0.250000 0.250000
0  -0.499998 -63.500000 20.500000  -0.692383 0.203007 0.692383  0.000000 0.125000
0  -0.499999 63.500000 20.500000  -0.692360 0.692399 -0.203028  0.250000 0.125000
no_material
0  0.500001 63.500000 20.500000  0.095562 0.990849 0.095324  0.250000 0.000000
0  -0.499998 -63.500000 20.500000  -0.692383 0.203007 0.692383  0.000000 0.125000
0  0.500002 -63.500000 20.500000  0.692364 -0.692400 -0.203012  0.000000 0.000000
no_material
0  0.500001 63.500000 19.500000  0.095606 0.095256 -0.990851  0.250000 0.375000
0  -0.499998 -63.500000 19.500000  -0.692405 -0.692360 0.203009  0.000000 0.250000
0  -0.499999 63.500000 19.500000  -0.695914 -0.203014 -0.688832  0.250000 0.250000
no_material
0  0.500002 -63.500000 20.500000  0.692364 -0.692400 -0.203012  0.000000 0.500000
0  -0.499998 -63.500000 19.500000  -0.692405 -0.692360 0.203009  0.000000 0.250000
0  0.500002 -63.500000 19.500000  0.692378 0.203040 -0.692378  0.000000 0.375000
no_material
0  -0.499999 63.500000 20.500000  -0.692360 0.692399 -0.203028  0.250000 0.125000
0  0.500001 63.500000 19.500000  0.095606 0.095256 -0.990851  0.250000 0.375000
0  -0.499999 63.500000 19.500000  -0.695914 -0.203014 -0.688832  0.250000 0.250000
no_material
0  0.500001 63.500000 19.500000  0.095606 0.095256 -0.990851  0.250000 0.375000
0  0.500001 63.500000 20.500000  0.095562 0.990849 0.095324  0.250000 0.500000
0  0.500002 -63.500000 20.500000  0.692364 -0.692400 -0.203012  0.000000 0.500000
no_material
0  -0.499999 63.500000 19.500000  -0.695914 -0.203014 -0.688832  0.250000 0.250000
0  -0.499998 -63.500000 19.500000  -0.692405 -0.692360 0.203009  0.000000 0.250000
0  -0.499998 -63.500000 20.500000  -0.692383 0.203007 0.692383  0.000000 0.125000
no_material
0  0.500001 63.500000 20.500000  0.095562 0.990849 0.095324  0.250000 0.000000
0  -0.499999 63.500000 20.500000  -0.692360 0.692399 -0.203028  0.250000 0.125000
0  -0.499998 -63.500000 20.500000  -0.692383 0.203007 0.692383  0.000000 0.125000
no_material
0  0.500001 63.500000 19.500000  0.095606 0.095256 -0.990851  0.250000 0.375000
0  0.500002 -63.500000 19.500000  0.692378 0.203040 -0.692378  0.000000 0.375000
0  -0.499998 -63.500000 19.500000  -0.692405 -0.692360 0.203009  0.000000 0.250000
no_material
0  0.500002 -63.500000 20.500000  0.692364 -0.692400 -0.203012  0.000000 0.500000
0  -0.499998 -63.500000 20.500000  -0.692383 0.203007 0.692383  0.000000 0.125000
0  -0.499998 -63.500000 19.500000  -0.692405 -0.692360 0.203009  0.000000 0.250000
no_material
0  -0.499999 63.500000 20.500000  -0.692360 0.692399 -0.203028  0.250000 0.125000
0  0.500001 63.500000 20.500000  0.095562 0.990849 0.095324  0.250000 0.500000
0  0.500001 63.500000 19.500000  0.095606 0.095256 -0.990851  0.250000 0.375000
no_material
0  0.999995 66.000000 39.000000  0.095594 0.095283 -0.990850  0.250000 0.375000
0  0.999996 -66.000000 40.000000  0.692395 -0.692372 -0.203002  0.000000 0.500000
0  0.999996 -66.000000 39.000000  0.692378 0.203040 -0.692378  0.000000 0.375000
no_material
0  -1.000004 66.000000 39.000000  -0.695782 -0.202995 -0.688971  0.250000 0.250000
0  -1.000003 -66.000000 40.000000  -0.692375 0.203040 0.692380  0.000000 0.125000
0  -1.000004 66.000000 40.000000  -0.692392 0.692370 -0.203021  0.250000 0.125000
no_material
0  0.999995 66.000000 40.000000  0.095579 0.990850 0.095293  0.250000 0.000000
0  -1.000003 -66.000000 40.000000  -0.692375 0.203040 0.692380  0.000000 0.125000
0  0.999996 -66.000000 40.000000  0.692395 -0.692372 -0.203002  0.000000 0.000000
no_material
0  0.999995 66.000000 39.000000  0.095594 0.095283 -0.990850  0.250000 0.375000
0  -1.000003 -66.000000 39.000000  -0.692319 -0.692436 0.203043  0.000000 0.250000
0  -1.000004 66.000000 39.000000  -0.695782 -0.202995 -0.688971  0.250000 0.250000
no_material
0  0.999996 -66.000000 40.000000  0.692395 -0.692372 -0.203002  0.000000 0.500000
0  -1.000003 -66.000000 39.000000  -0.692319 -0.692436 0.203043  0.000000 0.250000
0  0.999996 -66.000000 39.000000  0.692378 0.203040 -0.692378  0.000000 0.375000
no_material
0  -1.000004 66.000000 40.000000  -0.692392 0.692370 -0.203021  0.250000 0.125000
0  0.999995 66.000000 39.000000  0.095594 0.095283 -0.990850  0.250000 0.375000
0  -1.000004 66.000000 39.000000  -0.695782 -0.202995 -0.688971  0.250000 0.250000
no_material
0  0.999995 66.000000 39.000000  0.095594 0.095283 -0.990850  0.250000 0.375000
0  0.999995 66.000000 40.000000  0.095579 0.990850 0.095293  0.250000 0.500000
0  0.999996 -66.000000 40.000000  0.692395 -0.692372 -0.203002  0.000000 0.500000
no_material
0  -1.000004 66.000000 39.000000  -0.695782 -0.202995 -0.688971  0.250000 0.250000
0  -1.000003 -66.000000 39.000000  -0.692319 -0.692436 0.203043  0.000000 0.250000
0  -1.000003 -66.000000 40.000000  -0.692375 0.203040 0.692380  0.000000 0.125000
no_material
0  0.999995 66.000000 40.000000  0.095579 0.990850 0.095293  0.250000 0.000000
0  -1.000004 66.000000 40.000000  -0.692392 0.692370 -0.203021  0.250000 0.125000
0  -1.000003 -66.000000 40.000000  -0.692375 0.203040 0.692380  0.000000 0.125000
no_material
0  0.999995 66.000000 39.000000  0.095594 0.095283 -0.990850  0.250000 0.375000
0  0.999996 -66.000000 39.000000  0.692378 0.203040 -0.692378  0.000000 0.375000
0  -1.000003 -66.000000 39.000000  -0.692319 -0.692436 0.203043  0.000000 0.250000
no_material
0  0.999996 -66.000000 40.000000  0.692395 -0.692372 -0.203002  0.000000 0.500000
0  -1.000003 -66.000000 40.000000  -0.692375 0.203040 0.692380  0.000000 0.125000
0  -1.000003 -66.000000 39.000000  -0.692319 -0.692436 0.203043  0.000000 0.250000
no_material
0  -1.000004 66.000000 40.000000  -0.692392 0.692370 -0.203021  0.250000 0.125000
0  0.999995 66.000000 40.000000  0.095579 0.990850 0.095293  0.250000 0.500000
0  0.999995 66.000000 39.000000  0.095594 0.095283 -0.990850  0.250000 0.375000
no_material
0  0.999995 -62.000000 0.000000  0.095634 0.095270 -0.990847  0.250000 0.375000
0  0.999996 -66.000000 0.500000  0.692401 -0.692371 -0.202987  0.000000 0.500000
0  0.999996 -66.000000 0.000000  0.692378 0.203040 -0.692378  0.000000 0.375000
no_material
0  -1.000004 -62.000000 0.000000  -0.692431 -0.203048 -0.692323  0.250000 0.250000
0  -1.000003 -66.000000 0.500000  -0.692391 0.203035 0.692366  0.000000 0.125000
0  -1.000004 -62.000000 0.500000  -0.692394 0.692367 -0.203026  0.250000 0.125000
no_material
0  0.999995 -62.000000 0.500000  0.095545 0.990850 0.095328  0.250000 0.000000
0  -1.000003 -66.000000 0.500000  -0.692391 0.203035 0.692366  0.000000 0.125000
0  0.999996 -66.000000 0.500000  0.692401 -0.692371 -0.202987  0.000000 0.000000
no_material
0  0.999995 -62.000000 0.000000  0.095634 0.095270 -0.990847  0.250000 0.375000
0  -1.000003 -66.000000 0.000000  -0.692415 -0.692343 0.203032  0.000000 0.250000
0  -1.000004 -62.000000 0.000000  -0.692431 -0.203048 -0.692323  0.250000 0.250000
no_material
0  0.999996 -66.000000 0.500000  0.692401 -0.692371 -0.202987  0.000000 0.500000
0  -1.000003 -66.000000 0.000000  -0.692415 -0.692343 0.203032  0.000000 0.250000
0  0.999996 -66.000000 0.000000  0.692378 0.203040 -0.692378  0.000000 0.375000
no_material
0  -1.000004 -62.000000 0.500000  -0.692394 0.692367 -0.203026  0.250000 0.125000
0  0.999995 -62.000000 0.000000  0.095634 0.095270 -0.990847  0.250000 0.375000
0  -1.000004 -62.000000 0.000000  -0.692431 -0.203048 -0.692323  0.250000 0.250000
no_material
0  0.999995 -62.000000 0.000000  0.095634 0.095270 -0.990847  0.250000 0.375000
0  0.999995 -62.000000 0.500000  0.095545 0.990850 0.095328  0.250000 0.500000
0  0.999996 -66.000000 0.500000  0.692401 -0.692371 -0.202987  0.000000 0.500000
no_material
0  -1.000004 -62.000000 0.000000  -0.692431 -0.203048 -0.692323  0.250000 0.250000
0  -1.000003 -66.000000 0.000000  -0.692415 -0.692343 0.203032  0.000000 0.250000
0  -1.000003 -66.000000 0.500000  -0.692391 0.203035 0.692366  0.000000 0.125000
no_material
0  0.999995 -62.000000 0.500000  0.095545 0.990850 0.095328  0.250000 0.000000
0  -1.000004 -62.000000 0.500000  -0.692394 0.692367 -0.203026  0.250000 0.125000
0  -1.000003 -66.000000 0.500000  -0.692391 0.203035 0.692366  0.000000 0.125000
no_material
0  0.999995 -62.000000 0.000000  0.095634 0.095270 -0.990847  0.250000 0.375000
0  0.999996 -66.000000 0.000000  0.692378 0.203040 -0.692378  0.000000 0.375000
0  -1.000003 -66.000000 0.000000  -0.692415 -0.692343 0.203032  0.000000 0.250000
no_material
0  0.999996 -66.000000 0.500000  0.692401 -0.692371 -0.202987  0.000000 0.500000
0  -1.000003 -66.000000 0.500000  -0.692391 0.203035 0.692366  0.000000 0.125000
0  -1.000003 -66.000000 0.000000  -0.692415 -0.692343 0.203032  0.000000 0.250000
no_material
0  -1.000004 -62.000000 0.500000  -0.692394 0.692367 -0.203026  0.250000 0.125000
0  0.999995 -62.000000 0.500000  0.095545 0.990850 0.095328  0.250000 0.500000
0  0.999995 -62.000000 0.000000  0.095634 0.095270 -0.990847  0.250000 0.375000
no_material
0  0.500006 -63.500000 0.500000  0.095598 0.095267 -0.990851  0.250000 0.375000
0  0.500007 -64.500000 39.000000  0.692379 -0.692378 -0.203036  0.000000 0.500000
0  0.500007 -64.500000 0.500000  0.692378 0.203040 -0.692378  0.000000 0.375000
no_material
0  -0.499994 -63.500000 0.500000  -0.692333 -0.203015 -0.692430  0.250000 0.250000
0  -0.499993 -64.500000 39.000000  -0.692363 0.203039 0.692393  0.000000 0.125000
0  -0.499994 -63.500000 39.000000  -0.692378 0.692386 -0.203014  0.250000 0.125000
no_material
0  0.500006 -63.500000 39.000000  0.095613 0.990846 0.095306  0.250000 0.000000
0  -0.499993 -64.500000 39.000000  -0.692363 0.203039 0.692393  0.000000 0.125000
0  0.500007 -64.500000 39.000000  0.692379 -0.692378 -0.203036  0.000000 0.000000
no_material
0  0.500006 -63.500000 0.500000  0.095598 0.095267 -0.990851  0.250000 0.375000
0  -0.499993 -64.500000 0.500000  -0.692422 -0.692346 0.203000  0.000000 0.250000
0  -0.499994 -63.500000 0.500000  -0.692333 -0.203015 -0.692430  0.250000 0.250000
no_material
0  0.500007 -64.500000 39.000000  0.692379 -0.692378 -0.203036  0.000000 0.500000
0  -0.499993 -64.500000 0.500000  -0.692422 -0.692346 0.203000  0.000000 0.250000
0  0.500007 -64.500000 0.500000  0.692378 0.203040 -0.692378  0.000000 0.375000
no_material
0  -0.499994 -63.500000 39.000000  -0.692378 0.692386 -0.203014  0.250000 0.125000
0  0.500006 -63.500000 0.500000  0.095598 0.095267 -0.990851  0.250000 0.375000
0  -0.499994 -63.500000 0.500000  -0.692333 -0.203015 -0.692430  0.250000 0.250000
no_material
0  0.500006 -63.500000 0.500000  0.095598 0.095267 -0.990851  0.250000 0.375000
0  0.500006 -63.500000 39.000000  0.095613 0.990846 0.095306  0.250000 0.500000
0  0.500007 -64.500000 39.000000  0.692379 -0.692378 -0.203036  0.000000 0.500000
no_material
0  -0.499994 -63.500000 0.500000  -0.692333 -0.203015 -0.692430  0.250000 0.250000
0  -0.499993 -64.500000 0.500000  -0.692422 -0.692346 0.203000  0.000000 0.250000
0  -0.499993 -64.500000 39.000000  -0.692363 0.203039 0.692393  0.000000 0.125000
no_material
0  0.500006 -63.500000 39.000000  0.095613 0.990846 0.095306  0.250000 0.000000
0  -0.499994 -63.500000 39.000000  -0.692378 0.692386 -0.203014  0.250000 0.125000
0  -0.499993 -64.500000 39.000000  -0.692363 0.203039 0.692393  0.000000 0.125000
no_material
0  0.500006 -63.500000 0.500000  0.095598 0.095267 -0.990851  0.250000 0.375000
0  0.500007 -64.500000 0.500000  0.692378 0.203040 -0.692378  0.000000 0.375000
0  -0.499993 -64.500000 0.500000  -0.692422 -0.692346 0.203000  0.000000 0.250000
no_material
0  0.500007 -64.500000 39.000000  0.692379 -0.692378 -0.203036  0.000000 0.500000
0  -0.499993 -64.500000 39.000000  -0.692363 0.203039 0.692393  0.000000 0.125000
0  -0.499993 -64.500000 0.500000  -0.692422 -0.692346 0.203000  0.000000 0.250000
no_material
0  -0.499994 -63.500000 39.000000  -0.692378 0.692386 -0.203014  0.250000 0.125000
0  0.500006 -63.500000 39.000000  0.095613 0.990846 0.095306  0.250000 0.500000
0  0.500006 -63.500000 0.500000  0.095598 0.095267 -0.990851  0.250000 0.375000
no_material
0  0.999995 -30.000000 0.000000  0.095634 0.095270 -0.990847  0.250000 0.375000
0  0.999996 -34.000000 0.500000  0.692401 -0.692371 -0.202987  0.000000 0.500000
0  0.999996 -34.000000 0.000000  0.692378 0.203040 -0.692378  0.000000 0.375000
no_material
0  -1.000004 -30.000000 0.000000  -0.692431 -0.203048 -0.692323  0.250000 0.250000
0  -1.000003 -34.000000 0.500000  -0.692391 0.203035 0.692366  0.000000 0.125000
0  -1.000004 -30.000000 0.500000  -0.692394 0.692367 -0.203026  0.250000 0.125000
no_material
0  0.999995 -30.000000 0.500000  0.095545 0.990850 0.095328  0.250000 0.000000
0  -1.000003 -34.000000 0.500000  -0.692391 0.203035 0.692366  0.000000 0.125000
0  0.999996 -34.000000 0.500000  0.692401 -0.692371 -0.202987  0.000000 0.000000
no_material
0  0.999995 -30.000000 0.000000  0.095634 0.095270 -0.990847  0.250000 0.375000
0  -1.000003 -34.000000 0.000000  -0.692415 -0.692343 0.203032  0.000000 0.250000
0  -1.000004 -30.000000 0.000000  -0.692431 -0.203048 -0.692323  0.250000 0.250000
no_material
0  0.999996 -34.000000 0.500000  0.692401 -0.692371 -0.202987  0.000000 0.500000
0  -1.000003 -34.000000 0.000000  -0.692415 -0.692343 0.203032  0.000000 0.250000
0  0.999996 -34.000000 0.000000  0.692378 0.203040 -0.692378  0.000000 0.375000
no_material
0  -1.000004 -30.000000 0.500000  -0.692394 0.692367 -0.203026  0.250000 0.125000
0  0.999995 -30.000000 0.000000  0.095634 0.095270 -0.990847  0.250000 0.375000
0  -1.000004 -30.000000 0.000000  -0.692431 -0.203048 -0.692323  0.250000 0.250000
no_material
0  0.999995 -30.000000 0.000000  0.095634 0.095270 -0.990847  0.250000 0.375000
0  0.999995 -30.000000 0.500000  0.095545 0.990850 0.095328  0.250000 0.500000
0  0.999996 -34.000000 0.500000  0.692401 -0.692371 -0.202987  0.000000 0.500000
no_material
0  -1.000004 -30.000000 0.000000  -0.692431 -0.203048 -0.692323  0.250000 0.250000
0  -1.000003 -34.000000 0.000000  -0.692415 -0.692343 0.203032  0.000000 0.250000
0  -1.000003 -34.000000 0.500000  -0.692391 0.203035 0.692366  0.000000 0.125000
no_material
0  0.999995 -30.000000 0.500000  0.095545 0.990850 0.095328  0.250000 0.000000
0  -1.000004 -30.000000 0.500000  -0.692394 0.692367 -0.203026  0.250000 0.125000
0  -1.000003 -34.000000 0.500000  -0.692391 0.203035 0.692366  0.000000 0.125000
no_material
0  0.999995 -30.000000 0.000000  0.095634 0.095270 -0.990847  0.250000 0.375000
0  0.999996 -34.000000 0.000000  0.692378 0.203040 -0.692378  0.000000 0.375000
0  -1.000003 -34.000000 0.000000  -0.692415 -0.692343 0.203032  0.000000 0.250000
no_material
0  0.999996 -34.000000 0.500000  0.692401 -0.692371 -0.202987  0.000000 0.500000
0  -1.000003 -34.000000 0.500000  -0.692391 0.203035 0.692366  0.000000 0.125000
0  -1.000003 -34.000000 0.000000  -0.692415 -0.692343 0.203032  0.000000 0.250000
no_material
0  -1.000004 -30.000000 0.500000  -0.692394 0.692367 -0.203026  0.250000 0.125000
0  0.999995 -30.000000 0.500000  0.095545 0.990850 0.095328  0.250000 0.500000
0  0.999995 -30.000000 0.000000  0.095634 0.095270 -0.990847  0.250000 0.375000
no_material
0  0.500006 -31.500000 0.500000  0.095598 0.095267 -0.990851  0.250000 0.375000
0  0.500007 -32.500000 39.000000  0.692379 -0.692378 -0.203036  0.000000 0.500000
0  0.500007 -32.500000 0.500000  0.692378 0.203040 -0.692378  0.000000 0.375000
no_material
0  -0.499994 -31.500000 0.500000  -0.692333 -0.203015 -0.692430  0.250000 0.250000
0  -0.499993 -32.500000 39.000000  -0.692363 0.203039 0.692393  0.000000 0.125000
0  -0.499994 -31.500000 39.000000  -0.692378 0.692386 -0.203014  0.250000 0.125000
no_material
0  0.500006 -31.500000 39.000000  0.095613 0.990846 0.095306  0.250000 0.000000
0  -0.499993 -32.500000 39.000000  -0.692363 0.203039 0.692393  0.000000 0.125000
0  0.500007 -32.500000 39.000000  0.692379 -0.692378 -0.203036  0.000000 0.000000
no_material
0  0.500006 -31.500000 0.500000  0.095598 0.095267 -0.990851  0.250000 0.375000
0  -0.499993 -32.500000 0.500000  -0.692422 -0.692346 0.203000  0.000000 0.250000
0  -0.499994 -31.500000 0.500000  -0.692333 -0.203015 -0.692430  0.250000 0.250000
no_material
0  0.500007 -32.500000 39.000000  0.692379 -0.692378 -0.203036  0.000000 0.500000
0  -0.499993 -32.500000 0.500000  -0.692422 -0.692346 0.203000  0.000000 0.250000
0  0.500007 -32.500000 0.500000  0.692378 0.203040 -0.692378  0.000000 0.375000
no_material
0  -0.499994 -31.500000 39.000000  -0.692378 0.692386 -0.203014  0.250000 0.125000
0  0.500006 -31.500000 0.500000  0.095598 0.095267 -0.990851  0.250000 0.375000
0  -0.499994 -31.500000 0.500000  -0.692333 -0.203015 -0.692430  0.250000 0.250000
no_material
0  0.500006 -31.500000 0.500000  0.095598 0.095267 -0.990851  0.250000 0.375000
0  0.500006 -31.500000 39.000000  0.095613 0.990846 0.095306  0.250000 0.500000
0  0.500007 -32.500000 39.000000  0.692379 -0.692378 -0.203036  0.000000 0.500000
no_material
0  -0.499994 -31.500000 0.500000  -0.692333 -0.203015 -0.692430  0.250000 0.250000
0  -0.499993 -32.500000 0.500000  -0.692422 -0.692346 0.203000  0.000000 0.250000
0  -0.499993 -32.500000 39.000000  -0.692363 0.203039 0.692393  0.000000 0.125000
no_material
0  0.500006 -31.500000 39.000000  0.095613 0.990846 0.095306  0.250000 0.000000
0  -0.499994 -31.500000 39.000000  -0.692378 0.692386 -0.203014  0.250000 0.125000
0  -0.499993 -32.500000 39.000000  -0.692363 0.203039 0.692393  0.000000 0.125000
no_material
0  0.500006 -31.500000 0.500000  0.095598 0.095267 -0.990851  0.250000 0.375000
0  0.500007 -32.500000 0.500000  0.692378 0.203040 -0.692378  0.000000 0.375000
0  -0.499993 -32.500000 0.500000  -0.692422 -0.692346 0.203000  0.000000 0.250000
no_material
0  0.500007 -32.500000 39.000000  0.692379 -0.692378 -0.203036  0.000000 0.500000
0  -0.499993 -32.500000 39.000000  -0.692363 0.203039 0.692393  0.000000 0.125000
0  -0.499993 -32.500000 0.500000  -0.692422 -0.692346 0.203000  0.000000 0.250000
no_material
0  -0.499994 -31.500000 39.000000  -0.692378 0.692386 -0.203014  0.250000 0.125000
0  0.500006 -31.500000 39.000000  0.095613 0.990846 0.095306  0.250000 0.500000
0  0.500006 -31.500000 0.500000  0.095598 0.095267 -0.990851  0.250000 0.375000
no_material
0  0.999995 2.000000 0.000000  0.095634 0.095270 -0.990847  0.250000 0.375000
0  0.999996 -2.000000 0.500000  0.692401 -0.692371 -0.202987  0.000000 0.500000
0  0.999996 -2.000000 0.000000  0.692378 0.203040 -0.692378  0.000000 0.375000
no_material
0  -1.000004 2.000000 0.000000  -0.692431 -0.203048 -0.692323  0.250000 0.250000
0  -1.000003 -2.000000 0.500000  -0.692391 0.203035 0.692366  0.000000 0.125000
0  -1.000004 2.000000 0.500000  -0.692394 0.692367 -0.203026  0.250000 0.125000
no_material
0  0.999995 2.000000 0.500000  0.095545 0.990850 0.095328  0.250000 0.000000
0  -1.000003 -2.000000 0.500000  -0.692391 0.203035 0.692366  0.000000 0.125000
0  0.999996 -2.000000 0.500000  0.692401 -0.692371 -0.202987  0.000000 0.000000
no_material
0  0.999995 2.000000 0.000000  0.095634 0.095270 -0.990847  0.250000 0.375000
0  -1.000003 -2.000000 0.000000  -0.692415 -0.692343 0.203032  0.000000 0.250000
0  -1.000004 2.000000 0.000000  -0.692431 -0.203048 -0.692323  0.250000 0.250000
no_material
0  0.999996 -2.000000 0.500000  0.692401 -0.692371 -0.202987  0.000000 0.500000
0  -1.000003 -2.000000 0.000000  -0.692415 -0.692343 0.203032  0.000000 0.250000
0  0.999996 -2.000000 0.000000  0.692378 0.203040 -0.692378  0.000000 0.375000
no_material
0  -1.000004 2.000000 0.500000  -0.692394 0.692367 -0.203026  0.250000 0.125000
0  0.999995 2.000000 0.000000  0.095634 0.095270 -0.990847  0.250000 0.375000
0  -1.000004 2.000000 0.000000  -0.692431 -0.203048 -0.692323  0.250000 0.250000
no_material
0  0.999995 2.000000 0.000000  0.095634 0.095270 -0.990847  0.250000 0.375000
0  0.999995 2.000000 0.500000  0.095545 0.990850 0.095328  0.250000 0.500000
0  0.999996 -2.000000 0.500000  0.692401 -0.692371 -0.202987  0.000000 0.500000
no_material
0  -1.000004 2.000000 0.000000  -0.692431 -0.203048 -0.692323  0.250000 0.250000
0  -1.000003 -2.000000 0.000000  -0.692415 -0.692343 0.203032  0.000000 0.250000
0  -1.000003 -2.000000 0.500000  -0.692391 0.203035 0.692366  0.000000 0.125000
no_material
0  0.999995 2.000000 0.500000  0.095545 0.990850 0.095328  0.250000 0.000000
0  -1.000004 2.000000 0.500000  -0.692394 0.692367 -0.203026  0.250000 0.125000
0  -1.000003 -2.000000 0.500000  -0.692391 0.203035 0.692366  0.000000 0.125000
no_material
0  0.999995 2.000000 0.000000  0.095634 0.095270 -0.990847  0.250000 0.375000
0  0.999996 -2.000000 0.000000  0.692378 0.203040 -0.692378  0.000000 0.375000
0  -1.000003 -2.000000 0.000000  -0.692415 -0.692343 0.203032  0.000000 0.250000
no_material
0  0.999996 -2.000000 0.500000  0.692401 -0.692371 -0.202987  0.000000 0.500000
0  -1.000003 -2.000000 0.500000  -0.692391 0.203035 0.692366  0.000000 0.125000
0  -1.000003 -2.000000 0.000000  -0.692415 -0.692343 0.203032  0.000000 0.250000
no_material
0  -1.000004 2.000000 0.500000  -0.692394 0.692367 -0.203026  0.250000 0.125000
0  0.999995 2.000000 0.500000  0.095545 0.990850 0.095328  0.250000 0.500000
0  0.999995 2.000000 0.000000  0.095634 0.095270 -0.990847  0.250000 0.375000
no_material
0  0.500006 0.500000 0.500000  0.095598 0.095267 -0.990851  0.250000 0.375000
0  0.500007 -0.500000 39.000000  0.692379 -0.692378 -0.203036  0.000000 0.500000
0  0.500007 -0.500000 0.500000  0.692378 0.203040 -0.692378  0.000000 0.375000
no_material
0  -0.499994 0.500000 0.500000  -0.692333 -0.203015 -0.692430  0.250000 0.250000
0  -0.499993 -0.500000 39.000000  -0.692363 0.203039 0.692393  0.000000 0.125000
0  -0.499994 0.500000 39.000000  -0.692378 0.692386 -0.203014  0.250000 0.125000
no_material
0  0.500006 0.500000 39.000000  0.095613 0.990846 0.095306  0.250000 0.000000
0  -0.499993 -0.500000 39.000000  -0.692363 0.203039 0.692393  0.000000 0.125000
0  0.500007 -0.500000 39.000000  0.692379 -0.692378 -0.203036  0.000000 0.000000
no_material
0  0.500006 0.500000 0.500000  0.095598 0.095267 -0.990851  0.250000 0.375000
0  -0.499993 -0.500000 0.500000  -0.692422 -0.692346 0.203000  0.000000 0.250000
0  -0.499994 0.500000 0.500000  -0.692333 -0.203015 -0.692430  0.250000 0.250000
no_material
0  0.500007 -0.500000 39.000000  0.692379 -0.692378 -0.203036  0.000000 0.500000
0  -0.499993 -0.500000 0.500000  -0.692422 -0.692346 0.203000  0.000000 0.250000
0  0.500007 -0.500000 0.500000  0.692378 0.203040 -0.692378  0.000000 0.375000
no_material
0  -0.499994 0.500000 39.000000  -0.692378 0.692386 -0.203014  0.250000 0.125000
0  0.500006 0.500000 0.500000  0.095598 0.095267 -0.990851  0.250000 0.375000
0  -0.499994 0.500000 0.500000  -0.692333 -0.203015 -0.692430  0.250000 0.250000
no_material
0  0.500006 0.500000 0.500000  0.095598 0.095267 -0.990851  0.250000 0.375000
0  0.500006 0.500000 39.000000  0.095613 0.990846 0.095306  0.250000 0.500000
0  0.500007 -0.500000 39.000000  0.692379 -0.692378 -0.203036  0.000000 0.500000
no_material
0  -0.499994 0.500000 0.500000  -0.692333 -0.203015 -0.692430  0.250000 0.250000
0  -0.499993 -0.500000 0.500000  -0.692422 -0.692346 0.203000  0.000000 0.250000
0  -0.499993 -0.500000 39.000000  -0.692363 0.203039 0.692393  0.000000 0.125000
no_material
0  0.500006 0.500000 39.000000  0.095613 0.990846 0.095306  0.250000 0.000000
0  -0.499994 0.500000 39.000000  -0.692378 0.692386 -0.203014  0.250000 0.125000
0  -0.499993 -0.500000 39.000000  -0.692363 0.203039 0.692393  0.000000 0.125000
no_material
0  0.500006 0.500000 0.500000  0.095598 0.095267 -0.990851  0.250000 0.375000
0  0.500007 -0.500000 0.500000  0.692378 0.203040 -0.692378  0.000000 0.375000
0  -0.499993 -0.500000 0.500000  -0.692422 -0.692346 0.203000  0.000000 0.250000
no_material
0  0.500007 -0.500000 39.000000  0.692379 -0.692378 -0.203036  0.000000 0.500000
0  -0.499993 -0.500000 39.000000  -0.692363 0.203039 0.692393  0.000000 0.125000
0  -0.499993 -0.500000 0.500000  -0.692422 -0.692346 0.203000  0.000000 0.250000
no_material
0  -0.499994 0.500000 39.000000  -0.692378 0.692386 -0.203014  0.250000 0.125000
0  0.500006 0.500000 39.000000  0.095613 0.990846 0.095306  0.250000 0.500000
0  0.500006 0.500000 0.500000  0.095598 0.095267 -0.990851  0.250000 0.375000
no_material
0  0.999995 34.000000 0.000000  0.095634 0.095270 -0.990847  0.250000 0.375000
0  0.999996 30.000000 0.500000  0.692401 -0.692371 -0.202987  0.000000 0.500000
0  0.999996 30.000000 0.000000  0.692378 0.203040 -0.692378  0.000000 0.375000
no_material
0  -1.000004 34.000000 0.000000  -0.692431 -0.203048 -0.692323  0.250000 0.250000
0  -1.000003 30.000000 0.500000  -0.692391 0.203035 0.692366  0.000000 0.125000
0  -1.000004 34.000000 0.500000  -0.692394 0.692367 -0.203026  0.250000 0.125000
no_material
0  0.999995 34.000000 0.500000  0.095545 0.990850 0.095328  0.250000 0.000000
0  -1.000003 30.000000 0.500000  -0.692391 0.203035 0.692366  0.000000 0.125000
0  0.999996 30.000000 0.500000  0.692401 -0.692371 -0.202987  0.000000 0.000000
no_material
0  0.999995 34.000000 0.000000  0.095634 0.095270 -0.990847  0.250000 0.375000
0  -1.000003 30.000000 0.000000  -0.692415 -0.692343 0.203032  0.000000 0.250000
0  -1.000004 34.000000 0.000000  -0.692431 -0.203048 -0.692323  0.250000 0.250000
no_material
0  0.999996 30.000000 0.500000  0.692401 -0.692371 -0.202987  0.000000 0.500000
0  -1.000003 30.000000 0.000000  -0.692415 -0.692343 0.203032  0.000000 0.250000
0  0.999996 30.000000 0.000000  0.692378 0.203040 -0.692378  0.000000 0.375000
no_material
0  -1.000004 34.000000 0.500000  -0.692394 0.692367 -0.203026  0.250000 0.125000
0  0.999995 34.000000 0.000000  0.095634 0.095270 -0.990847  0.250000 0.375000
0  -1.000004 34.000000 0.000000  -0.692431 -0.203048 -0.692323  0.250000 0.250000
no_material
0  0.999995 34.000000 0.000000  0.095634 0.095270 -0.990847  0.250000 0.375000
0  0.999995 34.000000 0.500000  0.095545 0.990850 0.095328  0.250000 0.500000
0  0.999996 30.000000 0.500000  0.692401 -0.692371 -0.202987  0.000000 0.500000
no_material
0  -1.000004 34.000000 0.000000  -0.692431 -0.203048 -0.692323  0.250000 0.250000
0  -1.000003 30.000000 0.000000  -0.692415 -0.692343 0.203032  0.000000 0.250000
0  -1.000003 30.000000 0.500000  -0.692391 0.203035 0.692366  0.000000 0.125000
no_material
0  0.999995 34.000000 0.500000  0.095545 0.990850 0.095328  0.250000 0.000000
0  -1.000004 34.000000 0.500000  -0.692394 0.692367 -0.203026  0.250000 0.125000
0  -1.000003 30.000000 0.500000  -0.692391 0.203035 0.692366  0.000000 0.125000
no_material
0  0.999995 34.000000 0.000000  0.095634 0.095270 -0.990847  0.250000 0.375000
0  0.999996 30.000000 0.000000  0.692378 0.203040 -0.692378  0.000000 0.375000
0  -1.000003 30.000000 0.000000  -0.692415 -0.692343 0.203032  0.000000 0.250000
no_material
0  0.999996 30.000000 0.500000  0.692401 -0.692371 -0.202987  0.000000 0.500000
0  -1.000003 30.000000 0.500000  -0.692391 0.203035 0.692366  0.000000 0.125000
0  -1.000003 30.000000 0.000000  -0.692415 -0.692343 0.203032  0.000000 0.250000
no_material
0  -1.000004 34.000000 0.500000  -0.692394 0.692367 -0.203026  0.250000 0.125000
0  0.999995 34.000000 0.500000  0.095545 0.990850 0.095328  0.250000 0.500000
0  0.999995 34.000000 0.000000  0.095634 0.095270 -0.990847  0.250000 0.375000
no_material
0  0.500006 32.500000 0.500000  0.095598 0.095267 -0.990851  0.250000 0.375000
0  0.500007 31.500000 39.000000  0.692379 -0.692378 -0.203036  0.000000 0.500000
0  0.500007 31.500000 0.500000  0.692378 0.203040 -0.692378  0.000000 0.375000
no_material
0  -0.499994 32.500000 0.500000  -0.692333 -0.203015 -0.692430  0.250000 0.250000
0  -0.499993 31.500000 39.000000  -0.692363 0.203039 0.692393  0.000000 0.125000
0  -0.499994 32.500000 39.000000  -0.692378 0.692386 -0.203014  0.250000 0.125000
no_material
0  0.500006 32.500000 39.000000  0.095613 0.990846 0.095306  0.250000 0.000000
0  -0.499993 31.500000 39.000000  -0.692363 0.203039 0.692393  0.000000 0.125000
0  0.500007 31.500000 39.000000  0.692379 -0.692378 -0.203036  0.000000 0.000000
no_material
0  0.500006 32.500000 0.500000  0.095598 0.095267 -0.990851  0.250000 0.375000
0  -0.499993 31.500000 0.500000  -0.692422 -0.692346 0.203000  0.000000 0.250000
0  -0.499994 32.500000 0.500000  -0.692333 -0.203015 -0.692430  0.250000 0.250000
no_material
0  0.500007 31.500000 39.000000  0.692379 -0.692378 -0.203036  0.000000 0.500000
0  -0.499993 31.500000 0.500000  -0.692422 -0.692346 0.203000  0.000000 0.250000
0  0.500007 31.500000 0.500000  0.692378 0.203040 -0.692378  0.000000 0.375000
no_material
0  -0.499994 32.500000 39.000000  -0.692378 0.692386 -0.203014  0.250000 0.125000
0  0.500006 32.500000 0.500000  0.095598 0.095267 -0.990851  0.250000 0.375000
0  -0.499994 32.500000 0.500000  -0.692333 -0.203015 -0.692430  0.250000 0.250000
no_material
0  0.500006 32.500000 0.500000  0.095598 0.095267 -0.990851  0.250000 0.375000
0  0.500006 32.500000 39.000000  0.095613 0.990846 0.095306  0.250000 0.500000
0  0.500007 31.500000 39.000000  0.692379 -0.692378 -0.203036  0.000000 0.500000
no_material
0  -0.499994 32.500000 0.500000  -0.692333 -0.203015 -0.692430  0.250000 0.250000
0  -0.499993 31.500000 0.500000  -0.692422 -0.692346 0.203000  0.000000 0.250000
0  -0.499993 31.500000 39.000000  -0.692363 0.203039 0.692393  0.000000 0.125000
no_material
0  0.500006 32.500000 39.000000  0.095613 0.990846 0.095306  0.250000 0.000000
0  -0.499994 32.500000 39.000000  -0.692378 0.692386 -0.203014  0.250000 0.125000
0  -0.499993 31.500000 39.000000  -0.692363 0.203039 0.692393  0.000000 0.125000
no_material
0  0.500006 32.500000 0.500000  0.095598 0.095267 -0.990851  0.250000 0.375000
0  0.500007 31.500000 0.500000  0.692378 0.203040 -0.692378  0.000000 0.375000
0  -0.499993 31.500000 0.500000  -0.692422 -0.692346 0.203000  0.000000 0.250000
no_material
0  0.500007 31.500000 39.000000  0.692379 -0.692378 -0.203036  0.000000 0.500000
0  -0.499993 31.500000 39.000000  -0.692363 0.203039 0.692393  0.000000 0.125000
0  -0.499993 31.500000 0.500000  -0.692422 -0.692346 0.203000  0.000000 0.250000
no_material
0  -0.499994 32.500000 39.000000  -0.692378 0.692386 -0.203014  0.250000 0.125000
0  0.500006 32.500000 39.000000  0.095613 0.990846 0.095306  0.250000 0.500000
0  0.500006 32.500000 0.500000  0.095598 0.095267 -0.990851  0.250000 0.375000
no_material
0  0.999995 66.000000 0.000000  0.095634 0.095270 -0.990847  0.250000 0.375000
0  0.999996 62.000000 0.500000  0.692401 -0.692371 -0.202987  0.000000 0.500000
0  0.999996 62.000000 0.000000  0.692378 0.203040 -0.692378  0.000000 0.375000
no_material
0  -1.000004 66.000000 0.000000  -0.692431 -0.203048 -0.692323  0.250000 0.250000
0  -1.000003 62.000000 0.500000  -0.692391 0.203035 0.692366  0.000000 0.125000
0  -1.000004 66.000000 0.500000  -0.692394 0.692367 -0.203026  0.250000 0.125000
no_material
0  0.999995 66.000000 0.500000  0.095545 0.990850 0.095328  0.250000 0.000000
0  -1.000003 62.000000 0.500000  -0.692391 0.203035 0.692366  0.000000 0.125000
0  0.999996 62.000000 0.500000  0.692401 -0.692371 -0.202987  0.000000 0.000000
no_material
0  0.999995 66.000000 0.000000  0.095634 0.095270 -0.990847  0.250000 0.375000
0  -1.000003 62.000000 0.000000  -0.692415 -0.692343 0.203032  0.000000 0.250000
0  -1.000004 66.000000 0.000000  -0.692431 -0.203048 -0.692323  0.250000 0.250000
no_material
0  0.999996 62.000000 0.500000  0.692401 -0.692371 -0.202987  0.000000 0.500000
0  -1.000003 62.000000 0.000000  -0.692415 -0.692343 0.203032  0.000000 0.250000
0  0.999996 62.000000 0.000000  0.692378 0.203040 -0.692378  0.000000 0.375000
no_material
0  -1.000004 66.000000 0.500000  -0.692394 0.692367 -0.203026  0.250000 0.125000
0  0.999995 66.000000 0.000000  0.095634 0.095270 -0.990847  0.250000 0.375000
0  -1.000004 66.000000 0.000000  -0.692431 -0.203048 -0.692323  0.250000 0.250000
no_material
0  0.999995 66.000000 0.000000  0.095634 0.095270 -0.990847  0.250000 0.375000
0  0.999995 66.000000 0.500000  0.095545 0.990850 0.095328  0.250000 0.500000
0  0.999996 62.000000 0.500000  0.692401 -0.692371 -0.202987  0.000000 0.500000
no_material
0  -1.000004 66.000000 0.000000  -0.692431 -0.203048 -0.692323  0.250000 0.250000
0  -1.000003 62.000000 0.000000  -0.692415 -0.692343 0.203032  0.000000 0.250000
0  -1.000003 62.000000 0.500000  -0.692391 0.203035 0.692366  0.000000 0.125000
no_material
0  0.999995 66.000000 0.500000  0.095545 0.990850 0.095328  0.250000 0.000000
0  -1.000004 66.000000 0.500000  -0.692394 0.692367 -0.203026  0.250000 0.125000
0  -1.000003 62.000000 0.500000  -0.692391 0.203035 0.692366  0.000000 0.125000
no_material
0  0.999995 66.000000 0.000000  0.095634 0.095270 -0.990847  0.250000 0.375000
0  0.999996 62.000000 0.000000  0.692378 0.203040 -0.692378  0.000000 0.375000
0  -1.000003 62.000000 0.000000  -0.692415 -0.692343 0.203032  0.000000 0.250000
no_material
0  0.999996 62.000000 0.500000  0.692401 -0.692371 -0.202987  0.000000 0.500000
0  -1.000003 62.000000 0.500000  -0.692391 0.203035 0.692366  0.000000 0.125000
0  -1.000003 62.000000 0.000000  -0.692415 -0.692343 0.203032  0.000000 0.250000
no_material
0  -1.000004 66.000000 0.500000  -0.692394 0.692367 -0.203026  0.250000 0.125000
0  0.999995 66.000000 0.500000  0.095545 0.990850 0.095328  0.250000 0.500000
0  0.999995 66.000000 0.000000  0.095634 0.095270 -0.990847  0.250000 0.375000
no_material
0  0.500006 64.500000 0.500000  0.095598 0.095267 -0.990851  0.250000 0.375000
0  0.500007 63.500000 39.000000  0.692379 -0.692378 -0.203036  0.000000 0.500000
0  0.500007 63.500000 0.500000  0.692378 0.203040 -0.692378  0.000000 0.375000
no_material
0  -0.499994 64.500000 0.500000  -0.692333 -0.203015 -0.692430  0.250000 0.250000
0  -0.499993 63.500000 39.000000  -0.692363 0.203039 0.692393  0.000000 0.125000
0  -0.499994 64.500000 39.000000  -0.692378 0.692386 -0.203014  0.250000 0.125000
no_material
0  0.500006 64.500000 39.000000  0.095613 0.990846 0.095306  0.250000 0.000000
0  -0.499993 63.500000 39.000000  -0.692363 0.203039 0.692393  0.000000 0.125000
0  0.500007 63.500000 39.000000  0.692379 -0.692378 -0.203036  0.000000 0.000000
no_material
0  0.500006 64.500000 0.500000  0.095598 0.095267 -0.990851  0.250000 0.375000
0  -0.499993 63.500000 0.500000  -0.692422 -0.692346 0.203000  0.000000 0.250000
0  -0.499994 64.500000 0.500000  -0.692333 -0.203015 -0.692430  0.250000 0.250000
no_material
0  0.500007 63.500000 39.000000  0.692379 -0.692378 -0.203036  0.000000 0.500000
0  -0.499993 63.500000 0.500000  -0.692422 -0.692346 0.203000  0.000000 0.250000
0  0.500007 63.500000 0.500000  0.692378 0.203040 -0.692378  0.000000 0.375000
no_material
0  -0.499994 64.500000 39.000000  -0.692378 0.692386 -0.203014  0.250000 0.125000
0  0.500006 64.500000 0.500000  0.095598 0.095267 -0.990851  0.250000 0.375000
0  -0.499994 64.500000 0.500000  -0.692333 -0.203015 -0.692430  0.250000 0.250000
no_material
0  0.500006 64.500000 0.500000  0.095598 0.095267 -0.990851  0.250000 0.375000
0  0.500006 64.500000 39.000000  0.095613 0.990846 0.095306  0.250000 0.500000
0  0.500007 63.500000 39.000000  0.692379 -0.692378 -0.203036  0.000000 0.500000
no_material
0  -0.499994 64.500000 0.500000  -0.692333 -0.203015 -0.692430  0.250000 0.250000
0  -0.499993 63.500000 0.500000  -0.692422 -0.692346 0.203000  0.000000 0.250000
0  -0.499993 63.500000 39.000000  -0.692363 0.203039 0.692393  0.000000 0.125000
no_material
0  0.500006 64.500000 39.000000  0.095613 0.990846 0.095306  0.250000 0.000000
0  -0.499994 64.500000 39.000000  -0.692378 0.692386 -0.203014  0.250000 0.125000
0  -0.499993 63.500000 39.000000  -0.692363 0.203039 0.692393  0.000000 0.125000
no_material
0  0.500006 64.500000 0.500000  0.095598 0.095267 -0.990851  0.250000 0.375000
0  0.500007 63.500000 0.500000  0.692378 0.203040 -0.692378  0.000000 0.375000
0  -0.499993 63.500000 0.500000  -0.692422 -0.692346 0.203000  0.000000 0.250000
no_material
0  0.500007 63.500000 39.000000  0.692379 -0.692378 -0.203036  0.000000 0.500000
0  -0.499993 63.500000 39.000000  -0.692363 0.203039 0.692393  0.000000 0.125000
0  -0.499993 63.500000 0.500000  -0.692422 -0.692346 0.203000  0.000000 0.250000
no_material
0  -0.499994 64.500000 39.000000  -0.692378 0.692386 -0.203014  0.250000 0.125000
0  0.500006 64.500000 39.000000  0.095613 0.990846 0.095306  0.250000 0.500000
0  0.500006 64.500000 0.500000  0.095598 0.095267 -0.990851  0.250000 0.375000
end
