version 1
nodes
0 "Implicit" -1
end
skeleton
time 0
0  0.000000 0.000000 0.000000  0.000000 0.000000 0.000000
end
triangles
no_material
0  -4.751015 -3.578719 11.256281  0.577354 -0.577354 -0.577344  0.000000 0.000000
0  4.751014 -5.336800 11.256281  -0.577363 0.577335 -0.577353  0.000000 0.000000
0  -4.751015 -5.336800 11.256281  0.577356 0.577347 -0.577347  0.000000 0.000000
no_material
0  4.751014 -3.578719 11.256281  -0.577366 -0.577329 -0.577356  0.000000 0.000000
0  -4.751014 -3.578719 -11.192343  0.577369 -0.577332 0.577350  0.000000 0.000000
0  4.751015 -3.578719 -11.192343  -0.577350 -0.577350 0.577350  0.000000 0.000000
no_material
0  -4.751014 -5.336800 -11.192343  0.577359 0.577332 0.577359  0.000000 0.000000
0  4.751014 -5.336800 11.256281  -0.577363 0.577335 -0.577353  0.000000 0.000000
0  4.751015 -5.336800 -11.192343  -0.577360 0.577351 0.577341  0.000000 0.000000
no_material
0  4.751015 -5.336800 -11.192343  -0.577360 0.577351 0.577341  0.000000 0.000000
0  4.751014 -3.578719 11.256281  -0.577366 -0.577329 -0.577356  0.000000 0.000000
0  4.751015 -3.578719 -11.192343  -0.577350 -0.577350 0.577350  0.000000 0.000000
no_material
0  -4.751014 -3.578719 -11.192343  0.577369 -0.577332 0.577350  0.000000 0.000000
0  4.751015 -5.336800 -11.192343  -0.577360 0.577351 0.577341  0.000000 0.000000
0  4.751015 -3.578719 -11.192343  -0.577350 -0.577350 0.577350  0.000000 0.000000
no_material
0  -4.751014 -3.578719 -11.192343  0.577369 -0.577332 0.577350  0.000000 0.000000
0  -4.751015 -5.336800 11.256281  0.577356 0.577347 -0.577347  0.000000 0.000000
0  -4.751014 -5.336800 -11.192343  0.577359 0.577332 0.577359  0.000000 0.000000
no_material
0  -4.751015 -3.578719 11.256281  0.577354 -0.577354 -0.577344  0.000000 0.000000
0  4.751014 -3.578719 11.256281  -0.577366 -0.577329 -0.577356  0.000000 0.000000
0  4.751014 -5.336800 11.256281  -0.577363 0.577335 -0.577353  0.000000 0.000000
no_material
0  4.751014 -3.578719 11.256281  -0.577366 -0.577329 -0.577356  0.000000 0.000000
0  -4.751015 -3.578719 11.256281  0.577354 -0.577354 -0.577344  0.000000 0.000000
0  -4.751014 -3.578719 -11.192343  0.577369 -0.577332 0.577350  0.000000 0.000000
no_material
0  -4.751014 -5.336800 -11.192343  0.577359 0.577332 0.577359  0.000000 0.000000
0  -4.751015 -5.336800 11.256281  0.577356 0.577347 -0.577347  0.000000 0.000000
0  4.751014 -5.336800 11.256281  -0.577363 0.577335 -0.577353  0.000000 0.000000
no_material
0  4.751015 -5.336800 -11.192343  -0.577360 0.577351 0.577341  0.000000 0.000000
0  4.751014 -5.336800 11.256281  -0.577363 0.577335 -0.577353  0.000000 0.000000
0  4.751014 -3.578719 11.256281  -0.577366 -0.577329 -0.577356  0.000000 0.000000
no_material
0  -4.751014 -3.578719 -11.192343  0.577369 -0.577332 0.577350  0.000000 0.000000
0  -4.751014 -5.336800 -11.192343  0.577359 0.577332 0.577359  0.000000 0.000000
0  4.751015 -5.336800 -11.192343  -0.577360 0.577351 0.577341  0.000000 0.000000
no_material
0  -4.751014 -3.578719 -11.192343  0.577369 -0.577332 0.577350  0.000000 0.000000
0  -4.751015 -3.578719 11.256281  0.577354 -0.577354 -0.577344  0.000000 0.000000
0  -4.751015 -5.336800 11.256281  0.577356 0.577347 -0.577347  0.000000 0.000000
no_material
0  4.751014 -3.578719 11.256280  -0.577332 0.577338 -0.577381  0.000000 0.000000
0  -4.751015 3.556257 11.256280  0.577344 -0.577344 -0.577363  0.000000 0.000000
0  4.751014 3.556257 11.256280  -0.577358 -0.577334 -0.577358  0.000000 0.000000
no_material
0  4.751014 -3.578719 11.256280  -0.577332 0.577338 -0.577381  0.000000 0.000000
0  -4.751014 -3.578719 8.769907  0.577358 0.577334 0.577358  0.000000 0.000000
0  -4.751015 -3.578719 11.256280  0.577330 0.577360 -0.577360  0.000000 0.000000
no_material
0  4.751015 -3.578719 8.769907  -0.577344 0.577344 0.577363  0.000000 0.000000
0  -4.751014 3.556257 8.769907  0.577332 -0.577338 0.577381  0.000000 0.000000
0  -4.751014 -3.578719 8.769907  0.577358 0.577334 0.577358  0.000000 0.000000
no_material
0  -4.751014 3.556257 8.769907  0.577332 -0.577338 0.577381  0.000000 0.000000
0  -4.751015 -3.578719 11.256280  0.577330 0.577360 -0.577360  0.000000 0.000000
0  -4.751014 -3.578719 8.769907  0.577358 0.577334 0.577358  0.000000 0.000000
no_material
0  -4.751014 3.556257 8.769907  0.577332 -0.577338 0.577381  0.000000 0.000000
0  4.751014 3.556257 11.256280  -0.577358 -0.577334 -0.577358  0.000000 0.000000
0  -4.751015 3.556257 11.256280  0.577344 -0.577344 -0.577363  0.000000 0.000000
no_material
0  4.751015 3.556257 8.769907  -0.577330 -0.577360 0.577360  0.000000 0.000000
0  4.751014 -3.578719 11.256280  -0.577332 0.577338 -0.577381  0.000000 0.000000
0  4.751014 3.556257 11.256280  -0.577358 -0.577334 -0.577358  0.000000 0.000000
no_material
0  4.751014 -3.578719 11.256280  -0.577332 0.577338 -0.577381  0.000000 0.000000
0  -4.751015 -3.578719 11.256280  0.577330 0.577360 -0.577360  0.000000 0.000000
0  -4.751015 3.556257 11.256280  0.577344 -0.577344 -0.577363  0.000000 0.000000
no_material
0  4.751014 -3.578719 11.256280  -0.577332 0.577338 -0.577381  0.000000 0.000000
0  4.751015 -3.578719 8.769907  -0.577344 0.577344 0.577363  0.000000 0.000000
0  -4.751014 -3.578719 8.769907  0.577358 0.577334 0.577358  0.000000 0.000000
no_material
0  4.751015 -3.578719 8.769907  -0.577344 0.577344 0.577363  0.000000 0.000000
0  4.751015 3.556257 8.769907  -0.577330 -0.577360 0.577360  0.000000 0.000000
0  -4.751014 3.556257 8.769907  0.577332 -0.577338 0.577381  0.000000 0.000000
no_material
0  -4.751014 3.556257 8.769907  0.577332 -0.577338 0.577381  0.000000 0.000000
0  -4.751015 3.556257 11.256280  0.577344 -0.577344 -0.577363  0.000000 0.000000
0  -4.751015 -3.578719 11.256280  0.577330 0.577360 -0.577360  0.000000 0.000000
no_material
0  -4.751014 3.556257 8.769907  0.577332 -0.577338 0.577381  0.000000 0.000000
0  4.751015 3.556257 8.769907  -0.577330 -0.577360 0.577360  0.000000 0.000000
0  4.751014 3.556257 11.256280  -0.577358 -0.577334 -0.577358  0.000000 0.000000
no_material
0  4.751015 3.556257 8.769907  -0.577330 -0.577360 0.577360  0.000000 0.000000
0  4.751015 -3.578719 8.769907  -0.577344 0.577344 0.577363  0.000000 0.000000
0  4.751014 -3.578719 11.256280  -0.577332 0.577338 -0.577381  0.000000 0.000000
no_material
0  4.751014 -3.578719 1.051611  -0.577350 0.577331 -0.577369  0.000000 0.000000
0  -4.751014 -3.578719 -1.107508  0.577337 0.577347 0.577366  0.000000 0.000000
0  -4.751015 -3.578719 1.051611  0.577350 0.577350 -0.577350  0.000000 0.000000
no_material
0  4.751015 -3.578719 -1.107508  -0.577325 0.577353 0.577372  0.000000 0.000000
0  -4.751014 3.556257 -1.107508  0.577350 -0.577331 0.577369  0.000000 0.000000
0  -4.751014 -3.578719 -1.107508  0.577337 0.577347 0.577366  0.000000 0.000000
no_material
0  4.751014 -3.578719 1.051611  -0.577350 0.577331 -0.577369  0.000000 0.000000
0  -4.751015 3.556257 1.051611  0.577325 -0.577353 -0.577372  0.000000 0.000000
0  4.751014 3.556257 1.051611  -0.577337 -0.577347 -0.577366  0.000000 0.000000
no_material
0  4.751014 3.556257 1.051611  -0.577337 -0.577347 -0.577366  0.000000 0.000000
0  4.751015 -3.578719 -1.107508  -0.577325 0.577353 0.577372  0.000000 0.000000
0  4.751014 -3.578719 1.051611  -0.577350 0.577331 -0.577369  0.000000 0.000000
no_material
0  -4.751014 3.556257 -1.107508  0.577350 -0.577331 0.577369  0.000000 0.000000
0  4.751014 3.556257 1.051611  -0.577337 -0.577347 -0.577366  0.000000 0.000000
0  -4.751015 3.556257 1.051611  0.577325 -0.577353 -0.577372  0.000000 0.000000
no_material
0  -4.751015 3.556257 1.051611  0.577325 -0.577353 -0.577372  0.000000 0.000000
0  -4.751014 -3.578719 -1.107508  0.577337 0.577347 0.577366  0.000000 0.000000
0  -4.751014 3.556257 -1.107508  0.577350 -0.577331 0.577369  0.000000 0.000000
no_material
0  4.751014 -3.578719 1.051611  -0.577350 0.577331 -0.577369  0.000000 0.000000
0  4.751015 -3.578719 -1.107508  -0.577325 0.577353 0.577372  0.000000 0.000000
0  -4.751014 -3.578719 -1.107508  0.577337 0.577347 0.577366  0.000000 0.000000
no_material
0  4.751015 -3.578719 -1.107508  -0.577325 0.577353 0.577372  0.000000 0.000000
0  4.751015 3.556257 -1.107508  -0.577350 -0.577350 0.577350  0.000000 0.000000
0  -4.751014 3.556257 -1.107508  0.577350 -0.577331 0.577369  0.000000 0.000000
no_material
0  4.751014 -3.578719 1.051611  -0.577350 0.577331 -0.577369  0.000000 0.000000
0  -4.751015 -3.578719 1.051611  0.577350 0.577350 -0.577350  0.000000 0.000000
0  -4.751015 3.556257 1.051611  0.577325 -0.577353 -0.577372  0.000000 0.000000
no_material
0  4.751014 3.556257 1.051611  -0.577337 -0.577347 -0.577366  0.000000 0.000000
0  4.751015 3.556257 -1.107508  -0.577350 -0.577350 0.577350  0.000000 0.000000
0  4.751015 -3.578719 -1.107508  -0.577325 0.577353 0.577372  0.000000 0.000000
no_material
0  -4.751014 3.556257 -1.107508  0.577350 -0.577331 0.577369  0.000000 0.000000
0  4.751015 3.556257 -1.107508  -0.577350 -0.577350 0.577350  0.000000 0.000000
0  4.751014 3.556257 1.051611  -0.577337 -0.577347 -0.577366  0.000000 0.000000
no_material
0  -4.751015 3.556257 1.051611  0.577325 -0.577353 -0.577372  0.000000 0.000000
0  -4.751015 -3.578719 1.051611  0.577350 0.577350 -0.577350  0.000000 0.000000
0  -4.751014 -3.578719 -1.107508  0.577337 0.577347 0.577366  0.000000 0.000000
no_material
0  4.751015 -3.578719 -11.192343  -0.577332 0.577337 0.577382  0.000000 0.000000
0  -4.751015 -3.578719 -8.597307  0.577359 0.577333 -0.577359  0.000000 0.000000
0  4.751014 -3.578719 -8.597307  -0.577344 0.577344 -0.577363  0.000000 0.000000
no_material
0  -4.751015 3.556256 -8.597307  0.577324 -0.577354 -0.577373  0.000000 0.000000
0  4.751014 -3.578719 -8.597307  -0.577344 0.577344 -0.577363  0.000000 0.000000
0  -4.751015 -3.578719 -8.597307  0.577359 0.577333 -0.577359  0.000000 0.000000
no_material
0  4.751014 3.556257 -8.597307  -0.577338 -0.577343 -0.577369  0.000000 0.000000
0  -4.751014 3.556256 -11.192343  0.577352 -0.577327 0.577372  0.000000 0.000000
0  4.751015 3.556257 -11.192343  -0.577350 -0.577350 0.577350  0.000000 0.000000
no_material
0  4.751014 3.556257 -8.597307  -0.577338 -0.577343 -0.577369  0.000000 0.000000
0  4.751015 -3.578719 -11.192343  -0.577332 0.577337 0.577382  0.000000 0.000000
0  4.751014 -3.578719 -8.597307  -0.577344 0.577344 -0.577363  0.000000 0.000000
no_material
0  -4.751014 3.556256 -11.192343  0.577352 -0.577327 0.577372  0.000000 0.000000
0  4.751015 -3.578719 -11.192343  -0.577332 0.577337 0.577382  0.000000 0.000000
0  4.751015 3.556257 -11.192343  -0.577350 -0.577350 0.577350  0.000000 0.000000
no_material
0  -4.751015 3.556256 -8.597307  0.577324 -0.577354 -0.577373  0.000000 0.000000
0  -4.751014 -3.578719 -11.192343  0.577330 0.577360 0.577360  0.000000 0.000000
0  -4.751014 3.556256 -11.192343  0.577352 -0.577327 0.577372  0.000000 0.000000
no_material
0  4.751015 -3.578719 -11.192343  -0.577332 0.577337 0.577382  0.000000 0.000000
0  -4.751014 -3.578719 -11.192343  0.577330 0.577360 0.577360  0.000000 0.000000
0  -4.751015 -3.578719 -8.597307  0.577359 0.577333 -0.577359  0.000000 0.000000
no_material
0  -4.751015 3.556256 -8.597307  0.577324 -0.577354 -0.577373  0.000000 0.000000
0  4.751014 3.556257 -8.597307  -0.577338 -0.577343 -0.577369  0.000000 0.000000
0  4.751014 -3.578719 -8.597307  -0.577344 0.577344 -0.577363  0.000000 0.000000
no_material
0  4.751014 3.556257 -8.597307  -0.577338 -0.577343 -0.577369  0.000000 0.000000
0  -4.751015 3.556256 -8.597307  0.577324 -0.577354 -0.577373  0.000000 0.000000
0  -4.751014 3.556256 -11.192343  0.577352 -0.577327 0.577372  0.000000 0.000000
no_material
0  4.751014 3.556257 -8.597307  -0.577338 -0.577343 -0.577369  0.000000 0.000000
0  4.751015 3.556257 -11.192343  -0.577350 -0.577350 0.577350  0.000000 0.000000
0  4.751015 -3.578719 -11.192343  -0.577332 0.577337 0.577382  0.000000 0.000000
no_material
0  -4.751014 3.556256 -11.192343  0.577352 -0.577327 0.577372  0.000000 0.000000
0  -4.751014 -3.578719 -11.192343  0.577330 0.577360 0.577360  0.000000 0.000000
0  4.751015 -3.578719 -11.192343  -0.577332 0.577337 0.577382  0.000000 0.000000
no_material
0  -4.751015 3.556256 -8.597307  0.577324 -0.577354 -0.577373  0.000000 0.000000
0  -4.751015 -3.578719 -8.597307  0.577359 0.577333 -0.577359  0.000000 0.000000
0  -4.751014 -3.578719 -11.192343  0.577330 0.577360 0.577360  0.000000 0.000000
no_material
0  4.751015 3.556257 -11.192342  -0.577369 0.577333 0.577349  0.000000 0.000000
0  -4.751015 3.556257 11.256281  0.577359 0.577332 -0.577359  0.000000 0.000000
0  4.751014 3.556257 11.256281  -0.577354 0.577354 -0.577343  0.000000 0.000000
no_material
0  4.751015 3.556257 -11.192342  -0.577369 0.577333 0.577349  0.000000 0.000000
0  -4.751014 5.336800 -11.192342  0.577363 -0.577336 0.577352  0.000000 0.000000
0  -4.751014 3.556257 -11.192342  0.577356 0.577347 0.577347  0.000000 0.000000
no_material
0  -4.751014 5.336800 -11.192342  0.577363 -0.577336 0.577352  0.000000 0.000000
0  4.751014 5.336800 11.256281  -0.577365 -0.577329 -0.577356  0.000000 0.000000
0  -4.751015 5.336800 11.256281  0.577360 -0.577351 -0.577340  0.000000 0.000000
no_material
0  -4.751015 5.336800 11.256281  0.577360 -0.577351 -0.577340  0.000000 0.000000
0  4.751014 3.556257 11.256281  -0.577354 0.577354 -0.577343  0.000000 0.000000
0  -4.751015 3.556257 11.256281  0.577359 0.577332 -0.577359  0.000000 0.000000
no_material
0  4.751014 5.336800 11.256281  -0.577365 -0.577329 -0.577356  0.000000 0.000000
0  4.751015 3.556257 -11.192342  -0.577369 0.577333 0.577349  0.000000 0.000000
0  4.751014 3.556257 11.256281  -0.577354 0.577354 -0.577343  0.000000 0.000000
no_material
0  -4.751014 3.556257 -11.192342  0.577356 0.577347 0.577347  0.000000 0.000000
0  -4.751015 5.336800 11.256281  0.577360 -0.577351 -0.577340  0.000000 0.000000
0  -4.751015 3.556257 11.256281  0.577359 0.577332 -0.577359  0.000000 0.000000
no_material
0  4.751015 3.556257 -11.192342  -0.577369 0.577333 0.577349  0.000000 0.000000
0  -4.751014 3.556257 -11.192342  0.577356 0.577347 0.577347  0.000000 0.000000
0  -4.751015 3.556257 11.256281  0.577359 0.577332 -0.577359  0.000000 0.000000
no_material
0  4.751015 3.556257 -11.192342  -0.577369 0.577333 0.577349  0.000000 0.000000
0  4.751015 5.336800 -11.192342  -0.577350 -0.577350 0.577350  0.000000 0.000000
0  -4.751014 5.336800 -11.192342  0.577363 -0.577336 0.577352  0.000000 0.000000
no_material
0  -4.751014 5.336800 -11.192342  0.577363 -0.577336 0.577352  0.000000 0.000000
0  4.751015 5.336800 -11.192342  -0.577350 -0.577350 0.577350  0.000000 0.000000
0  4.751014 5.336800 11.256281  -0.577365 -0.577329 -0.577356  0.000000 0.000000
no_material
0  -4.751015 5.336800 11.256281  0.577360 -0.577351 -0.577340  0.000000 0.000000
0  4.751014 5.336800 11.256281  -0.577365 -0.577329 -0.577356  0.000000 0.000000
0  4.751014 3.556257 11.256281  -0.577354 0.577354 -0.577343  0.000000 0.000000
no_material
0  4.751014 5.336800 11.256281  -0.577365 -0.577329 -0.577356  0.000000 0.000000
0  4.751015 5.336800 -11.192342  -0.577350 -0.577350 0.577350  0.000000 0.000000
0  4.751015 3.556257 -11.192342  -0.577369 0.577333 0.577349  0.000000 0.000000
no_material
0  -4.751014 3.556257 -11.192342  0.577356 0.577347 0.577347  0.000000 0.000000
0  -4.751014 5.336800 -11.192342  0.577363 -0.577336 0.577352  0.000000 0.000000
0  -4.751015 5.336800 11.256281  0.577360 -0.577351 -0.577340  0.000000 0.000000
end
