version 1
nodes
0 "Implicit" -1
end
skeleton
time 0
0  0.000000 0.000000 0.000000  0.000000 0.000000 0.000000
end
triangles
cinderblock03
0  4.670923 -3.331444 -1.107510  0.707119 0.296652 -0.641857  0.052671 0.720095
0  5.018429 -3.331444 -0.760003  0.707103 0.296573 -0.641911  0.052801 0.727792
0  5.018429 -3.827497 -1.218925  0.604896 0.749435 -0.269164  0.042025 0.717796
cinderblock03
0  5.018429 3.331444 -0.760003  0.707117 -0.296624 -0.641873  0.197543 0.727750
0  5.018429 -3.331444 -0.760003  0.707103 0.296573 -0.641911  0.052801 0.727792
0  4.670923 -3.331444 -1.107510  0.707119 0.296652 -0.641857  0.052671 0.720095
cinderblock03
0  4.670923 3.331444 -1.107510  0.707083 -0.296721 -0.641865  0.197413 0.720054
0  5.018429 3.331444 -0.760003  0.707117 -0.296624 -0.641873  0.197543 0.727750
0  4.670923 -3.331444 -1.107510  0.707119 0.296652 -0.641857  0.052671 0.720095
cinderblock03
0  4.670923 3.331444 -1.107510  0.707083 -0.296721 -0.641865  0.197413 0.720054
0  4.670923 3.578717 -1.461555  0.604865 -0.749471 -0.269131  0.202785 0.712338
0  5.018429 3.331444 -0.760003  0.707117 -0.296624 -0.641873  0.197543 0.727750
cinderblock03
0  4.670923 3.578717 -1.461555  0.604865 -0.749471 -0.269131  0.202785 0.712338
0  5.018429 3.827497 -1.218925  0.604902 -0.749434 -0.269152  0.208319 0.717748
0  5.018429 3.331444 -0.760003  0.707117 -0.296624 -0.641873  0.197543 0.727750
cinderblock03
0  5.018428 3.740890 -8.673116  0.633728 -0.701847 0.325268  0.206438 0.555339
0  5.018429 3.827497 -1.218925  0.604902 -0.749434 -0.269152  0.208319 0.717748
0  4.670923 3.578717 -1.461555  0.604865 -0.749471 -0.269131  0.202785 0.712338
cinderblock03
0  4.670923 3.578717 -8.365771  0.633678 -0.701929 0.325188  0.202785 0.561911
0  5.018428 3.740890 -8.673116  0.633728 -0.701847 0.325268  0.206438 0.555339
0  4.670923 3.578717 -1.461555  0.604865 -0.749471 -0.269131  0.202785 0.712338
cinderblock03
0  5.018428 3.319579 -8.944813  0.706002 -0.227398 0.670709  0.197286 0.549422
0  5.018428 3.740890 -8.673116  0.633728 -0.701847 0.325268  0.206438 0.555339
0  4.670923 3.578717 -8.365771  0.633678 -0.701929 0.325188  0.202785 0.561911
cinderblock03
0  4.670923 3.319579 -8.597306  0.705974 -0.227494 0.670706  0.197155 0.556868
0  5.018428 3.319579 -8.944813  0.706002 -0.227398 0.670709  0.197286 0.549422
0  4.670923 3.578717 -8.365771  0.633678 -0.701929 0.325188  0.202785 0.561911
cinderblock03
0  5.018428 3.319579 -8.944813  0.706002 -0.227398 0.670709  0.197286 0.549422
0  4.670923 3.319579 -8.597306  0.705974 -0.227494 0.670706  0.197155 0.556868
0  5.018428 -3.319579 -8.944813  0.705992 0.227404 0.670718  0.053059 0.549463
cinderblock03
0  4.670923 3.319579 -8.597306  0.705974 -0.227494 0.670706  0.197155 0.556868
0  4.670923 -3.319579 -8.597306  0.705999 0.227450 0.670695  0.052929 0.556909
0  5.018428 -3.319579 -8.944813  0.705992 0.227404 0.670718  0.053059 0.549463
cinderblock03
0  5.018428 -3.319579 -8.944813  0.705992 0.227404 0.670718  0.053059 0.549463
0  4.670923 -3.319579 -8.597306  0.705999 0.227450 0.670695  0.052929 0.556909
0  5.018428 -3.740890 -8.673116  0.633710 0.701853 0.325291  0.043906 0.555385
cinderblock03
0  4.670923 -3.319579 -8.597306  0.705999 0.227450 0.670695  0.052929 0.556909
0  4.670923 -3.578717 -8.365771  0.633700 0.701917 0.325172  0.047299 0.561956
0  5.018428 -3.740890 -8.673116  0.633710 0.701853 0.325291  0.043906 0.555385
cinderblock03
0  5.018428 -3.740890 -8.673116  0.633710 0.701853 0.325291  0.043906 0.555385
0  4.670923 -3.578717 -8.365771  0.633700 0.701917 0.325172  0.047299 0.561956
0  5.018429 -3.827497 -1.218925  0.604896 0.749435 -0.269164  0.042025 0.717796
cinderblock03
0  4.670923 -3.578717 -8.365771  0.633700 0.701917 0.325172  0.047299 0.561956
0  4.670923 -3.578717 -1.461555  0.604882 0.749480 -0.269070  0.047299 0.712383
0  5.018429 -3.827497 -1.218925  0.604896 0.749435 -0.269164  0.042025 0.717796
cinderblock03
0  4.670923 -3.578717 -1.461555  0.604882 0.749480 -0.269070  0.047299 0.712383
0  4.670923 -3.331444 -1.107510  0.707119 0.296652 -0.641857  0.052671 0.720095
0  5.018429 -3.827497 -1.218925  0.604896 0.749435 -0.269164  0.042025 0.717796
cinderblock03
0  5.018429 -3.806223 1.305002  0.585767 0.780417 0.218692  0.042487 0.772786
0  4.670923 -3.556256 1.546409  0.585792 0.780421 0.218609  0.047787 0.777919
0  5.018429 -3.744887 8.802299  0.632633 0.712426 -0.303686  0.043820 0.936135
cinderblock03
0  4.670923 -3.556256 1.546409  0.585792 0.780421 0.218609  0.047787 0.777919
0  4.670924 -3.556256 8.510445  0.632580 0.712517 -0.303583  0.047787 0.929650
0  5.018429 -3.744887 8.802299  0.632633 0.712426 -0.303686  0.043820 0.936135
cinderblock03
0  5.018429 -3.744887 8.802299  0.632633 0.712426 -0.303686  0.043820 0.936135
0  4.670924 -3.556256 8.510445  0.632580 0.712517 -0.303583  0.047787 0.929650
0  5.018429 -3.321333 9.117415  0.706098 0.256547 -0.660007  0.053021 0.942998
cinderblock03
0  4.670924 -3.556256 8.510445  0.632580 0.712517 -0.303583  0.047787 0.929650
0  4.670924 -3.321333 8.769909  0.706064 0.256619 -0.660015  0.052891 0.935302
0  5.018429 -3.321333 9.117415  0.706098 0.256547 -0.660007  0.053021 0.942998
cinderblock03
0  5.018429 -3.321333 9.117415  0.706098 0.256547 -0.660007  0.053021 0.942998
0  4.670924 -3.321333 8.769909  0.706064 0.256619 -0.660015  0.052891 0.935302
0  5.018429 3.321333 9.117415  0.706093 -0.256545 -0.660013  0.197324 0.942957
cinderblock03
0  4.670924 -3.321333 8.769909  0.706064 0.256619 -0.660015  0.052891 0.935302
0  4.670924 3.321333 8.769909  0.706095 -0.256568 -0.660002  0.197193 0.935260
0  5.018429 3.321333 9.117415  0.706093 -0.256545 -0.660013  0.197324 0.942957
cinderblock03
0  5.018429 3.744887 8.802299  0.632618 -0.712428 -0.303712  0.206525 0.936089
0  5.018429 3.321333 9.117415  0.706093 -0.256545 -0.660013  0.197324 0.942957
0  4.670924 3.321333 8.769909  0.706095 -0.256568 -0.660002  0.197193 0.935260
cinderblock03
0  4.670924 3.556256 8.510445  0.632597 -0.712510 -0.303563  0.202297 0.929606
0  5.018429 3.744887 8.802299  0.632618 -0.712428 -0.303712  0.206525 0.936089
0  4.670924 3.321333 8.769909  0.706095 -0.256568 -0.660002  0.197193 0.935260
cinderblock03
0  5.018429 3.806223 1.305002  0.585828 -0.780367 0.218707  0.207857 0.772739
0  5.018429 3.744887 8.802299  0.632618 -0.712428 -0.303712  0.206525 0.936089
0  4.670924 3.556256 8.510445  0.632597 -0.712510 -0.303563  0.202297 0.929606
cinderblock03
0  4.670923 3.556256 1.546409  0.585767 -0.780427 0.218656  0.202297 0.777875
0  5.018429 3.806223 1.305002  0.585828 -0.780367 0.218707  0.207857 0.772739
0  4.670924 3.556256 8.510445  0.632597 -0.712510 -0.303563  0.202297 0.929606
cinderblock03
0  5.018429 3.331444 0.704104  0.705080 -0.360796 0.610483  0.197543 0.759650
0  5.018429 3.806223 1.305002  0.585828 -0.780367 0.218707  0.207857 0.772739
0  4.670923 3.556256 1.546409  0.585767 -0.780427 0.218656  0.202297 0.777875
cinderblock03
0  4.670923 3.331444 1.051611  0.705027 -0.360921 0.610470  0.197413 0.767096
0  5.018429 3.331444 0.704104  0.705080 -0.360796 0.610483  0.197543 0.759650
0  4.670923 3.556256 1.546409  0.585767 -0.780427 0.218656  0.202297 0.777875
cinderblock03
0  5.018429 3.331444 0.704104  0.705080 -0.360796 0.610483  0.197543 0.759650
0  4.670923 3.331444 1.051611  0.705027 -0.360921 0.610470  0.197413 0.767096
0  5.018429 -3.331444 0.704104  0.705062 0.360782 0.610511  0.052801 0.759691
cinderblock03
0  4.670923 3.331444 1.051611  0.705027 -0.360921 0.610470  0.197413 0.767096
0  4.670923 -3.331444 1.051611  0.705073 0.360854 0.610456  0.052671 0.767138
0  5.018429 -3.331444 0.704104  0.705062 0.360782 0.610511  0.052801 0.759691
cinderblock03
0  5.018429 -3.331444 0.704104  0.705062 0.360782 0.610511  0.052801 0.759691
0  4.670923 -3.331444 1.051611  0.705073 0.360854 0.610456  0.052671 0.767138
0  5.018429 -3.806223 1.305002  0.585767 0.780417 0.218692  0.042487 0.772786
cinderblock03
0  4.670923 -3.331444 1.051611  0.705073 0.360854 0.610456  0.052671 0.767138
0  4.670923 -3.556256 1.546409  0.585792 0.780421 0.218609  0.047787 0.777919
0  5.018429 -3.806223 1.305002  0.585767 0.780417 0.218692  0.042487 0.772786
cinderblock03
0  5.018429 3.806223 1.305002  0.999788 0.020340 0.003194  0.207857 0.772739
0  5.018429 5.117212 0.038905  0.999906 0.013573 0.002126  0.236337 0.745146
0  4.900272 5.170155 11.113308  0.999190 0.022271 0.033515  0.237443 0.986389
cinderblock03
0  5.018429 3.744887 8.802299  0.999229 0.033371 0.020702  0.206525 0.936089
0  5.018429 3.806223 1.305002  0.999788 0.020340 0.003194  0.207857 0.772739
0  4.900272 5.170155 11.113308  0.999190 0.022271 0.033515  0.237443 0.986389
cinderblock03
0  5.018429 3.744887 8.802299  0.999229 0.033371 0.020702  0.206525 0.936089
0  4.900272 5.170155 11.113308  0.999190 0.022271 0.033515  0.237443 0.986389
0  5.018429 3.321333 9.117415  0.998806 0.012991 0.047096  0.197324 0.942957
cinderblock03
0  4.900272 5.170155 11.113308  0.999190 0.022271 0.033515  0.237443 0.986389
0  4.900272 -5.170155 11.113308  0.999189 -0.022275 0.033527  0.012813 0.986453
0  5.018429 3.321333 9.117415  0.998806 0.012991 0.047096  0.197324 0.942957
cinderblock03
0  4.900272 -5.170155 11.113308  0.999189 -0.022275 0.033527  0.012813 0.986453
0  5.018429 -3.321333 9.117415  0.998808 -0.013061 0.047031  0.053021 0.942998
0  5.018429 3.321333 9.117415  0.998806 0.012991 0.047096  0.197324 0.942957
cinderblock03
0  5.018429 -3.744887 8.802299  0.999228 -0.033395 0.020696  0.043820 0.936135
0  5.018429 -3.321333 9.117415  0.998808 -0.013061 0.047031  0.053021 0.942998
0  4.900272 -5.170155 11.113308  0.999189 -0.022275 0.033527  0.012813 0.986453
cinderblock03
0  5.018429 -3.744887 8.802299  0.999228 -0.033395 0.020696  0.043820 0.936135
0  4.900272 -5.170155 11.113308  0.999189 -0.022275 0.033527  0.012813 0.986453
0  5.018429 -5.117212 0.038905  0.999906 -0.013570 0.002124  0.014008 0.745209
cinderblock03
0  5.018429 -3.806223 1.305002  0.999788 -0.020364 0.003188  0.042487 0.772786
0  5.018429 -3.744887 8.802299  0.999228 -0.033395 0.020696  0.043820 0.936135
0  5.018429 -5.117212 0.038905  0.999906 -0.013570 0.002124  0.014008 0.745209
cinderblock03
0  5.018429 -3.331444 0.704104  1.000000 -0.000000 0.000000  0.052801 0.759691
0  5.018429 -3.806223 1.305002  0.999788 -0.020364 0.003188  0.042487 0.772786
0  5.018429 -5.117212 0.038905  0.999906 -0.013570 0.002124  0.014008 0.745209
cinderblock03
0  5.018429 -3.331444 -0.760003  1.000000 -0.000000 0.000000  0.052801 0.727792
0  5.018429 -3.331444 0.704104  1.000000 -0.000000 0.000000  0.052801 0.759691
0  5.018429 -5.117212 0.038905  0.999906 -0.013570 0.002124  0.014008 0.745209
cinderblock03
0  5.018429 -3.331444 0.704104  1.000000 -0.000000 0.000000  0.052801 0.759691
0  5.018429 -3.331444 -0.760003  1.000000 -0.000000 0.000000  0.052801 0.727792
0  5.018429 3.331444 -0.760003  1.000000 -0.000001 0.000000  0.197543 0.727750
cinderblock03
0  5.018429 3.331444 0.704104  1.000000 0.000002 0.000000  0.197543 0.759650
0  5.018429 -3.331444 0.704104  1.000000 -0.000000 0.000000  0.052801 0.759691
0  5.018429 3.331444 -0.760003  1.000000 -0.000001 0.000000  0.197543 0.727750
cinderblock03
0  5.018429 3.331444 0.704104  1.000000 0.000002 0.000000  0.197543 0.759650
0  5.018429 3.331444 -0.760003  1.000000 -0.000001 0.000000  0.197543 0.727750
0  5.018429 3.806223 1.305002  0.999788 0.020340 0.003194  0.207857 0.772739
cinderblock03
0  5.018429 3.331444 -0.760003  1.000000 -0.000001 0.000000  0.197543 0.727750
0  5.018429 3.827497 -1.218925  1.000000 -0.000001 -0.000000  0.208319 0.717748
0  5.018429 3.806223 1.305002  0.999788 0.020340 0.003194  0.207857 0.772739
cinderblock03
0  5.018429 3.827497 -1.218925  1.000000 -0.000001 -0.000000  0.208319 0.717748
0  5.018429 5.117212 0.038905  0.999906 0.013573 0.002126  0.236337 0.745146
0  5.018429 3.806223 1.305002  0.999788 0.020340 0.003194  0.207857 0.772739
cinderblock03
0  5.018429 3.827497 -1.218925  1.000000 -0.000001 -0.000000  0.208319 0.717748
0  5.018428 3.740890 -8.673116  1.000000 -0.000000 -0.000000  0.206438 0.555339
0  5.018429 5.117212 0.038905  0.999906 0.013573 0.002126  0.236337 0.745146
cinderblock03
0  5.018428 3.740890 -8.673116  1.000000 -0.000000 -0.000000  0.206438 0.555339
0  5.018428 5.071084 -10.977846  1.000000 0.000000 -0.000000  0.235335 0.505116
0  5.018429 5.117212 0.038905  0.999906 0.013573 0.002126  0.236337 0.745146
cinderblock03
0  5.018428 3.319579 -8.944813  1.000000 0.000000 0.000000  0.197286 0.549422
0  5.018428 5.071084 -10.977846  1.000000 0.000000 -0.000000  0.235335 0.505116
0  5.018428 3.740890 -8.673116  1.000000 -0.000000 -0.000000  0.206438 0.555339
cinderblock03
0  5.018428 3.319579 -8.944813  1.000000 0.000000 0.000000  0.197286 0.549422
0  5.018428 -3.319579 -8.944813  1.000000 0.000000 0.000000  0.053059 0.549463
0  5.018428 5.071084 -10.977846  1.000000 0.000000 -0.000000  0.235335 0.505116
cinderblock03
0  5.018428 -3.319579 -8.944813  1.000000 0.000000 0.000000  0.053059 0.549463
0  5.018428 -5.071084 -10.977846  1.000000 0.000000 -0.000000  0.015010 0.505179
0  5.018428 5.071084 -10.977846  1.000000 0.000000 -0.000000  0.235335 0.505116
cinderblock03
0  5.018428 -3.319579 -8.944813  1.000000 0.000000 0.000000  0.053059 0.549463
0  5.018428 -3.740890 -8.673116  1.000000 0.000000 -0.000000  0.043906 0.555385
0  5.018428 -5.071084 -10.977846  1.000000 0.000000 -0.000000  0.015010 0.505179
cinderblock03
0  5.018428 -3.740890 -8.673116  1.000000 0.000000 -0.000000  0.043906 0.555385
0  5.018429 -3.827497 -1.218925  1.000000 0.000000 -0.000000  0.042025 0.717796
0  5.018428 -5.071084 -10.977846  1.000000 0.000000 -0.000000  0.015010 0.505179
cinderblock03
0  5.018429 -3.827497 -1.218925  1.000000 0.000000 -0.000000  0.042025 0.717796
0  5.018429 -5.117212 0.038905  0.999906 -0.013570 0.002124  0.014008 0.745209
0  5.018428 -5.071084 -10.977846  1.000000 0.000000 -0.000000  0.015010 0.505179
cinderblock03
0  5.018429 -3.827497 -1.218925  1.000000 0.000000 -0.000000  0.042025 0.717796
0  5.018429 -3.331444 -0.760003  1.000000 -0.000000 0.000000  0.052801 0.727792
0  5.018429 -5.117212 0.038905  0.999906 -0.013570 0.002124  0.014008 0.745209
cinderblock03
0  -5.018429 -3.331444 0.704104  -0.705080 0.360796 0.610483  0.196742 0.266097
0  -5.018429 -3.806223 1.305002  -0.585828 0.780367 0.218707  0.207136 0.279252
0  -4.670923 -3.556256 1.546409  -0.585771 0.780424 0.218659  0.201663 0.284529
cinderblock03
0  -4.670923 -3.556256 8.510445  -0.632597 0.712510 -0.303563  0.201663 0.436986
0  -4.670923 -3.556256 1.546409  -0.585771 0.780424 0.218659  0.201663 0.284529
0  -5.018429 -3.806223 1.305002  -0.585828 0.780367 0.218707  0.207136 0.279252
cinderblock03
0  -5.018428 -3.744887 8.802299  -0.632619 0.712428 -0.303712  0.205793 0.443383
0  -4.670923 -3.556256 8.510445  -0.632597 0.712510 -0.303563  0.201663 0.436986
0  -5.018429 -3.806223 1.305002  -0.585828 0.780367 0.218707  0.207136 0.279252
cinderblock03
0  -4.670923 -3.556256 8.510445  -0.632597 0.712510 -0.303563  0.201663 0.436986
0  -5.018428 -3.744887 8.802299  -0.632619 0.712428 -0.303712  0.205793 0.443383
0  -4.670923 -3.321333 8.769909  -0.706095 0.256568 -0.660002  0.196520 0.442666
cinderblock03
0  -5.018428 -3.744887 8.802299  -0.632619 0.712428 -0.303712  0.205793 0.443383
0  -5.018428 -3.321333 9.117415  -0.706093 0.256545 -0.660013  0.196520 0.450282
0  -4.670923 -3.321333 8.769909  -0.706095 0.256568 -0.660002  0.196520 0.442666
cinderblock03
0  -4.670923 -3.321333 8.769909  -0.706095 0.256568 -0.660002  0.196520 0.442666
0  -5.018428 -3.321333 9.117415  -0.706093 0.256545 -0.660013  0.196520 0.450282
0  -4.670923 3.321333 8.769909  -0.706064 -0.256619 -0.660015  0.051098 0.442666
cinderblock03
0  -5.018428 -3.321333 9.117415  -0.706093 0.256545 -0.660013  0.196520 0.450282
0  -5.018428 3.321333 9.117415  -0.706098 -0.256547 -0.660007  0.051098 0.450282
0  -4.670923 3.321333 8.769909  -0.706064 -0.256619 -0.660015  0.051098 0.442666
cinderblock03
0  -4.670923 3.556256 8.510445  -0.632581 -0.712516 -0.303583  0.045955 0.436986
0  -4.670923 3.321333 8.769909  -0.706064 -0.256619 -0.660015  0.051098 0.442666
0  -5.018428 3.321333 9.117415  -0.706098 -0.256547 -0.660007  0.051098 0.450282
cinderblock03
0  -5.018428 3.744887 8.802299  -0.632633 -0.712426 -0.303686  0.041826 0.443383
0  -4.670923 3.556256 8.510445  -0.632581 -0.712516 -0.303583  0.045955 0.436986
0  -5.018428 3.321333 9.117415  -0.706098 -0.256547 -0.660007  0.051098 0.450282
cinderblock03
0  -4.670923 3.556256 8.510445  -0.632581 -0.712516 -0.303583  0.045955 0.436986
0  -5.018428 3.744887 8.802299  -0.632633 -0.712426 -0.303686  0.041826 0.443383
0  -4.670923 3.556256 1.546409  -0.585792 -0.780421 0.218609  0.045955 0.284529
cinderblock03
0  -5.018428 3.744887 8.802299  -0.632633 -0.712426 -0.303686  0.041826 0.443383
0  -5.018429 3.806223 1.305002  -0.585767 -0.780417 0.218692  0.040483 0.279252
0  -4.670923 3.556256 1.546409  -0.585792 -0.780421 0.218609  0.045955 0.284529
cinderblock03
0  -4.670923 3.331444 1.051611  -0.705073 -0.360854 0.610456  0.050877 0.273696
0  -4.670923 3.556256 1.546409  -0.585792 -0.780421 0.218609  0.045955 0.284529
0  -5.018429 3.806223 1.305002  -0.585767 -0.780417 0.218692  0.040483 0.279252
cinderblock03
0  -5.018429 3.331444 0.704104  -0.705062 -0.360782 0.610511  0.050877 0.266097
0  -4.670923 3.331444 1.051611  -0.705073 -0.360854 0.610456  0.050877 0.273696
0  -5.018429 3.806223 1.305002  -0.585767 -0.780417 0.218692  0.040483 0.279252
cinderblock03
0  -4.670923 -3.331444 1.051611  -0.705027 0.360921 0.610470  0.196742 0.273696
0  -4.670923 3.331444 1.051611  -0.705073 -0.360854 0.610456  0.050877 0.273696
0  -5.018429 3.331444 0.704104  -0.705062 -0.360782 0.610511  0.050877 0.266097
cinderblock03
0  -5.018429 -3.331444 0.704104  -0.705080 0.360796 0.610483  0.196742 0.266097
0  -4.670923 -3.331444 1.051611  -0.705027 0.360921 0.610470  0.196742 0.273696
0  -5.018429 3.331444 0.704104  -0.705062 -0.360782 0.610511  0.050877 0.266097
cinderblock03
0  -4.670923 -3.331444 1.051611  -0.705027 0.360921 0.610470  0.196742 0.273696
0  -5.018429 -3.331444 0.704104  -0.705080 0.360796 0.610483  0.196742 0.266097
0  -4.670923 -3.556256 1.546409  -0.585771 0.780424 0.218659  0.201663 0.284529
cinderblock03
0  -5.018429 -3.827497 -1.218925  -0.604871 0.749464 -0.269137  0.207601 0.223997
0  -5.018429 -3.331444 -0.760003  -0.707103 0.296570 -0.641912  0.196742 0.234044
0  -4.670923 -3.331444 -1.107510  -0.707120 0.296624 -0.641869  0.196742 0.226429
cinderblock03
0  -4.670923 3.331444 -1.107510  -0.707090 -0.296694 -0.641870  0.050877 0.226429
0  -4.670923 -3.331444 -1.107510  -0.707120 0.296624 -0.641869  0.196742 0.226429
0  -5.018429 -3.331444 -0.760003  -0.707103 0.296570 -0.641912  0.196742 0.234044
cinderblock03
0  -5.018429 3.331444 -0.760003  -0.707121 -0.296615 -0.641872  0.050877 0.234044
0  -4.670923 3.331444 -1.107510  -0.707090 -0.296694 -0.641870  0.050877 0.226429
0  -5.018429 -3.331444 -0.760003  -0.707103 0.296570 -0.641912  0.196742 0.234044
cinderblock03
0  -4.670923 3.578717 -1.461555  -0.604880 -0.749470 -0.269099  0.045464 0.218678
0  -4.670923 3.331444 -1.107510  -0.707090 -0.296694 -0.641870  0.050877 0.226429
0  -5.018429 3.331444 -0.760003  -0.707121 -0.296615 -0.641872  0.050877 0.234044
cinderblock03
0  -5.018429 3.827497 -1.218925  -0.604909 -0.749432 -0.269142  0.040017 0.223997
0  -4.670923 3.578717 -1.461555  -0.604880 -0.749470 -0.269099  0.045464 0.218678
0  -5.018429 3.331444 -0.760003  -0.707121 -0.296615 -0.641872  0.050877 0.234044
cinderblock03
0  -4.670923 3.578717 -1.461555  -0.604880 -0.749470 -0.269099  0.045464 0.218678
0  -5.018429 3.827497 -1.218925  -0.604909 -0.749432 -0.269142  0.040017 0.223997
0  -4.670924 3.578717 -8.365771  -0.633701 -0.701916 0.325172  0.045464 0.067530
cinderblock03
0  -5.018429 3.827497 -1.218925  -0.604909 -0.749432 -0.269142  0.040017 0.223997
0  -5.018429 3.740890 -8.673116  -0.633710 -0.701852 0.325292  0.041913 0.060810
0  -4.670924 3.578717 -8.365771  -0.633701 -0.701916 0.325172  0.045464 0.067530
cinderblock03
0  -4.670924 3.578717 -8.365771  -0.633701 -0.701916 0.325172  0.045464 0.067530
0  -5.018429 3.740890 -8.673116  -0.633710 -0.701852 0.325292  0.041913 0.060810
0  -4.670924 3.319579 -8.597306  -0.705999 -0.227450 0.670695  0.051137 0.062461
cinderblock03
0  -5.018429 3.740890 -8.673116  -0.633710 -0.701852 0.325292  0.041913 0.060810
0  -5.018429 3.319579 -8.944813  -0.705992 -0.227403 0.670718  0.051137 0.054862
0  -4.670924 3.319579 -8.597306  -0.705999 -0.227450 0.670695  0.051137 0.062461
cinderblock03
0  -4.670924 -3.319579 -8.597306  -0.705974 0.227496 0.670706  0.196482 0.062461
0  -4.670924 3.319579 -8.597306  -0.705999 -0.227450 0.670695  0.051137 0.062461
0  -5.018429 3.319579 -8.944813  -0.705992 -0.227403 0.670718  0.051137 0.054862
cinderblock03
0  -5.018429 -3.319579 -8.944813  -0.706002 0.227398 0.670709  0.196482 0.054862
0  -4.670924 -3.319579 -8.597306  -0.705974 0.227496 0.670706  0.196482 0.062461
0  -5.018429 3.319579 -8.944813  -0.705992 -0.227403 0.670718  0.051137 0.054862
cinderblock03
0  -4.670924 -3.578717 -8.365771  -0.633678 0.701929 0.325188  0.202155 0.067530
0  -4.670924 -3.319579 -8.597306  -0.705974 0.227496 0.670706  0.196482 0.062461
0  -5.018429 -3.319579 -8.944813  -0.706002 0.227398 0.670709  0.196482 0.054862
cinderblock03
0  -5.018429 -3.740890 -8.673116  -0.633729 0.701846 0.325269  0.205705 0.060810
0  -4.670924 -3.578717 -8.365771  -0.633678 0.701929 0.325188  0.202155 0.067530
0  -5.018429 -3.319579 -8.944813  -0.706002 0.227398 0.670709  0.196482 0.054862
cinderblock03
0  -4.670923 -3.578717 -1.461555  -0.604898 0.749461 -0.269085  0.202155 0.218678
0  -4.670924 -3.578717 -8.365771  -0.633678 0.701929 0.325188  0.202155 0.067530
0  -5.018429 -3.740890 -8.673116  -0.633729 0.701846 0.325269  0.205705 0.060810
cinderblock03
0  -5.018429 -3.827497 -1.218925  -0.604871 0.749464 -0.269137  0.207601 0.223997
0  -4.670923 -3.578717 -1.461555  -0.604898 0.749461 -0.269085  0.202155 0.218678
0  -5.018429 -3.740890 -8.673116  -0.633729 0.701846 0.325269  0.205705 0.060810
cinderblock03
0  -4.670923 -3.578717 -1.461555  -0.604898 0.749461 -0.269085  0.202155 0.218678
0  -5.018429 -3.827497 -1.218925  -0.604871 0.749464 -0.269137  0.207601 0.223997
0  -4.670923 -3.331444 -1.107510  -0.707120 0.296624 -0.641869  0.196742 0.226429
cinderblock03
0  4.670923 -3.331444 -1.107510  0.000000 0.000000 -1.000000  0.467767 0.449123
0  -4.670923 -3.331444 -1.107510  0.000000 0.000000 -1.000000  0.467767 0.228215
0  -4.670923 3.331444 -1.107510  0.000000 -0.462274 -0.886737  0.589701 0.228215
cinderblock03
0  4.670923 3.331444 -1.107510  0.000000 -0.462285 -0.886732  0.589701 0.449123
0  4.670923 -3.331444 -1.107510  0.000000 0.000000 -1.000000  0.467767 0.449123
0  -4.670923 3.331444 -1.107510  0.000000 -0.462274 -0.886737  0.589701 0.228215
cinderblock03
0  -4.670923 3.331444 -1.107510  0.000000 -0.462274 -0.886737  0.589701 0.228215
0  -4.670923 3.578717 -1.461555  0.000000 -0.819839 -0.572594  0.596855 0.228215
0  4.670923 3.331444 -1.107510  0.000000 -0.462285 -0.886732  0.589701 0.449123
cinderblock03
0  -4.670923 3.578717 -1.461555  0.000000 -0.819839 -0.572594  0.596855 0.228215
0  4.670923 3.578717 -1.461555  0.000000 -0.819840 -0.572593  0.596855 0.449123
0  4.670923 3.331444 -1.107510  0.000000 -0.462285 -0.886732  0.589701 0.449123
cinderblock03
0  -4.670924 -3.319579 -8.597306  0.000000 0.666275 0.745706  0.852998 0.228215
0  -4.670924 -3.578717 -8.365771  0.000000 0.666275 0.745706  0.858813 0.228215
0  4.670923 -3.319579 -8.597306  0.000000 0.666274 0.745707  0.852998 0.449123
cinderblock03
0  -4.670924 -3.578717 -8.365771  0.000000 0.666275 0.745706  0.858813 0.228215
0  4.670923 -3.578717 -8.365771  0.000000 0.666274 0.745707  0.858813 0.449123
0  4.670923 -3.319579 -8.597306  0.000000 0.666274 0.745707  0.852998 0.449123
cinderblock03
0  4.803932 -5.070186 -11.192342  0.474628 -0.430230 -0.767874  0.458539 0.005269
0  4.751014 -5.336799 -10.988766  0.471482 -0.714378 -0.517077  0.457333 0.010207
0  -4.803933 -5.070186 -11.192342  -0.474644 -0.430276 -0.767839  0.239535 0.005269
cinderblock03
0  4.751014 -5.336799 -10.988766  0.471482 -0.714378 -0.517077  0.457333 0.010207
0  -4.751015 -5.336799 -10.988766  -0.471475 -0.714387 -0.517071  0.240741 0.010207
0  -4.803933 -5.070186 -11.192342  -0.474644 -0.430276 -0.767839  0.239535 0.005269
cinderblock03
0  4.755765 -5.170838 11.256280  0.468429 -0.504941 0.724989  0.457441 0.496747
0  -4.755764 -5.170838 11.256280  -0.468406 -0.504900 0.725032  0.240633 0.496747
0  4.751015 -5.336799 11.076262  0.451430 -0.768548 0.453371  0.457333 0.492838
cinderblock03
0  -4.755764 -5.170838 11.256280  -0.468406 -0.504900 0.725032  0.240633 0.496747
0  -4.751014 -5.336799 11.076262  -0.451461 -0.768497 0.453427  0.240741 0.492838
0  4.751015 -5.336799 11.076262  0.451430 -0.768548 0.453371  0.457333 0.492838
cinderblock03
0  -5.018429 -5.117212 0.038905  -0.999906 -0.013571 0.002126  0.235836 0.251534
0  -5.018429 -3.827497 -1.218925  -1.000000 -0.000000 0.000000  0.207601 0.223997
0  -5.018429 -3.740890 -8.673116  -1.000000 0.000000 0.000000  0.205705 0.060810
cinderblock03
0  -5.018429 -5.071084 -10.977846  -1.000000 0.000000 0.000000  0.234826 0.010354
0  -5.018429 -5.117212 0.038905  -0.999906 -0.013571 0.002126  0.235836 0.251534
0  -5.018429 -3.740890 -8.673116  -1.000000 0.000000 0.000000  0.205705 0.060810
cinderblock03
0  -5.018429 -5.071084 -10.977846  -1.000000 0.000000 0.000000  0.234826 0.010354
0  -5.018429 -3.740890 -8.673116  -1.000000 0.000000 0.000000  0.205705 0.060810
0  -5.018429 -3.319579 -8.944813  -1.000000 0.000000 0.000000  0.196482 0.054862
cinderblock03
0  -5.018429 -5.071084 -10.977846  -1.000000 0.000000 0.000000  0.234826 0.010354
0  -5.018429 -3.319579 -8.944813  -1.000000 0.000000 0.000000  0.196482 0.054862
0  -5.018429 3.319579 -8.944813  -1.000000 -0.000000 0.000000  0.051137 0.054862
cinderblock03
0  -5.018429 5.071084 -10.977846  -1.000000 -0.000000 0.000000  0.012792 0.010354
0  -5.018429 -5.071084 -10.977846  -1.000000 0.000000 0.000000  0.234826 0.010354
0  -5.018429 3.319579 -8.944813  -1.000000 -0.000000 0.000000  0.051137 0.054862
cinderblock03
0  -5.018429 5.071084 -10.977846  -1.000000 -0.000000 0.000000  0.012792 0.010354
0  -5.018429 3.319579 -8.944813  -1.000000 -0.000000 0.000000  0.051137 0.054862
0  -5.018429 3.740890 -8.673116  -1.000000 -0.000000 0.000000  0.041913 0.060810
cinderblock03
0  -5.018429 5.071084 -10.977846  -1.000000 -0.000000 0.000000  0.012792 0.010354
0  -5.018429 3.740890 -8.673116  -1.000000 -0.000000 0.000000  0.041913 0.060810
0  -5.018429 3.827497 -1.218925  -1.000000 -0.000000 0.000000  0.040017 0.223997
cinderblock03
0  -5.018429 5.117212 0.038905  -0.999906 0.013571 0.002124  0.011783 0.251534
0  -5.018429 5.071084 -10.977846  -1.000000 -0.000000 0.000000  0.012792 0.010354
0  -5.018429 3.827497 -1.218925  -1.000000 -0.000000 0.000000  0.040017 0.223997
cinderblock03
0  -5.018429 5.117212 0.038905  -0.999906 0.013571 0.002124  0.011783 0.251534
0  -5.018429 3.827497 -1.218925  -1.000000 -0.000000 0.000000  0.040017 0.223997
0  -5.018429 3.806223 1.305002  -0.999788 0.020364 0.003188  0.040483 0.279252
cinderblock03
0  -5.018429 3.827497 -1.218925  -1.000000 -0.000000 0.000000  0.040017 0.223997
0  -5.018429 3.331444 -0.760003  -1.000000 -0.000001 0.000000  0.050877 0.234044
0  -5.018429 3.806223 1.305002  -0.999788 0.020364 0.003188  0.040483 0.279252
cinderblock03
0  -5.018429 3.331444 -0.760003  -1.000000 -0.000001 0.000000  0.050877 0.234044
0  -5.018429 3.331444 0.704104  -1.000000 0.000001 0.000000  0.050877 0.266097
0  -5.018429 3.806223 1.305002  -0.999788 0.020364 0.003188  0.040483 0.279252
cinderblock03
0  -5.018429 3.331444 -0.760003  -1.000000 -0.000001 0.000000  0.050877 0.234044
0  -5.018429 -3.331444 -0.760003  -1.000000 0.000000 0.000000  0.196742 0.234044
0  -5.018429 3.331444 0.704104  -1.000000 0.000001 0.000000  0.050877 0.266097
cinderblock03
0  -5.018429 -3.331444 -0.760003  -1.000000 0.000000 0.000000  0.196742 0.234044
0  -5.018429 -3.331444 0.704104  -1.000000 -0.000000 0.000000  0.196742 0.266097
0  -5.018429 3.331444 0.704104  -1.000000 0.000001 0.000000  0.050877 0.266097
cinderblock03
0  -5.018429 -3.331444 -0.760003  -1.000000 0.000000 0.000000  0.196742 0.234044
0  -5.018429 -3.827497 -1.218925  -1.000000 -0.000000 0.000000  0.207601 0.223997
0  -5.018429 -3.331444 0.704104  -1.000000 -0.000000 0.000000  0.196742 0.266097
cinderblock03
0  -5.018429 -3.827497 -1.218925  -1.000000 -0.000000 0.000000  0.207601 0.223997
0  -5.018429 -5.117212 0.038905  -0.999906 -0.013571 0.002126  0.235836 0.251534
0  -5.018429 -3.331444 0.704104  -1.000000 -0.000000 0.000000  0.196742 0.266097
cinderblock03
0  -5.018429 -5.117212 0.038905  -0.999906 -0.013571 0.002126  0.235836 0.251534
0  -5.018429 -3.806223 1.305002  -0.999787 -0.020373 0.003185  0.207136 0.279252
0  -5.018429 -3.331444 0.704104  -1.000000 -0.000000 0.000000  0.196742 0.266097
cinderblock03
0  -5.018429 -5.117212 0.038905  -0.999906 -0.013571 0.002126  0.235836 0.251534
0  -4.900271 -5.170155 11.113308  -0.999190 -0.022271 0.033515  0.236995 0.493973
0  -5.018429 -3.806223 1.305002  -0.999787 -0.020373 0.003185  0.207136 0.279252
cinderblock03
0  -4.900271 -5.170155 11.113308  -0.999190 -0.022271 0.033515  0.236995 0.493973
0  -5.018428 -3.744887 8.802299  -0.999228 -0.033371 0.020702  0.205793 0.443383
0  -5.018429 -3.806223 1.305002  -0.999787 -0.020373 0.003185  0.207136 0.279252
cinderblock03
0  -4.900271 -5.170155 11.113308  -0.999190 -0.022271 0.033515  0.236995 0.493973
0  -5.018428 -3.321333 9.117415  -0.998806 -0.012991 0.047096  0.196520 0.450282
0  -5.018428 -3.744887 8.802299  -0.999228 -0.033371 0.020702  0.205793 0.443383
cinderblock03
0  -4.900271 -5.170155 11.113308  -0.999190 -0.022271 0.033515  0.236995 0.493973
0  -4.900271 5.170155 11.113308  -0.999189 0.022275 0.033527  0.010624 0.493973
0  -5.018428 -3.321333 9.117415  -0.998806 -0.012991 0.047096  0.196520 0.450282
cinderblock03
0  -4.900271 5.170155 11.113308  -0.999189 0.022275 0.033527  0.010624 0.493973
0  -5.018428 3.321333 9.117415  -0.998808 0.013061 0.047030  0.051098 0.450282
0  -5.018428 -3.321333 9.117415  -0.998806 -0.012991 0.047096  0.196520 0.450282
cinderblock03
0  -4.900271 5.170155 11.113308  -0.999189 0.022275 0.033527  0.010624 0.493973
0  -5.018428 3.744887 8.802299  -0.999228 0.033396 0.020696  0.041826 0.443383
0  -5.018428 3.321333 9.117415  -0.998808 0.013061 0.047030  0.051098 0.450282
cinderblock03
0  -4.900271 5.170155 11.113308  -0.999189 0.022275 0.033527  0.010624 0.493973
0  -5.018429 5.117212 0.038905  -0.999906 0.013571 0.002124  0.011783 0.251534
0  -5.018428 3.744887 8.802299  -0.999228 0.033396 0.020696  0.041826 0.443383
cinderblock03
0  -5.018429 5.117212 0.038905  -0.999906 0.013571 0.002124  0.011783 0.251534
0  -5.018429 3.806223 1.305002  -0.999788 0.020364 0.003188  0.040483 0.279252
0  -5.018428 3.744887 8.802299  -0.999228 0.033396 0.020696  0.041826 0.443383
cinderblock03
0  -4.670923 -3.331444 1.051611  -0.000000 0.910434 0.413656  0.731428 0.005890
0  -4.670923 -3.556256 1.546409  -0.000000 0.910433 0.413656  0.722934 0.005890
0  4.670923 -3.331444 1.051611  -0.000000 0.910433 0.413656  0.731428 0.223855
cinderblock03
0  -4.670923 -3.556256 1.546409  -0.000000 0.910433 0.413656  0.722934 0.005890
0  4.670923 -3.556256 1.546409  -0.000000 0.910433 0.413656  0.722934 0.223855
0  4.670923 -3.331444 1.051611  -0.000000 0.910433 0.413656  0.731428 0.223855
cinderblock03
0  4.751014 -5.336799 -10.988766  0.000000 -1.000000 0.000000  0.457333 0.010207
0  4.751015 -5.336799 11.076262  0.000000 -1.000000 -0.000000  0.457333 0.492838
0  -4.751015 -5.336799 -10.988766  0.000000 -1.000000 -0.000000  0.240741 0.010207
cinderblock03
0  4.751015 -5.336799 11.076262  0.000000 -1.000000 -0.000000  0.457333 0.492838
0  -4.751014 -5.336799 11.076262  0.000000 -1.000000 -0.000000  0.240741 0.492838
0  -4.751015 -5.336799 -10.988766  0.000000 -1.000000 -0.000000  0.240741 0.010207
cinderblock03
0  -4.670923 -3.556256 1.546409  -0.000000 1.000000 0.000000  0.722934 0.005890
0  -4.670923 -3.556256 8.510445  -0.000000 1.000000 0.000000  0.592633 0.005890
0  4.670923 -3.556256 1.546409  -0.000000 1.000000 0.000000  0.722934 0.223855
cinderblock03
0  -4.670923 -3.556256 8.510445  -0.000000 1.000000 0.000000  0.592633 0.005890
0  4.670924 -3.556256 8.510445  -0.000000 1.000000 0.000000  0.592633 0.223855
0  4.670923 -3.556256 1.546409  -0.000000 1.000000 0.000000  0.722934 0.223855
cinderblock03
0  4.803932 5.070186 -11.192342  0.000000 0.000000 -1.000000  0.694202 0.492341
0  4.803932 -5.070186 -11.192342  0.000000 0.000000 -1.000000  0.694202 0.730205
0  -4.803933 5.070186 -11.192342  0.000000 0.000000 -1.000000  0.468828 0.492341
cinderblock03
0  4.803932 -5.070186 -11.192342  0.000000 0.000000 -1.000000  0.694202 0.730205
0  -4.803933 -5.070186 -11.192342  0.000000 0.000000 -1.000000  0.468828 0.730205
0  -4.803933 5.070186 -11.192342  0.000000 0.000000 -1.000000  0.468828 0.492341
cinderblock03
0  -4.670923 -3.556256 8.510445  0.000000 0.741295 -0.671179  0.592633 0.005890
0  -4.670923 -3.321333 8.769909  -0.000000 0.741295 -0.671179  0.586856 0.005890
0  4.670924 -3.556256 8.510445  -0.000000 0.741294 -0.671180  0.592633 0.223855
cinderblock03
0  -4.670923 -3.321333 8.769909  -0.000000 0.741295 -0.671179  0.586856 0.005890
0  4.670924 -3.321333 8.769909  -0.000000 0.741294 -0.671180  0.586856 0.223855
0  4.670924 -3.556256 8.510445  -0.000000 0.741294 -0.671180  0.592633 0.223855
cinderblock03
0  4.755765 -5.170838 11.256280  0.000000 0.000000 1.000000  0.694304 0.742274
0  4.755765 5.170838 11.256280  0.000000 0.000000 1.000000  0.694304 0.988497
0  -4.755764 -5.170838 11.256280  0.000000 0.000000 1.000000  0.467845 0.742274
cinderblock03
0  4.755765 5.170838 11.256280  0.000000 0.000000 1.000000  0.694304 0.988497
0  -4.755764 5.170838 11.256280  0.000000 0.000000 1.000000  0.467845 0.988497
0  -4.755764 -5.170838 11.256280  0.000000 0.000000 1.000000  0.467845 0.742274
cinderblock03
0  4.803932 5.070186 -11.192342  0.474644 0.430277 -0.767838  0.240162 0.500268
0  -4.803933 5.070186 -11.192342  -0.474647 0.430286 -0.767831  0.450942 0.500268
0  4.751014 5.336799 -10.988766  0.471476 0.714387 -0.517070  0.241323 0.505020
cinderblock03
0  -4.803933 5.070186 -11.192342  -0.474647 0.430286 -0.767831  0.450942 0.500268
0  -4.751015 5.336799 -10.988766  -0.471482 0.714378 -0.517078  0.449782 0.505020
0  4.751014 5.336799 -10.988766  0.471476 0.714387 -0.517070  0.241323 0.505020
cinderblock03
0  4.755765 5.170838 11.256280  0.468406 0.504901 0.725032  0.241219 0.988180
0  4.751015 5.336799 11.076262  0.451461 0.768498 0.453425  0.241323 0.984418
0  -4.755764 5.170838 11.256280  -0.468429 0.504940 0.724989  0.449886 0.988180
cinderblock03
0  4.751015 5.336799 11.076262  0.451461 0.768498 0.453425  0.241323 0.984418
0  -4.751014 5.336799 11.076262  -0.451430 0.768548 0.453372  0.449782 0.984418
0  -4.755764 5.170838 11.256280  -0.468429 0.504940 0.724989  0.449886 0.988180
cinderblock03
0  -4.670923 3.578717 -1.461555  0.000000 -1.000000 0.000000  0.596855 0.228215
0  -4.670924 3.578717 -8.365771  0.000000 -1.000000 0.000000  0.725545 0.228215
0  4.670923 3.578717 -1.461555  0.000000 -1.000000 0.000000  0.596855 0.449123
cinderblock03
0  -4.670924 3.578717 -8.365771  0.000000 -1.000000 0.000000  0.725545 0.228215
0  4.670923 3.578717 -8.365771  0.000000 -1.000000 0.000000  0.725545 0.449123
0  4.670923 3.578717 -1.461555  0.000000 -1.000000 0.000000  0.596855 0.449123
cinderblock03
0  -4.670923 3.556256 1.546409  0.000000 -0.910433 0.413656  0.859720 0.005890
0  -4.670923 3.331444 1.051611  0.000000 -0.910433 0.413656  0.851227 0.005890
0  4.670923 3.556256 1.546409  0.000000 -0.910433 0.413656  0.859720 0.223855
cinderblock03
0  -4.670923 3.331444 1.051611  0.000000 -0.910433 0.413656  0.851227 0.005890
0  4.670923 3.331444 1.051611  0.000000 -0.910434 0.413656  0.851227 0.223855
0  4.670923 3.556256 1.546409  0.000000 -0.910433 0.413656  0.859720 0.223855
cinderblock03
0  4.751015 5.336799 11.076262  0.000000 1.000000 0.000000  0.241323 0.984418
0  4.751014 5.336799 -10.988766  0.000000 1.000000 -0.000000  0.241323 0.505020
0  -4.751014 5.336799 11.076262  0.000000 1.000000 -0.000000  0.449782 0.984418
cinderblock03
0  4.751014 5.336799 -10.988766  0.000000 1.000000 -0.000000  0.241323 0.505020
0  -4.751015 5.336799 -10.988766  0.000000 1.000000 -0.000000  0.449782 0.505020
0  -4.751014 5.336799 11.076262  0.000000 1.000000 -0.000000  0.449782 0.984418
cinderblock03
0  -4.670923 3.556256 8.510445  0.000000 -1.000000 0.000000  0.990021 0.005890
0  -4.670923 3.556256 1.546409  0.000000 -1.000000 0.000000  0.859720 0.005890
0  4.670924 3.556256 8.510445  0.000000 -1.000000 0.000000  0.990021 0.223855
cinderblock03
0  -4.670923 3.556256 1.546409  0.000000 -1.000000 0.000000  0.859720 0.005890
0  4.670923 3.556256 1.546409  0.000000 -1.000000 0.000000  0.859720 0.223855
0  4.670924 3.556256 8.510445  0.000000 -1.000000 0.000000  0.990021 0.223855
cinderblock03
0  -4.670923 3.321333 8.769909  0.000000 -0.405521 -0.914086  0.995799 0.005890
0  -4.670923 3.556256 8.510445  0.000000 -0.741294 -0.671180  0.990021 0.005890
0  4.670924 3.321333 8.769909  -0.000000 -0.405523 -0.914085  0.995799 0.223855
cinderblock03
0  -4.670923 3.556256 8.510445  0.000000 -0.741294 -0.671180  0.990021 0.005890
0  4.670924 3.556256 8.510445  0.000000 -0.741295 -0.671179  0.990021 0.223855
0  4.670924 3.321333 8.769909  -0.000000 -0.405523 -0.914085  0.995799 0.223855
cinderblock03
0  -4.803933 5.070186 -11.192342  -0.474703 0.430210 -0.767839  0.012812 0.005653
0  -4.803933 -5.070186 -11.192342  -0.474693 -0.430257 -0.767819  0.234806 0.005653
0  -5.018429 -5.071084 -10.977846  -0.731278 -0.483711 -0.480891  0.234826 0.010354
cinderblock03
0  -5.018429 -5.071084 -10.977846  -0.731278 -0.483711 -0.480891  0.234826 0.010354
0  -4.803933 -5.070186 -11.192342  -0.474693 -0.430257 -0.767819  0.234806 0.005653
0  -4.751015 -5.336799 -10.988766  -0.471515 -0.714388 -0.517033  0.240643 0.010109
cinderblock03
0  -5.018429 -5.071084 -10.977846  -0.731278 -0.483711 -0.480891  0.234826 0.010354
0  -4.751015 -5.336799 -10.988766  -0.471515 -0.714388 -0.517033  0.240643 0.010109
0  -4.751014 -5.336799 11.076262  -0.451497 -0.768517 0.453356  0.240643 0.493159
cinderblock03
0  -5.018429 -5.117212 0.038905  -0.675339 -0.737508 -0.000036  0.235836 0.251534
0  -5.018429 -5.071084 -10.977846  -0.731278 -0.483711 -0.480891  0.234826 0.010354
0  -4.751014 -5.336799 11.076262  -0.451497 -0.768517 0.453356  0.240643 0.493159
cinderblock03
0  -4.900271 -5.170155 11.113308  -0.721067 -0.506346 0.472944  0.236995 0.493973
0  -5.018429 -5.117212 0.038905  -0.675339 -0.737508 -0.000036  0.235836 0.251534
0  -4.751014 -5.336799 11.076262  -0.451497 -0.768517 0.453356  0.240643 0.493159
cinderblock03
0  -4.755764 -5.170838 11.256280  -0.468498 -0.504856 0.725004  0.237010 0.497100
0  -4.900271 -5.170155 11.113308  -0.721067 -0.506346 0.472944  0.236995 0.493973
0  -4.751014 -5.336799 11.076262  -0.451497 -0.768517 0.453356  0.240643 0.493159
cinderblock03
0  -4.900271 5.170155 11.113308  -0.721081 0.506330 0.472939  0.010624 0.493973
0  -4.900271 -5.170155 11.113308  -0.721067 -0.506346 0.472944  0.236995 0.493973
0  -4.755764 -5.170838 11.256280  -0.468498 -0.504856 0.725004  0.237010 0.497100
cinderblock03
0  -4.755764 5.170838 11.256280  -0.468526 0.504863 0.724980  0.010609 0.497100
0  -4.900271 5.170155 11.113308  -0.721081 0.506330 0.472939  0.010624 0.493973
0  -4.755764 -5.170838 11.256280  -0.468498 -0.504856 0.725004  0.237010 0.497100
cinderblock03
0  -4.751014 5.336799 11.076262  -0.451509 0.768517 0.453345  0.006975 0.493159
0  -4.900271 5.170155 11.113308  -0.721081 0.506330 0.472939  0.010624 0.493973
0  -4.755764 5.170838 11.256280  -0.468526 0.504863 0.724980  0.010609 0.497100
cinderblock03
0  -4.900271 5.170155 11.113308  -0.721081 0.506330 0.472939  0.010624 0.493973
0  -4.751014 5.336799 11.076262  -0.451509 0.768517 0.453345  0.006975 0.493159
0  -4.751015 5.336799 -10.988766  -0.471506 0.714399 -0.517027  0.006975 0.010109
cinderblock03
0  -5.018429 5.117212 0.038905  -0.675373 0.737476 -0.000034  0.011783 0.251534
0  -4.900271 5.170155 11.113308  -0.721081 0.506330 0.472939  0.010624 0.493973
0  -4.751015 5.336799 -10.988766  -0.471506 0.714399 -0.517027  0.006975 0.010109
cinderblock03
0  -5.018429 5.071084 -10.977846  -0.731284 0.483706 -0.480887  0.012792 0.010354
0  -5.018429 5.117212 0.038905  -0.675373 0.737476 -0.000034  0.011783 0.251534
0  -4.751015 5.336799 -10.988766  -0.471506 0.714399 -0.517027  0.006975 0.010109
cinderblock03
0  -4.803933 5.070186 -11.192342  -0.474703 0.430210 -0.767839  0.012812 0.005653
0  -5.018429 5.071084 -10.977846  -0.731284 0.483706 -0.480887  0.012792 0.010354
0  -4.751015 5.336799 -10.988766  -0.471506 0.714399 -0.517027  0.006975 0.010109
cinderblock03
0  -5.018429 5.071084 -10.977846  -0.731284 0.483706 -0.480887  0.012792 0.010354
0  -4.803933 5.070186 -11.192342  -0.474703 0.430210 -0.767839  0.012812 0.005653
0  -5.018429 -5.071084 -10.977846  -0.731278 -0.483711 -0.480891  0.234826 0.010354
cinderblock03
0  4.755765 5.170838 11.256280  0.468466 0.504931 0.724972  0.237403 0.989452
0  4.755765 -5.170838 11.256280  0.468525 -0.504864 0.724980  0.012744 0.989516
0  4.900272 -5.170155 11.113308  0.721080 -0.506330 0.472941  0.012813 0.986453
cinderblock03
0  4.900272 -5.170155 11.113308  0.721080 -0.506330 0.472941  0.012813 0.986453
0  4.755765 -5.170838 11.256280  0.468525 -0.504864 0.724980  0.012744 0.989516
0  4.751015 -5.336799 11.076262  0.451496 -0.768517 0.453357  0.009137 0.985593
cinderblock03
0  5.018429 -5.117212 0.038905  0.675340 -0.737507 -0.000036  0.014008 0.745209
0  4.900272 -5.170155 11.113308  0.721080 -0.506330 0.472941  0.012813 0.986453
0  4.751015 -5.336799 11.076262  0.451496 -0.768517 0.453357  0.009137 0.985593
cinderblock03
0  5.018428 -5.071084 -10.977846  0.731282 -0.483710 -0.480886  0.015010 0.505179
0  5.018429 -5.117212 0.038905  0.675340 -0.737507 -0.000036  0.014008 0.745209
0  4.751015 -5.336799 11.076262  0.451496 -0.768517 0.453357  0.009137 0.985593
cinderblock03
0  4.751014 -5.336799 -10.988766  0.471507 -0.714399 -0.517025  0.009137 0.504846
0  5.018428 -5.071084 -10.977846  0.731282 -0.483710 -0.480886  0.015010 0.505179
0  4.751015 -5.336799 11.076262  0.451496 -0.768517 0.453357  0.009137 0.985593
cinderblock03
0  4.803932 -5.070186 -11.192342  0.474702 -0.430210 -0.767839  0.014949 0.500428
0  5.018428 -5.071084 -10.977846  0.731282 -0.483710 -0.480886  0.015010 0.505179
0  4.751014 -5.336799 -10.988766  0.471507 -0.714399 -0.517025  0.009137 0.504846
cinderblock03
0  5.018428 5.071084 -10.977846  0.731253 0.483733 -0.480907  0.235335 0.505116
0  5.018428 -5.071084 -10.977846  0.731282 -0.483710 -0.480886  0.015010 0.505179
0  4.803932 -5.070186 -11.192342  0.474702 -0.430210 -0.767839  0.014949 0.500428
cinderblock03
0  4.803932 5.070186 -11.192342  0.474694 0.430256 -0.767818  0.235235 0.500365
0  5.018428 5.071084 -10.977846  0.731253 0.483733 -0.480907  0.235335 0.505116
0  4.803932 -5.070186 -11.192342  0.474702 -0.430210 -0.767839  0.014949 0.500428
cinderblock03
0  5.018428 5.071084 -10.977846  0.731253 0.483733 -0.480907  0.235335 0.505116
0  4.803932 5.070186 -11.192342  0.474694 0.430256 -0.767818  0.235235 0.500365
0  4.751014 5.336799 -10.988766  0.471527 0.714414 -0.516986  0.241007 0.504780
cinderblock03
0  5.018428 5.071084 -10.977846  0.731253 0.483733 -0.480907  0.235335 0.505116
0  4.751014 5.336799 -10.988766  0.471527 0.714414 -0.516986  0.241007 0.504780
0  5.018429 5.117212 0.038905  0.675387 0.737463 -0.000037  0.236337 0.745146
cinderblock03
0  4.751014 5.336799 -10.988766  0.471527 0.714414 -0.516986  0.241007 0.504780
0  4.751015 5.336799 11.076262  0.451407 0.768562 0.453370  0.241007 0.985527
0  5.018429 5.117212 0.038905  0.675387 0.737463 -0.000037  0.236337 0.745146
cinderblock03
0  4.751015 5.336799 11.076262  0.451407 0.768562 0.453370  0.241007 0.985527
0  4.900272 5.170155 11.113308  0.721058 0.506359 0.472944  0.237443 0.986389
0  5.018429 5.117212 0.038905  0.675387 0.737463 -0.000037  0.236337 0.745146
cinderblock03
0  4.900272 5.170155 11.113308  0.721070 0.506367 0.472917  0.237443 0.986389
0  4.755765 5.170838 11.256280  0.468466 0.504931 0.724972  0.237403 0.989452
0  4.900272 -5.170155 11.113308  0.721080 -0.506330 0.472941  0.012813 0.986453
cinderblock03
0  -4.670924 3.578717 -8.365771  0.000000 -0.666274 0.745707  0.725545 0.228215
0  -4.670924 3.319579 -8.597306  0.000000 -0.356579 0.934265  0.731360 0.228215
0  4.670923 3.578717 -8.365771  0.000000 -0.666275 0.745706  0.725545 0.449123
cinderblock03
0  -4.670924 3.319579 -8.597306  0.000000 -0.356579 0.934265  0.731360 0.228215
0  4.670923 3.319579 -8.597306  0.000000 -0.356572 0.934268  0.731360 0.449123
0  4.670923 3.578717 -8.365771  0.000000 -0.666275 0.745706  0.725545 0.449123
cinderblock03
0  -4.670924 3.319579 -8.597306  0.000000 -0.356579 0.934265  0.731360 0.228215
0  -4.670924 -3.319579 -8.597306  0.000000 0.000000 1.000000  0.852998 0.228215
0  4.670923 3.319579 -8.597306  0.000000 -0.356572 0.934268  0.731360 0.449123
cinderblock03
0  -4.670924 -3.319579 -8.597306  0.000000 0.000000 1.000000  0.852998 0.228215
0  4.670923 -3.319579 -8.597306  0.000000 0.000000 1.000000  0.852998 0.449123
0  4.670923 3.319579 -8.597306  0.000000 -0.356572 0.934268  0.731360 0.449123
cinderblock03
0  4.670924 3.321333 8.769909  0.000000 -0.405428 -0.914127  0.467310 0.223855
0  4.670924 -3.321333 8.769909  0.000000 0.000000 -1.000000  0.586856 0.223855
0  -4.670923 3.321333 8.769909  0.000000 -0.405428 -0.914127  0.467310 0.005890
cinderblock03
0  4.670924 -3.321333 8.769909  0.000000 0.000000 -1.000000  0.586856 0.223855
0  -4.670923 -3.321333 8.769909  0.000000 0.000000 -1.000000  0.586856 0.005890
0  -4.670923 3.321333 8.769909  0.000000 -0.405428 -0.914127  0.467310 0.005890
cinderblock03
0  -4.670924 -3.578717 -8.365771  -0.000000 1.000000 0.000000  0.858813 0.228215
0  -4.670923 -3.578717 -1.461555  -0.000000 1.000000 0.000000  0.987503 0.228215
0  4.670923 -3.578717 -8.365771  -0.000000 1.000000 0.000000  0.858813 0.449123
cinderblock03
0  -4.670923 -3.578717 -1.461555  -0.000000 1.000000 0.000000  0.987503 0.228215
0  4.670923 -3.578717 -1.461555  -0.000000 1.000000 0.000000  0.987503 0.449123
0  4.670923 -3.578717 -8.365771  -0.000000 1.000000 0.000000  0.858813 0.449123
cinderblock03
0  -4.670923 -3.578717 -1.461555  -0.000000 0.819840 -0.572593  0.987503 0.228215
0  -4.670923 -3.331444 -1.107510  -0.000000 0.819840 -0.572593  0.994657 0.228215
0  4.670923 -3.578717 -1.461555  -0.000000 0.819839 -0.572594  0.987503 0.449123
cinderblock03
0  -4.670923 -3.331444 -1.107510  -0.000000 0.819840 -0.572593  0.994657 0.228215
0  4.670923 -3.331444 -1.107510  -0.000000 0.819839 -0.572594  0.994657 0.449123
0  4.670923 -3.578717 -1.461555  -0.000000 0.819839 -0.572594  0.987503 0.449123
cinderblock03
0  -4.670923 3.331444 1.051611  0.000000 0.000000 1.000000  0.851227 0.005890
0  -4.670923 -3.331444 1.051611  0.000000 0.000000 1.000000  0.731428 0.005890
0  4.670923 3.331444 1.051611  0.000000 0.000000 1.000000  0.851227 0.223855
cinderblock03
0  -4.670923 -3.331444 1.051611  0.000000 0.000000 1.000000  0.731428 0.005890
0  4.670923 -3.331444 1.051611  0.000000 0.000000 1.000000  0.731428 0.223855
0  4.670923 3.331444 1.051611  0.000000 0.000000 1.000000  0.851227 0.223855
cinderblock03
0  4.900272 5.170155 11.113308  0.720980 0.506442 0.472974  0.237444 0.985926
0  4.751015 5.336799 11.076262  0.451496 0.768464 0.453447  0.240859 0.985981
0  4.755765 5.170838 11.256280  0.468496 0.504983 0.724916  0.237786 0.989261
end
