version 1
nodes
0 "Implicit" -1
end
skeleton
time 0
0  0.000000 0.000000 0.000000  0.000000 -0.000000 0.000000
end
triangles
ConsolePanelLoadingBay
0  -7.566072 -2.483757 41.016247  0.028979 -0.998804 -0.039386  0.603896 0.581402 0
0  -5.349689 -2.342274 40.988312  0.028975 -0.998804 -0.039384  0.693953 0.578898 0
0  -6.430955 -2.251861 46.544868  0.064039 -0.997535 0.028693  0.651052 0.737698 0
ConsolePanelLoadingBay
0  -3.467073 -3.837162 36.946724  0.978214 -0.055737 0.199977  0.881237 0.399951 0
0  -3.759856 1.674662 39.238358  1.000000 -0.000043 0.000092  0.862958 0.533925 0
0  -3.759856 -3.763286 37.786472  1.000000 -0.000059 0.000089  0.863213 0.399951 0
ConsolePanelLoadingBay
0  -3.467073 -3.837162 36.946724  0.978214 -0.055737 0.199977  0.881237 0.399951 0
0  -3.355780 2.344391 38.415546  0.978201 -0.055755 0.200034  0.880982 0.533925 0
0  -3.759856 1.674662 39.238358  1.000000 -0.000043 0.000092  0.862958 0.533925 0
ConsolePanelLoadingBay
0  1.304161 -0.398880 37.180763  0.110373 -0.675682 0.728884  0.545544 0.425260 0
0  2.702547 1.862115 39.064972  0.110441 -0.675701 0.728856  0.555528 0.442047 0
0  1.610709 1.943793 39.216637  0.026523 -0.649596 0.759817  0.548040 0.442047 0
ConsolePanelLoadingBay
0  1.304161 -0.398880 37.180763  0.110373 -0.675682 0.728884  0.545544 0.425260 0
0  2.650461 -0.540496 37.056435  0.110387 -0.675697 0.728868  0.555528 0.425260 0
0  2.702547 1.862115 39.064972  0.110441 -0.675701 0.728856  0.555528 0.442047 0
ConsolePanelLoadingBay
0  22.675495 -9.762594 36.230400  0.999761 0.009344 -0.019783  0.908078 0.763505 0
0  22.792019 -4.292605 44.703278  0.924512 0.286013 0.251942  0.977124 0.555995 0
0  22.792019 -11.400392 38.441818  1.000000 -0.000000 0.000003  0.977124 0.751876 0
ConsolePanelLoadingBay
0  22.675495 -9.762594 36.230400  0.999761 0.009344 -0.019783  0.908078 0.763505 0
0  22.792019 -2.486565 42.653130  0.924519 0.285992 0.251940  0.908078 0.555995 0
0  22.792019 -4.292605 44.703278  0.924512 0.286013 0.251942  0.977124 0.555995 0
ConsolePanelLoadingBay
0  22.792019 -2.486565 42.653130  0.924519 0.285992 0.251940  0.908078 0.555995 0
0  21.195429 -3.086693 45.765602  0.384206 0.692774 0.610287  0.977124 0.508612 0
0  22.792019 -4.292605 44.703278  0.924512 0.286013 0.251942  0.977124 0.555995 0
ConsolePanelLoadingBay
0  22.792019 -2.486565 42.653130  0.924519 0.285992 0.251940  0.908078 0.555995 0
0  21.195429 -1.280653 43.715454  0.384206 0.692774 0.610286  0.908078 0.508612 0
0  21.195429 -3.086693 45.765602  0.384206 0.692774 0.610287  0.977124 0.508612 0
ConsolePanelLoadingBay
0  21.195429 -1.280653 43.715454  0.384206 0.692774 0.610286  0.908078 0.508612 0
0  11.130994 -3.086694 45.765602  -0.382483 0.693311 0.610759  0.977124 0.273881 0
0  21.195429 -3.086693 45.765602  0.384206 0.692774 0.610287  0.977124 0.508612 0
ConsolePanelLoadingBay
0  21.195429 -1.280653 43.715454  0.384206 0.692774 0.610286  0.908078 0.508612 0
0  11.130994 -1.280653 43.715454  -0.382483 0.693311 0.610759  0.908078 0.273881 0
0  11.130994 -3.086694 45.765602  -0.382483 0.693311 0.610759  0.977124 0.273881 0
ConsolePanelLoadingBay
0  11.130994 -1.280653 43.715454  -0.382483 0.693311 0.610759  0.908078 0.273881 0
0  9.522439 -4.292605 44.703278  -0.923789 0.287316 0.253106  0.977124 0.226310 0
0  11.130994 -3.086694 45.765602  -0.382483 0.693311 0.610759  0.977124 0.273881 0
ConsolePanelLoadingBay
0  11.130994 -1.280653 43.715454  -0.382483 0.693311 0.610759  0.908078 0.273881 0
0  9.522439 -2.486566 42.653130  -0.923794 0.287316 0.253089  0.908078 0.226310 0
0  9.522439 -4.292605 44.703278  -0.923789 0.287316 0.253106  0.977124 0.226310 0
ConsolePanelLoadingBay
0  9.522439 -2.486566 42.653130  -0.923794 0.287316 0.253089  0.908078 0.226310 0
0  9.522440 -11.400393 38.441818  -1.000000 0.000001 -0.000001  0.977124 0.030429 0
0  9.522439 -4.292605 44.703278  -0.923789 0.287316 0.253106  0.977124 0.226310 0
ConsolePanelLoadingBay
0  9.522439 -2.486566 42.653130  -0.923794 0.287316 0.253089  0.908078 0.226310 0
0  9.650929 -9.779115 36.213051  -0.999709 0.010300 -0.021807  0.908078 0.018652 0
0  9.522440 -11.400393 38.441818  -1.000000 0.000001 -0.000001  0.977124 0.030429 0
ConsolePanelLoadingBay
0  6.685173 4.145754 39.894901  -1.000000 -0.000396 -0.000345  0.304494 0.923804 0
0  6.693663 -12.171866 34.022022  -0.733619 -0.628594 0.258210  0.430836 0.995160 0
0  6.685173 0.013247 44.638161  -0.923891 -0.251727 0.288199  0.304538 0.995431 0
ConsolePanelLoadingBay
0  6.685173 4.145754 39.894901  -1.000000 -0.000396 -0.000345  0.304494 0.923804 0
0  6.693663 -8.039357 29.278767  -1.000000 -0.000396 -0.000345  0.430793 0.923533 0
0  6.693663 -12.171866 34.022022  -0.733619 -0.628594 0.258210  0.430836 0.995160 0
ConsolePanelLoadingBay
0  6.693663 -8.039357 29.278767  0.000000 -0.753980 -0.656897  0.430793 0.923533 0
0  31.707117 -12.171865 34.022022  0.000000 -0.753980 -0.656897  0.650346 0.995160 0
0  6.693663 -12.171866 34.022022  0.000000 -0.753981 -0.656897  0.430836 0.995160 0
ConsolePanelLoadingBay
0  6.693663 -8.039357 29.278767  0.000000 -0.753980 -0.656897  0.430793 0.923533 0
0  31.707117 -8.039356 29.278767  0.000000 -0.753980 -0.656897  0.650389 0.923533 0
0  31.707117 -12.171865 34.022022  0.000000 -0.753980 -0.656897  0.650346 0.995160 0
ConsolePanelLoadingBay
0  31.707117 -8.039356 29.278767  1.000000 0.000000 0.000000  0.650389 0.923533 0
0  31.707117 0.013248 44.638161  1.000000 0.000000 0.000000  0.776610 0.995431 0
0  31.707117 -12.171865 34.022022  1.000000 0.000000 0.000000  0.650346 0.995160 0
ConsolePanelLoadingBay
0  31.707117 -8.039356 29.278767  1.000000 0.000000 0.000000  0.650389 0.923533 0
0  31.707117 4.145755 39.894901  1.000000 0.000000 0.000000  0.776654 0.923804 0
0  31.707117 0.013248 44.638161  1.000000 0.000000 0.000000  0.776610 0.995431 0
ConsolePanelLoadingBay
0  31.707117 4.145755 39.894901  -0.000000 0.753981 0.656897  0.776654 0.923804 0
0  6.685173 0.013247 44.638161  -0.000000 0.753981 0.656897  0.996241 0.995431 0
0  31.707117 0.013248 44.638161  0.000000 0.753981 0.656897  0.776610 0.995431 0
ConsolePanelLoadingBay
0  31.707117 4.145755 39.894901  -0.000000 0.753981 0.656897  0.776654 0.923804 0
0  6.685173 4.145754 39.894901  -0.000000 0.753981 0.656897  0.996198 0.923804 0
0  6.685173 0.013247 44.638161  -0.000000 0.753981 0.656897  0.996241 0.995431 0
ConsolePanelLoadingBay
0  -8.111421 -2.667779 39.909000  0.073783 -0.991175 0.110130  0.602518 0.547746 0
0  -5.349689 -2.342274 40.988312  0.040240 -0.992460 0.115777  0.693953 0.578898 0
0  -7.566072 -2.483757 41.016247  0.040263 -0.992457 0.115789  0.603896 0.581402 0
ConsolePanelLoadingBay
0  -8.111421 -2.667779 39.909000  0.073783 -0.991175 0.110130  0.602518 0.547746 0
0  -4.717624 -2.383467 40.010620  0.073780 -0.991175 0.110132  0.690502 0.547030 0
0  -5.349689 -2.342274 40.988312  0.040240 -0.992460 0.115777  0.693953 0.578898 0
ConsolePanelLoadingBay
0  -4.717624 -2.383467 40.010620  0.725778 0.600176 0.336206  0.690502 0.547030 0
0  -7.077400 -0.412212 41.585800  0.545323 0.747441 0.379415  0.814904 0.581402 0
0  -5.349689 -2.342274 40.988312  0.736034 0.623202 0.264336  0.693953 0.578898 0
ConsolePanelLoadingBay
0  -4.717624 -2.383467 40.010620  0.725778 0.600176 0.336206  0.690502 0.547030 0
0  -7.407514 0.305409 40.704109  0.725784 0.600184 0.336179  0.812571 0.547746 0
0  -7.077400 -0.412212 41.585800  0.545323 0.747441 0.379415  0.814904 0.581402 0
ConsolePanelLoadingBay
0  -7.407514 0.305409 40.704109  -0.900804 0.098536 0.422898  0.530399 0.547746 0
0  -7.566072 -2.483757 41.016247  -0.935330 0.129779 0.329113  0.603896 0.581402 0
0  -7.077400 -0.412212 41.585800  -0.850392 0.283101 0.443494  0.532731 0.581402 0
ConsolePanelLoadingBay
0  -7.407514 0.305409 40.704109  -0.900804 0.098536 0.422898  0.530399 0.547746 0
0  -8.111421 -2.667779 39.909000  -0.900791 0.098538 0.422925  0.602518 0.547746 0
0  -7.566072 -2.483757 41.016247  -0.935330 0.129779 0.329113  0.603896 0.581402 0
ConsolePanelLoadingBay
0  1.493096 -6.606443 31.974907  0.046528 -0.618887 0.784101  0.545997 0.425696 0
0  2.702547 -4.280208 33.739223  0.046530 -0.618883 0.784104  0.555289 0.441320 0
0  1.354105 -4.280208 33.739223  0.046527 -0.618889 0.784100  0.545997 0.441320 0
ConsolePanelLoadingBay
0  1.493096 -6.606443 31.974907  0.046539 -0.618894 0.784095  0.545997 0.425696 0
0  2.642480 -6.733354 31.726456  0.046542 -0.618889 0.784098  0.555289 0.425696 0
0  2.702547 -4.280208 33.739223  0.046542 -0.618890 0.784098  0.555289 0.441320 0
ConsolePanelLoadingBay
0  -21.344286 -3.958678 32.680065  0.037581 -0.638676 0.768558  0.133523 0.676190 0
0  -20.009768 -2.850328 33.535851  0.037356 -0.638515 0.768702  0.150455 0.691410 0
0  -21.424028 -2.898130 33.557533  0.037468 -0.638594 0.768632  0.133523 0.691410 0
ConsolePanelLoadingBay
0  -21.344286 -3.958678 32.680065  0.037581 -0.638676 0.768558  0.133523 0.676190 0
0  -20.026546 -3.981009 32.589741  0.037469 -0.638597 0.768629  0.150455 0.676190 0
0  -20.009768 -2.850328 33.535851  0.037356 -0.638515 0.768702  0.150455 0.691410 0
ConsolePanelLoadingBay
0  -18.204216 -3.948656 32.645805  0.024571 -0.648317 0.760974  0.175290 0.676190 0
0  -16.789511 -2.850328 33.535851  0.024773 -0.648468 0.760839  0.192221 0.691410 0
0  -18.203772 -2.898130 33.557533  0.024608 -0.648343 0.760951  0.175290 0.691410 0
ConsolePanelLoadingBay
0  -18.204216 -3.948656 32.645805  0.024571 -0.648317 0.760974  0.175290 0.676190 0
0  -16.806290 -3.981009 32.589741  0.024595 -0.648337 0.760956  0.192221 0.676190 0
0  -16.789511 -2.850328 33.535851  0.024773 -0.648468 0.760839  0.192221 0.691410 0
ConsolePanelLoadingBay
0  -13.475919 -5.286185 31.454643  -0.030923 -0.633553 0.773081  0.235877 0.655809 0
0  -12.084052 -4.188476 32.409912  -0.030759 -0.633678 0.772985  0.252808 0.671030 0
0  -13.492697 -4.155506 32.400753  -0.030805 -0.633643 0.773012  0.235877 0.671030 0
ConsolePanelLoadingBay
0  -13.475919 -5.286185 31.454643  -0.030923 -0.633553 0.773081  0.235877 0.655809 0
0  -12.156201 -5.264256 31.545204  -0.030808 -0.633640 0.773014  0.252808 0.655809 0
0  -12.084052 -4.188476 32.409912  -0.030759 -0.633678 0.772985  0.252808 0.671030 0
ConsolePanelLoadingBay
0  -16.595390 -5.264256 31.545204  0.031140 -0.633868 0.772814  0.195141 0.655809 0
0  -15.258895 -4.155506 32.400753  0.030501 -0.633408 0.773216  0.212073 0.671030 0
0  -16.667540 -4.188476 32.409912  0.030805 -0.633625 0.773027  0.195141 0.671030 0
ConsolePanelLoadingBay
0  -16.595390 -5.264256 31.545204  0.031140 -0.633868 0.772814  0.195141 0.655809 0
0  -15.275673 -5.286185 31.454643  0.030812 -0.633635 0.773018  0.212073 0.655809 0
0  -15.258895 -4.155506 32.400753  0.030501 -0.633408 0.773216  0.212073 0.671030 0
ConsolePanelLoadingBay
0  -18.142071 -5.306663 31.465847  -0.002341 -0.628767 0.777590  0.175290 0.655809 0
0  -16.789511 -4.155506 32.400753  -0.002073 -0.628956 0.777438  0.192221 0.671030 0
0  -18.198156 -4.188476 32.409912  -0.002332 -0.628775 0.777584  0.175290 0.671030 0
ConsolePanelLoadingBay
0  -18.142071 -5.306663 31.465847  -0.002341 -0.628767 0.777590  0.175290 0.655809 0
0  -16.821686 -5.264239 31.544130  -0.002341 -0.628768 0.777589  0.192221 0.655809 0
0  -16.789511 -4.155506 32.400753  -0.002073 -0.628956 0.777438  0.192221 0.671030 0
ConsolePanelLoadingBay
0  -19.794022 -5.254219 31.508471  0.024587 -0.663653 0.747637  0.154664 0.655809 0
0  -18.396540 -4.145567 32.446625  0.024380 -0.663507 0.747772  0.171596 0.671030 0
0  -19.794466 -4.205576 32.422363  0.024616 -0.663669 0.747621  0.154664 0.671030 0
ConsolePanelLoadingBay
0  -19.794022 -5.254219 31.508471  0.024587 -0.663653 0.747637  0.154664 0.655809 0
0  -18.379763 -5.239379 31.458122  0.024594 -0.663663 0.747627  0.171596 0.655809 0
0  -18.396540 -4.145567 32.446625  0.024380 -0.663507 0.747772  0.171596 0.671030 0
ConsolePanelLoadingBay
0  -22.994249 -5.304864 31.465004  -0.023717 -0.628518 0.777433  0.112382 0.655809 0
0  -21.605677 -4.188476 32.409912  -0.023480 -0.628697 0.777296  0.129314 0.671030 0
0  -23.014320 -4.155506 32.400753  -0.023506 -0.628680 0.777309  0.112382 0.671030 0
ConsolePanelLoadingBay
0  -22.994249 -5.304864 31.465004  -0.023717 -0.628518 0.777433  0.112382 0.655809 0
0  -21.677992 -5.262322 31.545971  -0.023542 -0.628648 0.777333  0.129314 0.655809 0
0  -21.605677 -4.188476 32.409912  -0.023480 -0.628697 0.777296  0.129314 0.671030 0
ConsolePanelLoadingBay
0  -24.644327 -6.529555 30.336071  0.002318 -0.682835 0.730569  0.091241 0.636761 0
0  -23.291767 -5.443998 31.346407  0.002339 -0.682849 0.730556  0.108173 0.651982 0
0  -24.612154 -5.527411 31.315254  0.002337 -0.682847 0.730558  0.091241 0.651982 0
ConsolePanelLoadingBay
0  -24.644327 -6.529555 30.336071  0.002318 -0.682835 0.730569  0.091241 0.636761 0
0  -23.235683 -6.534050 30.369991  0.002333 -0.682842 0.730562  0.108173 0.636761 0
0  -23.291767 -5.443998 31.346407  0.002339 -0.682849 0.730556  0.108173 0.651982 0
ConsolePanelLoadingBay
0  -23.014320 -6.529555 30.336071  -0.000044 -0.656200 0.754587  0.112382 0.636761 0
0  -21.639774 -5.445682 31.278704  0.000042 -0.656262 0.754533  0.129314 0.651982 0
0  -23.007265 -5.507340 31.335720  0.000023 -0.656249 0.754544  0.112382 0.651982 0
ConsolePanelLoadingBay
0  -23.014320 -6.529555 30.336071  -0.000044 -0.656200 0.754587  0.112382 0.636761 0
0  -21.646830 -6.577467 30.405043  -0.000026 -0.656213 0.754576  0.129314 0.636761 0
0  -21.639774 -5.445682 31.278704  0.000042 -0.656262 0.754533  0.129314 0.651982 0
ConsolePanelLoadingBay
0  -18.164057 -6.529555 30.336071  -0.037526 -0.653654 0.755863  0.175290 0.636761 0
0  -16.749353 -5.495753 31.300314  -0.037358 -0.653786 0.755756  0.192221 0.651982 0
0  -18.147280 -5.435742 31.324575  -0.037497 -0.653673 0.755847  0.175290 0.651982 0
ConsolePanelLoadingBay
0  -18.164057 -6.529555 30.336071  -0.037526 -0.653654 0.755863  0.175290 0.636761 0
0  -16.826761 -6.558384 30.419266  -0.037517 -0.653660 0.755858  0.192221 0.636761 0
0  -16.749353 -5.495753 31.300314  -0.037358 -0.653786 0.755756  0.192221 0.651982 0
ConsolePanelLoadingBay
0  31.707117 8.045532 39.894901  0.599859 0.000000 0.800106  0.504019 0.325985 0
0  31.951651 4.222679 39.711563  0.599887 0.000000 0.800085  0.534900 0.324501 0
0  31.951651 7.909287 39.711563  0.599857 0.000000 0.800107  0.505120 0.324505 0
ConsolePanelLoadingBay
0  31.707117 8.045532 39.894901  0.599859 0.000000 0.800106  0.504019 0.325985 0
0  31.707117 4.145755 39.894901  0.599888 0.000000 0.800084  0.535521 0.325981 0
0  31.951651 4.222679 39.711563  0.599887 0.000000 0.800085  0.534900 0.324501 0
ConsolePanelLoadingBay
0  31.707117 4.145755 39.894901  0.621298 -0.514915 0.590636  0.535521 0.325981 0
0  31.951651 -7.868243 29.163876  0.621320 -0.514903 0.590623  0.631232 0.239292 0
0  31.951651 4.222679 39.711563  0.621273 -0.514929 0.590650  0.534900 0.324501 0
ConsolePanelLoadingBay
0  31.707117 4.145755 39.894901  0.621298 -0.514915 0.590636  0.535521 0.325981 0
0  31.707117 -8.039356 29.278767  0.621317 -0.514906 0.590625  0.632614 0.240220 0
0  31.951651 -7.868243 29.163876  0.621320 -0.514903 0.590623  0.631232 0.239292 0
ConsolePanelLoadingBay
0  31.707117 -8.039356 29.278767  0.569400 -0.822060 0.000192  0.632614 0.240220 0
0  31.951651 -7.876823 0.001322  0.569328 -0.822110 0.000191  0.631300 0.003734 0
0  31.951651 -7.868243 29.163876  0.569390 -0.822068 0.000193  0.631232 0.239292 0
ConsolePanelLoadingBay
0  31.707117 -8.039356 29.278767  0.569400 -0.822060 0.000192  0.632614 0.240220 0
0  31.707117 -8.044418 0.001322  0.569355 -0.822092 0.000143  0.632655 0.003735 0
0  31.951651 -7.876823 0.001322  0.569328 -0.822110 0.000191  0.631300 0.003734 0
ConsolePanelLoadingBay
0  31.707117 -8.044418 0.001322  -0.000000 0.000000 -1.000000  0.632655 0.003735 0
0  31.951651 7.909289 0.001322  -0.000000 0.000000 -1.000000  0.505119 0.003748 0
0  31.951651 -7.876823 0.001322  0.000000 0.000000 -1.000000  0.631300 0.003734 0
ConsolePanelLoadingBay
0  31.707117 -8.044418 0.001322  -0.000000 0.000000 -1.000000  0.632655 0.003735 0
0  31.707117 8.045534 0.001322  -0.000000 0.000000 -1.000000  0.504019 0.003749 0
0  31.951651 7.909289 0.001322  -0.000000 0.000000 -1.000000  0.505119 0.003748 0
ConsolePanelLoadingBay
0  -31.562456 8.045532 0.001322  -0.000000 0.000000 -1.000000  0.504019 0.003749 0
0  -31.791149 -7.876826 0.001322  0.000000 0.000000 -1.000000  0.631300 0.003734 0
0  -31.791149 7.909286 0.001322  -0.000000 0.000000 -1.000000  0.505119 0.003748 0
ConsolePanelLoadingBay
0  -31.562456 8.045532 0.001322  -0.000000 0.000000 -1.000000  0.504019 0.003749 0
0  -31.562456 -8.044420 0.001322  0.000000 0.000000 -1.000000  0.632655 0.003735 0
0  -31.791149 -7.876826 0.001322  0.000000 0.000000 -1.000000  0.631300 0.003734 0
ConsolePanelLoadingBay
0  -31.815548 7.909285 39.711563  -0.586639 0.000000 0.809848  0.505120 0.324505 0
0  -31.562456 4.145752 39.894901  -0.586645 0.000000 0.809844  0.535521 0.325981 0
0  -31.562456 8.045530 39.894901  -0.586639 0.000000 0.809848  0.504019 0.325985 0
ConsolePanelLoadingBay
0  -31.815548 7.909285 39.711563  -0.586639 0.000000 0.809848  0.505120 0.324505 0
0  -31.815548 4.222676 39.711563  -0.586645 0.000000 0.809844  0.534900 0.324501 0
0  -31.562456 4.145752 39.894901  -0.586645 0.000000 0.809844  0.535521 0.325981 0
ConsolePanelLoadingBay
0  -31.815548 4.222676 39.711563  -0.608158 -0.521646 0.598355  0.534900 0.324501 0
0  -31.562456 -8.039358 29.278767  -0.608151 -0.521650 0.598359  0.632614 0.240220 0
0  -31.562456 4.145752 39.894901  -0.608155 -0.521648 0.598357  0.535521 0.325981 0
ConsolePanelLoadingBay
0  -31.815548 4.222676 39.711563  -0.608158 -0.521646 0.598355  0.534900 0.324501 0
0  -31.815548 -7.868246 29.163876  -0.608132 -0.521660 0.598370  0.631232 0.239292 0
0  -31.562456 -8.039358 29.278767  -0.608151 -0.521650 0.598359  0.632614 0.240220 0
ConsolePanelLoadingBay
0  -31.791149 7.909286 0.001322  -0.492278 0.870438 -0.000149  0.505119 0.003748 0
0  -31.562456 8.045530 39.894901  -0.492265 0.870446 -0.000150  0.504019 0.325985 0
0  -31.562456 8.045532 0.001322  -0.492283 0.870435 -0.000151  0.504019 0.003749 0
ConsolePanelLoadingBay
0  -31.791149 7.909286 0.001322  -0.492278 0.870438 -0.000149  0.505119 0.003748 0
0  -31.815548 7.909285 39.711563  -0.492264 0.870446 -0.000151  0.505120 0.324505 0
0  -31.562456 8.045530 39.894901  -0.492265 0.870446 -0.000150  0.504019 0.325985 0
ConsolePanelLoadingBay
0  -31.562456 8.045530 39.894901  -0.000000 1.000000 0.000000  0.496640 0.559631 0
0  31.707117 8.045534 0.001322  -0.000000 1.000000 0.000000  0.002182 0.281838 0
0  -31.562456 8.045532 0.001322  -0.000000 1.000000 0.000000  0.496640 0.281838 0
ConsolePanelLoadingBay
0  -31.562456 8.045530 39.894901  -0.000000 1.000000 0.000000  0.496640 0.559631 0
0  31.707117 8.045532 39.894901  -0.000000 1.000000 0.000000  0.002182 0.559631 0
0  31.707117 8.045534 0.001322  -0.000000 1.000000 0.000000  0.002182 0.281838 0
ConsolePanelLoadingBay
0  -31.815548 -7.868246 29.163876  -0.575125 -0.818066 -0.000048  0.631232 0.239292 0
0  -31.562456 -8.044420 0.001322  -0.575129 -0.818063 -0.000048  0.632655 0.003735 0
0  -31.562456 -8.039358 29.278767  -0.575124 -0.818066 -0.000051  0.632614 0.240220 0
ConsolePanelLoadingBay
0  -31.815548 -7.868246 29.163876  -0.575125 -0.818066 -0.000048  0.631232 0.239292 0
0  -31.791149 -7.876826 0.001322  -0.575141 -0.818054 -0.000257  0.631300 0.003734 0
0  -31.562456 -8.044420 0.001322  -0.575129 -0.818063 -0.000048  0.632655 0.003735 0
ConsolePanelLoadingBay
0  31.707117 8.045534 0.001322  0.486708 0.873565 0.000000  0.504019 0.003749 0
0  31.951651 7.909287 39.711563  0.486707 0.873565 0.000000  0.505120 0.324505 0
0  31.951651 7.909289 0.001322  0.486708 0.873565 0.000000  0.505119 0.003748 0
ConsolePanelLoadingBay
0  31.707117 8.045534 0.001322  0.486708 0.873565 0.000000  0.504019 0.003749 0
0  31.707117 8.045532 39.894901  0.486707 0.873565 0.000000  0.504019 0.325985 0
0  31.951651 7.909287 39.711563  0.486707 0.873565 0.000000  0.505120 0.324505 0
ConsolePanelLoadingBay
0  -2.285111 -6.809865 30.034954  -0.000000 -0.656232 0.754559  0.379756 0.630799 0
0  -26.749788 2.986940 38.555122  0.000000 -0.656232 0.754559  0.063780 0.781306 0
0  -26.749788 -6.809866 30.034954  0.000000 -0.656232 0.754559  0.063799 0.630768 0
ConsolePanelLoadingBay
0  -2.285111 -6.809865 30.034954  -0.000000 -0.656232 0.754559  0.379756 0.630799 0
0  -2.285111 2.986941 38.555122  -0.000000 -0.656232 0.754560  0.379738 0.781337 0
0  -26.749788 2.986940 38.555122  0.000000 -0.656232 0.754559  0.063780 0.781306 0
ConsolePanelLoadingBay
0  -2.142043 -7.090186 30.123138  0.000000 0.300085 0.953912  0.381605 0.629021 0
0  -26.749788 -6.809866 30.034954  0.000000 0.300086 0.953912  0.063799 0.630768 0
0  -26.892857 -7.090187 30.123138  0.000000 0.300086 0.953912  0.061952 0.628989 0
ConsolePanelLoadingBay
0  -2.142043 -7.090186 30.123138  0.000000 0.300085 0.953912  0.381605 0.629021 0
0  -2.285111 -6.809865 30.034954  0.000000 0.300085 0.953912  0.379756 0.630799 0
0  -26.749788 -6.809866 30.034954  0.000000 0.300086 0.953912  0.063799 0.630768 0
ConsolePanelLoadingBay
0  -26.892857 -7.090187 30.123138  0.868352 -0.325457 0.374223  0.061952 0.628989 0
0  -26.749788 2.986940 38.555122  0.868343 -0.325465 0.374236  0.063780 0.781306 0
0  -26.892857 2.938496 38.844963  0.868343 -0.325465 0.374236  0.061933 0.783091 0
ConsolePanelLoadingBay
0  -26.892857 -7.090187 30.123138  0.868352 -0.325457 0.374223  0.061952 0.628989 0
0  -26.749788 -6.809866 30.034954  0.868352 -0.325457 0.374223  0.063799 0.630768 0
0  -26.749788 2.986940 38.555122  0.868343 -0.325465 0.374236  0.063780 0.781306 0
ConsolePanelLoadingBay
0  -2.142043 2.938497 38.844963  -0.868344 -0.325466 0.374232  0.381586 0.783123 0
0  -2.285111 -6.809865 30.034954  -0.868352 -0.325457 0.374223  0.379756 0.630799 0
0  -2.142043 -7.090186 30.123138  -0.868352 -0.325457 0.374223  0.381605 0.629021 0
ConsolePanelLoadingBay
0  -2.142043 2.938497 38.844963  -0.868344 -0.325466 0.374232  0.381586 0.783123 0
0  -2.285111 2.986941 38.555122  -0.868344 -0.325466 0.374233  0.379738 0.781337 0
0  -2.285111 -6.809865 30.034954  -0.868352 -0.325457 0.374223  0.379756 0.630799 0
ConsolePanelLoadingBay
0  -26.892857 2.938496 38.844963  0.000000 -0.986318 -0.164853  0.061933 0.783091 0
0  -2.285111 2.986941 38.555122  0.000000 -0.986318 -0.164853  0.379738 0.781337 0
0  -2.142043 2.938497 38.844963  0.000000 -0.986318 -0.164853  0.381586 0.783123 0
ConsolePanelLoadingBay
0  -26.892857 2.938496 38.844963  0.000000 -0.986318 -0.164853  0.061933 0.783091 0
0  -26.749788 2.986940 38.555122  0.000000 -0.986318 -0.164853  0.063780 0.781306 0
0  -2.285111 2.986941 38.555122  0.000000 -0.986318 -0.164853  0.379738 0.781337 0
ConsolePanelLoadingBay
0  31.707117 0.013248 44.638161  -0.000000 0.068641 0.997641  0.297269 0.994695 0
0  6.873425 -0.252215 44.656425  0.000000 0.068641 0.997641  0.007232 0.992497 0
0  31.518963 -0.252214 44.656425  -0.000000 0.068641 0.997641  0.295072 0.992497 0
ConsolePanelLoadingBay
0  31.707117 0.013248 44.638161  -0.000000 0.068641 0.997641  0.297269 0.994695 0
0  6.685173 0.013247 44.638161  0.000000 0.068641 0.997641  0.005034 0.994695 0
0  6.873425 -0.252215 44.656425  0.000000 0.068641 0.997641  0.007232 0.992497 0
ConsolePanelLoadingBay
0  -5.349689 -2.342274 40.988312  0.783414 0.620144 -0.041034  0.693953 0.578898 0
0  -6.466752 -0.166760 47.510811  0.919018 0.393345 0.026182  0.754084 0.746223 0
0  -6.430955 -2.251861 46.544868  0.918998 0.393397 0.026113  0.651052 0.737698 0
ConsolePanelLoadingBay
0  -5.349689 -2.342274 40.988312  0.783414 0.620144 -0.041034  0.693953 0.578898 0
0  -7.077400 -0.412212 41.585800  0.854089 0.511875 -0.092283  0.814904 0.581402 0
0  -6.466752 -0.166760 47.510811  0.919018 0.393345 0.026182  0.754084 0.746223 0
ConsolePanelLoadingBay
0  -7.077400 -0.412212 41.585800  -0.948061 0.304484 0.092032  0.532731 0.581402 0
0  -6.430955 -2.251861 46.544868  -0.987531 0.052776 0.148311  0.651052 0.737698 0
0  -6.466752 -0.166760 47.510811  -0.987534 0.052750 0.148304  0.574856 0.743779 0
ConsolePanelLoadingBay
0  -7.077400 -0.412212 41.585800  -0.948061 0.304484 0.092032  0.532731 0.581402 0
0  -7.566072 -2.483757 41.016247  -0.976786 0.204642 0.063324  0.603896 0.581402 0
0  -6.430955 -2.251861 46.544868  -0.987531 0.052776 0.148311  0.651052 0.737698 0
ConsolePanelLoadingBay
0  -9.358142 2.392932 38.480000  -0.976569 -0.064635 0.205271  0.880982 0.647469 0
0  -8.963360 -3.763287 37.786472  -1.000000 -0.000036 0.000101  0.863213 0.781443 0
0  -8.963360 1.674662 39.238358  -1.000000 -0.000003 0.000063  0.862958 0.647469 0
ConsolePanelLoadingBay
0  -9.358142 2.392932 38.480000  -0.976569 -0.064635 0.205271  0.880982 0.647469 0
0  -9.256655 -3.837022 36.946434  -0.988975 -0.032998 0.144361  0.881237 0.781443 0
0  -8.963360 -3.763287 37.786472  -1.000000 -0.000036 0.000101  0.863213 0.781443 0
ConsolePanelLoadingBay
0  -3.355780 2.344391 38.415546  0.978235 -0.055696 0.199888  0.688083 0.829549 0
0  -3.232575 -8.128223 32.186554  1.000000 0.000016 0.000012  0.978938 0.888450 0
0  -3.232575 -6.611533 30.216600  1.000000 0.000016 0.000013  0.976602 0.831316 0
ConsolePanelLoadingBay
0  -3.355780 2.344391 38.415546  0.978201 -0.055755 0.200034  0.688083 0.829549 0
0  -3.467073 -3.837162 36.946724  0.978214 -0.055737 0.199977  0.837200 0.907484 0
0  -3.232575 -8.128223 32.186554  1.000000 -0.000019 0.000033  0.978938 0.888450 0
ConsolePanelLoadingBay
0  -9.256655 -3.837022 36.946434  -0.000023 -0.916864 0.399199  0.706263 0.283862 0
0  -3.232575 -8.128223 32.186554  0.000001 -0.754155 0.656697  0.837075 0.128161 0
0  -3.467073 -3.837162 36.946724  -0.000021 -0.916858 0.399215  0.831331 0.283862 0
ConsolePanelLoadingBay
0  -9.256655 -3.837022 36.946434  -0.000023 -0.916864 0.399199  0.706263 0.283862 0
0  -9.490641 -8.128223 32.186554  0.000001 -0.754140 0.656714  0.700520 0.128161 0
0  -3.232575 -8.128223 32.186554  0.000001 -0.754155 0.656697  0.837075 0.128161 0
ConsolePanelLoadingBay
0  -9.490641 -6.611534 30.216600  0.000000 -0.792363 -0.610049  0.700520 0.073572 0
0  -3.232575 -8.128223 32.186554  0.000000 -0.792363 -0.610050  0.837075 0.128161 0
0  -9.490641 -8.128223 32.186554  0.000000 -0.792364 -0.610049  0.700520 0.128161 0
ConsolePanelLoadingBay
0  -9.490641 -6.611534 30.216600  0.000000 -0.792363 -0.610049  0.700520 0.073572 0
0  -3.232575 -6.611533 30.216600  0.000000 -0.792363 -0.610050  0.837075 0.073572 0
0  -3.232575 -8.128223 32.186554  0.000000 -0.792363 -0.610050  0.837075 0.128161 0
ConsolePanelLoadingBay
0  -9.490641 -6.611534 30.216600  -1.000000 -0.000017 0.000023  0.658380 0.829672 0
0  -9.256655 -3.837022 36.946434  -0.988975 -0.032998 0.144361  0.518979 0.905840 0
0  -9.358142 2.392932 38.480000  -0.976569 -0.064635 0.205271  0.369861 0.827905 0
ConsolePanelLoadingBay
0  -9.490641 -6.611534 30.216600  -1.000000 -0.000001 -0.000005  0.658380 0.829672 0
0  -9.490641 -8.128223 32.186554  -1.000000 -0.000002 -0.000004  0.660716 0.886806 0
0  -9.256655 -3.837022 36.946434  -0.988986 -0.032938 0.144294  0.518979 0.905840 0
ConsolePanelLoadingBay
0  -8.963360 -3.763287 37.786472  0.000000 -0.257955 0.966157  0.712005 0.289915 0
0  -3.759856 1.674662 39.238358  0.000000 -0.257955 0.966157  0.825587 0.415779 0
0  -8.963360 1.674662 39.238358  0.000000 -0.257956 0.966157  0.712005 0.415779 0
ConsolePanelLoadingBay
0  -8.963360 -3.763287 37.786472  0.000000 -0.257955 0.966157  0.712005 0.289915 0
0  -3.759856 -3.763286 37.786472  0.000000 -0.257955 0.966157  0.825587 0.289915 0
0  -3.759856 1.674662 39.238358  0.000000 -0.257955 0.966157  0.825587 0.415779 0
ConsolePanelLoadingBay
0  -3.355780 2.344391 38.415546  0.007046 0.751492 0.659705  0.880982 0.533925 0
0  -8.963360 1.674662 39.238358  0.000025 0.966153 0.257971  0.862958 0.647469 0
0  -3.759856 1.674662 39.238358  0.000029 0.966133 0.258045  0.862958 0.533925 0
ConsolePanelLoadingBay
0  -3.355780 2.344391 38.415546  0.007046 0.751492 0.659705  0.880982 0.533925 0
0  -9.358142 2.392932 38.480000  0.007047 0.751481 0.659717  0.880982 0.647469 0
0  -8.963360 1.674662 39.238358  0.000025 0.966153 0.257971  0.862958 0.647469 0
ConsolePanelLoadingBay
0  -9.256655 -3.837022 36.946434  -0.000023 -0.916864 0.399199  0.863286 0.399977 0
0  -3.759856 -3.763286 37.786472  -0.000002 -0.966175 -0.257886  0.881311 0.286433 0
0  -8.963360 -3.763287 37.786472  -0.000033 -0.966179 -0.257870  0.881311 0.399977 0
ConsolePanelLoadingBay
0  -9.256655 -3.837022 36.946434  -0.000023 -0.916864 0.399199  0.863286 0.399977 0
0  -3.467073 -3.837162 36.946724  -0.000021 -0.916858 0.399215  0.863286 0.286433 0
0  -3.759856 -3.763286 37.786472  -0.000002 -0.966175 -0.257886  0.881311 0.286433 0
ConsolePanelLoadingBay
0  6.873425 -0.252215 44.656425  -0.382689 -0.607040 0.696456  0.007232 0.992497 0
0  31.518963 -12.153598 34.287483  -0.000000 -0.656897 0.753981  0.295072 0.808145 0
0  31.518963 -0.252214 44.656425  -0.000000 -0.656897 0.753981  0.295072 0.992497 0
ConsolePanelLoadingBay
0  6.873425 -0.252215 44.656425  -0.382689 -0.607040 0.696456  0.007232 0.992497 0
0  6.881718 -12.153599 34.287483  -0.270599 -0.811000 0.518705  0.007329 0.808145 0
0  31.518963 -12.153598 34.287483  -0.000000 -0.656897 0.753981  0.295072 0.808145 0
ConsolePanelLoadingBay
0  6.685173 0.013247 44.638161  -0.923891 -0.251727 0.288199  0.005034 0.994695 0
0  6.881718 -12.153599 34.287483  -0.270599 -0.811000 0.518705  0.007329 0.808145 0
0  6.873425 -0.252215 44.656425  -0.382689 -0.607040 0.696456  0.007232 0.992497 0
ConsolePanelLoadingBay
0  6.685173 0.013247 44.638161  -0.923891 -0.251727 0.288199  0.005034 0.994695 0
0  6.693663 -12.171866 34.022022  -0.733619 -0.628594 0.258210  0.005133 0.805947 0
0  6.881718 -12.153599 34.287483  -0.270599 -0.811000 0.518705  0.007329 0.808145 0
ConsolePanelLoadingBay
0  6.693663 -12.171866 34.022022  -0.733619 -0.628594 0.258210  0.005133 0.805947 0
0  31.518963 -12.153598 34.287483  0.408242 -0.844169 0.347443  0.295072 0.808145 0
0  6.881718 -12.153599 34.287483  -0.270599 -0.811000 0.518705  0.007329 0.808145 0
ConsolePanelLoadingBay
0  6.693663 -12.171866 34.022022  -0.733619 -0.628594 0.258210  0.005133 0.805947 0
0  31.707117 -12.171865 34.022022  0.408243 -0.844168 0.347444  0.297269 0.805947 0
0  31.518963 -12.153598 34.287483  0.408242 -0.844169 0.347443  0.295072 0.808145 0
ConsolePanelLoadingBay
0  31.707117 -12.171865 34.022022  0.408243 -0.844168 0.347444  0.297269 0.805947 0
0  31.518963 -0.252214 44.656425  0.707098 -0.464501 0.533153  0.295072 0.992497 0
0  31.518963 -12.153598 34.287483  0.408242 -0.844169 0.347443  0.295072 0.808145 0
ConsolePanelLoadingBay
0  31.707117 -12.171865 34.022022  0.408243 -0.844168 0.347444  0.297269 0.805947 0
0  31.707117 0.013248 44.638161  0.707098 -0.464501 0.533153  0.297269 0.994695 0
0  31.518963 -0.252214 44.656425  0.707098 -0.464501 0.533153  0.295072 0.992497 0
ConsolePanelLoadingBay
0  -31.562456 4.145752 39.894901  -0.000968 -0.659522 0.751685  0.001623 0.801636 0
0  -26.892857 2.938496 38.844963  -0.000978 -0.659581 0.751633  0.061933 0.783091 0
0  -2.142043 2.938497 38.844963  0.000681 -0.656518 0.754310  0.381586 0.783123 0
ConsolePanelLoadingBay
0  -26.892857 -7.090187 30.123138  -0.000974 -0.659579 0.751635  0.061952 0.628989 0
0  -26.892857 2.938496 38.844963  -0.000978 -0.659581 0.751633  0.061933 0.783091 0
0  -31.562456 4.145752 39.894901  -0.000968 -0.659522 0.751685  0.001623 0.801636 0
ConsolePanelLoadingBay
0  -26.892857 -7.090187 30.123138  -0.000974 -0.659579 0.751635  0.061952 0.628989 0
0  -31.562456 4.145752 39.894901  -0.000968 -0.659522 0.751685  0.001623 0.801636 0
0  -31.562456 -8.039358 29.278767  -0.001036 -0.659509 0.751696  0.001647 0.614254 0
ConsolePanelLoadingBay
0  -26.892857 -7.090187 30.123138  -0.000974 -0.659579 0.751635  0.061952 0.628989 0
0  -31.562456 -8.039358 29.278767  -0.001036 -0.659509 0.751696  0.001647 0.614254 0
0  6.693663 -8.039357 29.278767  -0.000966 -0.659559 0.751652  0.495718 0.614303 0
ConsolePanelLoadingBay
0  -26.892857 -7.090187 30.123138  -0.000974 -0.659579 0.751635  0.061952 0.628989 0
0  6.693663 -8.039357 29.278767  -0.000966 -0.659559 0.751652  0.495718 0.614303 0
0  -2.142043 -7.090186 30.123138  -0.000926 -0.659635 0.751586  0.381605 0.629021 0
ConsolePanelLoadingBay
0  -2.142043 2.938497 38.844963  0.000681 -0.656518 0.754310  0.381586 0.783123 0
0  -2.142043 -7.090186 30.123138  -0.000926 -0.659635 0.751586  0.381605 0.629021 0
0  6.693663 -8.039357 29.278767  -0.000966 -0.659559 0.751652  0.495718 0.614303 0
ConsolePanelLoadingBay
0  -2.142043 2.938497 38.844963  0.000681 -0.656518 0.754310  0.381586 0.783123 0
0  6.693663 -8.039357 29.278767  -0.000966 -0.659559 0.751652  0.495718 0.614303 0
0  6.685173 4.145754 39.894901  0.000382 -0.656645 0.754200  0.495586 0.801685 0
ConsolePanelLoadingBay
0  -2.142043 2.938497 38.844963  0.000681 -0.656518 0.754310  0.381586 0.783123 0
0  6.685173 4.145754 39.894901  0.000382 -0.656645 0.754200  0.495586 0.801685 0
0  -31.562456 4.145752 39.894901  -0.000968 -0.659522 0.751685  0.001623 0.801636 0
ConsolePanelLoadingBay
0  -27.431280 -1.571638 34.913498  0.044854 -0.603878 0.795814  0.051480 0.713065 0
0  -30.184511 -0.706747 35.655560  0.001804 -0.615414 0.788202  0.021642 0.725425 0
0  -27.758726 -3.518157 33.454903  -0.011040 -0.648958 0.760744  0.047860 0.686847 0
ConsolePanelLoadingBay
0  -30.184511 -0.706747 35.655560  0.001804 -0.615414 0.788202  0.021642 0.725425 0
0  -31.658623 -2.173478 34.375790  -0.250882 -0.635242 0.730429  0.005663 0.704326 0
0  -27.758726 -3.518157 33.454903  -0.011040 -0.648958 0.760744  0.047860 0.686847 0
ConsolePanelLoadingBay
0  -30.184492 -3.642160 33.098495  -0.067184 -0.707558 0.703454  0.021642 0.683227 0
0  -27.758726 -3.518157 33.454903  -0.011040 -0.648958 0.760744  0.047860 0.686847 0
0  -31.658623 -2.173478 34.375790  -0.250882 -0.635242 0.730429  0.005663 0.704326 0
ConsolePanelLoadingBay
0  -30.139233 3.025239 38.955467  -0.090256 -0.472783 0.876545  0.021573 0.725502 0
0  -31.207756 1.084847 37.232319  -0.041601 -0.663753 0.746794  0.009115 0.695427 0
0  -27.549519 2.160523 38.303955  -0.023974 -0.663472 0.747817  0.051648 0.713044 0
ConsolePanelLoadingBay
0  -31.207756 1.084847 37.232319  -0.041601 -0.663753 0.746794  0.009115 0.695427 0
0  -28.617245 0.252581 36.544331  0.091120 -0.802963 0.589022  0.039190 0.682969 0
0  -27.549519 2.160523 38.303955  -0.023974 -0.663472 0.747817  0.051648 0.713044 0
ConsolePanelLoadingBay
0  0.339039 -0.079800 36.831554  -0.023006 -0.656057 0.754360  0.534400 0.417736 0
0  3.707134 2.577397 39.129753  -0.023026 -0.656030 0.754384  0.564954 0.451467 0
0  0.361558 2.617892 39.062485  -0.023355 -0.656049 0.754357  0.535292 0.450627 0
ConsolePanelLoadingBay
0  0.339039 -0.079800 36.831554  -0.023006 -0.656057 0.754360  0.534400 0.417736 0
0  3.876318 1.161665 37.973061  -0.012354 -0.656122 0.754554  0.568521 0.433761 0
0  3.707134 2.577397 39.129753  -0.023026 -0.656030 0.754384  0.564954 0.451467 0
ConsolePanelLoadingBay
0  0.339039 -0.079800 36.831554  -0.023006 -0.656057 0.754360  0.534400 0.417736 0
0  3.488158 -0.541330 36.304085  -0.023019 -0.656064 0.754354  0.564954 0.416055 0
0  3.876318 1.161665 37.973061  -0.012354 -0.656122 0.754554  0.568521 0.433761 0
ConsolePanelLoadingBay
0  22.558969 -4.448180 44.566231  0.000000 -0.661020 0.750368  0.877291 0.039985 0
0  22.558969 -11.400392 38.441818  0.000000 -0.661025 0.750363  0.877291 0.196010 0
0  22.792019 -11.400392 38.441818  0.000000 -0.661025 0.750364  0.881216 0.196010 0
ConsolePanelLoadingBay
0  22.558969 -4.448180 44.566231  0.000000 -0.661020 0.750368  0.877291 0.039985 0
0  22.792019 -11.400392 38.441818  0.000000 -0.661025 0.750364  0.881216 0.196010 0
0  22.792019 -4.292605 44.703278  0.000000 -0.661020 0.750369  0.881216 0.036494 0
ConsolePanelLoadingBay
0  22.558969 -4.448180 44.566231  0.000000 -0.661020 0.750368  0.877291 0.039985 0
0  22.792019 -4.292605 44.703278  0.000000 -0.661020 0.750369  0.881216 0.036494 0
0  21.195429 -3.086693 45.765602  0.000006 -0.661018 0.750370  0.854329 0.009430 0
ConsolePanelLoadingBay
0  20.988022 -3.277334 45.597664  0.000004 -0.661017 0.750371  0.850836 0.013708 0
0  22.558969 -4.448180 44.566231  0.000000 -0.661020 0.750368  0.877291 0.039985 0
0  21.195429 -3.086693 45.765602  0.000006 -0.661018 0.750370  0.854329 0.009430 0
ConsolePanelLoadingBay
0  20.988022 -3.277334 45.597664  0.000004 -0.661017 0.750371  0.850836 0.013708 0
0  21.195429 -3.086693 45.765602  0.000006 -0.661018 0.750370  0.854329 0.009430 0
0  11.130994 -3.086694 45.765602  -0.000000 -0.661018 0.750370  0.684843 0.009430 0
ConsolePanelLoadingBay
0  11.130994 -3.086694 45.765602  -0.000000 -0.661018 0.750370  0.684843 0.009430 0
0  11.338402 -3.277334 45.597664  0.000000 -0.661017 0.750371  0.688336 0.013708 0
0  20.988022 -3.277334 45.597664  0.000004 -0.661017 0.750371  0.850836 0.013708 0
ConsolePanelLoadingBay
0  11.130994 -3.086694 45.765602  -0.000000 -0.661018 0.750370  0.684843 0.009430 0
0  9.522439 -4.292605 44.703278  0.000000 -0.661017 0.750371  0.657755 0.036494 0
0  11.338402 -3.277334 45.597664  0.000000 -0.661017 0.750371  0.688336 0.013708 0
ConsolePanelLoadingBay
0  9.522439 -4.292605 44.703278  0.000000 -0.661017 0.750371  0.657755 0.036494 0
0  9.779420 -4.448181 44.566231  0.000000 -0.661018 0.750370  0.662082 0.039985 0
0  11.338402 -3.277334 45.597664  0.000000 -0.661017 0.750371  0.688336 0.013708 0
ConsolePanelLoadingBay
0  9.522439 -4.292605 44.703278  0.000000 -0.661017 0.750371  0.657755 0.036494 0
0  9.779421 -11.400393 38.441818  0.000000 -0.661021 0.750367  0.662082 0.196010 0
0  9.779420 -4.448181 44.566231  0.000000 -0.661018 0.750370  0.662082 0.039985 0
ConsolePanelLoadingBay
0  9.522439 -4.292605 44.703278  0.000000 -0.661017 0.750371  0.657755 0.036494 0
0  9.522440 -11.400393 38.441818  0.000000 -0.661021 0.750367  0.657755 0.196010 0
0  9.779421 -11.400393 38.441818  0.000000 -0.661021 0.750367  0.662082 0.196010 0
ConsolePanelLoadingBay
0  9.650929 -9.779115 36.213051  0.999708 0.010200 -0.021889  0.908078 0.018652 0
0  9.779420 -4.448181 44.566231  0.923963 -0.287001 -0.252830  0.977124 0.225290 0
0  9.779421 -11.400393 38.441818  1.000000 0.000001 -0.000003  0.977124 0.006875 0
ConsolePanelLoadingBay
0  9.650929 -9.779115 36.213051  0.999708 0.010200 -0.021889  0.908078 0.018652 0
0  9.779420 -2.642141 42.516075  0.923966 -0.286998 -0.252824  0.908078 0.225290 0
0  9.779420 -4.448181 44.566231  0.923963 -0.287001 -0.252830  0.977124 0.225290 0
ConsolePanelLoadingBay
0  9.779420 -2.642141 42.516075  0.923966 -0.286998 -0.252824  0.908078 0.225290 0
0  11.338402 -3.277334 45.597664  0.382896 -0.693184 -0.610645  0.977124 0.273501 0
0  9.779420 -4.448181 44.566231  0.923963 -0.287001 -0.252830  0.977124 0.225290 0
ConsolePanelLoadingBay
0  9.779420 -2.642141 42.516075  0.923966 -0.286998 -0.252824  0.908078 0.225290 0
0  11.338402 -1.471295 43.547508  0.382896 -0.693184 -0.610644  0.908078 0.273501 0
0  11.338402 -3.277334 45.597664  0.382896 -0.693184 -0.610645  0.977124 0.273501 0
ConsolePanelLoadingBay
0  11.338402 -1.471295 43.547508  0.382896 -0.693184 -0.610644  0.908078 0.273501 0
0  20.988022 -3.277334 45.597664  -0.381131 -0.693731 -0.611128  0.977124 0.509001 0
0  11.338402 -3.277334 45.597664  0.382896 -0.693184 -0.610645  0.977124 0.273501 0
ConsolePanelLoadingBay
0  11.338402 -1.471295 43.547508  0.382896 -0.693184 -0.610644  0.908078 0.273501 0
0  20.988022 -1.471294 43.547508  -0.381130 -0.693731 -0.611128  0.908078 0.509001 0
0  20.988022 -3.277334 45.597664  -0.381131 -0.693731 -0.611128  0.977124 0.509001 0
ConsolePanelLoadingBay
0  20.988022 -1.471294 43.547508  -0.381130 -0.693731 -0.611128  0.908078 0.509001 0
0  22.558969 -4.448180 44.566231  -0.923228 -0.288331 -0.253999  0.977124 0.557274 0
0  20.988022 -3.277334 45.597664  -0.381131 -0.693731 -0.611128  0.977124 0.509001 0
ConsolePanelLoadingBay
0  20.988022 -1.471294 43.547508  -0.381130 -0.693731 -0.611128  0.908078 0.509001 0
0  22.558969 -2.642140 42.516075  -0.923232 -0.288325 -0.253991  0.908078 0.557274 0
0  22.558969 -4.448180 44.566231  -0.923228 -0.288331 -0.253999  0.977124 0.557274 0
ConsolePanelLoadingBay
0  22.558969 -2.642140 42.516075  -0.923232 -0.288325 -0.253991  0.908078 0.557274 0
0  22.558969 -11.400392 38.441818  -1.000000 0.000007 -0.000014  0.977124 0.775134 0
0  22.558969 -4.448180 44.566231  -0.923228 -0.288331 -0.253999  0.977124 0.557274 0
ConsolePanelLoadingBay
0  22.558969 -2.642140 42.516075  -0.923232 -0.288325 -0.253991  0.908078 0.557274 0
0  22.675495 -9.762594 36.230400  -0.999760 0.009240 -0.019867  0.908078 0.763505 0
0  22.558969 -11.400392 38.441818  -1.000000 0.000007 -0.000014  0.977124 0.775134 0
ConsolePanelLoadingBay
0  -31.791149 7.909286 0.001322  -1.000000 0.000127 -0.000755  0.505119 0.003748 0
0  -31.815548 4.222676 39.711563  -1.000000 0.000193 -0.000596  0.534900 0.324501 0
0  -31.815548 7.909285 39.711563  -1.000000 0.000000 -0.000614  0.505120 0.324505 0
ConsolePanelLoadingBay
0  -31.791149 7.909286 0.001322  -1.000000 0.000127 -0.000755  0.505119 0.003748 0
0  -31.815548 -7.868246 29.163876  -1.000000 0.000388 -0.000627  0.631232 0.239292 0
0  -31.815548 4.222676 39.711563  -1.000000 0.000193 -0.000596  0.534900 0.324501 0
ConsolePanelLoadingBay
0  -31.791149 7.909286 0.001322  -1.000000 0.000127 -0.000755  0.505119 0.003748 0
0  -31.791149 -7.876826 0.001322  -1.000000 0.000000 -0.000837  0.631300 0.003734 0
0  -31.815548 -7.868246 29.163876  -1.000000 0.000388 -0.000627  0.631232 0.239292 0
ConsolePanelLoadingBay
0  3.488158 -0.541330 36.304085  0.333910 0.619339 -0.710580  0.533731 0.423806 0
0  3.707134 2.577397 39.129753  0.333910 0.619339 -0.710580  0.533731 0.447059 0
0  3.876318 1.161665 37.973061  0.333197 0.620109 -0.710243  0.532869 0.435433 0
ConsolePanelLoadingBay
0  -31.562456 -8.044420 0.001322  0.000000 -1.000000 0.000173  0.002243 0.002623 0
0  6.693663 -8.039357 29.278767  0.000000 -1.000000 0.000173  0.300505 0.279089 0
0  -31.562456 -8.039358 29.278767  0.000000 -1.000000 0.000173  0.002243 0.279089 0
ConsolePanelLoadingBay
0  -31.562456 -8.044420 0.001322  0.000000 -1.000000 0.000173  0.002243 0.002623 0
0  31.707117 -8.039356 29.278767  0.000000 -1.000000 0.000173  0.496511 0.279089 0
0  6.693663 -8.039357 29.278767  0.000000 -1.000000 0.000173  0.300505 0.279089 0
ConsolePanelLoadingBay
0  -31.562456 -8.044420 0.001322  0.000000 -1.000000 0.000173  0.002243 0.002623 0
0  31.707117 -8.044418 0.001322  0.000000 -1.000000 0.000173  0.496511 0.002623 0
0  31.707117 -8.039356 29.278767  0.000000 -1.000000 0.000173  0.496511 0.279089 0
ConsolePanelLoadingBay
0  1.354105 -4.280208 33.739223  0.000000 -0.394990 0.918686  0.545997 0.441320 0
0  2.702547 -4.280208 33.739223  0.000000 -0.394990 0.918686  0.555289 0.441320 0
0  2.028326 -3.660799 34.005539  0.000000 -0.394990 0.918686  0.550643 0.441320 0
ConsolePanelLoadingBay
0  31.951651 7.909287 39.711563  1.000000 -0.000000 0.000000  0.505120 0.324505 0
0  31.951651 -7.876823 0.001322  1.000000 -0.000000 0.000000  0.631300 0.003734 0
0  31.951651 7.909289 0.001322  1.000000 0.000000 0.000000  0.505119 0.003748 0
ConsolePanelLoadingBay
0  31.951651 7.909287 39.711563  1.000000 -0.000000 0.000000  0.505120 0.324505 0
0  31.951651 -7.868243 29.163876  1.000000 -0.000001 0.000000  0.631232 0.239292 0
0  31.951651 -7.876823 0.001322  1.000000 -0.000000 0.000000  0.631300 0.003734 0
ConsolePanelLoadingBay
0  31.951651 7.909287 39.711563  1.000000 -0.000000 0.000000  0.505120 0.324505 0
0  31.951651 4.222679 39.711563  1.000000 0.000000 0.000000  0.534900 0.324501 0
0  31.951651 -7.868243 29.163876  1.000000 -0.000001 0.000000  0.631232 0.239292 0
ConsolePanelLoadingBay
0  2.702547 -4.280208 33.739223  0.000000 0.394990 -0.918686  0.558596 0.444487 0
0  1.354105 -4.280208 33.739223  0.000000 0.394990 -0.918686  0.540009 0.444487 0
0  2.028326 -3.660799 34.005539  0.000000 0.394990 -0.918686  0.549303 0.444487 0
ConsolePanelLoadingBay
0  6.685173 4.145754 39.894901  -0.000000 0.000000 1.000000  0.198895 0.606907 0
0  -31.562456 8.045530 39.894901  -0.000000 0.000000 1.000000  0.498013 0.560706 0
0  -31.562456 4.145752 39.894901  0.000000 0.000000 1.000000  0.498013 0.606907 0
ConsolePanelLoadingBay
0  6.685173 4.145754 39.894901  -0.000000 0.000000 1.000000  0.198895 0.606907 0
0  31.707117 8.045532 39.894901  -0.000000 0.000000 1.000000  0.003209 0.560706 0
0  -31.562456 8.045530 39.894901  -0.000000 0.000000 1.000000  0.498013 0.560706 0
ConsolePanelLoadingBay
0  6.685173 4.145754 39.894901  -0.000000 0.000000 1.000000  0.198895 0.606907 0
0  31.707117 4.145755 39.894901  0.000000 0.000000 1.000000  0.003209 0.606907 0
0  31.707117 8.045532 39.894901  -0.000000 0.000000 1.000000  0.003209 0.560706 0
ConsolePanelLoadingBay
0  0.479709 -6.322569 31.405800  0.023158 -0.656240 0.754197  0.536184 0.416055 0
0  0.697398 -3.094300 34.101620  0.023166 -0.656238 0.754198  0.536184 0.451467 0
0  0.310555 -4.980657 32.647316  0.012675 -0.656385 0.754320  0.532617 0.433761 0
ConsolePanelLoadingBay
0  0.479709 -6.322569 31.405800  0.023158 -0.656240 0.754197  0.536184 0.416055 0
0  3.848011 -3.677519 33.718555  0.023173 -0.656245 0.754192  0.566737 0.449787 0
0  0.697398 -3.094300 34.101620  0.023166 -0.656238 0.754198  0.536184 0.451467 0
ConsolePanelLoadingBay
0  0.479709 -6.322569 31.405800  0.023158 -0.656240 0.754197  0.536184 0.416055 0
0  3.825510 -6.261234 31.355433  0.023173 -0.656236 0.754200  0.565846 0.416895 0
0  3.848011 -3.677519 33.718555  0.023173 -0.656245 0.754192  0.566737 0.449787 0
ConsolePanelLoadingBay
0  9.650929 -9.779115 36.213051  0.000000 -0.808675 -0.588256  0.908078 0.018652 0
0  9.779421 -11.400393 38.441818  0.000007 -0.750392 -0.660993  0.977124 0.006875 0
0  9.522440 -11.400393 38.441818  -0.000003 -0.750424 -0.660957  0.977124 0.030429 0
ConsolePanelLoadingBay
0  0.479709 -6.322569 31.405800  -0.332619 0.618063 -0.712294  0.567719 0.420741 0
0  0.310555 -4.980657 32.647316  -0.332032 0.617696 -0.712885  0.566917 0.431561 0
0  0.697398 -3.094300 34.101620  -0.332620 0.618063 -0.712294  0.567719 0.442382 0
ConsolePanelLoadingBay
0  22.675495 -9.762594 36.230400  0.000000 -0.803605 -0.595162  0.908078 0.763505 0
0  22.792019 -11.400392 38.441818  -0.000005 -0.750370 -0.661018  0.977124 0.751876 0
0  22.558969 -11.400392 38.441818  -0.000004 -0.750370 -0.661018  0.977124 0.775134 0
end
