version 1
nodes
0 "Implicit" -1
end
skeleton
time 0
0  0.000000 0.000000 0.000000  0.000000 -0.000000 0.000000
end
triangles
no_material
0  -30.412733 0.912900 38.584763  -0.506852 -0.527922 0.681468  0.000000 0.000000 1 0 1.000000
0  -7.055813 -0.350259 48.073280  -0.146623 -0.108590 0.983214  0.000000 0.000000 1 0 1.000000
0  -30.109741 1.464850 39.064785  -0.370878 -0.470348 0.800764  0.000000 0.000000 1 0 1.000000
no_material
0  -30.109741 1.464850 39.064785  -0.370878 -0.470348 0.800764  0.000000 0.000000 1 0 1.000000
0  -31.562447 4.145754 39.894913  -0.772942 -0.159953 0.613983  0.000000 0.000000 1 0 1.000000
0  -30.412733 0.912900 38.584763  -0.506852 -0.527922 0.681468  0.000000 0.000000 1 0 1.000000
no_material
0  -7.055813 -0.350259 48.073280  -0.146623 -0.108590 0.983214  0.000000 0.000000 1 0 1.000000
0  -31.562447 4.145754 39.894913  -0.772942 -0.159953 0.613983  0.000000 0.000000 1 0 1.000000
0  -30.109741 1.464850 39.064785  -0.370878 -0.470348 0.800764  0.000000 0.000000 1 0 1.000000
no_material
0  30.964275 -1.054541 44.359982  0.364951 -0.514309 0.776078  0.000000 0.000000 1 0 1.000000
0  22.671436 -4.340387 44.708336  0.158553 -0.590833 0.791061  0.000000 0.000000 1 0 1.000000
0  22.583420 -5.255454 43.936646  0.137495 -0.651034 0.746491  0.000000 0.000000 1 0 1.000000
no_material
0  22.583420 -5.255454 43.936646  0.137495 -0.651034 0.746491  0.000000 0.000000 1 0 1.000000
0  22.586908 -11.387498 38.533379  0.092054 -0.847615 0.522565  0.000000 0.000000 1 0 1.000000
0  30.964275 -1.054541 44.359982  0.364951 -0.514309 0.776078  0.000000 0.000000 1 0 1.000000
no_material
0  22.671436 -4.340387 44.708336  0.158553 -0.590833 0.791061  0.000000 0.000000 1 0 1.000000
0  21.195438 -3.086694 45.765594  0.079997 -0.319285 0.944276  0.000000 0.000000 1 0 1.000000
0  22.583420 -5.255454 43.936646  0.137495 -0.651034 0.746491  0.000000 0.000000 1 0 1.000000
no_material
0  21.195438 -3.086694 45.765594  0.079997 -0.319285 0.944276  0.000000 0.000000 1 0 1.000000
0  -7.055813 -0.350259 48.073280  -0.146623 -0.108590 0.983214  0.000000 0.000000 1 0 1.000000
0  22.583420 -5.255454 43.936646  0.137495 -0.651034 0.746491  0.000000 0.000000 1 0 1.000000
no_material
0  22.583420 -5.255454 43.936646  0.137495 -0.651034 0.746491  0.000000 0.000000 1 0 1.000000
0  -7.055813 -0.350259 48.073280  -0.146623 -0.108590 0.983214  0.000000 0.000000 1 0 1.000000
0  22.586908 -11.387498 38.533379  0.092054 -0.847615 0.522565  0.000000 0.000000 1 0 1.000000
no_material
0  30.964275 -1.054541 44.359982  0.364951 -0.514309 0.776078  0.000000 0.000000 1 0 1.000000
0  22.586908 -11.387498 38.533379  0.092054 -0.847615 0.522565  0.000000 0.000000 1 0 1.000000
0  31.178759 -11.927648 34.697662  0.335435 -0.738310 0.585135  0.000000 0.000000 1 0 1.000000
no_material
0  31.178759 -11.927648 34.697662  0.335435 -0.738310 0.585135  0.000000 0.000000 1 0 1.000000
0  31.707121 -12.171866 34.022007  0.660506 -0.733818 0.158878  0.000000 0.000000 1 0 1.000000
0  30.964275 -1.054541 44.359982  0.364951 -0.514309 0.776078  0.000000 0.000000 1 0 1.000000
no_material
0  30.964275 -1.054541 44.359982  0.364951 -0.514309 0.776078  0.000000 0.000000 1 0 1.000000
0  31.707121 -12.171866 34.022007  0.660506 -0.733818 0.158878  0.000000 0.000000 1 0 1.000000
0  31.710108 0.014127 44.637825  0.669425 0.034936 0.742058  0.000000 0.000000 1 0 1.000000
no_material
0  30.964275 -1.054541 44.359982  0.364951 -0.514309 0.776078  0.000000 0.000000 1 0 1.000000
0  21.195438 -3.086694 45.765594  0.079997 -0.319285 0.944276  0.000000 0.000000 1 0 1.000000
0  22.671436 -4.340387 44.708336  0.158553 -0.590833 0.791061  0.000000 0.000000 1 0 1.000000
no_material
0  30.964275 -1.054541 44.359982  0.364951 -0.514309 0.776078  0.000000 0.000000 1 0 1.000000
0  31.710108 0.014127 44.637825  0.669425 0.034936 0.742058  0.000000 0.000000 1 0 1.000000
0  21.195438 -3.086694 45.765594  0.079997 -0.319285 0.944276  0.000000 0.000000 1 0 1.000000
no_material
0  6.881723 -12.153599 34.287479  -0.064384 -0.994494 0.082678  0.000000 0.000000 1 0 1.000000
0  22.586908 -11.387498 38.533379  0.092054 -0.847615 0.522565  0.000000 0.000000 1 0 1.000000
0  9.779428 -11.400393 38.441811  -0.046807 -0.871111 0.488850  0.000000 0.000000 1 0 1.000000
no_material
0  6.881723 -12.153599 34.287479  -0.064384 -0.994494 0.082678  0.000000 0.000000 1 0 1.000000
0  31.707121 -12.171866 34.022007  0.660506 -0.733818 0.158878  0.000000 0.000000 1 0 1.000000
0  22.586908 -11.387498 38.533379  0.092054 -0.847615 0.522565  0.000000 0.000000 1 0 1.000000
no_material
0  31.523607 -8.170183 0.001311  0.217569 -0.692663 -0.687664  0.000000 0.000000 1 0 1.000000
0  31.707121 -12.171866 34.022007  0.660506 -0.733818 0.158878  0.000000 0.000000 1 0 1.000000
0  6.881723 -12.153599 34.287479  -0.064384 -0.994494 0.082678  0.000000 0.000000 1 0 1.000000
no_material
0  6.881723 -12.153599 34.287479  -0.064384 -0.994494 0.082678  0.000000 0.000000 1 0 1.000000
0  -31.791157 -7.876825 0.001334  -0.593721 -0.550253 -0.587126  0.000000 0.000000 1 0 1.000000
0  31.523607 -8.170183 0.001311  0.217569 -0.692663 -0.687664  0.000000 0.000000 1 0 1.000000
no_material
0  9.779428 -11.400393 38.441811  -0.046807 -0.871111 0.488850  0.000000 0.000000 1 0 1.000000
0  -31.815544 -7.868244 29.163887  -0.707846 -0.670206 0.223109  0.000000 0.000000 1 0 1.000000
0  6.881723 -12.153599 34.287479  -0.064384 -0.994494 0.082678  0.000000 0.000000 1 0 1.000000
no_material
0  -31.815544 -7.868244 29.163887  -0.707846 -0.670206 0.223109  0.000000 0.000000 1 0 1.000000
0  -31.791157 -7.876825 0.001334  -0.593721 -0.550253 -0.587126  0.000000 0.000000 1 0 1.000000
0  6.881723 -12.153599 34.287479  -0.064384 -0.994494 0.082678  0.000000 0.000000 1 0 1.000000
no_material
0  -7.055813 -1.794917 46.346657  -0.192661 -0.768775 0.609809  0.000000 0.000000 1 0 1.000000
0  -31.815544 -7.868244 29.163887  -0.707846 -0.670206 0.223109  0.000000 0.000000 1 0 1.000000
0  9.779428 -11.400393 38.441811  -0.046807 -0.871111 0.488850  0.000000 0.000000 1 0 1.000000
no_material
0  9.779428 -11.400393 38.441811  -0.046807 -0.871111 0.488850  0.000000 0.000000 1 0 1.000000
0  -7.055813 -0.350259 48.073280  -0.146623 -0.108590 0.983214  0.000000 0.000000 1 0 1.000000
0  -7.055813 -1.794917 46.346657  -0.192661 -0.768775 0.609809  0.000000 0.000000 1 0 1.000000
no_material
0  -7.055813 -1.794917 46.346657  -0.192661 -0.768775 0.609809  0.000000 0.000000 1 0 1.000000
0  -7.055813 -0.350259 48.073280  -0.146623 -0.108590 0.983214  0.000000 0.000000 1 0 1.000000
0  -31.815544 -7.868244 29.163887  -0.707846 -0.670206 0.223109  0.000000 0.000000 1 0 1.000000
no_material
0  -30.479002 -2.921136 35.235485  -0.502675 -0.597501 0.624749  0.000000 0.000000 1 0 1.000000
0  -7.055813 -0.350259 48.073280  -0.146623 -0.108590 0.983214  0.000000 0.000000 1 0 1.000000
0  -30.412733 0.912900 38.584763  -0.506852 -0.527922 0.681468  0.000000 0.000000 1 0 1.000000
no_material
0  -30.479002 -2.921136 35.235485  -0.502675 -0.597501 0.624749  0.000000 0.000000 1 0 1.000000
0  -30.412733 0.912900 38.584763  -0.506852 -0.527922 0.681468  0.000000 0.000000 1 0 1.000000
0  -31.562447 4.145754 39.894913  -0.772942 -0.159953 0.613983  0.000000 0.000000 1 0 1.000000
no_material
0  22.586908 -11.387498 38.533379  0.092054 -0.847615 0.522565  0.000000 0.000000 1 0 1.000000
0  -7.055813 -0.350259 48.073280  -0.146623 -0.108590 0.983214  0.000000 0.000000 1 0 1.000000
0  9.779428 -11.400393 38.441811  -0.046807 -0.871111 0.488850  0.000000 0.000000 1 0 1.000000
no_material
0  -31.815544 -7.868244 29.163887  -0.707846 -0.670206 0.223109  0.000000 0.000000 1 0 1.000000
0  -7.055813 -0.350259 48.073280  -0.146623 -0.108590 0.983214  0.000000 0.000000 1 0 1.000000
0  -30.479002 -2.921136 35.235485  -0.502675 -0.597501 0.624749  0.000000 0.000000 1 0 1.000000
no_material
0  -31.815544 -7.868244 29.163887  -0.707846 -0.670206 0.223109  0.000000 0.000000 1 0 1.000000
0  -30.479002 -2.921136 35.235485  -0.502675 -0.597501 0.624749  0.000000 0.000000 1 0 1.000000
0  -31.562447 4.145754 39.894913  -0.772942 -0.159953 0.613983  0.000000 0.000000 1 0 1.000000
no_material
0  31.710108 0.014127 44.637825  0.669425 0.034936 0.742058  0.000000 0.000000 1 0 1.000000
0  -7.055813 -0.350259 48.073280  -0.146623 -0.108590 0.983214  0.000000 0.000000 1 0 1.000000
0  21.195438 -3.086694 45.765594  0.079997 -0.319285 0.944276  0.000000 0.000000 1 0 1.000000
no_material
0  22.586908 -11.387498 38.533379  0.092054 -0.847615 0.522565  0.000000 0.000000 1 0 1.000000
0  31.707121 -12.171866 34.022007  0.660506 -0.733818 0.158878  0.000000 0.000000 1 0 1.000000
0  31.178759 -11.927648 34.697662  0.335435 -0.738310 0.585135  0.000000 0.000000 1 0 1.000000
no_material
0  31.951654 -7.868244 29.163860  0.999582 -0.028041 0.007099  0.000000 0.000000 1 0 1.000000
0  31.951643 -7.876825 0.001309  0.694520 -0.337698 -0.635297  0.000000 0.000000 1 0 1.000000
0  31.951658 4.222677 39.711548  0.998592 0.030167 0.043635  0.000000 0.000000 1 0 1.000000
no_material
0  31.951643 -7.876825 0.001309  0.694520 -0.337698 -0.635297  0.000000 0.000000 1 0 1.000000
0  31.951643 7.909288 0.001309  0.578166 0.575667 -0.578215  0.000000 0.000000 1 0 1.000000
0  31.951658 4.222677 39.711548  0.998592 0.030167 0.043635  0.000000 0.000000 1 0 1.000000
no_material
0  31.951643 7.909288 0.001309  0.578166 0.575667 -0.578215  0.000000 0.000000 1 0 1.000000
0  31.707123 8.045531 39.894890  0.601693 0.703957 0.377374  0.000000 0.000000 1 0 1.000000
0  31.951658 4.222677 39.711548  0.998592 0.030167 0.043635  0.000000 0.000000 1 0 1.000000
no_material
0  31.710108 0.014127 44.637825  0.669425 0.034936 0.742058  0.000000 0.000000 1 0 1.000000
0  31.951654 -7.868244 29.163860  0.999582 -0.028041 0.007099  0.000000 0.000000 1 0 1.000000
0  31.951658 4.222677 39.711548  0.998592 0.030167 0.043635  0.000000 0.000000 1 0 1.000000
no_material
0  31.951658 4.222677 39.711548  0.998592 0.030167 0.043635  0.000000 0.000000 1 0 1.000000
0  31.707123 8.045531 39.894890  0.601693 0.703957 0.377374  0.000000 0.000000 1 0 1.000000
0  31.710108 0.014127 44.637825  0.669425 0.034936 0.742058  0.000000 0.000000 1 0 1.000000
no_material
0  -5.575392 -0.036358 47.902557  0.040869 0.440724 0.896712  0.000000 0.000000 1 0 1.000000
0  -31.562447 8.045531 39.894913  -0.628996 0.605990 0.486970  0.000000 0.000000 1 0 1.000000
0  -7.055813 -0.350259 48.073280  -0.146623 -0.108590 0.983214  0.000000 0.000000 1 0 1.000000
no_material
0  -5.575392 -0.036358 47.902557  0.040869 0.440724 0.896712  0.000000 0.000000 1 0 1.000000
0  31.707123 8.045531 39.894890  0.601693 0.703957 0.377374  0.000000 0.000000 1 0 1.000000
0  -31.562447 8.045531 39.894913  -0.628996 0.605990 0.486970  0.000000 0.000000 1 0 1.000000
no_material
0  -5.575392 -0.036358 47.902557  0.040869 0.440724 0.896712  0.000000 0.000000 1 0 1.000000
0  -7.055813 -0.350259 48.073280  -0.146623 -0.108590 0.983214  0.000000 0.000000 1 0 1.000000
0  31.710108 0.014127 44.637825  0.669425 0.034936 0.742058  0.000000 0.000000 1 0 1.000000
no_material
0  31.710108 0.014127 44.637825  0.669425 0.034936 0.742058  0.000000 0.000000 1 0 1.000000
0  31.707123 8.045531 39.894890  0.601693 0.703957 0.377374  0.000000 0.000000 1 0 1.000000
0  -5.575392 -0.036358 47.902557  0.040869 0.440724 0.896712  0.000000 0.000000 1 0 1.000000
no_material
0  31.951643 -7.876825 0.001309  0.694520 -0.337698 -0.635297  0.000000 0.000000 1 0 1.000000
0  31.523607 -8.170183 0.001311  0.217569 -0.692663 -0.687664  0.000000 0.000000 1 0 1.000000
0  31.951643 7.909288 0.001309  0.578166 0.575667 -0.578215  0.000000 0.000000 1 0 1.000000
no_material
0  31.951643 7.909288 0.001309  0.578166 0.575667 -0.578215  0.000000 0.000000 1 0 1.000000
0  31.523607 -8.170183 0.001311  0.217569 -0.692663 -0.687664  0.000000 0.000000 1 0 1.000000
0  -31.562462 8.045533 0.001334  -0.572339 0.581363 -0.578313  0.000000 0.000000 1 0 1.000000
no_material
0  -31.562462 8.045533 0.001334  -0.572339 0.581363 -0.578313  0.000000 0.000000 1 0 1.000000
0  31.523607 -8.170183 0.001311  0.217569 -0.692663 -0.687664  0.000000 0.000000 1 0 1.000000
0  -31.791157 -7.876825 0.001334  -0.593721 -0.550253 -0.587126  0.000000 0.000000 1 0 1.000000
no_material
0  31.951643 -7.876825 0.001309  0.694520 -0.337698 -0.635297  0.000000 0.000000 1 0 1.000000
0  31.707121 -12.171866 34.022007  0.660506 -0.733818 0.158878  0.000000 0.000000 1 0 1.000000
0  31.523607 -8.170183 0.001311  0.217569 -0.692663 -0.687664  0.000000 0.000000 1 0 1.000000
no_material
0  31.951654 -7.868244 29.163860  0.999582 -0.028041 0.007099  0.000000 0.000000 1 0 1.000000
0  31.707121 -12.171866 34.022007  0.660506 -0.733818 0.158878  0.000000 0.000000 1 0 1.000000
0  31.951643 -7.876825 0.001309  0.694520 -0.337698 -0.635297  0.000000 0.000000 1 0 1.000000
no_material
0  -31.815544 -7.868244 29.163887  -0.707846 -0.670206 0.223109  0.000000 0.000000 1 0 1.000000
0  -31.562447 8.045531 39.894913  -0.628996 0.605990 0.486970  0.000000 0.000000 1 0 1.000000
0  -31.562462 8.045533 0.001334  -0.572339 0.581363 -0.578313  0.000000 0.000000 1 0 1.000000
no_material
0  -31.791157 -7.876825 0.001334  -0.593721 -0.550253 -0.587126  0.000000 0.000000 1 0 1.000000
0  -31.815544 -7.868244 29.163887  -0.707846 -0.670206 0.223109  0.000000 0.000000 1 0 1.000000
0  -31.562462 8.045533 0.001334  -0.572339 0.581363 -0.578313  0.000000 0.000000 1 0 1.000000
no_material
0  -31.562447 8.045531 39.894913  -0.628996 0.605990 0.486970  0.000000 0.000000 1 0 1.000000
0  -31.815544 -7.868244 29.163887  -0.707846 -0.670206 0.223109  0.000000 0.000000 1 0 1.000000
0  -31.562447 4.145754 39.894913  -0.772942 -0.159953 0.613983  0.000000 0.000000 1 0 1.000000
no_material
0  31.710108 0.014127 44.637825  0.669425 0.034936 0.742058  0.000000 0.000000 1 0 1.000000
0  31.707121 -12.171866 34.022007  0.660506 -0.733818 0.158878  0.000000 0.000000 1 0 1.000000
0  31.951654 -7.868244 29.163860  0.999582 -0.028041 0.007099  0.000000 0.000000 1 0 1.000000
no_material
0  -31.562447 8.045531 39.894913  -0.628996 0.605990 0.486970  0.000000 0.000000 1 0 1.000000
0  -31.562447 4.145754 39.894913  -0.772942 -0.159953 0.613983  0.000000 0.000000 1 0 1.000000
0  -7.055813 -0.350259 48.073280  -0.146623 -0.108590 0.983214  0.000000 0.000000 1 0 1.000000
no_material
0  -31.562447 8.045531 39.894913  -0.628996 0.605990 0.486970  0.000000 0.000000 1 0 1.000000
0  31.707123 8.045531 39.894890  0.601693 0.703957 0.377374  0.000000 0.000000 1 0 1.000000
0  -31.562462 8.045533 0.001334  -0.572339 0.581363 -0.578313  0.000000 0.000000 1 0 1.000000
no_material
0  31.707123 8.045531 39.894890  0.601693 0.703957 0.377374  0.000000 0.000000 1 0 1.000000
0  31.951643 7.909288 0.001309  0.578166 0.575667 -0.578215  0.000000 0.000000 1 0 1.000000
0  -31.562462 8.045533 0.001334  -0.572339 0.581363 -0.578313  0.000000 0.000000 1 0 1.000000
end
