version 1
nodes
0 "Implicit" -1
end
skeleton
time 0
0  0.000000 0.000000 0.000000  0.000000 -0.000000 0.000000
end
triangles
ConsolePanelLoadingBay
0  -6.790371 -0.213885 45.649971  -0.168812 0.984956 0.036937  0.525744 0.707117 0
0  -7.055824 -0.350259 48.073280  -0.000057 0.477785 0.878477  0.623967 0.780440 0
0  -5.969671 -0.163697 48.062496  -0.168812 0.984956 0.036937  0.517692 0.779648 0
ConsolePanelLoadingBay
0  1.493096 -6.606443 31.974907  0.046572 -0.618901 0.784087  0.545997 0.425696 0
0  2.702547 -4.280208 33.739223  0.046552 -0.618893 0.784095  0.555289 0.441320 0
0  1.354105 -4.280208 33.739223  0.046527 -0.618889 0.784100  0.545997 0.441320 0
ConsolePanelLoadingBay
0  1.493096 -6.606443 31.974907  0.046572 -0.618901 0.784087  0.545997 0.425696 0
0  2.642480 -6.733354 31.726456  0.046542 -0.618889 0.784098  0.555289 0.425696 0
0  2.702547 -4.280208 33.739223  0.046552 -0.618893 0.784095  0.555289 0.441320 0
ConsolePanelLoadingBay
0  -16.611456 -4.001483 32.600945  -0.002340 -0.628767 0.777590  0.195141 0.676190 0
0  -15.258895 -2.850328 33.535851  -0.002073 -0.628957 0.777437  0.212073 0.691410 0
0  -16.667540 -2.883297 33.545010  -0.002332 -0.628774 0.777585  0.195141 0.691410 0
ConsolePanelLoadingBay
0  -16.611456 -4.001483 32.600945  -0.002340 -0.628767 0.777590  0.195141 0.676190 0
0  -15.291069 -3.959061 32.679230  -0.002336 -0.628768 0.777589  0.212073 0.676190 0
0  -15.258895 -2.850328 33.535851  -0.002073 -0.628957 0.777437  0.212073 0.691410 0
ConsolePanelLoadingBay
0  -15.097168 -3.938695 32.627140  0.030758 -0.677609 0.734779  0.215509 0.676190 0
0  -13.705300 -2.840389 33.581726  0.031404 -0.678050 0.734345  0.232441 0.691410 0
0  -15.025018 -2.933117 33.572567  0.030842 -0.677666 0.734723  0.215509 0.691410 0
ConsolePanelLoadingBay
0  -15.097168 -3.938695 32.627140  0.030758 -0.677609 0.734779  0.215509 0.676190 0
0  -13.688523 -3.934202 32.593220  0.030804 -0.677640 0.734748  0.232441 0.676190 0
0  -13.705300 -2.840389 33.581726  0.031404 -0.678050 0.734345  0.232441 0.691410 0
ConsolePanelLoadingBay
0  -13.526795 -3.938694 32.627140  0.011208 -0.674150 0.738509  0.235877 0.676190 0
0  -12.138222 -2.848058 33.601658  0.010779 -0.673853 0.738787  0.252808 0.691410 0
0  -13.470711 -2.848644 33.603554  0.010915 -0.673947 0.738699  0.235877 0.691410 0
ConsolePanelLoadingBay
0  -13.526795 -3.938694 32.627140  0.011208 -0.674150 0.738509  0.235877 0.676190 0
0  -12.118151 -3.934201 32.593220  0.010919 -0.673950 0.738696  0.252808 0.676190 0
0  -12.138222 -2.848058 33.601658  0.010779 -0.673853 0.738787  0.252808 0.691410 0
ConsolePanelLoadingBay
0  -13.475919 -5.286185 31.454643  -0.030923 -0.633553 0.773081  0.235877 0.655809 0
0  -12.084052 -4.188476 32.409912  -0.030759 -0.633678 0.772985  0.252808 0.671030 0
0  -13.492697 -4.155506 32.400753  -0.030805 -0.633643 0.773012  0.235877 0.671030 0
ConsolePanelLoadingBay
0  -13.475919 -5.286185 31.454643  -0.030923 -0.633553 0.773081  0.235877 0.655809 0
0  -12.156201 -5.264256 31.545204  -0.030808 -0.633640 0.773014  0.252808 0.655809 0
0  -12.084052 -4.188476 32.409912  -0.030759 -0.633678 0.772985  0.252808 0.671030 0
ConsolePanelLoadingBay
0  -15.063068 -5.239378 31.458122  -0.011254 -0.673698 0.738921  0.215509 0.655809 0
0  -13.710508 -4.153821 32.468460  -0.010851 -0.673973 0.738676  0.232441 0.671030 0
0  -15.042998 -4.153234 32.466560  -0.010907 -0.673935 0.738710  0.215509 0.671030 0
ConsolePanelLoadingBay
0  -15.063068 -5.239378 31.458122  -0.011254 -0.673698 0.738921  0.215509 0.655809 0
0  -13.654424 -5.243874 31.492043  -0.010916 -0.673929 0.738715  0.232441 0.655809 0
0  -13.710508 -4.153821 32.468460  -0.010851 -0.673973 0.738676  0.232441 0.671030 0
ConsolePanelLoadingBay
0  -21.362329 -5.306663 31.465847  -0.002340 -0.628767 0.777590  0.133523 0.655809 0
0  -20.009768 -4.155506 32.400753  -0.002073 -0.628957 0.777437  0.150455 0.671030 0
0  -21.418413 -4.188476 32.409912  -0.002332 -0.628775 0.777583  0.133523 0.671030 0
ConsolePanelLoadingBay
0  -21.362329 -5.306663 31.465847  -0.002340 -0.628767 0.777590  0.133523 0.655809 0
0  -20.041943 -5.264239 31.544130  -0.002337 -0.628767 0.777590  0.150455 0.655809 0
0  -20.009768 -4.155506 32.400753  -0.002073 -0.628957 0.777437  0.150455 0.671030 0
ConsolePanelLoadingBay
0  -22.994249 -5.304864 31.465004  -0.023717 -0.628518 0.777433  0.112382 0.655809 0
0  -21.605677 -4.188476 32.409912  -0.023480 -0.628697 0.777296  0.129314 0.671030 0
0  -23.014320 -4.155506 32.400753  -0.023506 -0.628680 0.777309  0.112382 0.671030 0
ConsolePanelLoadingBay
0  -22.994249 -5.304864 31.465004  -0.023717 -0.628518 0.777433  0.112382 0.655809 0
0  -21.677992 -5.262322 31.545971  -0.023542 -0.628648 0.777333  0.129314 0.655809 0
0  -21.605677 -4.188476 32.409912  -0.023480 -0.628697 0.777296  0.129314 0.671030 0
ConsolePanelLoadingBay
0  -24.627550 -5.286186 31.454643  -0.090347 -0.586128 0.805165  0.091241 0.655809 0
0  -23.235683 -4.188476 32.409912  -0.090355 -0.586120 0.805170  0.108173 0.671030 0
0  -24.644327 -4.155506 32.400753  -0.090301 -0.586162 0.805146  0.091241 0.671030 0
ConsolePanelLoadingBay
0  -24.627550 -5.286186 31.454643  -0.090347 -0.586128 0.805165  0.091241 0.655809 0
0  -23.307833 -5.264256 31.545204  -0.030808 -0.633640 0.773014  0.108173 0.655809 0
0  -23.235683 -4.188476 32.409912  -0.090355 -0.586120 0.805170  0.108173 0.671030 0
ConsolePanelLoadingBay
0  3.488158 -0.541330 36.304085  0.333932 0.619343 -0.710566  0.533731 0.423806 0
0  3.876318 2.302247 38.965012  0.333887 0.619356 -0.710575  0.532869 0.445321 0
0  3.876318 0.021083 36.981113  0.333913 0.619349 -0.710569  0.532869 0.425544 0
ConsolePanelLoadingBay
0  3.488158 -0.541330 36.304085  0.333932 0.619343 -0.710566  0.533731 0.423806 0
0  3.707134 2.577397 39.129753  0.333888 0.619354 -0.710577  0.533731 0.447059 0
0  3.876318 2.302247 38.965012  0.333887 0.619356 -0.710575  0.532869 0.445321 0
ConsolePanelLoadingBay
0  -24.644327 -6.529555 30.336071  0.002318 -0.682835 0.730569  0.091241 0.636761 0
0  -23.291767 -5.443998 31.346407  0.002339 -0.682849 0.730556  0.108173 0.651982 0
0  -24.612154 -5.527411 31.315254  0.002337 -0.682847 0.730558  0.091241 0.651982 0
ConsolePanelLoadingBay
0  -24.644327 -6.529555 30.336071  0.002318 -0.682835 0.730569  0.091241 0.636761 0
0  -23.235683 -6.534050 30.369991  0.002333 -0.682842 0.730562  0.108173 0.636761 0
0  -23.291767 -5.443998 31.346407  0.002339 -0.682849 0.730556  0.108173 0.651982 0
ConsolePanelLoadingBay
0  -23.014320 -6.529555 30.336071  -0.000044 -0.656200 0.754587  0.112382 0.636761 0
0  -21.639774 -5.445682 31.278704  0.000042 -0.656262 0.754533  0.129314 0.651982 0
0  -23.007265 -5.507340 31.335720  0.000023 -0.656249 0.754544  0.112382 0.651982 0
ConsolePanelLoadingBay
0  -23.014320 -6.529555 30.336071  -0.000044 -0.656200 0.754587  0.112382 0.636761 0
0  -21.646830 -6.577467 30.405043  -0.000026 -0.656213 0.754576  0.129314 0.636761 0
0  -21.639774 -5.445682 31.278704  0.000042 -0.656262 0.754533  0.129314 0.651982 0
ConsolePanelLoadingBay
0  1.304161 -0.398880 37.180763  0.110530 -0.675730 0.728816  0.545544 0.425260 0
0  2.702547 1.862115 39.064972  0.110532 -0.675726 0.728819  0.555528 0.442047 0
0  1.490600 1.651549 39.264404  0.000106 -0.656248 0.754545  0.545544 0.442047 0
ConsolePanelLoadingBay
0  1.304161 -0.398880 37.180763  0.110392 -0.675690 0.728874  0.545544 0.425260 0
0  2.650461 -0.540496 37.056435  0.110387 -0.675697 0.728868  0.555528 0.425260 0
0  2.702547 1.862115 39.064972  0.110389 -0.675694 0.728871  0.555528 0.442047 0
ConsolePanelLoadingBay
0  -21.418413 -6.534050 30.369991  0.030760 -0.677608 0.734779  0.133523 0.636761 0
0  -20.026546 -5.435742 31.324575  0.030924 -0.677720 0.734669  0.150455 0.651982 0
0  -21.346264 -5.528472 31.315418  0.030812 -0.677643 0.734746  0.133523 0.651982 0
ConsolePanelLoadingBay
0  -21.418413 -6.534050 30.369991  0.030760 -0.677608 0.734779  0.133523 0.636761 0
0  -20.009768 -6.529555 30.336071  0.030804 -0.677639 0.734749  0.150455 0.636761 0
0  -20.026546 -5.435742 31.324575  0.030924 -0.677720 0.734669  0.150455 0.651982 0
ConsolePanelLoadingBay
0  -18.164057 -6.529555 30.336071  -0.037526 -0.653654 0.755863  0.175290 0.636761 0
0  -16.749353 -5.495753 31.300314  -0.037358 -0.653786 0.755756  0.192221 0.651982 0
0  -18.147280 -5.435742 31.324575  -0.037497 -0.653673 0.755847  0.175290 0.651982 0
ConsolePanelLoadingBay
0  -18.164057 -6.529555 30.336071  -0.037526 -0.653654 0.755863  0.175290 0.636761 0
0  -16.826761 -6.558384 30.419266  -0.037517 -0.653660 0.755858  0.192221 0.636761 0
0  -16.749353 -5.495753 31.300314  -0.037358 -0.653786 0.755756  0.192221 0.651982 0
ConsolePanelLoadingBay
0  -2.285111 -6.809865 30.034954  -0.000000 -0.656232 0.754559  0.379756 0.630799 0
0  -26.749788 2.986940 38.555122  0.000000 -0.656232 0.754559  0.063780 0.781306 0
0  -26.749788 -6.809866 30.034954  0.000000 -0.656232 0.754559  0.063799 0.630768 0
ConsolePanelLoadingBay
0  -2.285111 -6.809865 30.034954  -0.000000 -0.656232 0.754559  0.379756 0.630799 0
0  -2.285111 2.986941 38.555122  -0.000000 -0.656232 0.754560  0.379738 0.781337 0
0  -26.749788 2.986940 38.555122  0.000000 -0.656232 0.754559  0.063780 0.781306 0
ConsolePanelLoadingBay
0  -2.142043 -7.090186 30.123138  0.000000 0.300085 0.953912  0.381605 0.629021 0
0  -26.749788 -6.809866 30.034954  0.000000 0.300086 0.953912  0.063799 0.630768 0
0  -26.892857 -7.090187 30.123138  0.000000 0.300086 0.953912  0.061952 0.628989 0
ConsolePanelLoadingBay
0  -2.142043 -7.090186 30.123138  0.000000 0.300085 0.953912  0.381605 0.629021 0
0  -2.285111 -6.809865 30.034954  0.000000 0.300085 0.953912  0.379756 0.630799 0
0  -26.749788 -6.809866 30.034954  0.000000 0.300086 0.953912  0.063799 0.630768 0
ConsolePanelLoadingBay
0  -26.892857 -7.090187 30.123138  0.868352 -0.325457 0.374223  0.061952 0.628989 0
0  -26.749788 2.986940 38.555122  0.868343 -0.325465 0.374236  0.063780 0.781306 0
0  -26.892857 2.938496 38.844963  0.868343 -0.325465 0.374236  0.061933 0.783091 0
ConsolePanelLoadingBay
0  -26.892857 -7.090187 30.123138  0.868352 -0.325457 0.374223  0.061952 0.628989 0
0  -26.749788 -6.809866 30.034954  0.868352 -0.325457 0.374223  0.063799 0.630768 0
0  -26.749788 2.986940 38.555122  0.868343 -0.325465 0.374236  0.063780 0.781306 0
ConsolePanelLoadingBay
0  -2.142043 2.938497 38.844963  -0.868344 -0.325466 0.374232  0.381586 0.783123 0
0  -2.285111 -6.809865 30.034954  -0.868352 -0.325457 0.374223  0.379756 0.630799 0
0  -2.142043 -7.090186 30.123138  -0.868352 -0.325457 0.374223  0.381605 0.629021 0
ConsolePanelLoadingBay
0  -2.142043 2.938497 38.844963  -0.868344 -0.325466 0.374232  0.381586 0.783123 0
0  -2.285111 2.986941 38.555122  -0.868344 -0.325466 0.374233  0.379738 0.781337 0
0  -2.285111 -6.809865 30.034954  -0.868352 -0.325457 0.374223  0.379756 0.630799 0
ConsolePanelLoadingBay
0  -26.892857 2.938496 38.844963  0.000000 -0.986318 -0.164853  0.061933 0.783091 0
0  -2.285111 2.986941 38.555122  0.000000 -0.986318 -0.164853  0.379738 0.781337 0
0  -2.142043 2.938497 38.844963  0.000000 -0.986318 -0.164853  0.381586 0.783123 0
ConsolePanelLoadingBay
0  -26.892857 2.938496 38.844963  0.000000 -0.986318 -0.164853  0.061933 0.783091 0
0  -26.749788 2.986940 38.555122  0.000000 -0.986318 -0.164853  0.063780 0.781306 0
0  -2.285111 2.986941 38.555122  0.000000 -0.986318 -0.164853  0.379738 0.781337 0
ConsolePanelLoadingBay
0  22.675495 -9.762594 36.230400  0.999761 0.009344 -0.019783  0.908078 0.763505 0
0  22.792019 -4.292605 44.703278  0.924512 0.286013 0.251942  0.977124 0.555995 0
0  22.792019 -11.400392 38.441818  1.000000 -0.000000 0.000003  0.977124 0.751876 0
ConsolePanelLoadingBay
0  22.675495 -9.762594 36.230400  0.999761 0.009344 -0.019783  0.908078 0.763505 0
0  22.792019 -2.486565 42.653130  0.924519 0.285992 0.251940  0.908078 0.555995 0
0  22.792019 -4.292605 44.703278  0.924512 0.286013 0.251942  0.977124 0.555995 0
ConsolePanelLoadingBay
0  22.792019 -2.486565 42.653130  0.924519 0.285992 0.251940  0.908078 0.555995 0
0  21.195429 -3.086693 45.765602  0.384206 0.692774 0.610287  0.977124 0.508612 0
0  22.792019 -4.292605 44.703278  0.924512 0.286013 0.251942  0.977124 0.555995 0
ConsolePanelLoadingBay
0  22.792019 -2.486565 42.653130  0.924519 0.285992 0.251940  0.908078 0.555995 0
0  21.195429 -1.280653 43.715454  0.384206 0.692774 0.610286  0.908078 0.508612 0
0  21.195429 -3.086693 45.765602  0.384206 0.692774 0.610287  0.977124 0.508612 0
ConsolePanelLoadingBay
0  21.195429 -1.280653 43.715454  0.384206 0.692774 0.610286  0.908078 0.508612 0
0  11.130994 -3.086694 45.765602  -0.382483 0.693311 0.610759  0.977124 0.273881 0
0  21.195429 -3.086693 45.765602  0.384206 0.692774 0.610287  0.977124 0.508612 0
ConsolePanelLoadingBay
0  21.195429 -1.280653 43.715454  0.384206 0.692774 0.610286  0.908078 0.508612 0
0  11.130994 -1.280653 43.715454  -0.382483 0.693311 0.610759  0.908078 0.273881 0
0  11.130994 -3.086694 45.765602  -0.382483 0.693311 0.610759  0.977124 0.273881 0
ConsolePanelLoadingBay
0  11.130994 -1.280653 43.715454  -0.382483 0.693311 0.610759  0.908078 0.273881 0
0  9.522439 -4.292605 44.703278  -0.923789 0.287316 0.253106  0.977124 0.226310 0
0  11.130994 -3.086694 45.765602  -0.382483 0.693311 0.610759  0.977124 0.273881 0
ConsolePanelLoadingBay
0  11.130994 -1.280653 43.715454  -0.382483 0.693311 0.610759  0.908078 0.273881 0
0  9.522439 -2.486566 42.653130  -0.923794 0.287316 0.253089  0.908078 0.226310 0
0  9.522439 -4.292605 44.703278  -0.923789 0.287316 0.253106  0.977124 0.226310 0
ConsolePanelLoadingBay
0  9.522439 -2.486566 42.653130  -0.923794 0.287316 0.253089  0.908078 0.226310 0
0  9.522440 -11.400393 38.441818  -1.000000 0.000001 -0.000001  0.977124 0.030429 0
0  9.522439 -4.292605 44.703278  -0.923789 0.287316 0.253106  0.977124 0.226310 0
ConsolePanelLoadingBay
0  9.522439 -2.486566 42.653130  -0.923794 0.287316 0.253089  0.908078 0.226310 0
0  9.650929 -9.779115 36.213051  -0.999709 0.010300 -0.021807  0.908078 0.018652 0
0  9.522440 -11.400393 38.441818  -1.000000 0.000001 -0.000001  0.977124 0.030429 0
ConsolePanelLoadingBay
0  -8.963360 -3.549295 36.984982  0.000000 -0.966156 -0.257957  0.863286 0.399977 0
0  -3.759856 -3.763286 37.786472  0.000000 -0.966157 -0.257955  0.881311 0.286433 0
0  -8.963360 -3.763287 37.786472  0.000000 -0.966156 -0.257957  0.881311 0.399977 0
ConsolePanelLoadingBay
0  -8.963360 -3.549295 36.984982  0.000000 -0.966156 -0.257957  0.863286 0.399977 0
0  -3.759856 -3.549295 36.984982  0.000000 -0.966157 -0.257955  0.863286 0.286433 0
0  -3.759856 -3.763286 37.786472  0.000000 -0.966157 -0.257955  0.881311 0.286433 0
ConsolePanelLoadingBay
0  -3.759856 -3.549295 36.984982  1.000000 0.000000 0.000000  0.881237 0.399951 0
0  -3.759856 1.674662 39.238358  1.000000 0.000000 0.000000  0.862958 0.533925 0
0  -3.759856 -3.763286 37.786472  1.000000 0.000000 0.000000  0.863213 0.399951 0
ConsolePanelLoadingBay
0  -3.759856 -3.549295 36.984982  1.000000 0.000000 0.000000  0.881237 0.399951 0
0  -3.759856 1.888653 38.436867  1.000000 0.000000 0.000000  0.880982 0.533925 0
0  -3.759856 1.674662 39.238358  1.000000 0.000000 0.000000  0.862958 0.533925 0
ConsolePanelLoadingBay
0  -30.139233 3.025239 38.955467  -0.090266 -0.472783 0.876544  0.021573 0.725502 0
0  -31.207756 1.084847 37.232319  -0.041607 -0.663776 0.746773  0.009115 0.695427 0
0  -27.862982 2.691973 38.847191  0.009135 -0.677851 0.735143  0.047999 0.721853 0
ConsolePanelLoadingBay
0  -31.207756 1.084847 37.232319  -0.041607 -0.663776 0.746773  0.009115 0.695427 0
0  -28.617245 0.252581 36.544331  0.091097 -0.802956 0.589036  0.039190 0.682969 0
0  -27.862982 2.691973 38.847191  0.009135 -0.677851 0.735143  0.047999 0.721853 0
ConsolePanelLoadingBay
0  -28.617245 0.252581 36.544331  0.091097 -0.802956 0.589036  0.039190 0.682969 0
0  -27.235180 1.660558 37.725067  0.265847 -0.632645 0.727383  0.055297 0.704235 0
0  -27.862982 2.691973 38.847191  0.009135 -0.677851 0.735143  0.047999 0.721853 0
ConsolePanelLoadingBay
0  -24.678427 -3.938695 32.627140  -0.002389 -0.682794 0.730607  0.091241 0.676190 0
0  -23.301956 -2.932056 33.572403  -0.002406 -0.682781 0.730619  0.108173 0.691410 0
0  -24.622343 -2.848645 33.603554  -0.002339 -0.682826 0.730577  0.091241 0.691410 0
ConsolePanelLoadingBay
0  -24.678427 -3.938695 32.627140  -0.002389 -0.682794 0.730607  0.091241 0.676190 0
0  -23.269781 -3.934202 32.593220  -0.002309 -0.682856 0.730549  0.108173 0.676190 0
0  -23.301956 -2.932056 33.572403  -0.002406 -0.682781 0.730619  0.108173 0.691410 0
ConsolePanelLoadingBay
0  -23.048420 -3.938695 32.627140  -0.002422 -0.682769 0.730631  0.112382 0.676190 0
0  -21.671949 -2.932056 33.572403  -0.002371 -0.682806 0.730595  0.129314 0.691410 0
0  -22.992336 -2.848645 33.603554  -0.002338 -0.682827 0.730577  0.112382 0.691410 0
ConsolePanelLoadingBay
0  -23.048420 -3.938695 32.627140  -0.002422 -0.682769 0.730631  0.112382 0.676190 0
0  -21.639774 -3.934202 32.593220  -0.002308 -0.682855 0.730550  0.129314 0.676190 0
0  -21.671949 -2.932056 33.572403  -0.002371 -0.682806 0.730595  0.129314 0.691410 0
ConsolePanelLoadingBay
0  -21.344286 -3.958678 32.680065  0.037581 -0.638676 0.768558  0.133523 0.676190 0
0  -20.009768 -2.850328 33.535851  0.037356 -0.638515 0.768702  0.150455 0.691410 0
0  -21.424028 -2.898130 33.557533  0.037468 -0.638594 0.768632  0.133523 0.691410 0
ConsolePanelLoadingBay
0  -21.344286 -3.958678 32.680065  0.037581 -0.638676 0.768558  0.133523 0.676190 0
0  -20.026546 -3.981009 32.589741  0.037469 -0.638597 0.768629  0.150455 0.676190 0
0  -20.009768 -2.850328 33.535851  0.037356 -0.638515 0.768702  0.150455 0.691410 0
ConsolePanelLoadingBay
0  -19.754307 -3.934202 32.593220  -0.035606 -0.655815 0.754081  0.154664 0.676190 0
0  -18.338644 -2.900358 33.559189  -0.035606 -0.655815 0.754081  0.171596 0.691410 0
0  -19.754307 -2.850328 33.535851  -0.035604 -0.655815 0.754082  0.154664 0.691410 0
ConsolePanelLoadingBay
0  -19.754307 -3.934202 32.593220  -0.035606 -0.655815 0.754081  0.154664 0.676190 0
0  -18.338644 -3.950373 32.646004  -0.035607 -0.655815 0.754081  0.171596 0.676190 0
0  -18.338644 -2.900358 33.559189  -0.035606 -0.655815 0.754081  0.171596 0.691410 0
ConsolePanelLoadingBay
0  0.479709 -6.322569 31.405800  -0.332728 0.618098 -0.712213  0.567719 0.420741 0
0  0.310555 -3.840075 33.639267  -0.332728 0.618098 -0.712213  0.566917 0.440765 0
0  0.697398 -3.094300 34.101620  -0.332728 0.618097 -0.712214  0.567719 0.442382 0
ConsolePanelLoadingBay
0  0.479709 -6.322569 31.405800  -0.332687 0.618110 -0.712222  0.567719 0.420741 0
0  0.310555 -6.121239 31.655363  -0.332687 0.618109 -0.712223  0.566917 0.422358 0
0  0.310555 -3.840075 33.639267  -0.332687 0.618108 -0.712224  0.566917 0.440765 0
ConsolePanelLoadingBay
0  -18.204216 -3.948656 32.645805  0.024571 -0.648317 0.760974  0.175290 0.676190 0
0  -16.789511 -2.850328 33.535851  0.024773 -0.648468 0.760839  0.192221 0.691410 0
0  -18.203772 -2.898130 33.557533  0.024608 -0.648343 0.760951  0.175290 0.691410 0
ConsolePanelLoadingBay
0  -18.204216 -3.948656 32.645805  0.024571 -0.648317 0.760974  0.175290 0.676190 0
0  -16.806290 -3.981009 32.589741  0.024595 -0.648337 0.760956  0.192221 0.676190 0
0  -16.789511 -2.850328 33.535851  0.024773 -0.648468 0.760839  0.192221 0.691410 0
ConsolePanelLoadingBay
0  -16.595390 -5.264256 31.545204  0.031140 -0.633868 0.772814  0.195141 0.655809 0
0  -15.258895 -4.155506 32.400753  0.030501 -0.633408 0.773216  0.212073 0.671030 0
0  -16.667540 -4.188476 32.409912  0.030805 -0.633625 0.773027  0.195141 0.671030 0
ConsolePanelLoadingBay
0  -16.595390 -5.264256 31.545204  0.031140 -0.633868 0.772814  0.195141 0.655809 0
0  -15.275673 -5.286185 31.454643  0.030812 -0.633635 0.773018  0.212073 0.655809 0
0  -15.258895 -4.155506 32.400753  0.030501 -0.633408 0.773216  0.212073 0.671030 0
ConsolePanelLoadingBay
0  -18.142071 -5.306663 31.465847  -0.002341 -0.628767 0.777590  0.175290 0.655809 0
0  -16.789511 -4.155506 32.400753  -0.002073 -0.628956 0.777438  0.192221 0.671030 0
0  -18.198156 -4.188476 32.409912  -0.002332 -0.628775 0.777584  0.175290 0.671030 0
ConsolePanelLoadingBay
0  -18.142071 -5.306663 31.465847  -0.002341 -0.628767 0.777590  0.175290 0.655809 0
0  -16.821686 -5.264239 31.544130  -0.002341 -0.628768 0.777589  0.192221 0.655809 0
0  -16.789511 -4.155506 32.400753  -0.002073 -0.628956 0.777438  0.192221 0.671030 0
ConsolePanelLoadingBay
0  -19.794022 -5.254219 31.508471  0.024587 -0.663653 0.747637  0.154664 0.655809 0
0  -18.396540 -4.145567 32.446625  0.024380 -0.663507 0.747772  0.171596 0.671030 0
0  -19.794466 -4.205576 32.422363  0.024616 -0.663669 0.747621  0.154664 0.671030 0
ConsolePanelLoadingBay
0  -19.794022 -5.254219 31.508471  0.024587 -0.663653 0.747637  0.154664 0.655809 0
0  -18.379763 -5.239379 31.458122  0.024594 -0.663663 0.747627  0.171596 0.655809 0
0  -18.396540 -4.145567 32.446625  0.024380 -0.663507 0.747772  0.171596 0.671030 0
ConsolePanelLoadingBay
0  -19.732323 -6.596839 30.343796  -0.002340 -0.628768 0.777589  0.154664 0.636761 0
0  -18.379763 -5.445682 31.278704  -0.002424 -0.628708 0.777637  0.171596 0.651982 0
0  -19.788406 -5.478652 31.287861  -0.002332 -0.628775 0.777584  0.154664 0.651982 0
ConsolePanelLoadingBay
0  -19.732323 -6.596839 30.343796  -0.002340 -0.628768 0.777589  0.154664 0.636761 0
0  -18.411936 -6.554415 30.422081  -0.002336 -0.628769 0.777589  0.171596 0.636761 0
0  -18.379763 -5.445682 31.278704  -0.002424 -0.628708 0.777637  0.171596 0.651982 0
ConsolePanelLoadingBay
0  -16.611456 -6.596839 30.343796  0.010744 -0.637968 0.769988  0.195141 0.636761 0
0  -15.258895 -5.445682 31.278704  0.010900 -0.638076 0.769896  0.212073 0.651982 0
0  -16.667540 -5.478652 31.287861  0.010913 -0.638087 0.769887  0.195141 0.651982 0
ConsolePanelLoadingBay
0  -16.611456 -6.596839 30.343796  0.010744 -0.637968 0.769988  0.195141 0.636761 0
0  -15.278966 -6.595039 30.342953  0.010906 -0.638082 0.769891  0.212073 0.636761 0
0  -15.258895 -5.445682 31.278704  0.010900 -0.638076 0.769896  0.212073 0.651982 0
ConsolePanelLoadingBay
0  -15.097168 -6.534050 30.369991  0.030760 -0.677608 0.734780  0.215509 0.636761 0
0  -13.705300 -5.435741 31.324575  0.030958 -0.677744 0.734646  0.232441 0.651982 0
0  -15.025018 -5.528471 31.315418  0.030810 -0.677643 0.734745  0.215509 0.651982 0
ConsolePanelLoadingBay
0  -15.097168 -6.534050 30.369991  0.030760 -0.677608 0.734780  0.215509 0.636761 0
0  -13.688523 -6.529554 30.336071  0.030804 -0.677640 0.734749  0.232441 0.636761 0
0  -13.705300 -5.435741 31.324575  0.030958 -0.677744 0.734646  0.232441 0.651982 0
ConsolePanelLoadingBay
0  -13.454645 -6.554430 30.423155  0.030722 -0.633567 0.773078  0.235877 0.636761 0
0  -12.118151 -5.445682 31.278704  0.030848 -0.633658 0.772998  0.252808 0.651982 0
0  -13.526795 -5.478652 31.287861  0.030802 -0.633623 0.773029  0.235877 0.651982 0
ConsolePanelLoadingBay
0  -13.454645 -6.554430 30.423155  0.030722 -0.633567 0.773078  0.235877 0.636761 0
0  -12.134929 -6.576363 30.332592  0.030813 -0.633635 0.773018  0.252808 0.636761 0
0  -12.118151 -5.445682 31.278704  0.030848 -0.633658 0.772998  0.252808 0.651982 0
ConsolePanelLoadingBay
0  31.707117 8.045532 39.894901  0.599859 0.000000 0.800106  0.504019 0.325985 0
0  31.951651 4.222679 39.711563  0.599887 0.000000 0.800085  0.534900 0.324501 0
0  31.951651 7.909287 39.711563  0.599857 0.000000 0.800107  0.505120 0.324505 0
ConsolePanelLoadingBay
0  31.707117 8.045532 39.894901  0.599859 0.000000 0.800106  0.504019 0.325985 0
0  31.707117 4.145755 39.894901  0.599888 0.000000 0.800084  0.535521 0.325981 0
0  31.951651 4.222679 39.711563  0.599887 0.000000 0.800085  0.534900 0.324501 0
ConsolePanelLoadingBay
0  31.707117 4.145755 39.894901  0.621298 -0.514915 0.590636  0.535521 0.325981 0
0  31.951651 -7.868243 29.163876  0.621320 -0.514903 0.590623  0.631232 0.239292 0
0  31.951651 4.222679 39.711563  0.621273 -0.514929 0.590650  0.534900 0.324501 0
ConsolePanelLoadingBay
0  31.707117 4.145755 39.894901  0.621298 -0.514915 0.590636  0.535521 0.325981 0
0  31.707117 -8.039356 29.278767  0.621317 -0.514906 0.590625  0.632614 0.240220 0
0  31.951651 -7.868243 29.163876  0.621320 -0.514903 0.590623  0.631232 0.239292 0
ConsolePanelLoadingBay
0  31.707117 -8.039356 29.278767  0.569400 -0.822060 0.000192  0.632614 0.240220 0
0  31.951651 -7.876823 0.001322  0.569328 -0.822110 0.000191  0.631300 0.003734 0
0  31.951651 -7.868243 29.163876  0.569390 -0.822068 0.000193  0.631232 0.239292 0
ConsolePanelLoadingBay
0  31.707117 -8.039356 29.278767  0.569400 -0.822060 0.000192  0.632614 0.240220 0
0  31.707117 -8.044418 0.001322  0.569355 -0.822092 0.000143  0.632655 0.003735 0
0  31.951651 -7.876823 0.001322  0.569328 -0.822110 0.000191  0.631300 0.003734 0
ConsolePanelLoadingBay
0  31.707117 -8.044418 0.001322  -0.000000 0.000000 -1.000000  0.632655 0.003735 0
0  31.951651 7.909289 0.001322  -0.000000 0.000000 -1.000000  0.505119 0.003748 0
0  31.951651 -7.876823 0.001322  0.000000 0.000000 -1.000000  0.631300 0.003734 0
ConsolePanelLoadingBay
0  31.707117 -8.044418 0.001322  -0.000000 0.000000 -1.000000  0.632655 0.003735 0
0  31.707117 8.045534 0.001322  -0.000000 0.000000 -1.000000  0.504019 0.003749 0
0  31.951651 7.909289 0.001322  -0.000000 0.000000 -1.000000  0.505119 0.003748 0
ConsolePanelLoadingBay
0  -31.562456 8.045532 0.001322  -0.000000 0.000000 -1.000000  0.504019 0.003749 0
0  -31.791149 -7.876826 0.001322  0.000000 0.000000 -1.000000  0.631300 0.003734 0
0  -31.791149 7.909286 0.001322  -0.000000 0.000000 -1.000000  0.505119 0.003748 0
ConsolePanelLoadingBay
0  -31.562456 8.045532 0.001322  -0.000000 0.000000 -1.000000  0.504019 0.003749 0
0  -31.562456 -8.044420 0.001322  0.000000 0.000000 -1.000000  0.632655 0.003735 0
0  -31.791149 -7.876826 0.001322  0.000000 0.000000 -1.000000  0.631300 0.003734 0
ConsolePanelLoadingBay
0  -31.815548 7.909285 39.711563  -0.586639 0.000000 0.809848  0.505120 0.324505 0
0  -31.562456 4.145752 39.894901  -0.586645 0.000000 0.809844  0.535521 0.325981 0
0  -31.562456 8.045530 39.894901  -0.586639 0.000000 0.809848  0.504019 0.325985 0
ConsolePanelLoadingBay
0  -31.815548 7.909285 39.711563  -0.586639 0.000000 0.809848  0.505120 0.324505 0
0  -31.815548 4.222676 39.711563  -0.586645 0.000000 0.809844  0.534900 0.324501 0
0  -31.562456 4.145752 39.894901  -0.586645 0.000000 0.809844  0.535521 0.325981 0
ConsolePanelLoadingBay
0  -31.815548 4.222676 39.711563  -0.608158 -0.521646 0.598355  0.534900 0.324501 0
0  -31.562456 -8.039358 29.278767  -0.608151 -0.521650 0.598359  0.632614 0.240220 0
0  -31.562456 4.145752 39.894901  -0.608155 -0.521648 0.598357  0.535521 0.325981 0
ConsolePanelLoadingBay
0  -31.815548 4.222676 39.711563  -0.608158 -0.521646 0.598355  0.534900 0.324501 0
0  -31.815548 -7.868246 29.163876  -0.608132 -0.521660 0.598370  0.631232 0.239292 0
0  -31.562456 -8.039358 29.278767  -0.608151 -0.521650 0.598359  0.632614 0.240220 0
ConsolePanelLoadingBay
0  -31.791149 7.909286 0.001322  -0.492278 0.870438 -0.000149  0.505119 0.003748 0
0  -31.562456 8.045530 39.894901  -0.492265 0.870446 -0.000150  0.504019 0.325985 0
0  -31.562456 8.045532 0.001322  -0.492283 0.870435 -0.000151  0.504019 0.003749 0
ConsolePanelLoadingBay
0  -31.791149 7.909286 0.001322  -0.492278 0.870438 -0.000149  0.505119 0.003748 0
0  -31.815548 7.909285 39.711563  -0.492264 0.870446 -0.000151  0.505120 0.324505 0
0  -31.562456 8.045530 39.894901  -0.492265 0.870446 -0.000150  0.504019 0.325985 0
ConsolePanelLoadingBay
0  -31.562456 8.045530 39.894901  -0.000000 1.000000 0.000000  0.496640 0.559631 0
0  31.707117 8.045534 0.001322  -0.000000 1.000000 0.000000  0.002182 0.281838 0
0  -31.562456 8.045532 0.001322  -0.000000 1.000000 0.000000  0.496640 0.281838 0
ConsolePanelLoadingBay
0  -31.562456 8.045530 39.894901  -0.000000 1.000000 0.000000  0.496640 0.559631 0
0  31.707117 8.045532 39.894901  -0.000000 1.000000 0.000000  0.002182 0.559631 0
0  31.707117 8.045534 0.001322  -0.000000 1.000000 0.000000  0.002182 0.281838 0
ConsolePanelLoadingBay
0  -31.815548 -7.868246 29.163876  -0.575125 -0.818066 -0.000048  0.631232 0.239292 0
0  -31.562456 -8.044420 0.001322  -0.575129 -0.818063 -0.000048  0.632655 0.003735 0
0  -31.562456 -8.039358 29.278767  -0.575124 -0.818066 -0.000051  0.632614 0.240220 0
ConsolePanelLoadingBay
0  -31.815548 -7.868246 29.163876  -0.575125 -0.818066 -0.000048  0.631232 0.239292 0
0  -31.791149 -7.876826 0.001322  -0.575141 -0.818054 -0.000257  0.631300 0.003734 0
0  -31.562456 -8.044420 0.001322  -0.575129 -0.818063 -0.000048  0.632655 0.003735 0
ConsolePanelLoadingBay
0  31.707117 8.045534 0.001322  0.486708 0.873565 0.000000  0.504019 0.003749 0
0  31.951651 7.909287 39.711563  0.486707 0.873565 0.000000  0.505120 0.324505 0
0  31.951651 7.909289 0.001322  0.486708 0.873565 0.000000  0.505119 0.003748 0
ConsolePanelLoadingBay
0  31.707117 8.045534 0.001322  0.486708 0.873565 0.000000  0.504019 0.003749 0
0  31.707117 8.045532 39.894901  0.486707 0.873565 0.000000  0.504019 0.325985 0
0  31.951651 7.909287 39.711563  0.486707 0.873565 0.000000  0.505120 0.324505 0
ConsolePanelLoadingBay
0  31.707117 0.013248 44.638161  -0.000000 0.068641 0.997641  0.297269 0.994695 0
0  6.873425 -0.252215 44.656425  0.000000 0.068641 0.997641  0.007232 0.992497 0
0  31.518963 -0.252214 44.656425  -0.000000 0.068641 0.997641  0.295072 0.992497 0
ConsolePanelLoadingBay
0  31.707117 0.013248 44.638161  -0.000000 0.068641 0.997641  0.297269 0.994695 0
0  6.685173 0.013247 44.638161  0.000000 0.068641 0.997641  0.005034 0.994695 0
0  6.873425 -0.252215 44.656425  0.000000 0.068641 0.997641  0.007232 0.992497 0
ConsolePanelLoadingBay
0  -31.562456 4.145752 39.894901  -0.000968 -0.659522 0.751685  0.001623 0.801636 0
0  -26.892857 2.938496 38.844963  -0.000978 -0.659581 0.751633  0.061933 0.783091 0
0  -2.142043 2.938497 38.844963  0.000681 -0.656518 0.754310  0.381586 0.783123 0
ConsolePanelLoadingBay
0  -26.892857 -7.090187 30.123138  -0.000974 -0.659579 0.751635  0.061952 0.628989 0
0  -26.892857 2.938496 38.844963  -0.000978 -0.659581 0.751633  0.061933 0.783091 0
0  -31.562456 4.145752 39.894901  -0.000968 -0.659522 0.751685  0.001623 0.801636 0
ConsolePanelLoadingBay
0  -26.892857 -7.090187 30.123138  -0.000974 -0.659579 0.751635  0.061952 0.628989 0
0  -31.562456 4.145752 39.894901  -0.000968 -0.659522 0.751685  0.001623 0.801636 0
0  -31.562456 -8.039358 29.278767  -0.001036 -0.659509 0.751696  0.001647 0.614254 0
ConsolePanelLoadingBay
0  -26.892857 -7.090187 30.123138  -0.000974 -0.659579 0.751635  0.061952 0.628989 0
0  -31.562456 -8.039358 29.278767  -0.001036 -0.659509 0.751696  0.001647 0.614254 0
0  6.693663 -8.039357 29.278767  -0.000966 -0.659559 0.751652  0.495718 0.614303 0
ConsolePanelLoadingBay
0  -26.892857 -7.090187 30.123138  -0.000974 -0.659579 0.751635  0.061952 0.628989 0
0  6.693663 -8.039357 29.278767  -0.000966 -0.659559 0.751652  0.495718 0.614303 0
0  -2.142043 -7.090186 30.123138  -0.000926 -0.659635 0.751586  0.381605 0.629021 0
ConsolePanelLoadingBay
0  -2.142043 2.938497 38.844963  0.000681 -0.656518 0.754310  0.381586 0.783123 0
0  -2.142043 -7.090186 30.123138  -0.000926 -0.659635 0.751586  0.381605 0.629021 0
0  6.693663 -8.039357 29.278767  -0.000966 -0.659559 0.751652  0.495718 0.614303 0
ConsolePanelLoadingBay
0  -2.142043 2.938497 38.844963  0.000681 -0.656518 0.754310  0.381586 0.783123 0
0  6.693663 -8.039357 29.278767  -0.000966 -0.659559 0.751652  0.495718 0.614303 0
0  6.685173 4.145754 39.894901  0.000382 -0.656645 0.754200  0.495586 0.801685 0
ConsolePanelLoadingBay
0  -2.142043 2.938497 38.844963  0.000681 -0.656518 0.754310  0.381586 0.783123 0
0  6.685173 4.145754 39.894901  0.000382 -0.656645 0.754200  0.495586 0.801685 0
0  -31.562456 4.145752 39.894901  -0.000968 -0.659522 0.751685  0.001623 0.801636 0
ConsolePanelLoadingBay
0  2.702547 -4.280208 33.739223  0.000000 0.394990 -0.918686  0.558596 0.444487 0
0  1.354105 -4.280208 33.739223  0.000000 0.394990 -0.918686  0.540009 0.444487 0
0  2.028326 -3.660799 34.005539  0.000000 0.394990 -0.918686  0.549303 0.444487 0
ConsolePanelLoadingBay
0  6.685173 4.145754 39.894901  -1.000000 -0.000396 -0.000345  0.304494 0.923804 0
0  6.693663 -12.171866 34.022022  -0.733619 -0.628594 0.258210  0.430836 0.995160 0
0  6.685173 0.013247 44.638161  -0.923891 -0.251727 0.288199  0.304538 0.995431 0
ConsolePanelLoadingBay
0  6.685173 4.145754 39.894901  -1.000000 -0.000396 -0.000345  0.304494 0.923804 0
0  6.693663 -8.039357 29.278767  -1.000000 -0.000396 -0.000345  0.430793 0.923533 0
0  6.693663 -12.171866 34.022022  -0.733619 -0.628594 0.258210  0.430836 0.995160 0
ConsolePanelLoadingBay
0  6.693663 -8.039357 29.278767  0.000000 -0.753980 -0.656897  0.430793 0.923533 0
0  31.707117 -12.171865 34.022022  0.000000 -0.753980 -0.656897  0.650346 0.995160 0
0  6.693663 -12.171866 34.022022  0.000000 -0.753981 -0.656897  0.430836 0.995160 0
ConsolePanelLoadingBay
0  6.693663 -8.039357 29.278767  0.000000 -0.753980 -0.656897  0.430793 0.923533 0
0  31.707117 -8.039356 29.278767  0.000000 -0.753980 -0.656897  0.650389 0.923533 0
0  31.707117 -12.171865 34.022022  0.000000 -0.753980 -0.656897  0.650346 0.995160 0
ConsolePanelLoadingBay
0  31.707117 -8.039356 29.278767  1.000000 0.000000 0.000000  0.650389 0.923533 0
0  31.707117 0.013248 44.638161  1.000000 0.000000 0.000000  0.776610 0.995431 0
0  31.707117 -12.171865 34.022022  1.000000 0.000000 0.000000  0.650346 0.995160 0
ConsolePanelLoadingBay
0  31.707117 -8.039356 29.278767  1.000000 0.000000 0.000000  0.650389 0.923533 0
0  31.707117 4.145755 39.894901  1.000000 0.000000 0.000000  0.776654 0.923804 0
0  31.707117 0.013248 44.638161  1.000000 0.000000 0.000000  0.776610 0.995431 0
ConsolePanelLoadingBay
0  31.707117 4.145755 39.894901  -0.000000 0.753981 0.656897  0.776654 0.923804 0
0  6.685173 0.013247 44.638161  -0.000000 0.753981 0.656897  0.996241 0.995431 0
0  31.707117 0.013248 44.638161  0.000000 0.753981 0.656897  0.776610 0.995431 0
ConsolePanelLoadingBay
0  31.707117 4.145755 39.894901  -0.000000 0.753981 0.656897  0.776654 0.923804 0
0  6.685173 4.145754 39.894901  -0.000000 0.753981 0.656897  0.996198 0.923804 0
0  6.685173 0.013247 44.638161  -0.000000 0.753981 0.656897  0.996241 0.995431 0
ConsolePanelLoadingBay
0  -7.055824 -1.794917 46.346657  0.000004 -0.883094 0.469197  0.623967 0.741833 0
0  -5.969671 -0.163697 48.062496  0.060143 -0.744476 0.664935  0.678137 0.794056 0
0  -7.055824 -0.350259 48.073280  0.000093 -0.766954 0.641703  0.623967 0.794214 0
ConsolePanelLoadingBay
0  -7.055824 -1.794917 46.346657  0.000004 -0.883094 0.469197  0.623967 0.741833 0
0  -5.737854 -1.794917 46.346657  -0.000002 -0.883093 0.469197  0.678137 0.741942 0
0  -5.969671 -0.163697 48.062496  0.060143 -0.744476 0.664935  0.678137 0.794056 0
ConsolePanelLoadingBay
0  -4.362298 -2.212914 38.315010  0.714406 0.275041 0.643410  0.691345 0.498267 0
0  -7.342419 0.174347 40.603485  0.322581 0.745381 0.583394  0.812571 0.547746 0
0  -4.838610 -2.362569 39.949642  0.714429 0.274968 0.643416  0.690502 0.547030 0
ConsolePanelLoadingBay
0  -4.362298 -2.212914 38.315010  0.714406 0.275041 0.643410  0.691345 0.498267 0
0  -5.228377 0.929596 38.975464  0.322561 0.745407 0.583372  0.754798 0.498267 0
0  -7.342419 0.174347 40.603485  0.322581 0.745381 0.583394  0.812571 0.547746 0
ConsolePanelLoadingBay
0  -5.228377 0.929596 38.975464  0.322561 0.745407 0.583372  0.754798 0.498267 0
0  -7.565783 0.927635 38.974579  -0.000921 0.907596 0.419844  0.811311 0.498267 0
0  -7.342419 0.174347 40.603485  0.322581 0.745381 0.583394  0.812571 0.547746 0
ConsolePanelLoadingBay
0  -7.565783 0.927635 38.974579  -0.861176 0.384177 0.332843  0.529138 0.498267 0
0  -7.927613 -2.375867 39.943520  -0.949050 0.179847 0.258764  0.602518 0.547746 0
0  -7.342419 0.174347 40.603485  -0.850385 0.283193 0.443449  0.530399 0.547746 0
ConsolePanelLoadingBay
0  -7.565783 0.927635 38.974579  -0.861176 0.384177 0.332843  0.529138 0.498267 0
0  -8.465631 -2.333914 38.226929  -0.949055 0.179843 0.258750  0.601675 0.498267 0
0  -7.927613 -2.375867 39.943520  -0.949050 0.179847 0.258764  0.602518 0.547746 0
ConsolePanelLoadingBay
0  -7.342419 0.174347 40.603485  -0.850390 0.283153 0.443466  0.530399 0.547746 0
0  -7.566072 -2.483757 41.016247  -0.935469 0.129756 0.328727  0.603896 0.581402 0
0  -7.077400 -0.412212 41.585800  -0.850393 0.283141 0.443467  0.532731 0.581402 0
ConsolePanelLoadingBay
0  -7.342419 0.174347 40.603485  -0.850390 0.283153 0.443466  0.530399 0.547746 0
0  -7.927613 -2.375867 39.943520  -0.935370 0.129789 0.328995  0.602518 0.547746 0
0  -7.566072 -2.483757 41.016247  -0.935469 0.129756 0.328727  0.603896 0.581402 0
ConsolePanelLoadingBay
0  -4.838610 -2.362569 39.949642  0.736042 0.623235 0.264234  0.690502 0.547030 0
0  -7.077400 -0.412212 41.585800  0.545308 0.747450 0.379417  0.814904 0.581402 0
0  -5.349689 -2.342274 40.988312  0.736049 0.623201 0.264295  0.693953 0.578898 0
ConsolePanelLoadingBay
0  -4.838610 -2.362569 39.949642  0.736042 0.623235 0.264234  0.690502 0.547030 0
0  -7.342419 0.174347 40.603485  0.545322 0.747448 0.379401  0.812571 0.547746 0
0  -7.077400 -0.412212 41.585800  0.545308 0.747450 0.379417  0.814904 0.581402 0
ConsolePanelLoadingBay
0  -7.566072 -2.483757 41.016247  0.040246 -0.992460 0.115777  0.603896 0.581402 0
0  -5.737854 -1.794917 46.346657  -0.000002 -0.883093 0.469197  0.678137 0.736088 0
0  -7.055824 -1.794917 46.346657  0.000004 -0.883094 0.469197  0.623967 0.739307 0
ConsolePanelLoadingBay
0  -7.566072 -2.483757 41.016247  0.040246 -0.992460 0.115777  0.603896 0.581402 0
0  -5.349689 -2.342274 40.988312  0.040230 -0.992459 0.115785  0.693953 0.578898 0
0  -5.737854 -1.794917 46.346657  -0.000002 -0.883093 0.469197  0.678137 0.736088 0
ConsolePanelLoadingBay
0  -8.963360 1.888653 38.436867  -1.000000 0.000000 0.000000  0.880982 0.647469 0
0  -8.963360 -3.763287 37.786472  -1.000000 -0.000000 0.000000  0.863213 0.781443 0
0  -8.963360 1.674662 39.238358  -1.000000 0.000000 0.000000  0.862958 0.647469 0
ConsolePanelLoadingBay
0  -8.963360 1.888653 38.436867  -1.000000 0.000000 0.000000  0.880982 0.647469 0
0  -8.963360 -3.549295 36.984982  -1.000000 -0.000000 0.000000  0.881237 0.781443 0
0  -8.963360 -3.763287 37.786472  -1.000000 -0.000000 0.000000  0.863213 0.781443 0
ConsolePanelLoadingBay
0  -3.171011 2.684309 38.326500  0.999970 -0.007275 0.002786  0.688083 0.829549 0
0  -3.232575 -8.128223 32.186554  1.000000 -0.000011 -0.000009  0.978938 0.888450 0
0  -3.232575 -6.611533 30.216600  1.000000 -0.000012 -0.000008  0.976602 0.831316 0
ConsolePanelLoadingBay
0  -3.171011 2.684309 38.326500  0.999970 -0.007285 0.002804  0.688083 0.829549 0
0  -3.232575 -4.071084 36.845669  1.000000 -0.000019 0.000017  0.837200 0.907484 0
0  -3.232575 -8.128223 32.186554  1.000000 -0.000019 0.000016  0.978938 0.888450 0
ConsolePanelLoadingBay
0  -9.490641 -6.611534 30.216600  0.000000 -0.792363 -0.610049  0.700520 0.073572 0
0  -3.232575 -8.128223 32.186554  0.000000 -0.792363 -0.610050  0.837075 0.128161 0
0  -9.490641 -8.128223 32.186554  0.000000 -0.792364 -0.610049  0.700520 0.128161 0
ConsolePanelLoadingBay
0  -9.490641 -6.611534 30.216600  0.000000 -0.792363 -0.610049  0.700520 0.073572 0
0  -3.232575 -6.611533 30.216600  0.000000 -0.792363 -0.610050  0.837075 0.073572 0
0  -3.232575 -8.128223 32.186554  0.000000 -0.792363 -0.610050  0.837075 0.128161 0
ConsolePanelLoadingBay
0  -9.490641 -6.611534 30.216600  -1.000000 -0.000020 0.000007  0.658380 0.829672 0
0  -9.490641 -4.071084 36.845669  -1.000000 -0.000020 0.000008  0.518979 0.905840 0
0  -9.521583 2.690397 38.305725  -0.999986 -0.004989 0.001912  0.369861 0.827905 0
ConsolePanelLoadingBay
0  -9.490641 -6.611534 30.216600  -1.000000 0.000000 0.000000  0.658380 0.829672 0
0  -9.490641 -8.128223 32.186554  -1.000000 0.000000 0.000000  0.660716 0.886806 0
0  -9.490641 -4.071084 36.845669  -1.000000 0.000000 0.000000  0.518979 0.905840 0
ConsolePanelLoadingBay
0  -8.963360 -3.763287 37.786472  0.000000 -0.257955 0.966157  0.712005 0.289915 0
0  -3.759856 1.674662 39.238358  0.000000 -0.257955 0.966157  0.825587 0.415779 0
0  -8.963360 1.674662 39.238358  0.000000 -0.257956 0.966157  0.712005 0.415779 0
ConsolePanelLoadingBay
0  -8.963360 -3.763287 37.786472  0.000000 -0.257955 0.966157  0.712005 0.289915 0
0  -3.759856 -3.763286 37.786472  0.000000 -0.257955 0.966157  0.825587 0.289915 0
0  -3.759856 1.674662 39.238358  0.000000 -0.257955 0.966157  0.825587 0.415779 0
ConsolePanelLoadingBay
0  -3.759856 1.888653 38.436867  0.000000 0.966157 0.257955  0.880982 0.533925 0
0  -8.963360 1.674662 39.238358  0.000000 0.966157 0.257956  0.862958 0.647469 0
0  -3.759856 1.674662 39.238358  0.000000 0.966157 0.257955  0.862958 0.533925 0
ConsolePanelLoadingBay
0  -3.759856 1.888653 38.436867  0.000000 0.966157 0.257955  0.880982 0.533925 0
0  -8.963360 1.888653 38.436867  0.000000 0.966157 0.257956  0.880982 0.647469 0
0  -8.963360 1.674662 39.238358  0.000000 0.966157 0.257956  0.862958 0.647469 0
ConsolePanelLoadingBay
0  -9.490641 -4.071084 36.845669  -0.000004 -0.440414 0.897795  0.700520 0.277809 0
0  -3.232575 -8.128223 32.186554  0.000000 -0.754146 0.656707  0.837075 0.128161 0
0  -3.232575 -4.071084 36.845669  0.000007 -0.440449 0.897777  0.837075 0.277809 0
ConsolePanelLoadingBay
0  -9.490641 -4.071084 36.845669  -0.000004 -0.440414 0.897795  0.700520 0.277809 0
0  -9.490641 -8.128223 32.186554  0.000000 -0.754146 0.656707  0.700520 0.128161 0
0  -3.232575 -8.128223 32.186554  0.000000 -0.754146 0.656707  0.837075 0.128161 0
ConsolePanelLoadingBay
0  -9.521583 2.690397 38.305725  -0.149880 -0.037849 0.987980  0.700520 0.449188 0
0  -8.963360 -3.549295 36.984982  -0.000009 -0.257946 0.966159  0.712005 0.289915 0
0  -8.963360 1.888653 38.436867  0.000039 -0.257929 0.966164  0.712005 0.415779 0
ConsolePanelLoadingBay
0  -9.521583 2.690397 38.305725  -0.149880 -0.037849 0.987980  0.700520 0.449188 0
0  -9.490641 -4.071084 36.845669  -0.000004 -0.440414 0.897795  0.700520 0.277809 0
0  -8.963360 -3.549295 36.984982  -0.000009 -0.257946 0.966159  0.712005 0.289915 0
ConsolePanelLoadingBay
0  -9.490641 -4.071084 36.845669  -0.000004 -0.440414 0.897795  0.700520 0.277809 0
0  -3.759856 -3.549295 36.984982  0.000005 -0.257955 0.966157  0.825587 0.289915 0
0  -8.963360 -3.549295 36.984982  -0.000009 -0.257946 0.966159  0.712005 0.289915 0
ConsolePanelLoadingBay
0  -9.490641 -4.071084 36.845669  -0.000004 -0.440414 0.897795  0.700520 0.277809 0
0  -3.232575 -4.071084 36.845669  0.000007 -0.440449 0.897777  0.837075 0.277809 0
0  -3.759856 -3.549295 36.984982  0.000005 -0.257955 0.966157  0.825587 0.289915 0
ConsolePanelLoadingBay
0  -3.232575 -4.071084 36.845669  0.000007 -0.440449 0.897777  0.837075 0.277809 0
0  -3.759856 1.888653 38.436867  0.000060 -0.257871 0.966179  0.825587 0.415779 0
0  -3.759856 -3.549295 36.984982  0.000005 -0.257955 0.966157  0.825587 0.289915 0
ConsolePanelLoadingBay
0  -3.232575 -4.071084 36.845669  0.000007 -0.440449 0.897777  0.837075 0.277809 0
0  -3.171011 2.684309 38.326500  0.135507 -0.039681 0.989981  0.837075 0.449188 0
0  -3.759856 1.888653 38.436867  0.000060 -0.257871 0.966179  0.825587 0.415779 0
ConsolePanelLoadingBay
0  -3.171011 2.684309 38.326500  0.135507 -0.039681 0.989981  0.837075 0.449188 0
0  -8.963360 1.888653 38.436867  -0.000021 -0.257876 0.966178  0.712005 0.415779 0
0  -3.759856 1.888653 38.436867  0.000060 -0.257871 0.966179  0.825587 0.415779 0
ConsolePanelLoadingBay
0  -3.171011 2.684309 38.326500  0.135507 -0.039681 0.989981  0.837075 0.449188 0
0  -9.521583 2.690397 38.305725  -0.149772 -0.037684 0.988002  0.700520 0.449188 0
0  -8.963360 1.888653 38.436867  -0.000021 -0.257876 0.966178  0.712005 0.415779 0
ConsolePanelLoadingBay
0  -5.737854 -1.794917 46.346657  0.906723 -0.409140 0.102266  0.678137 0.736088 0
0  -6.790371 -0.213885 45.649971  0.856866 0.476725 -0.196249  0.810421 0.707117 0
0  -5.969671 -0.163697 48.062496  0.849305 0.435759 -0.297985  0.697748 0.785329 0
ConsolePanelLoadingBay
0  -5.349689 -2.342274 40.988312  0.783404 0.620157 -0.041034  0.693953 0.578898 0
0  -6.790371 -0.213885 45.649971  0.856866 0.476725 -0.196249  0.810421 0.707117 0
0  -5.737854 -1.794917 46.346657  0.906723 -0.409140 0.102266  0.678137 0.736088 0
ConsolePanelLoadingBay
0  -5.349689 -2.342274 40.988312  0.783404 0.620157 -0.041034  0.693953 0.578898 0
0  -7.077400 -0.412212 41.585800  0.854086 0.511888 -0.092242  0.814904 0.581402 0
0  -6.790371 -0.213885 45.649971  0.856866 0.476725 -0.196249  0.810421 0.707117 0
ConsolePanelLoadingBay
0  0.310555 -6.121239 31.655363  0.000092 -0.656200 0.754587  0.532617 0.419416 0
0  0.697398 -3.094300 34.101620  0.023291 -0.656260 0.754176  0.536184 0.451467 0
0  0.310555 -3.840075 33.639267  0.000092 -0.656244 0.754548  0.532617 0.448106 0
ConsolePanelLoadingBay
0  0.310555 -6.121239 31.655363  0.000003 -0.656262 0.754533  0.532617 0.419416 0
0  3.848011 -3.677519 33.718555  0.023176 -0.656243 0.754194  0.566737 0.449787 0
0  0.697398 -3.094300 34.101620  0.023167 -0.656240 0.754196  0.536184 0.451467 0
ConsolePanelLoadingBay
0  0.310555 -6.121239 31.655363  0.000003 -0.656262 0.754533  0.532617 0.419416 0
0  3.825510 -6.261234 31.355433  0.023180 -0.656253 0.754184  0.565846 0.416895 0
0  3.848011 -3.677519 33.718555  0.023176 -0.656243 0.754194  0.566737 0.449787 0
ConsolePanelLoadingBay
0  0.310555 -6.121239 31.655363  0.000003 -0.656262 0.754533  0.532617 0.419416 0
0  0.479709 -6.322569 31.405800  0.023173 -0.656293 0.754150  0.536184 0.416055 0
0  3.825510 -6.261234 31.355433  0.023180 -0.656253 0.754184  0.565846 0.416895 0
ConsolePanelLoadingBay
0  9.522439 -4.292605 44.703278  0.000000 -0.661017 0.750371  0.657755 0.036494 0
0  9.522440 -11.400393 38.441818  0.000000 -0.661021 0.750367  0.657755 0.196010 0
0  9.779421 -11.400393 38.441818  0.000000 -0.661021 0.750367  0.662082 0.196010 0
ConsolePanelLoadingBay
0  9.522439 -4.292605 44.703278  0.000000 -0.661017 0.750371  0.657755 0.036494 0
0  9.779421 -11.400393 38.441818  0.000000 -0.661021 0.750367  0.662082 0.196010 0
0  9.779420 -4.448181 44.566231  0.000000 -0.661018 0.750370  0.662082 0.039985 0
ConsolePanelLoadingBay
0  9.522439 -4.292605 44.703278  0.000000 -0.661017 0.750371  0.657755 0.036494 0
0  9.779420 -4.448181 44.566231  0.000000 -0.661018 0.750370  0.662082 0.039985 0
0  11.338402 -3.277334 45.597664  0.000000 -0.661017 0.750371  0.688336 0.013708 0
ConsolePanelLoadingBay
0  11.130994 -3.086694 45.765602  -0.000000 -0.661018 0.750370  0.684843 0.009430 0
0  9.522439 -4.292605 44.703278  0.000000 -0.661017 0.750371  0.657755 0.036494 0
0  11.338402 -3.277334 45.597664  0.000000 -0.661017 0.750371  0.688336 0.013708 0
ConsolePanelLoadingBay
0  11.130994 -3.086694 45.765602  -0.000000 -0.661018 0.750370  0.684843 0.009430 0
0  11.338402 -3.277334 45.597664  0.000000 -0.661017 0.750371  0.688336 0.013708 0
0  20.988022 -3.277334 45.597664  0.000004 -0.661017 0.750371  0.850836 0.013708 0
ConsolePanelLoadingBay
0  20.988022 -3.277334 45.597664  0.000004 -0.661017 0.750371  0.850836 0.013708 0
0  21.195429 -3.086693 45.765602  0.000006 -0.661018 0.750370  0.854329 0.009430 0
0  11.130994 -3.086694 45.765602  -0.000000 -0.661018 0.750370  0.684843 0.009430 0
ConsolePanelLoadingBay
0  20.988022 -3.277334 45.597664  0.000004 -0.661017 0.750371  0.850836 0.013708 0
0  22.558969 -4.448180 44.566231  0.000000 -0.661020 0.750368  0.877291 0.039985 0
0  21.195429 -3.086693 45.765602  0.000006 -0.661018 0.750370  0.854329 0.009430 0
ConsolePanelLoadingBay
0  22.558969 -4.448180 44.566231  0.000000 -0.661020 0.750368  0.877291 0.039985 0
0  22.792019 -4.292605 44.703278  0.000000 -0.661020 0.750369  0.881216 0.036494 0
0  21.195429 -3.086693 45.765602  0.000006 -0.661018 0.750370  0.854329 0.009430 0
ConsolePanelLoadingBay
0  22.558969 -4.448180 44.566231  0.000000 -0.661020 0.750368  0.877291 0.039985 0
0  22.792019 -11.400392 38.441818  0.000000 -0.661025 0.750364  0.881216 0.196010 0
0  22.792019 -4.292605 44.703278  0.000000 -0.661020 0.750369  0.881216 0.036494 0
ConsolePanelLoadingBay
0  22.558969 -4.448180 44.566231  0.000000 -0.661020 0.750368  0.877291 0.039985 0
0  22.558969 -11.400392 38.441818  0.000000 -0.661025 0.750363  0.877291 0.196010 0
0  22.792019 -11.400392 38.441818  0.000000 -0.661025 0.750364  0.881216 0.196010 0
ConsolePanelLoadingBay
0  9.650929 -9.779115 36.213051  0.999708 0.010200 -0.021889  0.908078 0.018652 0
0  9.779420 -4.448181 44.566231  0.923963 -0.287001 -0.252830  0.977124 0.225290 0
0  9.779421 -11.400393 38.441818  1.000000 0.000001 -0.000003  0.977124 0.006875 0
ConsolePanelLoadingBay
0  9.650929 -9.779115 36.213051  0.999708 0.010200 -0.021889  0.908078 0.018652 0
0  9.779420 -2.642141 42.516075  0.923966 -0.286998 -0.252824  0.908078 0.225290 0
0  9.779420 -4.448181 44.566231  0.923963 -0.287001 -0.252830  0.977124 0.225290 0
ConsolePanelLoadingBay
0  9.779420 -2.642141 42.516075  0.923966 -0.286998 -0.252824  0.908078 0.225290 0
0  11.338402 -3.277334 45.597664  0.382896 -0.693184 -0.610645  0.977124 0.273501 0
0  9.779420 -4.448181 44.566231  0.923963 -0.287001 -0.252830  0.977124 0.225290 0
ConsolePanelLoadingBay
0  9.779420 -2.642141 42.516075  0.923966 -0.286998 -0.252824  0.908078 0.225290 0
0  11.338402 -1.471295 43.547508  0.382896 -0.693184 -0.610644  0.908078 0.273501 0
0  11.338402 -3.277334 45.597664  0.382896 -0.693184 -0.610645  0.977124 0.273501 0
ConsolePanelLoadingBay
0  11.338402 -1.471295 43.547508  0.382896 -0.693184 -0.610644  0.908078 0.273501 0
0  20.988022 -3.277334 45.597664  -0.381131 -0.693731 -0.611128  0.977124 0.509001 0
0  11.338402 -3.277334 45.597664  0.382896 -0.693184 -0.610645  0.977124 0.273501 0
ConsolePanelLoadingBay
0  11.338402 -1.471295 43.547508  0.382896 -0.693184 -0.610644  0.908078 0.273501 0
0  20.988022 -1.471294 43.547508  -0.381130 -0.693731 -0.611128  0.908078 0.509001 0
0  20.988022 -3.277334 45.597664  -0.381131 -0.693731 -0.611128  0.977124 0.509001 0
ConsolePanelLoadingBay
0  20.988022 -1.471294 43.547508  -0.381130 -0.693731 -0.611128  0.908078 0.509001 0
0  22.558969 -4.448180 44.566231  -0.923228 -0.288331 -0.253999  0.977124 0.557274 0
0  20.988022 -3.277334 45.597664  -0.381131 -0.693731 -0.611128  0.977124 0.509001 0
ConsolePanelLoadingBay
0  20.988022 -1.471294 43.547508  -0.381130 -0.693731 -0.611128  0.908078 0.509001 0
0  22.558969 -2.642140 42.516075  -0.923232 -0.288325 -0.253991  0.908078 0.557274 0
0  22.558969 -4.448180 44.566231  -0.923228 -0.288331 -0.253999  0.977124 0.557274 0
ConsolePanelLoadingBay
0  22.558969 -2.642140 42.516075  -0.923232 -0.288325 -0.253991  0.908078 0.557274 0
0  22.558969 -11.400392 38.441818  -1.000000 0.000007 -0.000014  0.977124 0.775134 0
0  22.558969 -4.448180 44.566231  -0.923228 -0.288331 -0.253999  0.977124 0.557274 0
ConsolePanelLoadingBay
0  22.558969 -2.642140 42.516075  -0.923232 -0.288325 -0.253991  0.908078 0.557274 0
0  22.675495 -9.762594 36.230400  -0.999760 0.009240 -0.019867  0.908078 0.763505 0
0  22.558969 -11.400392 38.441818  -1.000000 0.000007 -0.000014  0.977124 0.775134 0
ConsolePanelLoadingBay
0  6.873425 -0.252215 44.656425  -0.382689 -0.607040 0.696456  0.007232 0.992497 0
0  31.518963 -12.153598 34.287483  -0.000000 -0.656897 0.753981  0.295072 0.808145 0
0  31.518963 -0.252214 44.656425  -0.000000 -0.656897 0.753981  0.295072 0.992497 0
ConsolePanelLoadingBay
0  6.873425 -0.252215 44.656425  -0.382689 -0.607040 0.696456  0.007232 0.992497 0
0  6.881718 -12.153599 34.287483  -0.270599 -0.811000 0.518705  0.007329 0.808145 0
0  31.518963 -12.153598 34.287483  -0.000000 -0.656897 0.753981  0.295072 0.808145 0
ConsolePanelLoadingBay
0  6.685173 0.013247 44.638161  -0.923891 -0.251727 0.288199  0.005034 0.994695 0
0  6.881718 -12.153599 34.287483  -0.270599 -0.811000 0.518705  0.007329 0.808145 0
0  6.873425 -0.252215 44.656425  -0.382689 -0.607040 0.696456  0.007232 0.992497 0
ConsolePanelLoadingBay
0  6.685173 0.013247 44.638161  -0.923891 -0.251727 0.288199  0.005034 0.994695 0
0  6.693663 -12.171866 34.022022  -0.733619 -0.628594 0.258210  0.005133 0.805947 0
0  6.881718 -12.153599 34.287483  -0.270599 -0.811000 0.518705  0.007329 0.808145 0
ConsolePanelLoadingBay
0  6.693663 -12.171866 34.022022  -0.733619 -0.628594 0.258210  0.005133 0.805947 0
0  31.518963 -12.153598 34.287483  0.408242 -0.844169 0.347443  0.295072 0.808145 0
0  6.881718 -12.153599 34.287483  -0.270599 -0.811000 0.518705  0.007329 0.808145 0
ConsolePanelLoadingBay
0  6.693663 -12.171866 34.022022  -0.733619 -0.628594 0.258210  0.005133 0.805947 0
0  31.707117 -12.171865 34.022022  0.408243 -0.844168 0.347444  0.297269 0.805947 0
0  31.518963 -12.153598 34.287483  0.408242 -0.844169 0.347443  0.295072 0.808145 0
ConsolePanelLoadingBay
0  31.707117 -12.171865 34.022022  0.408243 -0.844168 0.347444  0.297269 0.805947 0
0  31.518963 -0.252214 44.656425  0.707098 -0.464501 0.533153  0.295072 0.992497 0
0  31.518963 -12.153598 34.287483  0.408242 -0.844169 0.347443  0.295072 0.808145 0
ConsolePanelLoadingBay
0  31.707117 -12.171865 34.022022  0.408243 -0.844168 0.347444  0.297269 0.805947 0
0  31.707117 0.013248 44.638161  0.707098 -0.464501 0.533153  0.297269 0.994695 0
0  31.518963 -0.252214 44.656425  0.707098 -0.464501 0.533153  0.295072 0.992497 0
ConsolePanelLoadingBay
0  1.354105 -4.280208 33.739223  0.000000 -0.394990 0.918686  0.545997 0.441320 0
0  2.702547 -4.280208 33.739223  0.000000 -0.394990 0.918686  0.555289 0.441320 0
0  2.028326 -3.660799 34.005539  0.000000 -0.394990 0.918686  0.550643 0.441320 0
ConsolePanelLoadingBay
0  -7.077400 -0.412212 41.585800  -0.948061 0.304497 0.091994  0.532731 0.581402 0
0  -7.566072 -2.483757 41.016247  -0.976789 0.204647 0.063262  0.603896 0.581402 0
0  -7.055824 -1.794917 46.346657  -0.906714 -0.409151 0.102299  0.623967 0.739307 0
ConsolePanelLoadingBay
0  -7.077400 -0.412212 41.585800  -0.948061 0.304497 0.091994  0.532731 0.581402 0
0  -7.055824 -1.794917 46.346657  -0.906714 -0.409151 0.102299  0.623967 0.739307 0
0  -6.790371 -0.213885 45.649971  -0.976463 0.215637 -0.004648  0.525744 0.707117 0
ConsolePanelLoadingBay
0  -7.055824 -1.794917 46.346657  -0.906714 -0.409151 0.102299  0.623967 0.739307 0
0  -7.055824 -0.350259 48.073280  -0.907185 -0.322710 0.269951  0.623967 0.780440 0
0  -6.790371 -0.213885 45.649971  -0.976463 0.215637 -0.004648  0.525744 0.707117 0
ConsolePanelLoadingBay
0  -7.927613 -2.375867 39.943520  0.028956 -0.998804 -0.039402  0.602518 0.547746 0
0  -5.349689 -2.342274 40.988312  0.028983 -0.998804 -0.039388  0.693953 0.578898 0
0  -7.566072 -2.483757 41.016247  0.028976 -0.998804 -0.039393  0.603896 0.581402 0
ConsolePanelLoadingBay
0  -7.927613 -2.375867 39.943520  0.028956 -0.998804 -0.039402  0.602518 0.547746 0
0  -4.838610 -2.362569 39.949642  0.028971 -0.998804 -0.039382  0.690502 0.547030 0
0  -5.349689 -2.342274 40.988312  0.028983 -0.998804 -0.039388  0.693953 0.578898 0
ConsolePanelLoadingBay
0  -8.465631 -2.333914 38.226929  0.019394 -0.998161 -0.057434  0.601675 0.498267 0
0  -4.838610 -2.362569 39.949642  0.028971 -0.998804 -0.039382  0.690502 0.547030 0
0  -7.927613 -2.375867 39.943520  0.028956 -0.998804 -0.039402  0.602518 0.547746 0
ConsolePanelLoadingBay
0  -8.465631 -2.333914 38.226929  0.019394 -0.998161 -0.057434  0.601675 0.498267 0
0  -4.362298 -2.212914 38.315010  0.019393 -0.998161 -0.057431  0.691345 0.498267 0
0  -4.838610 -2.362569 39.949642  0.028971 -0.998804 -0.039382  0.690502 0.547030 0
ConsolePanelLoadingBay
0  -31.791149 7.909286 0.001322  -1.000000 0.000127 -0.000755  0.505119 0.003748 0
0  -31.815548 4.222676 39.711563  -1.000000 0.000193 -0.000596  0.534900 0.324501 0
0  -31.815548 7.909285 39.711563  -1.000000 0.000000 -0.000614  0.505120 0.324505 0
ConsolePanelLoadingBay
0  -31.791149 7.909286 0.001322  -1.000000 0.000127 -0.000755  0.505119 0.003748 0
0  -31.815548 -7.868246 29.163876  -1.000000 0.000388 -0.000627  0.631232 0.239292 0
0  -31.815548 4.222676 39.711563  -1.000000 0.000193 -0.000596  0.534900 0.324501 0
ConsolePanelLoadingBay
0  -31.791149 7.909286 0.001322  -1.000000 0.000127 -0.000755  0.505119 0.003748 0
0  -31.791149 -7.876826 0.001322  -1.000000 0.000000 -0.000837  0.631300 0.003734 0
0  -31.815548 -7.868246 29.163876  -1.000000 0.000388 -0.000627  0.631232 0.239292 0
ConsolePanelLoadingBay
0  0.339039 -0.079800 36.831554  -0.023021 -0.656054 0.754363  0.534400 0.417736 0
0  3.707134 2.577397 39.129753  -0.023080 -0.655995 0.754413  0.564954 0.451467 0
0  0.361558 2.617892 39.062485  -0.023355 -0.656049 0.754357  0.535292 0.450627 0
ConsolePanelLoadingBay
0  0.339039 -0.079800 36.831554  -0.023021 -0.656054 0.754363  0.534400 0.417736 0
0  3.876318 2.302247 38.965012  -0.000068 -0.656196 0.754590  0.568521 0.448106 0
0  3.707134 2.577397 39.129753  -0.023080 -0.655995 0.754413  0.564954 0.451467 0
ConsolePanelLoadingBay
0  0.339039 -0.079800 36.831554  -0.023021 -0.656054 0.754363  0.534400 0.417736 0
0  3.876318 0.021083 36.981113  -0.000007 -0.656248 0.754545  0.568521 0.419416 0
0  3.876318 2.302247 38.965012  -0.000068 -0.656196 0.754590  0.568521 0.448106 0
ConsolePanelLoadingBay
0  0.339039 -0.079800 36.831554  -0.023021 -0.656054 0.754363  0.534400 0.417736 0
0  3.488158 -0.541330 36.304085  -0.023015 -0.656116 0.754309  0.564954 0.416055 0
0  3.876318 0.021083 36.981113  -0.000007 -0.656248 0.754545  0.568521 0.419416 0
ConsolePanelLoadingBay
0  -31.562456 -8.044420 0.001322  0.000000 -1.000000 0.000173  0.002243 0.002623 0
0  6.693663 -8.039357 29.278767  0.000000 -1.000000 0.000173  0.300505 0.279089 0
0  -31.562456 -8.039358 29.278767  0.000000 -1.000000 0.000173  0.002243 0.279089 0
ConsolePanelLoadingBay
0  -31.562456 -8.044420 0.001322  0.000000 -1.000000 0.000173  0.002243 0.002623 0
0  31.707117 -8.039356 29.278767  0.000000 -1.000000 0.000173  0.496511 0.279089 0
0  6.693663 -8.039357 29.278767  0.000000 -1.000000 0.000173  0.300505 0.279089 0
ConsolePanelLoadingBay
0  -31.562456 -8.044420 0.001322  0.000000 -1.000000 0.000173  0.002243 0.002623 0
0  31.707117 -8.044418 0.001322  0.000000 -1.000000 0.000173  0.496511 0.002623 0
0  31.707117 -8.039356 29.278767  0.000000 -1.000000 0.000173  0.496511 0.279089 0
ConsolePanelLoadingBay
0  1.304161 -0.398880 37.180763  -0.997960 0.048170 0.041893  0.557492 0.425126 0
0  1.490600 1.651549 39.264404  -1.000000 0.000019 0.000021  0.555454 0.443094 0
0  1.490600 2.082246 38.769173  -1.000000 0.000021 0.000019  0.559529 0.443094 0
ConsolePanelLoadingBay
0  31.951651 7.909287 39.711563  1.000000 -0.000000 0.000000  0.505120 0.324505 0
0  31.951651 -7.876823 0.001322  1.000000 -0.000000 0.000000  0.631300 0.003734 0
0  31.951651 7.909289 0.001322  1.000000 0.000000 0.000000  0.505119 0.003748 0
ConsolePanelLoadingBay
0  31.951651 7.909287 39.711563  1.000000 -0.000000 0.000000  0.505120 0.324505 0
0  31.951651 -7.868243 29.163876  1.000000 -0.000001 0.000000  0.631232 0.239292 0
0  31.951651 -7.876823 0.001322  1.000000 -0.000000 0.000000  0.631300 0.003734 0
ConsolePanelLoadingBay
0  31.951651 7.909287 39.711563  1.000000 -0.000000 0.000000  0.505120 0.324505 0
0  31.951651 4.222679 39.711563  1.000000 0.000000 0.000000  0.534900 0.324501 0
0  31.951651 -7.868243 29.163876  1.000000 -0.000001 0.000000  0.631232 0.239292 0
ConsolePanelLoadingBay
0  2.702547 1.862115 39.064972  0.290326 0.626878 -0.723004  0.560189 0.445066 0
0  1.490600 2.082246 38.769173  0.000086 0.656245 -0.754548  0.540218 0.445066 0
0  2.028326 2.481523 39.331291  0.290326 0.626878 -0.723004  0.550204 0.445066 0
ConsolePanelLoadingBay
0  6.685173 4.145754 39.894901  -0.000000 0.000000 1.000000  0.198895 0.606907 0
0  -31.562456 8.045530 39.894901  -0.000000 0.000000 1.000000  0.498013 0.560706 0
0  -31.562456 4.145752 39.894901  0.000000 0.000000 1.000000  0.498013 0.606907 0
ConsolePanelLoadingBay
0  6.685173 4.145754 39.894901  -0.000000 0.000000 1.000000  0.198895 0.606907 0
0  31.707117 8.045532 39.894901  -0.000000 0.000000 1.000000  0.003209 0.560706 0
0  -31.562456 8.045530 39.894901  -0.000000 0.000000 1.000000  0.498013 0.560706 0
ConsolePanelLoadingBay
0  6.685173 4.145754 39.894901  -0.000000 0.000000 1.000000  0.198895 0.606907 0
0  31.707117 4.145755 39.894901  0.000000 0.000000 1.000000  0.003209 0.606907 0
0  31.707117 8.045532 39.894901  -0.000000 0.000000 1.000000  0.003209 0.560706 0
ConsolePanelLoadingBay
0  1.490600 2.082246 38.769173  -0.845833 0.402523 0.350059  0.559529 0.443094 0
0  1.490600 1.651549 39.264404  -0.845833 0.402521 0.350061  0.555454 0.443094 0
0  2.028326 2.481523 39.331291  -0.779963 0.472223 0.410687  0.558495 0.446912 0
ConsolePanelLoadingBay
0  -27.431280 -1.571638 34.913498  0.044854 -0.603878 0.795814  0.051480 0.713065 0
0  -30.184511 -0.706747 35.655560  0.001804 -0.615414 0.788202  0.021642 0.725425 0
0  -27.758726 -3.518157 33.454903  -0.011040 -0.648958 0.760744  0.047860 0.686847 0
ConsolePanelLoadingBay
0  -30.184511 -0.706747 35.655560  0.001804 -0.615414 0.788202  0.021642 0.725425 0
0  -31.658623 -2.173478 34.375790  -0.250882 -0.635242 0.730429  0.005663 0.704326 0
0  -27.758726 -3.518157 33.454903  -0.011040 -0.648958 0.760744  0.047860 0.686847 0
ConsolePanelLoadingBay
0  -30.184492 -3.642160 33.098495  -0.067184 -0.707558 0.703454  0.021642 0.683227 0
0  -27.758726 -3.518157 33.454903  -0.011040 -0.648958 0.760744  0.047860 0.686847 0
0  -31.658623 -2.173478 34.375790  -0.250882 -0.635242 0.730429  0.005663 0.704326 0
ConsolePanelLoadingBay
0  9.650929 -9.779115 36.213051  0.000000 -0.808675 -0.588256  0.908078 0.018652 0
0  9.779421 -11.400393 38.441818  0.000007 -0.750392 -0.660993  0.977124 0.006875 0
0  9.522440 -11.400393 38.441818  -0.000003 -0.750424 -0.660957  0.977124 0.030429 0
ConsolePanelLoadingBay
0  1.490600 1.651549 39.264404  0.000084 -0.229950 0.973202  0.545544 0.442047 0
0  2.702547 1.862115 39.064972  0.193169 -0.202517 0.960038  0.555528 0.442047 0
0  2.028326 2.481523 39.331291  0.193169 -0.202517 0.960038  0.550536 0.442047 0
ConsolePanelLoadingBay
0  22.675495 -9.762594 36.230400  0.000000 -0.803605 -0.595162  0.908078 0.763505 0
0  22.792019 -11.400392 38.441818  -0.000005 -0.750370 -0.661018  0.977124 0.751876 0
0  22.558969 -11.400392 38.441818  -0.000004 -0.750370 -0.661018  0.977124 0.775134 0
end
